{
  "title" : "",
  "description" : "",
  "author" : "",
  "width" : 1920.0,
  "height" : 1080.0,
  "version" : "2.0",
  "editRate" : 30,
  "authoringClientName" :  {
    "name" : "Camtasia",
    "platform" : "Windows",
    "version" : "18.0"
  },
  "sourceBin" : [
    {
      "id" : 1,
      "src" : "C:\\Users\\rhigh\\OneDrive\\Documents\\Camtasia\\Rec 04-29-19.trec",
      "rect" : [0, 0, 1920, 1080],
      "lastMod" : "20190429T151934",
      "sourceTracks" : [
        {
          "range" : [0, 17500],
          "type" : 0,
          "editRate" : 30,
          "trackRect" : [0, 0, 1920, 1080],
          "sampleRate" : 20,
          "bitDepth" : 0,
          "numChannels" : 0,
          "metaData" : "Rec 04-29-19.trec;"
        },
        {
          "range" : [0, 25711616],
          "type" : 2,
          "editRate" : 44100,
          "trackRect" : [0, 0, 0, 0],
          "sampleRate" : 44100,
          "bitDepth" : 16,
          "numChannels" : 2,
          "metaData" : ""
        },
        {
          "range" : [0, 25728000],
          "type" : 2,
          "editRate" : 44100,
          "trackRect" : [0, 0, 0, 0],
          "sampleRate" : 44100,
          "bitDepth" : 16,
          "numChannels" : 2,
          "metaData" : ""
        }
      ]
    },
    {
      "id" : 2,
      "src" : "C:\\Users\\rhigh\\Downloads\\tmpe7f77e7a\\Unit 3 - Financial Accounting Basics - Lesson 2 and 3.mp4",
      "rect" : [0, 0, 1280, 720],
      "lastMod" : "20170329T221348",
      "sourceTracks" : [
        {
          "range" : [0, 9466775553],
          "type" : 0,
          "editRate" : 10000000,
          "trackRect" : [0, 0, 1280, 720],
          "sampleRate" : "10000000/333333",
          "bitDepth" : 24,
          "numChannels" : 0,
          "metaData" : ""
        },
        {
          "range" : [0, 9466775553],
          "type" : 2,
          "editRate" : 10000000,
          "trackRect" : [0, 0, 0, 0],
          "sampleRate" : 44100,
          "bitDepth" : 16,
          "numChannels" : 2,
          "metaData" : ""
        }
      ]
    },
    {
      "id" : 3,
      "src" : "C:\\ProgramData\\TechSmith\\Camtasia Studio 18\\Library 4.0\\User Libraries\\Default\\03 No Diggity (feat. Dr. Dre & Queen.asset\\03 No Diggity (feat. Dr. Dre & Queen.m4a",
      "rect" : [0, 0, 0, 0],
      "lastMod" : "20180315T181345",
      "sourceTracks" : [
        {
          "range" : [0, 3046690249],
          "type" : 2,
          "editRate" : 10000000,
          "trackRect" : [0, 0, 0, 0],
          "sampleRate" : 44100,
          "bitDepth" : 16,
          "numChannels" : 2,
          "metaData" : ""
        }
      ],
      "metadata" : {
        "assetLibraryId" : "115b0ed2-7b39-4839-bb7e-df011809d426"
      }
    }
  ],
  "timeline" : {
    "id" : 4,
    "sceneTrack" : {
      "scenes" : [
        {
          "duration" : 645.266666666667,
          "title" : "",
          "type" : "",
          "csml" : {
            "tracks" : [
              {
                "trackIndex" : 0,
                "medias" : [
                  {
                    "id" : 5,
                    "_type" : "StitchedMedia",
                    "minMediaStart" : 0,
                    "attributes" : {
                      "ident" : "Rec 04-29-19",
                      "gain" : 1.0,
                      "mixToMono" : false
                    },
                    "parameters" : {
                      "volume" : 1.0,
                      "cursorOpacity" : 1.0,
                      "cursorScale" : 1.0
                    },
                    "medias" : [
                        {
                          "id" : 6,
                          "_type" : "UnifiedMedia",
                          "video" : 
                              {
                                "id" : 7,
                                "_type" : "ScreenVMFile",
                                "src" : 1,
                                "trackNumber" : 0,
                                "attributes" : {
                                  "ident" : "Rec 04-29-19"
                                },
                                "parameters" : {
                                  "cursorScale" : {
                                    "type" : "double",
                                    "defaultValue" : 0.0,
                                    "interp" : "linr"
                                  },
                                  "cursorOpacity" : {
                                    "type" : "double",
                                    "defaultValue" : 0.0,
                                    "interp" : "linr"
                                  }
                                },
                                "effects" : [

                                ],
                                "start" : 0,
                                "duration" : 2,
                                "mediaStart" : 0,
                                "mediaDuration" : 2,
                                "scalar" : 1,
                                "animationTracks" : {

                                }
                              },
                          "audio" : 
                              {
                                "id" : 8,
                                "_type" : "AMFile",
                                "src" : 1,
                                "trackNumber" : 2,
                                "attributes" : {
                                  "ident" : "",
                                  "sampleRate" : 44100,
                                  "bitDepth" : 16,
                                  "gain" : 1.0,
                                  "mixToMono" : false
                                },
                                  "channelNumber" : "0,1",
                                "effects" : [

                                ],
                                "start" : 0,
                                "duration" : 2,
                                "mediaStart" : 0,
                                "mediaDuration" : 2,
                                "scalar" : 1,
                                "animationTracks" : {

                                }
                              }
,
                          "start" : 0,
                          "duration" : 2,
                          "mediaStart" : 0,
                          "mediaDuration" : 17500,
                          "scalar" : 1,
                          "metadata" : {
                            "AutoAppliedSmartFocus" : "False",
                            "WinSubProjectDisplayName" : "",
                            "clipSpeedAttribute" : false
                          }
                        },
                        {
                          "id" : 9,
                          "_type" : "UnifiedMedia",
                          "video" : 
                              {
                                "id" : 10,
                                "_type" : "ScreenVMFile",
                                "src" : 1,
                                "trackNumber" : 0,
                                "attributes" : {
                                  "ident" : "Rec 04-29-19"
                                },
                                "parameters" : {
                                  "cursorScale" : {
                                    "type" : "double",
                                    "defaultValue" : 0.0,
                                    "interp" : "linr"
                                  },
                                  "cursorOpacity" : {
                                    "type" : "double",
                                    "defaultValue" : 0.0,
                                    "interp" : "linr"
                                  }
                                },
                                "effects" : [

                                ],
                                "start" : 2,
                                "duration" : 15921,
                                "mediaStart" : 265,
                                "mediaDuration" : 15921,
                                "scalar" : 1,
                                "animationTracks" : {

                                }
                              },
                          "audio" : 
                              {
                                "id" : 11,
                                "_type" : "AMFile",
                                "src" : 1,
                                "trackNumber" : 2,
                                "attributes" : {
                                  "ident" : "",
                                  "sampleRate" : 44100,
                                  "bitDepth" : 16,
                                  "gain" : 1.0,
                                  "mixToMono" : false
                                },
                                  "channelNumber" : "0,1",
                                "effects" : [

                                ],
                                "start" : 2,
                                "duration" : 15921,
                                "mediaStart" : 265,
                                "mediaDuration" : 15921,
                                "scalar" : 1,
                                "animationTracks" : {

                                }
                              }
,
                          "start" : 2,
                          "duration" : 15921,
                          "mediaStart" : 0,
                          "mediaDuration" : 17500,
                          "scalar" : 1,
                          "metadata" : {
                            "AutoAppliedSmartFocus" : "False",
                            "WinSubProjectDisplayName" : "",
                            "clipSpeedAttribute" : false
                          }
                        },
                        {
                          "id" : 12,
                          "_type" : "UnifiedMedia",
                          "video" : 
                              {
                                "id" : 13,
                                "_type" : "ScreenVMFile",
                                "src" : 1,
                                "trackNumber" : 0,
                                "attributes" : {
                                  "ident" : "Rec 04-29-19"
                                },
                                "parameters" : {
                                  "cursorScale" : {
                                    "type" : "double",
                                    "defaultValue" : 0.0,
                                    "interp" : "linr"
                                  },
                                  "cursorOpacity" : {
                                    "type" : "double",
                                    "defaultValue" : 0.0,
                                    "interp" : "linr"
                                  }
                                },
                                "effects" : [

                                ],
                                "start" : 15923,
                                "duration" : 1168,
                                "mediaStart" : 16332,
                                "mediaDuration" : 1168,
                                "scalar" : 1,
                                "animationTracks" : {

                                }
                              },
                          "audio" : 
                              {
                                "id" : 14,
                                "_type" : "AMFile",
                                "src" : 1,
                                "trackNumber" : 2,
                                "attributes" : {
                                  "ident" : "",
                                  "sampleRate" : 44100,
                                  "bitDepth" : 16,
                                  "gain" : 1.0,
                                  "mixToMono" : false
                                },
                                  "channelNumber" : "0,1",
                                "effects" : [

                                ],
                                "start" : 15923,
                                "duration" : 1168,
                                "mediaStart" : 16332,
                                "mediaDuration" : 1168,
                                "scalar" : 1,
                                "animationTracks" : {

                                }
                              }
,
                          "start" : 15923,
                          "duration" : 1168,
                          "mediaStart" : 0,
                          "mediaDuration" : 17500,
                          "scalar" : 1,
                          "metadata" : {
                            "AutoAppliedSmartFocus" : "False",
                            "WinSubProjectDisplayName" : "",
                            "clipSpeedAttribute" : false
                          }
                        }
                    ],
                    "effects" : [

                    ],
                    "start" : 200,
                    "duration" : 5075,
                    "mediaStart" : 0,
                    "mediaDuration" : 5075,
                    "scalar" : 1,
                    "metadata" : {
                      "AutoAppliedSmartFocus" : "False",
                      "WinSubProjectDisplayName" : "",
                      "clipSpeedAttribute" : false
                    },
                    "animationTracks" : {

                    }
                  },
                  {
                    "id" : 15,
                    "_type" : "StitchedMedia",
                    "minMediaStart" : 0,
                    "attributes" : {
                      "ident" : "Rec 04-29-19",
                      "gain" : 1.0,
                      "mixToMono" : false
                    },
                    "parameters" : {
                      "volume" : 1.0,
                      "cursorOpacity" : 1.0,
                      "cursorScale" : 1.0
                    },
                    "medias" : [
                        {
                          "id" : 16,
                          "_type" : "UnifiedMedia",
                          "video" : 
                              {
                                "id" : 17,
                                "_type" : "ScreenVMFile",
                                "src" : 1,
                                "trackNumber" : 0,
                                "attributes" : {
                                  "ident" : "Rec 04-29-19"
                                },
                                "parameters" : {
                                  "cursorScale" : {
                                    "type" : "double",
                                    "defaultValue" : 0.0,
                                    "interp" : "linr"
                                  },
                                  "cursorOpacity" : {
                                    "type" : "double",
                                    "defaultValue" : 0.0,
                                    "interp" : "linr"
                                  }
                                },
                                "effects" : [

                                ],
                                "start" : 0,
                                "duration" : 16186,
                                "mediaStart" : 0,
                                "mediaDuration" : 16186,
                                "scalar" : 1,
                                "animationTracks" : {

                                }
                              },
                          "audio" : 
                              {
                                "id" : 18,
                                "_type" : "AMFile",
                                "src" : 1,
                                "trackNumber" : 2,
                                "attributes" : {
                                  "ident" : "",
                                  "sampleRate" : 44100,
                                  "bitDepth" : 16,
                                  "gain" : 1.0,
                                  "mixToMono" : false
                                },
                                  "channelNumber" : "0,1",
                                "effects" : [

                                ],
                                "start" : 0,
                                "duration" : 16186,
                                "mediaStart" : 0,
                                "mediaDuration" : 16186,
                                "scalar" : 1,
                                "animationTracks" : {

                                }
                              }
,
                          "start" : 0,
                          "duration" : 16186,
                          "mediaStart" : 0,
                          "mediaDuration" : 17500,
                          "scalar" : 1,
                          "metadata" : {
                            "AutoAppliedSmartFocus" : "False",
                            "WinSubProjectDisplayName" : "",
                            "clipSpeedAttribute" : false
                          }
                        },
                        {
                          "id" : 19,
                          "_type" : "UnifiedMedia",
                          "video" : 
                              {
                                "id" : 20,
                                "_type" : "ScreenVMFile",
                                "src" : 1,
                                "trackNumber" : 0,
                                "attributes" : {
                                  "ident" : "Rec 04-29-19"
                                },
                                "parameters" : {
                                  "cursorScale" : {
                                    "type" : "double",
                                    "defaultValue" : 0.0,
                                    "interp" : "linr"
                                  },
                                  "cursorOpacity" : {
                                    "type" : "double",
                                    "defaultValue" : 0.0,
                                    "interp" : "linr"
                                  }
                                },
                                "effects" : [

                                ],
                                "start" : 16186,
                                "duration" : 1168,
                                "mediaStart" : 16332,
                                "mediaDuration" : 1168,
                                "scalar" : 1,
                                "animationTracks" : {

                                }
                              },
                          "audio" : 
                              {
                                "id" : 21,
                                "_type" : "AMFile",
                                "src" : 1,
                                "trackNumber" : 2,
                                "attributes" : {
                                  "ident" : "",
                                  "sampleRate" : 44100,
                                  "bitDepth" : 16,
                                  "gain" : 1.0,
                                  "mixToMono" : false
                                },
                                  "channelNumber" : "0,1",
                                "effects" : [

                                ],
                                "start" : 16186,
                                "duration" : 1168,
                                "mediaStart" : 16332,
                                "mediaDuration" : 1168,
                                "scalar" : 1,
                                "animationTracks" : {

                                }
                              }
,
                          "start" : 16186,
                          "duration" : 1168,
                          "mediaStart" : 0,
                          "mediaDuration" : 17500,
                          "scalar" : 1,
                          "metadata" : {
                            "AutoAppliedSmartFocus" : "False",
                            "WinSubProjectDisplayName" : "",
                            "clipSpeedAttribute" : false
                          }
                        }
                    ],
                    "effects" : [

                    ],
                    "start" : 7633,
                    "duration" : 11725,
                    "mediaStart" : 5338,
                    "mediaDuration" : 11725,
                    "scalar" : 1,
                    "metadata" : {
                      "AutoAppliedSmartFocus" : "False",
                      "WinSubProjectDisplayName" : "",
                      "clipSpeedAttribute" : false
                    },
                    "animationTracks" : {

                    }
                  }
                ]
              },
              {
                "trackIndex" : 1,
                "medias" : [
                  {
                    "id" : 22,
                    "_type" : "StitchedMedia",
                    "minMediaStart" : 0,
                    "attributes" : {
                      "ident" : "Rec 04-29-19",
                      "gain" : 1.0,
                      "mixToMono" : false
                    },
                    "parameters" : {
                      "volume" : 2.75510204081633,
                      "cursorOpacity" : 1.0,
                      "cursorScale" : 1.0
                    },
                    "medias" : [
                        {
                          "id" : 23,
                          "_type" : "AMFile",
                          "src" : 1,
                          "trackNumber" : 1,
                          "attributes" : {
                            "ident" : "Rec 04-29-19",
                            "sampleRate" : 44100,
                            "bitDepth" : 16,
                            "gain" : 1.0,
                            "mixToMono" : false
                          },
                            "channelNumber" : "0,1",
                          "effects" : [

                          ],
                          "start" : 0,
                          "duration" : 2,
                          "mediaStart" : 0,
                          "mediaDuration" : 2,
                          "scalar" : 1,
                          "metadata" : {
                            "WinSubProjectDisplayName" : "",
                            "clipSpeedAttribute" : false
                          },
                          "animationTracks" : {

                          }
                        },
                        {
                          "id" : 24,
                          "_type" : "AMFile",
                          "src" : 1,
                          "trackNumber" : 1,
                          "attributes" : {
                            "ident" : "Rec 04-29-19",
                            "sampleRate" : 44100,
                            "bitDepth" : 16,
                            "gain" : 1.0,
                            "mixToMono" : false
                          },
                            "channelNumber" : "0,1",
                          "effects" : [

                          ],
                          "start" : 2,
                          "duration" : 15921,
                          "mediaStart" : 265,
                          "mediaDuration" : 15921,
                          "scalar" : 1,
                          "metadata" : {
                            "WinSubProjectDisplayName" : "",
                            "clipSpeedAttribute" : false
                          },
                          "animationTracks" : {

                          }
                        },
                        {
                          "id" : 25,
                          "_type" : "AMFile",
                          "src" : 1,
                          "trackNumber" : 1,
                          "attributes" : {
                            "ident" : "Rec 04-29-19",
                            "sampleRate" : 44100,
                            "bitDepth" : 16,
                            "gain" : 1.0,
                            "mixToMono" : false
                          },
                            "channelNumber" : "0,1",
                          "effects" : [

                          ],
                          "start" : 15923,
                          "duration" : 1159,
                          "mediaStart" : 16332,
                          "mediaDuration" : 1159,
                          "scalar" : 1,
                          "metadata" : {
                            "WinSubProjectDisplayName" : "",
                            "clipSpeedAttribute" : false
                          },
                          "animationTracks" : {

                          }
                        }
                    ],
                    "effects" : [

                    ],
                    "start" : 200,
                    "duration" : 5075,
                    "mediaStart" : 0,
                    "mediaDuration" : 5075,
                    "scalar" : 1,
                    "metadata" : {
                      "WinSubProjectDisplayName" : "",
                      "clipSpeedAttribute" : false
                    },
                    "animationTracks" : {

                    }
                  },
                  {
                    "id" : 26,
                    "_type" : "UnifiedMedia",
                    "video" : 
                        {
                          "id" : 27,
                          "_type" : "VMFile",
                          "src" : 2,
                          "trackNumber" : 0,
                          "attributes" : {
                            "ident" : "Unit 3 - Financial Accounting Basics - Lesson 2 and 3"
                          },
                          "parameters" : {
                            "translation0" : 1.35401023726445e-10,
                            "translation1" : 7.61559704187675e-11,
                            "scale0" : 1.50000000000048,
                            "scale1" : 1.50000000000048
                          },
                          "effects" : [

                          ],
                          "start" : 5275,
                          "duration" : 2358,
                          "mediaStart" : 13301,
                          "mediaDuration" : 2358,
                          "scalar" : 1,
                          "animationTracks" : {

                          }
                        },
                    "audio" : 
                        {
                          "id" : 28,
                          "_type" : "AMFile",
                          "src" : 2,
                          "trackNumber" : 1,
                          "attributes" : {
                            "ident" : "",
                            "sampleRate" : 44100,
                            "bitDepth" : 16,
                            "gain" : 1.0,
                            "mixToMono" : false
                          },
                            "channelNumber" : "0,1",
                          "effects" : [

                          ],
                          "start" : 5275,
                          "duration" : 2358,
                          "mediaStart" : 13301,
                          "mediaDuration" : 2358,
                          "scalar" : 1,
                          "animationTracks" : {

                          }
                        }
,
                    "start" : 5275,
                    "duration" : 2358,
                    "mediaStart" : 0,
                    "mediaDuration" : 28400,
                    "scalar" : 1,
                    "metadata" : {
                      "WinSubProjectDisplayName" : "",
                      "clipSpeedAttribute" : false,
                      "default-scale0" : 1.0,
                      "default-scale1" : 1.0,
                      "default-translation0" : 0.0,
                      "default-translation1" : 0.0
                    }
                  },
                  {
                    "id" : 29,
                    "_type" : "StitchedMedia",
                    "minMediaStart" : 0,
                    "attributes" : {
                      "ident" : "Rec 04-29-19",
                      "gain" : 1.0,
                      "mixToMono" : false
                    },
                    "parameters" : {
                      "volume" : 2.75510204081633,
                      "cursorOpacity" : 1.0,
                      "cursorScale" : 1.0
                    },
                    "medias" : [
                        {
                          "id" : 30,
                          "_type" : "AMFile",
                          "src" : 1,
                          "trackNumber" : 1,
                          "attributes" : {
                            "ident" : "Rec 04-29-19",
                            "sampleRate" : 44100,
                            "bitDepth" : 16,
                            "gain" : 1.0,
                            "mixToMono" : false
                          },
                            "channelNumber" : "0,1",
                          "effects" : [

                          ],
                          "start" : 0,
                          "duration" : 16186,
                          "mediaStart" : 0,
                          "mediaDuration" : 16186,
                          "scalar" : 1,
                          "metadata" : {
                            "WinSubProjectDisplayName" : "",
                            "clipSpeedAttribute" : false
                          },
                          "animationTracks" : {

                          }
                        },
                        {
                          "id" : 31,
                          "_type" : "AMFile",
                          "src" : 1,
                          "trackNumber" : 1,
                          "attributes" : {
                            "ident" : "Rec 04-29-19",
                            "sampleRate" : 44100,
                            "bitDepth" : 16,
                            "gain" : 1.0,
                            "mixToMono" : false
                          },
                            "channelNumber" : "0,1",
                          "effects" : [

                          ],
                          "start" : 16186,
                          "duration" : 1159,
                          "mediaStart" : 16332,
                          "mediaDuration" : 1159,
                          "scalar" : 1,
                          "metadata" : {
                            "WinSubProjectDisplayName" : "",
                            "clipSpeedAttribute" : false
                          },
                          "animationTracks" : {

                          }
                        }
                    ],
                    "effects" : [

                    ],
                    "start" : 7633,
                    "duration" : 11725,
                    "mediaStart" : 5338,
                    "mediaDuration" : 11725,
                    "scalar" : 1,
                    "metadata" : {
                      "WinSubProjectDisplayName" : "",
                      "clipSpeedAttribute" : false
                    },
                    "animationTracks" : {

                    }
                  }
                ]
              },
              {
                "trackIndex" : 2,
                "medias" : [
                  {
                    "id" : 32,
                    "_type" : "AMFile",
                    "src" : 3,
                    "trackNumber" : 0,
                    "attributes" : {
                      "ident" : "03 No Diggity (feat. Dr. Dre & Queen",
                      "sampleRate" : 44100,
                      "bitDepth" : 16,
                      "gain" : 1.0,
                      "mixToMono" : false
                    },
                      "channelNumber" : "0,1",
                    "parameters" : {
                      "volume" : {
                        "type" : "double",
                        "keyframes" : [
                          {
                            "endTime" : 0,
                            "time" : 0,
                            "value" : 0.796703296703297,
                            "duration" : 0
                          },
                          {
                            "endTime" : 110,
                            "time" : 110,
                            "value" : 0.796703296703297,
                            "duration" : 0
                          },
                          {
                            "endTime" : 200,
                            "time" : 200,
                            "value" : 0.0,
                            "duration" : 0
                          },
                          {
                            "endTime" : 201,
                            "time" : 201,
                            "value" : 1.0,
                            "duration" : 0
                          }
                        ]
                      }
                    },
                    "effects" : [

                    ],
                    "start" : 0,
                    "duration" : 200,
                    "mediaStart" : 0,
                    "mediaDuration" : 200,
                    "scalar" : 1,
                    "metadata" : {
                      "WinSubProjectDisplayName" : "",
                      "clipSpeedAttribute" : false
                    },
                    "animationTracks" : {

                    }
                  }
                ]
              },
              {
                "trackIndex" : 3,
                "medias" : [
                  {
                    "id" : 33,
                    "_type" : "Group",
                    "parameters" : {
                      "translation1" : {
                        "type" : "double",
                        "defaultValue" : 1.24256610420628,
                        "interp" : "eioe"
                      },
                      "volume" : 1.0
                    },
                    "tracks" : [
                      {
                        "trackIndex" : 0,
                        "medias" : [
                          {
                            "id" : 34,
                            "_type" : "Group",
                            "parameters" : {
                              "translation0" : {
                                "type" : "double",
                                "defaultValue" : 3.04574968465363,
                                "interp" : "eioe"
                              },
                              "translation1" : {
                                "type" : "double",
                                "defaultValue" : 1.24257818404124,
                                "interp" : "eioe"
                              },
                              "volume" : 1.0
                            },
                            "tracks" : [
                              {
                                "trackIndex" : 0,
                                "medias" : [
                                  {
                                    "id" : 35,
                                    "_type" : "Callout",
                                    "def" : {
                                      "kind" : "remix",
                                      "shape" : "shape-rectangle",
                                      "style" : "urban",
                                      "fill-color-blue" : {
                                        "type" : "double",
                                        "defaultValue" : 0.313725490196078,
                                        "interp" : "linr"
                                      },
                                      "fill-color-green" : {
                                        "type" : "double",
                                        "defaultValue" : 0.325490196078431,
                                        "interp" : "linr"
                                      },
                                      "fill-color-opacity" : {
                                        "type" : "double",
                                        "defaultValue" : 1.0,
                                        "interp" : "linr"
                                      },
                                      "fill-color-red" : {
                                        "type" : "double",
                                        "defaultValue" : 0.937254901960784,
                                        "interp" : "linr"
                                      },
                                      "height" : {
                                        "type" : "double",
                                        "defaultValue" : 40.2884495832093,
                                        "interp" : "linr",
                                        "keyframes" : [
                                          {
                                            "endTime" : 24,
                                            "time" : 3,
                                            "value" : 771.955116249955,
                                            "duration" : 21
                                          },
                                          {
                                            "endTime" : 91,
                                            "time" : 73,
                                            "value" : 16.1008285755553,
                                            "duration" : 18
                                          }
                                        ]
                                      },
                                      "stroke-color-blue" : {
                                        "type" : "double",
                                        "defaultValue" : 1.0,
                                        "interp" : "linr"
                                      },
                                      "stroke-color-green" : {
                                        "type" : "double",
                                        "defaultValue" : 1.0,
                                        "interp" : "linr"
                                      },
                                      "stroke-color-opacity" : {
                                        "type" : "double",
                                        "defaultValue" : 1.0,
                                        "interp" : "linr"
                                      },
                                      "stroke-color-red" : {
                                        "type" : "double",
                                        "defaultValue" : 1.0,
                                        "interp" : "linr"
                                      },
                                      "stroke-width" : {
                                        "type" : "double",
                                        "defaultValue" : 0.0,
                                        "interp" : "linr"
                                      },
                                      "width" : {
                                        "type" : "double",
                                        "defaultValue" : 16.1008403359098,
                                        "interp" : "linr"
                                      },
                                      "fill-style" : "solid",
                                      "horizontal-alignment" : "center",
                                      "stroke-style" : "solid",
                                      "vertical-alignment" : "center",
                                      "textAttributes" : {
                                        "type" : "textAttributeList",
                                        "keyframes" : [
                                          {
                                            "endTime" : 0,
                                            "time" : 0,
                                            "value" : null,
                                            "duration" : 0
                                          }
                                        ]
                                      }
                                    },
                                    "attributes" : {
                                      "autoRotateText" : true
                                    },
                                    "parameters" : {
                                      "translation0" : {
                                        "type" : "double",
                                        "defaultValue" : -498.540727034867,
                                        "interp" : "eioe",
                                        "keyframes" : [
                                          {
                                            "endTime" : 24,
                                            "time" : 3,
                                            "value" : -498.540727034867,
                                            "duration" : 21
                                          },
                                          {
                                            "endTime" : 91,
                                            "time" : 73,
                                            "value" : -498.540727034867,
                                            "duration" : 18
                                          }
                                        ]
                                      },
                                      "translation1" : {
                                        "type" : "double",
                                        "defaultValue" : 612.631675088473,
                                        "interp" : "eioe",
                                        "keyframes" : [
                                          {
                                            "endTime" : 24,
                                            "time" : 3,
                                            "value" : 246.7983417551,
                                            "duration" : 21
                                          },
                                          {
                                            "endTime" : 91,
                                            "time" : 73,
                                            "value" : -131.128802082099,
                                            "duration" : 18
                                          }
                                        ]
                                      },
                                      "translation2" : {
                                        "type" : "double",
                                        "defaultValue" : -3.41060513164829e-10,
                                        "interp" : "eioe",
                                        "keyframes" : [
                                          {
                                            "endTime" : 24,
                                            "time" : 3,
                                            "value" : -3.41060513164829e-10,
                                            "duration" : 21
                                          },
                                          {
                                            "endTime" : 91,
                                            "time" : 73,
                                            "value" : -3.41060513164829e-10,
                                            "duration" : 18
                                          }
                                        ]
                                      }
                                    },
                                    "effects" : [

                                    ],
                                    "start" : 0,
                                    "duration" : 91,
                                    "mediaStart" : 0,
                                    "mediaDuration" : 91,
                                    "scalar" : 1,
                                    "metadata" : {
                                      "WinSubProjectDisplayName" : "",
                                      "clipSpeedAttribute" : false,
                                      "effectApplied" : "none"
                                    },
                                    "animationTracks" : {
                                      "visual" : [
                                        {
                                          "endTime" : 24,
                                          "duration" : 21,
                                          "range" : [ 3, 21],
                                          "interp" : "eioe"
                                        },
                                        {
                                          "endTime" : 91,
                                          "duration" : 18,
                                          "range" : [ 73, 18],
                                          "interp" : "eioe"
                                        }
                                      ]
                                    }
                                  }
                                ],
                                  "ident" : "",
                                  "audioMuted" : false,
                                  "videoHidden" : false,
                                  "metadata" : {
                                    "IsLocked" : "False",
                                    "WinTrackHeight" : "0",
                                    "trackHeight" : "48"
                                  }
                              },
                              {
                                "trackIndex" : 1,
                                "medias" : [
                                  {
                                    "id" : 36,
                                    "_type" : "Callout",
                                    "def" : {
                                      "kind" : "remix",
                                      "shape" : "shape-rectangle",
                                      "style" : "urban",
                                      "fill-color-blue" : {
                                        "type" : "double",
                                        "defaultValue" : 0.313725490196078,
                                        "interp" : "linr"
                                      },
                                      "fill-color-green" : {
                                        "type" : "double",
                                        "defaultValue" : 0.325490196078431,
                                        "interp" : "linr"
                                      },
                                      "fill-color-opacity" : {
                                        "type" : "double",
                                        "defaultValue" : 1.0,
                                        "interp" : "linr"
                                      },
                                      "fill-color-red" : {
                                        "type" : "double",
                                        "defaultValue" : 0.937254901960784,
                                        "interp" : "linr"
                                      },
                                      "height" : {
                                        "type" : "double",
                                        "defaultValue" : 16.1008378199663,
                                        "interp" : "linr",
                                        "keyframes" : [
                                          {
                                            "endTime" : 65,
                                            "time" : 44,
                                            "value" : 1543.18227029706,
                                            "duration" : 21
                                          },
                                          {
                                            "endTime" : 130,
                                            "time" : 112,
                                            "value" : 14.8489369634844,
                                            "duration" : 18
                                          }
                                        ]
                                      },
                                      "stroke-color-blue" : {
                                        "type" : "double",
                                        "defaultValue" : 1.0,
                                        "interp" : "linr"
                                      },
                                      "stroke-color-green" : {
                                        "type" : "double",
                                        "defaultValue" : 1.0,
                                        "interp" : "linr"
                                      },
                                      "stroke-color-opacity" : {
                                        "type" : "double",
                                        "defaultValue" : 1.0,
                                        "interp" : "linr"
                                      },
                                      "stroke-color-red" : {
                                        "type" : "double",
                                        "defaultValue" : 1.0,
                                        "interp" : "linr"
                                      },
                                      "stroke-width" : {
                                        "type" : "double",
                                        "defaultValue" : 0.0,
                                        "interp" : "linr"
                                      },
                                      "width" : {
                                        "type" : "double",
                                        "defaultValue" : 16.1008403359098,
                                        "interp" : "linr"
                                      },
                                      "fill-style" : "solid",
                                      "horizontal-alignment" : "center",
                                      "stroke-style" : "solid",
                                      "vertical-alignment" : "center",
                                      "textAttributes" : {
                                        "type" : "textAttributeList",
                                        "keyframes" : [
                                          {
                                            "endTime" : 0,
                                            "time" : 0,
                                            "value" : null,
                                            "duration" : 0
                                          }
                                        ]
                                      }
                                    },
                                    "attributes" : {
                                      "autoRotateText" : true
                                    },
                                    "parameters" : {
                                      "translation0" : {
                                        "type" : "double",
                                        "defaultValue" : -498.540716477062,
                                        "interp" : "eioe",
                                        "keyframes" : [
                                          {
                                            "endTime" : 65,
                                            "time" : 44,
                                            "value" : 264.999999761485,
                                            "duration" : 21
                                          },
                                          {
                                            "endTime" : 130,
                                            "time" : 112,
                                            "value" : 1029.16666642828,
                                            "duration" : 18
                                          }
                                        ]
                                      },
                                      "translation1" : {
                                        "type" : "double",
                                        "defaultValue" : -131.12880801752,
                                        "interp" : "eioe",
                                        "keyframes" : [
                                          {
                                            "endTime" : 65,
                                            "time" : 44,
                                            "value" : -131.12880801752,
                                            "duration" : 21
                                          },
                                          {
                                            "endTime" : 130,
                                            "time" : 112,
                                            "value" : -131.12880801752,
                                            "duration" : 18
                                          }
                                        ]
                                      },
                                      "translation2" : {
                                        "type" : "double",
                                        "defaultValue" : -3.41060513164829e-10,
                                        "interp" : "eioe",
                                        "keyframes" : [
                                          {
                                            "endTime" : 65,
                                            "time" : 44,
                                            "value" : -3.41060513164829e-10,
                                            "duration" : 21
                                          },
                                          {
                                            "endTime" : 130,
                                            "time" : 112,
                                            "value" : -3.41060513164829e-10,
                                            "duration" : 18
                                          }
                                        ]
                                      },
                                      "rotation2" : {
                                        "type" : "double",
                                        "defaultValue" : 1.5707963267949,
                                        "interp" : "eioe",
                                        "keyframes" : [
                                          {
                                            "endTime" : 65,
                                            "time" : 44,
                                            "value" : 1.5707963267949,
                                            "duration" : 21
                                          },
                                          {
                                            "endTime" : 130,
                                            "time" : 112,
                                            "value" : 1.5707963267949,
                                            "duration" : 18
                                          }
                                        ]
                                      }
                                    },
                                    "effects" : [

                                    ],
                                    "start" : 34,
                                    "duration" : 95,
                                    "mediaStart" : 44,
                                    "mediaDuration" : 95,
                                    "scalar" : 1,
                                    "metadata" : {
                                      "WinSubProjectDisplayName" : "",
                                      "clipSpeedAttribute" : false,
                                      "effectApplied" : "none"
                                    },
                                    "animationTracks" : {
                                      "visual" : [
                                        {
                                          "endTime" : 65,
                                          "duration" : 21,
                                          "range" : [ 44, 21],
                                          "interp" : "eioe"
                                        },
                                        {
                                          "endTime" : 130,
                                          "duration" : 18,
                                          "range" : [ 112, 18],
                                          "interp" : "eioe"
                                        }
                                      ]
                                    }
                                  }
                                ],
                                  "ident" : "",
                                  "audioMuted" : false,
                                  "videoHidden" : false,
                                  "metadata" : {
                                    "IsLocked" : "False",
                                    "WinTrackHeight" : "1.26496935779495e-311",
                                    "trackHeight" : "48"
                                  }
                              },
                              {
                                "trackIndex" : 2,
                                "medias" : [
                                  {
                                    "id" : 37,
                                    "_type" : "Callout",
                                    "def" : {
                                      "kind" : "remix",
                                      "shape" : "shape-rectangle",
                                      "style" : "urban",
                                      "fill-color-blue" : {
                                        "type" : "double",
                                        "defaultValue" : 0.313725490196078,
                                        "interp" : "linr"
                                      },
                                      "fill-color-green" : {
                                        "type" : "double",
                                        "defaultValue" : 0.325490196078431,
                                        "interp" : "linr"
                                      },
                                      "fill-color-opacity" : {
                                        "type" : "double",
                                        "defaultValue" : 1.0,
                                        "interp" : "linr"
                                      },
                                      "fill-color-red" : {
                                        "type" : "double",
                                        "defaultValue" : 0.937254901960784,
                                        "interp" : "linr"
                                      },
                                      "height" : {
                                        "type" : "double",
                                        "defaultValue" : 43.6217829165502,
                                        "interp" : "linr",
                                        "keyframes" : [
                                          {
                                            "endTime" : 32,
                                            "time" : 11,
                                            "value" : 763.904716244477,
                                            "duration" : 21
                                          },
                                          {
                                            "endTime" : 91,
                                            "time" : 73,
                                            "value" : 8.05041669922816,
                                            "duration" : 18
                                          }
                                        ]
                                      },
                                      "stroke-color-blue" : {
                                        "type" : "double",
                                        "defaultValue" : 1.0,
                                        "interp" : "linr"
                                      },
                                      "stroke-color-green" : {
                                        "type" : "double",
                                        "defaultValue" : 1.0,
                                        "interp" : "linr"
                                      },
                                      "stroke-color-opacity" : {
                                        "type" : "double",
                                        "defaultValue" : 1.0,
                                        "interp" : "linr"
                                      },
                                      "stroke-color-red" : {
                                        "type" : "double",
                                        "defaultValue" : 1.0,
                                        "interp" : "linr"
                                      },
                                      "stroke-width" : {
                                        "type" : "double",
                                        "defaultValue" : 0.0,
                                        "interp" : "linr"
                                      },
                                      "width" : {
                                        "type" : "double",
                                        "defaultValue" : 16.1008403359098,
                                        "interp" : "linr",
                                        "keyframes" : [
                                          {
                                            "endTime" : 32,
                                            "time" : 11,
                                            "value" : 16.1008396148682,
                                            "duration" : 21
                                          },
                                          {
                                            "endTime" : 91,
                                            "time" : 73,
                                            "value" : 16.1008396148682,
                                            "duration" : 18
                                          }
                                        ]
                                      },
                                      "fill-style" : "solid",
                                      "horizontal-alignment" : "center",
                                      "stroke-style" : "solid",
                                      "vertical-alignment" : "center",
                                      "textAttributes" : {
                                        "type" : "textAttributeList",
                                        "keyframes" : [
                                          {
                                            "endTime" : 0,
                                            "time" : 0,
                                            "value" : null,
                                            "duration" : 0
                                          }
                                        ]
                                      }
                                    },
                                    "attributes" : {
                                      "autoRotateText" : true
                                    },
                                    "parameters" : {
                                      "translation0" : {
                                        "type" : "double",
                                        "defaultValue" : 498.540705442478,
                                        "interp" : "eioe",
                                        "keyframes" : [
                                          {
                                            "endTime" : 32,
                                            "time" : 11,
                                            "value" : 498.540705442478,
                                            "duration" : 21
                                          },
                                          {
                                            "endTime" : 91,
                                            "time" : 73,
                                            "value" : 498.540705442478,
                                            "duration" : 18
                                          }
                                        ]
                                      },
                                      "translation1" : {
                                        "type" : "double",
                                        "defaultValue" : -610.965008421803,
                                        "interp" : "eioe",
                                        "keyframes" : [
                                          {
                                            "endTime" : 32,
                                            "time" : 11,
                                            "value" : -250.823550104667,
                                            "duration" : 21
                                          },
                                          {
                                            "endTime" : 91,
                                            "time" : 73,
                                            "value" : 127.103599667957,
                                            "duration" : 18
                                          }
                                        ]
                                      },
                                      "translation2" : {
                                        "type" : "double",
                                        "defaultValue" : -3.41060513164829e-10,
                                        "interp" : "eioe",
                                        "keyframes" : [
                                          {
                                            "endTime" : 32,
                                            "time" : 11,
                                            "value" : -3.41060513164829e-10,
                                            "duration" : 21
                                          },
                                          {
                                            "endTime" : 91,
                                            "time" : 73,
                                            "value" : -3.41060513164829e-10,
                                            "duration" : 18
                                          }
                                        ]
                                      }
                                    },
                                    "effects" : [

                                    ],
                                    "start" : 24,
                                    "duration" : 91,
                                    "mediaStart" : 0,
                                    "mediaDuration" : 91,
                                    "scalar" : 1,
                                    "metadata" : {
                                      "WinSubProjectDisplayName" : "",
                                      "clipSpeedAttribute" : false,
                                      "effectApplied" : "none"
                                    },
                                    "animationTracks" : {
                                      "visual" : [
                                        {
                                          "endTime" : 32,
                                          "duration" : 21,
                                          "range" : [ 11, 21],
                                          "interp" : "eioe"
                                        },
                                        {
                                          "endTime" : 91,
                                          "duration" : 18,
                                          "range" : [ 73, 18],
                                          "interp" : "eioe"
                                        }
                                      ]
                                    }
                                  }
                                ],
                                  "ident" : "",
                                  "audioMuted" : false,
                                  "videoHidden" : false,
                                  "metadata" : {
                                    "IsLocked" : "False",
                                    "WinTrackHeight" : "1.26496935779495e-311",
                                    "trackHeight" : "48"
                                  }
                              },
                              {
                                "trackIndex" : 3,
                                "medias" : [
                                  {
                                    "id" : 38,
                                    "_type" : "Callout",
                                    "def" : {
                                      "kind" : "remix",
                                      "shape" : "shape-rectangle",
                                      "style" : "urban",
                                      "fill-color-blue" : {
                                        "type" : "double",
                                        "defaultValue" : 0.313725490196078,
                                        "interp" : "linr"
                                      },
                                      "fill-color-green" : {
                                        "type" : "double",
                                        "defaultValue" : 0.325490196078431,
                                        "interp" : "linr"
                                      },
                                      "fill-color-opacity" : {
                                        "type" : "double",
                                        "defaultValue" : 1.0,
                                        "interp" : "linr"
                                      },
                                      "fill-color-red" : {
                                        "type" : "double",
                                        "defaultValue" : 0.937254901960784,
                                        "interp" : "linr"
                                      },
                                      "height" : {
                                        "type" : "double",
                                        "defaultValue" : 16.1008589353546,
                                        "interp" : "linr",
                                        "keyframes" : [
                                          {
                                            "endTime" : 65,
                                            "time" : 44,
                                            "value" : 1543.18227029706,
                                            "duration" : 21
                                          },
                                          {
                                            "endTime" : 130,
                                            "time" : 112,
                                            "value" : 24.8489369638698,
                                            "duration" : 18
                                          }
                                        ]
                                      },
                                      "stroke-color-blue" : {
                                        "type" : "double",
                                        "defaultValue" : 1.0,
                                        "interp" : "linr"
                                      },
                                      "stroke-color-green" : {
                                        "type" : "double",
                                        "defaultValue" : 1.0,
                                        "interp" : "linr"
                                      },
                                      "stroke-color-opacity" : {
                                        "type" : "double",
                                        "defaultValue" : 1.0,
                                        "interp" : "linr"
                                      },
                                      "stroke-color-red" : {
                                        "type" : "double",
                                        "defaultValue" : 1.0,
                                        "interp" : "linr"
                                      },
                                      "stroke-width" : {
                                        "type" : "double",
                                        "defaultValue" : 0.0,
                                        "interp" : "linr"
                                      },
                                      "width" : {
                                        "type" : "double",
                                        "defaultValue" : 16.1008403359098,
                                        "interp" : "linr"
                                      },
                                      "fill-style" : "solid",
                                      "horizontal-alignment" : "center",
                                      "stroke-style" : "solid",
                                      "vertical-alignment" : "center",
                                      "textAttributes" : {
                                        "type" : "textAttributeList",
                                        "keyframes" : [
                                          {
                                            "endTime" : 0,
                                            "time" : 0,
                                            "value" : null,
                                            "duration" : 0
                                          }
                                        ]
                                      }
                                    },
                                    "attributes" : {
                                      "autoRotateText" : true
                                    },
                                    "parameters" : {
                                      "translation0" : {
                                        "type" : "double",
                                        "defaultValue" : 498.540705442334,
                                        "interp" : "eioe",
                                        "keyframes" : [
                                          {
                                            "endTime" : 65,
                                            "time" : 44,
                                            "value" : -265.000000238519,
                                            "duration" : 21
                                          },
                                          {
                                            "endTime" : 130,
                                            "time" : 112,
                                            "value" : -1024.16666690511,
                                            "duration" : 18
                                          }
                                        ]
                                      },
                                      "translation1" : {
                                        "type" : "double",
                                        "defaultValue" : 131.128808017558,
                                        "interp" : "eioe",
                                        "keyframes" : [
                                          {
                                            "endTime" : 65,
                                            "time" : 44,
                                            "value" : 131.128808017558,
                                            "duration" : 21
                                          },
                                          {
                                            "endTime" : 130,
                                            "time" : 112,
                                            "value" : 131.128808017558,
                                            "duration" : 18
                                          }
                                        ]
                                      },
                                      "rotation2" : {
                                        "type" : "double",
                                        "defaultValue" : 1.5707963267949,
                                        "interp" : "eioe",
                                        "keyframes" : [
                                          {
                                            "endTime" : 65,
                                            "time" : 44,
                                            "value" : 1.5707963267949,
                                            "duration" : 21
                                          },
                                          {
                                            "endTime" : 130,
                                            "time" : 112,
                                            "value" : 1.5707963267949,
                                            "duration" : 18
                                          }
                                        ]
                                      }
                                    },
                                    "effects" : [

                                    ],
                                    "start" : 58,
                                    "duration" : 95,
                                    "mediaStart" : 44,
                                    "mediaDuration" : 95,
                                    "scalar" : 1,
                                    "metadata" : {
                                      "WinSubProjectDisplayName" : "",
                                      "clipSpeedAttribute" : false,
                                      "effectApplied" : "none"
                                    },
                                    "animationTracks" : {
                                      "visual" : [
                                        {
                                          "endTime" : 65,
                                          "duration" : 21,
                                          "range" : [ 44, 21],
                                          "interp" : "eioe"
                                        },
                                        {
                                          "endTime" : 130,
                                          "duration" : 18,
                                          "range" : [ 112, 18],
                                          "interp" : "eioe"
                                        }
                                      ]
                                    }
                                  }
                                ],
                                  "ident" : "",
                                  "audioMuted" : false,
                                  "videoHidden" : false,
                                  "metadata" : {
                                    "IsLocked" : "False",
                                    "WinTrackHeight" : "1.26496935779495e-311",
                                    "trackHeight" : "48"
                                  }
                              }
                            ],
                            "attributes" : {
                              "ident" : "shapes",
                              "gain" : 1.0,
                              "mixToMono" : false
                            },
                            "effects" : [

                            ],
                            "start" : 0,
                            "duration" : 153,
                            "mediaStart" : 0.0,
                            "mediaDuration" : 153.0,
                            "scalar" : 1,
                            "metadata" : {
                              "IsGroupExpanded" : "False",
                              "WinSubProjectDisplayName" : "shapes",
                              "clipSpeedAttribute" : false,
                              "effectApplied" : "none",
                              "isOpen" : true
                            },
                            "animationTracks" : {

                            }
                          }
                        ],
                          "ident" : "",
                          "audioMuted" : false,
                          "videoHidden" : false,
                          "metadata" : {
                            "IsLocked" : "False",
                            "WinTrackHeight" : "0",
                            "trackHeight" : "48"
                          }
                      },
                      {
                        "trackIndex" : 1,
                        "medias" : [
                          {
                            "id" : 39,
                            "_type" : "Callout",
                            "def" : {
                              "kind" : "remix",
                              "shape" : "text",
                              "style" : "abstract",
                              "height" : {
                                "type" : "double",
                                "defaultValue" : 141.153174656932,
                                "interp" : "linr"
                              },
                              "width" : {
                                "type" : "double",
                                "defaultValue" : 1281.17482864961,
                                "interp" : "linr"
                              },
                              "word-wrap" : {
                                "type" : "double",
                                "defaultValue" : 1.0,
                                "interp" : "linr"
                              },
                              "horizontal-alignment" : "center",
                              "text" : "G/L Accounts and Cost Elements",
                              "vertical-alignment" : "center",
                              "font" : {
                                "color-blue" : {
                                  "type" : "double",
                                  "defaultValue" : 1.0,
                                  "interp" : "linr"
                                },
                                "color-green" : {
                                  "type" : "double",
                                  "defaultValue" : 1.0,
                                  "interp" : "linr"
                                },
                                "color-red" : {
                                  "type" : "double",
                                  "defaultValue" : 1.0,
                                  "interp" : "linr"
                                },
                                "size" : {
                                  "type" : "double",
                                  "defaultValue" : 96.0,
                                  "interp" : "linr"
                                },
                                "tracking" : {
                                  "type" : "double",
                                  "defaultValue" : 0.0,
                                  "interp" : "linr"
                                },
                                "name" : "Lato",
                                "weight" : "Regular"
                              },
                              "textAttributes" : {
                                "type" : "textAttributeList",
                                "keyframes" : [
                                  {
                                    "endTime" : 0,
                                    "time" : 0,
                                    "value" : [{"name":"strikethrough","rangeEnd":30,"rangeStart":0,"value":0,"valueType":"int"},{"name":"fgColor","rangeEnd":30,"rangeStart":0,"value":"(255,255,255,255)","valueType":"color"},{"name":"underline","rangeEnd":30,"rangeStart":0,"value":0,"valueType":"int"},{"name":"fontSize","rangeEnd":30,"rangeStart":0,"value":110,"valueType":"double"},{"name":"fontName","rangeEnd":30,"rangeStart":0,"value":"Lato","valueType":"string"},{"name":"fontItalic","rangeEnd":30,"rangeStart":0,"value":0,"valueType":"int"},{"name":"fontWeight","rangeEnd":30,"rangeStart":0,"value":400,"valueType":"int"}],
                                    "duration" : 0
                                  }
                                ]
                              }
                            },
                            "attributes" : {
                              "autoRotateText" : true
                            },
                            "parameters" : {
                              "translation0" : {
                                "type" : "double",
                                "defaultValue" : 0.16466798199068,
                                "interp" : "eioe"
                              },
                              "translation1" : {
                                "type" : "double",
                                "defaultValue" : -44.5267252342318,
                                "interp" : "eioe"
                              }
                            },
                            "effects" : [
                                {
                                  "_type" : "GenericBehaviorEffect",
                                  "effectName" : "popUp",
                                  "start" : -29,
                                  "duration" : 203                                ,
                                  "in" : {
                                    "attributes" : {
                                      "name" : "sliding",
                                      "type" : 1,
                                      "characterOrder" : 6,
                                      "offsetBetweenCharacters" : "3/2",
                                      "suggestedDurationPerCharacter" : "3599/100",
                                      "overlapProportion" : "11/20",
                                      "movement" : 16,
                                      "springDamping" : 5.0,
                                      "springStiffness" : 50.0,
                                      "bounceBounciness" : 0.45
                                    },
                                    "parameters" : {
                                      "direction" : {
                                        "type" : "int",
                                        "valueBounds" : {
                                          "minValue" : 0,
                                          "maxValue" : 3,
                                          "defaultValue" : 0
                                        },
                                        "uiHints" : {
                                          "userInterfaceType" : 2,
                                          "unitType" : 0
                                        },
                                        "keyframes" : [
                                          {
                                            "endTime" : 0,
                                            "time" : 0,
                                            "value" : 2,
                                            "duration" : 0
                                          }
                                        ]
                                      }
                                    }
                                  
                                  },
                                  "center" : {
                                    "attributes" : {
                                      "name" : "none",
                                      "type" : 1,
                                      "characterOrder" : 6,
                                      "offsetBetweenCharacters" : 0,
                                      "secondsPerLoop" : 1,
                                      "numberOfLoops" : -1,
                                      "delayBetweenLoops" : 0,
                                      "offsetBetweenCharacters" : 0
                                    }
                                  
                                  },
                                  "out" : {
                                    "attributes" : {
                                      "name" : "sliding",
                                      "type" : 1,
                                      "characterOrder" : 6,
                                      "offsetBetweenCharacters" : "3/2",
                                      "suggestedDurationPerCharacter" : "108/5",
                                      "overlapProportion" : "11/20",
                                      "movement" : 8,
                                      "springDamping" : 5.0,
                                      "springStiffness" : 50.0,
                                      "bounceBounciness" : 0.45
                                    },
                                    "parameters" : {
                                      "direction" : {
                                        "type" : "int",
                                        "valueBounds" : {
                                          "minValue" : 0,
                                          "maxValue" : 3,
                                          "defaultValue" : 2
                                        },
                                        "uiHints" : {
                                          "userInterfaceType" : 2,
                                          "unitType" : 0
                                        },
                                        "keyframes" : [
                                          {
                                            "endTime" : 0,
                                            "time" : 0,
                                            "value" : 0,
                                            "duration" : 0
                                          }
                                        ]
                                      }
                                    }
                                  
                                  }
                                }
                            ],
                            "start" : 0,
                            "duration" : 203,
                            "mediaStart" : -29,
                            "mediaDuration" : 203,
                            "scalar" : 1,
                            "metadata" : {
                              "WinSubProjectDisplayName" : "",
                              "clipSpeedAttribute" : false,
                              "default-HAlign" : "center",
                              "default-VAlign" : "center",
                              "default-text-attributes" : "[{\"name\":\"fontItalic\",\"rangeEnd\":15,\"rangeStart\":0,\"value\":0,\"valueType\":\"int\"},{\"name\":\"fgColor\",\"rangeEnd\":15,\"rangeStart\":0,\"value\":\"(255,255,255,255)\",\"valueType\":\"color\"},{\"name\":\"fontSize\",\"rangeEnd\":15,\"rangeStart\":0,\"value\":110,\"valueType\":\"double\"},{\"name\":\"fontWeight\",\"rangeEnd\":15,\"rangeStart\":0,\"value\":100,\"valueType\":\"int\"},{\"name\":\"fontName\",\"rangeEnd\":15,\"rangeStart\":0,\"value\":\"Lato\",\"valueType\":\"string\"},{\"name\":\"strikethrough\",\"rangeEnd\":15,\"rangeStart\":0,\"value\":0,\"valueType\":\"int\"},{\"name\":\"underline\",\"rangeEnd\":15,\"rangeStart\":0,\"value\":0,\"valueType\":\"int\"}]",
                              "effectApplied" : "none"
                            },
                            "animationTracks" : {

                            }
                          }
                        ],
                          "ident" : "",
                          "audioMuted" : false,
                          "videoHidden" : false,
                          "metadata" : {
                            "IsLocked" : "False",
                            "WinTrackHeight" : "1.2649665807982e-311",
                            "trackHeight" : "48"
                          }
                      },
                      {
                        "trackIndex" : 2,
                        "medias" : [
                          {
                            "id" : 40,
                            "_type" : "Callout",
                            "def" : {
                              "kind" : "remix",
                              "shape" : "text",
                              "style" : "abstract",
                              "height" : {
                                "type" : "double",
                                "defaultValue" : 141.153174656932,
                                "interp" : "linr"
                              },
                              "width" : {
                                "type" : "double",
                                "defaultValue" : 1281.17482864961,
                                "interp" : "linr"
                              },
                              "word-wrap" : {
                                "type" : "double",
                                "defaultValue" : 1.0,
                                "interp" : "linr"
                              },
                              "horizontal-alignment" : "center",
                              "text" : "Unit 5 - Lesson 1",
                              "vertical-alignment" : "center",
                              "font" : {
                                "color-blue" : {
                                  "type" : "double",
                                  "defaultValue" : 1.0,
                                  "interp" : "linr"
                                },
                                "color-green" : {
                                  "type" : "double",
                                  "defaultValue" : 1.0,
                                  "interp" : "linr"
                                },
                                "color-red" : {
                                  "type" : "double",
                                  "defaultValue" : 1.0,
                                  "interp" : "linr"
                                },
                                "size" : {
                                  "type" : "double",
                                  "defaultValue" : 96.0,
                                  "interp" : "linr"
                                },
                                "tracking" : {
                                  "type" : "double",
                                  "defaultValue" : 0.0,
                                  "interp" : "linr"
                                },
                                "name" : "Lato",
                                "weight" : "Regular"
                              },
                              "textAttributes" : {
                                "type" : "textAttributeList",
                                "keyframes" : [
                                  {
                                    "endTime" : 0,
                                    "time" : 0,
                                    "value" : [{"name":"strikethrough","rangeEnd":17,"rangeStart":0,"value":0,"valueType":"int"},{"name":"fontSize","rangeEnd":17,"rangeStart":0,"value":110,"valueType":"double"},{"name":"underline","rangeEnd":17,"rangeStart":0,"value":0,"valueType":"int"},{"name":"fontName","rangeEnd":17,"rangeStart":0,"value":"Lato","valueType":"string"},{"name":"fgColor","rangeEnd":17,"rangeStart":0,"value":"(239,83,80,255)","valueType":"color"},{"name":"fontWeight","rangeEnd":17,"rangeStart":0,"value":700,"valueType":"int"},{"name":"fontItalic","rangeEnd":17,"rangeStart":0,"value":0,"valueType":"int"}],
                                    "duration" : 0
                                  }
                                ]
                              }
                            },
                            "attributes" : {
                              "autoRotateText" : true
                            },
                            "parameters" : {
                              "translation0" : {
                                "type" : "double",
                                "defaultValue" : 0.412585675096131,
                                "interp" : "eioe"
                              },
                              "translation1" : {
                                "type" : "double",
                                "defaultValue" : 54.1677917371345,
                                "interp" : "eioe"
                              }
                            },
                            "effects" : [
                                {
                                  "_type" : "GenericBehaviorEffect",
                                  "effectName" : "popUp",
                                  "start" : -29,
                                  "duration" : 203                                ,
                                  "in" : {
                                    "attributes" : {
                                      "name" : "sliding",
                                      "type" : 1,
                                      "characterOrder" : 6,
                                      "offsetBetweenCharacters" : "3/2",
                                      "suggestedDurationPerCharacter" : "3599/100",
                                      "overlapProportion" : "11/20",
                                      "movement" : 16,
                                      "springDamping" : 5.0,
                                      "springStiffness" : 50.0,
                                      "bounceBounciness" : 0.45
                                    },
                                    "parameters" : {
                                      "direction" : {
                                        "type" : "int",
                                        "valueBounds" : {
                                          "minValue" : 0,
                                          "maxValue" : 3,
                                          "defaultValue" : 0
                                        },
                                        "uiHints" : {
                                          "userInterfaceType" : 2,
                                          "unitType" : 0
                                        },
                                        "keyframes" : [
                                          {
                                            "endTime" : 0,
                                            "time" : 0,
                                            "value" : 2,
                                            "duration" : 0
                                          }
                                        ]
                                      }
                                    }
                                  
                                  },
                                  "center" : {
                                    "attributes" : {
                                      "name" : "none",
                                      "type" : 1,
                                      "characterOrder" : 6,
                                      "offsetBetweenCharacters" : 0,
                                      "secondsPerLoop" : 1,
                                      "numberOfLoops" : -1,
                                      "delayBetweenLoops" : 0,
                                      "offsetBetweenCharacters" : 0
                                    }
                                  
                                  },
                                  "out" : {
                                    "attributes" : {
                                      "name" : "sliding",
                                      "type" : 1,
                                      "characterOrder" : 6,
                                      "offsetBetweenCharacters" : "3/2",
                                      "suggestedDurationPerCharacter" : "108/5",
                                      "overlapProportion" : "11/20",
                                      "movement" : 8,
                                      "springDamping" : 5.0,
                                      "springStiffness" : 50.0,
                                      "bounceBounciness" : 0.45
                                    },
                                    "parameters" : {
                                      "direction" : {
                                        "type" : "int",
                                        "valueBounds" : {
                                          "minValue" : 0,
                                          "maxValue" : 3,
                                          "defaultValue" : 2
                                        },
                                        "uiHints" : {
                                          "userInterfaceType" : 2,
                                          "unitType" : 0
                                        },
                                        "keyframes" : [
                                          {
                                            "endTime" : 0,
                                            "time" : 0,
                                            "value" : 0,
                                            "duration" : 0
                                          }
                                        ]
                                      }
                                    }
                                  
                                  }
                                }
                            ],
                            "start" : 0,
                            "duration" : 203,
                            "mediaStart" : -29,
                            "mediaDuration" : 203,
                            "scalar" : 1,
                            "metadata" : {
                              "WinSubProjectDisplayName" : "",
                              "clipSpeedAttribute" : false,
                              "default-HAlign" : "center",
                              "default-VAlign" : "center",
                              "default-text-attributes" : "[{\"name\":\"fontWeight\",\"rangeEnd\":15,\"rangeStart\":0,\"value\":700,\"valueType\":\"int\"},{\"name\":\"fontName\",\"rangeEnd\":15,\"rangeStart\":0,\"value\":\"Lato\",\"valueType\":\"string\"},{\"name\":\"strikethrough\",\"rangeEnd\":15,\"rangeStart\":0,\"value\":0,\"valueType\":\"int\"},{\"name\":\"underline\",\"rangeEnd\":15,\"rangeStart\":0,\"value\":0,\"valueType\":\"int\"},{\"name\":\"fontSize\",\"rangeEnd\":15,\"rangeStart\":0,\"value\":110,\"valueType\":\"double\"},{\"name\":\"fontItalic\",\"rangeEnd\":15,\"rangeStart\":0,\"value\":0,\"valueType\":\"int\"},{\"name\":\"fgColor\",\"rangeEnd\":15,\"rangeStart\":0,\"value\":\"(239,83,80,255)\",\"valueType\":\"color\"}]",
                              "effectApplied" : "none"
                            },
                            "animationTracks" : {

                            }
                          }
                        ],
                          "ident" : "",
                          "audioMuted" : false,
                          "videoHidden" : false,
                          "metadata" : {
                            "IsLocked" : "False",
                            "WinTrackHeight" : "1.2649665807982e-311",
                            "trackHeight" : "48"
                          }
                      }
                    ],
                    "attributes" : {
                      "ident" : "Minimal Elegance Title 1",
                      "gain" : 1.0,
                      "mixToMono" : false,
                      "assetProperties" : [
                        {
                          "type" : 0,
                          "name" : "Title",
                          "objects" : [ 40 ]
                        },
                        {
                          "type" : 0,
                          "name" : "Subtitle",
                          "objects" : [ 39 ]
                        },
                        {
                          "type" : 1,
                          "name" : "Color 1",
                          "objects" : [ 35, 36, 37, 38 ]
                        }
                      ]
                    },
                    "effects" : [

                    ],
                    "start" : 0,
                    "duration" : 202,
                    "mediaStart" : 0.0,
                    "mediaDuration" : 202.0,
                    "scalar" : 1,
                    "metadata" : {
                      "IsGroupExpanded" : "False",
                      "WinSubProjectDisplayName" : "Minimal Elegance Title 1",
                      "clipSpeedAttribute" : false,
                      "effectApplied" : "none",
                      "isOpen" : false
                    },
                    "animationTracks" : {

                    }
                  }
                ]
              },
              {
                "trackIndex" : 4,
                "medias" : [
                ]
              }
            ]
          }
        }
      ]
    },
    "trackAttributes" : [
      {
        "ident" : "",
        "audioMuted" : false,
        "videoHidden" : false,
        "metadata" : {
          "IsLocked" : "False",
          "WinTrackHeight" : "56"
        }
      },
      {
        "ident" : "",
        "audioMuted" : false,
        "videoHidden" : false,
        "metadata" : {
          "IsLocked" : "False",
          "WinTrackHeight" : "56"
        }
      },
      {
        "ident" : "",
        "audioMuted" : false,
        "videoHidden" : false,
        "metadata" : {
          "IsLocked" : "False",
          "WinTrackHeight" : "56"
        }
      },
      {
        "ident" : "",
        "audioMuted" : false,
        "videoHidden" : false,
        "metadata" : {
          "IsLocked" : "False",
          "WinTrackHeight" : "56"
        }
      },
      {
        "ident" : "",
        "audioMuted" : false,
        "videoHidden" : false,
        "metadata" : {
          "IsLocked" : "False",
          "WinTrackHeight" : "56"
        }
      }
    ],
    "captionAttributes" : {
      "enabled" : true,
      "fontName" : "Arial",
      "fontSize" : 64,
      "backgroundColor" : [ 0, 0, 0, 191],
      "foregroundColor" : [ 255, 255, 255, 255],
      "lang" : "en",
      "alignment" : 0,
      "defaultFontSize" : true,
      "opacity" : 0.5,
      "backgroundEnabled" : true,
      "backgroundOnlyAroundText" : true
    },
    "backgroundColor" : [ 0, 0, 0, 255]
  },
  "metadata" : {
    "AutoSaveFile" : "",
    "CanvasZoom" : 49,
    "Date" : "2019-04-28 12:41:30 PM",
    "IsAutoSave" : "0",
    "Language" : "ENU",
    "ProfileName" : "MP4 only (up to 720p)",
    "ProjectDimensionsChanged" : "1",
    "Title" : "GL Accounts and Cost Elements",
    "audioNarrationNotes" : "",
    "calloutStyle" : "Basic",
    "canvasDetached" : "False",
    "canvasPositionHeight" : "0",
    "canvasPositionLeft" : "0",
    "canvasPositionTop" : "0",
    "canvasPositionWidth" : "0"
  }
}
