{
  "title" : "",
  "description" : "",
  "author" : "",
  "width" : 1920.0,
  "height" : 1080.0,
  "version" : "2.0",
  "editRate" : 30,
  "authoringClientName" :  {
    "name" : "Camtasia",
    "platform" : "Windows",
    "version" : "18.0"
  },
  "sourceBin" : [
    {
      "id" : 1,
      "src" : "C:\\Users\\rhigh\\OneDrive\\Documents\\Camtasia\\Rec 04-30-19_002.trec",
      "rect" : [0, 0, 1920, 1080],
      "lastMod" : "20190430T164019",
      "sourceTracks" : [
        {
          "range" : [0, 10432],
          "type" : 0,
          "editRate" : 30,
          "trackRect" : [0, 0, 1920, 1080],
          "sampleRate" : 26,
          "bitDepth" : 0,
          "numChannels" : 0,
          "metaData" : "Rec 04-30-19_002.trec;"
        },
        {
          "range" : [0, 15326208],
          "type" : 2,
          "editRate" : 44100,
          "trackRect" : [0, 0, 0, 0],
          "sampleRate" : 44100,
          "bitDepth" : 16,
          "numChannels" : 2,
          "metaData" : ""
        },
        {
          "range" : [0, 15334400],
          "type" : 2,
          "editRate" : 44100,
          "trackRect" : [0, 0, 0, 0],
          "sampleRate" : 44100,
          "bitDepth" : 16,
          "numChannels" : 2,
          "metaData" : ""
        }
      ]
    },
    {
      "id" : 2,
      "src" : "C:\\Users\\rhigh\\Music\\04 Silver and Cold.m4a",
      "rect" : [0, 0, 0, 0],
      "lastMod" : "20140423T175315",
      "sourceTracks" : [
        {
          "range" : [0, 2507755099],
          "type" : 2,
          "editRate" : 10000000,
          "trackRect" : [0, 0, 0, 0],
          "sampleRate" : 44100,
          "bitDepth" : 16,
          "numChannels" : 2,
          "metaData" : ""
        }
      ]
    },
    {
      "id" : 3,
      "src" : "C:\\ProgramData\\TechSmith\\Camtasia Studio 18\\Library 4.0\\Camtasia Libraries\\Camtasia 2018\\Intros\\linewipe.asset\\Motion Graphics - Intro Clips - linewipe-91.png",
      "rect" : [0, 0, 1920, 1080],
      "lastMod" : "20180830T135426",
      "sourceTracks" : [
        {
          "range" : [0, 1],
          "type" : 1,
          "editRate" : 10000000,
          "trackRect" : [0, 0, 1920, 1080],
          "sampleRate" : 0,
          "bitDepth" : 32,
          "numChannels" : 0,
          "metaData" : ""
        }
      ],
      "metadata" : {
        "assetLibraryId" : "a492c94c-cb95-4254-b03b-3ad8fd84235f"
      }
    }
  ],
  "timeline" : {
    "id" : 4,
    "sceneTrack" : {
      "scenes" : [
        {
          "duration" : 335.166666666667,
          "title" : "",
          "type" : "",
          "csml" : {
            "tracks" : [
              {
                "trackIndex" : 0,
                "medias" : [
                  {
                    "id" : 5,
                    "_type" : "StitchedMedia",
                    "minMediaStart" : 0,
                    "attributes" : {
                      "ident" : "Rec 04-30-19_002",
                      "gain" : 1.0,
                      "mixToMono" : false
                    },
                    "parameters" : {
                      "volume" : 1.0,
                      "cursorOpacity" : 1.0,
                      "cursorScale" : 1.0
                    },
                    "medias" : [
                        {
                          "id" : 6,
                          "_type" : "UnifiedMedia",
                          "video" : 
                              {
                                "id" : 7,
                                "_type" : "ScreenVMFile",
                                "src" : 1,
                                "trackNumber" : 0,
                                "attributes" : {
                                  "ident" : "Rec 04-30-19_002"
                                },
                                "parameters" : {
                                  "cursorScale" : {
                                    "type" : "double",
                                    "defaultValue" : 0.0,
                                    "interp" : "linr"
                                  },
                                  "cursorOpacity" : {
                                    "type" : "double",
                                    "defaultValue" : 0.0,
                                    "interp" : "linr"
                                  }
                                },
                                "effects" : [

                                ],
                                "start" : 0,
                                "duration" : 1953,
                                "mediaStart" : 0,
                                "mediaDuration" : 1953,
                                "scalar" : 1,
                                "animationTracks" : {

                                }
                              },
                          "audio" : 
                              {
                                "id" : 8,
                                "_type" : "AMFile",
                                "src" : 1,
                                "trackNumber" : 2,
                                "attributes" : {
                                  "ident" : "",
                                  "sampleRate" : 44100,
                                  "bitDepth" : 16,
                                  "gain" : 1.0,
                                  "mixToMono" : false
                                },
                                  "channelNumber" : "0,1",
                                "effects" : [

                                ],
                                "start" : 0,
                                "duration" : 1953,
                                "mediaStart" : 0,
                                "mediaDuration" : 1953,
                                "scalar" : 1,
                                "animationTracks" : {

                                }
                              }
,
                          "start" : 0,
                          "duration" : 1953,
                          "mediaStart" : 0,
                          "mediaDuration" : 10432,
                          "scalar" : 1,
                          "metadata" : {
                            "AutoAppliedSmartFocus" : "False",
                            "WinSubProjectDisplayName" : "",
                            "clipSpeedAttribute" : false
                          }
                        },
                        {
                          "id" : 9,
                          "_type" : "UnifiedMedia",
                          "video" : 
                              {
                                "id" : 10,
                                "_type" : "ScreenVMFile",
                                "src" : 1,
                                "trackNumber" : 0,
                                "attributes" : {
                                  "ident" : "Rec 04-30-19_002"
                                },
                                "parameters" : {
                                  "cursorScale" : {
                                    "type" : "double",
                                    "defaultValue" : 0.0,
                                    "interp" : "linr"
                                  },
                                  "cursorOpacity" : {
                                    "type" : "double",
                                    "defaultValue" : 0.0,
                                    "interp" : "linr"
                                  }
                                },
                                "effects" : [

                                ],
                                "start" : 1953,
                                "duration" : 140,
                                "mediaStart" : 2040,
                                "mediaDuration" : 140,
                                "scalar" : 1,
                                "animationTracks" : {

                                }
                              },
                          "audio" : 
                              {
                                "id" : 11,
                                "_type" : "AMFile",
                                "src" : 1,
                                "trackNumber" : 2,
                                "attributes" : {
                                  "ident" : "",
                                  "sampleRate" : 44100,
                                  "bitDepth" : 16,
                                  "gain" : 1.0,
                                  "mixToMono" : false
                                },
                                  "channelNumber" : "0,1",
                                "effects" : [

                                ],
                                "start" : 1953,
                                "duration" : 140,
                                "mediaStart" : 2040,
                                "mediaDuration" : 140,
                                "scalar" : 1,
                                "animationTracks" : {

                                }
                              }
,
                          "start" : 1953,
                          "duration" : 140,
                          "mediaStart" : 0,
                          "mediaDuration" : 10432,
                          "scalar" : 1,
                          "metadata" : {
                            "AutoAppliedSmartFocus" : "False",
                            "WinSubProjectDisplayName" : "",
                            "clipSpeedAttribute" : false
                          }
                        },
                        {
                          "id" : 12,
                          "_type" : "UnifiedMedia",
                          "video" : 
                              {
                                "id" : 13,
                                "_type" : "ScreenVMFile",
                                "src" : 1,
                                "trackNumber" : 0,
                                "attributes" : {
                                  "ident" : "Rec 04-30-19_002"
                                },
                                "parameters" : {
                                  "cursorScale" : {
                                    "type" : "double",
                                    "defaultValue" : 0.0,
                                    "interp" : "linr"
                                  },
                                  "cursorOpacity" : {
                                    "type" : "double",
                                    "defaultValue" : 0.0,
                                    "interp" : "linr"
                                  }
                                },
                                "effects" : [

                                ],
                                "start" : 2093,
                                "duration" : 2522,
                                "mediaStart" : 2314,
                                "mediaDuration" : 2522,
                                "scalar" : 1,
                                "animationTracks" : {

                                }
                              },
                          "audio" : 
                              {
                                "id" : 14,
                                "_type" : "AMFile",
                                "src" : 1,
                                "trackNumber" : 2,
                                "attributes" : {
                                  "ident" : "",
                                  "sampleRate" : 44100,
                                  "bitDepth" : 16,
                                  "gain" : 1.0,
                                  "mixToMono" : false
                                },
                                  "channelNumber" : "0,1",
                                "effects" : [

                                ],
                                "start" : 2093,
                                "duration" : 2522,
                                "mediaStart" : 2314,
                                "mediaDuration" : 2522,
                                "scalar" : 1,
                                "animationTracks" : {

                                }
                              }
,
                          "start" : 2093,
                          "duration" : 2522,
                          "mediaStart" : 0,
                          "mediaDuration" : 10432,
                          "scalar" : 1,
                          "metadata" : {
                            "AutoAppliedSmartFocus" : "False",
                            "WinSubProjectDisplayName" : "",
                            "clipSpeedAttribute" : false
                          }
                        },
                        {
                          "id" : 15,
                          "_type" : "UnifiedMedia",
                          "video" : 
                              {
                                "id" : 16,
                                "_type" : "ScreenVMFile",
                                "src" : 1,
                                "trackNumber" : 0,
                                "attributes" : {
                                  "ident" : "Rec 04-30-19_002"
                                },
                                "parameters" : {
                                  "cursorScale" : {
                                    "type" : "double",
                                    "defaultValue" : 0.0,
                                    "interp" : "linr"
                                  },
                                  "cursorOpacity" : {
                                    "type" : "double",
                                    "defaultValue" : 0.0,
                                    "interp" : "linr"
                                  }
                                },
                                "effects" : [

                                ],
                                "start" : 4615,
                                "duration" : 121,
                                "mediaStart" : 4927,
                                "mediaDuration" : 121,
                                "scalar" : 1,
                                "animationTracks" : {

                                }
                              },
                          "audio" : 
                              {
                                "id" : 17,
                                "_type" : "AMFile",
                                "src" : 1,
                                "trackNumber" : 2,
                                "attributes" : {
                                  "ident" : "",
                                  "sampleRate" : 44100,
                                  "bitDepth" : 16,
                                  "gain" : 1.0,
                                  "mixToMono" : false
                                },
                                  "channelNumber" : "0,1",
                                "effects" : [

                                ],
                                "start" : 4615,
                                "duration" : 121,
                                "mediaStart" : 4927,
                                "mediaDuration" : 121,
                                "scalar" : 1,
                                "animationTracks" : {

                                }
                              }
,
                          "start" : 4615,
                          "duration" : 121,
                          "mediaStart" : 0,
                          "mediaDuration" : 10432,
                          "scalar" : 1,
                          "metadata" : {
                            "AutoAppliedSmartFocus" : "False",
                            "WinSubProjectDisplayName" : "",
                            "clipSpeedAttribute" : false
                          }
                        },
                        {
                          "id" : 18,
                          "_type" : "UnifiedMedia",
                          "video" : 
                              {
                                "id" : 19,
                                "_type" : "ScreenVMFile",
                                "src" : 1,
                                "trackNumber" : 0,
                                "attributes" : {
                                  "ident" : "Rec 04-30-19_002"
                                },
                                "parameters" : {
                                  "cursorScale" : {
                                    "type" : "double",
                                    "defaultValue" : 0.0,
                                    "interp" : "linr"
                                  },
                                  "cursorOpacity" : {
                                    "type" : "double",
                                    "defaultValue" : 0.0,
                                    "interp" : "linr"
                                  }
                                },
                                "effects" : [

                                ],
                                "start" : 4736,
                                "duration" : 4037,
                                "mediaStart" : 5148,
                                "mediaDuration" : 4037,
                                "scalar" : 1,
                                "animationTracks" : {

                                }
                              },
                          "audio" : 
                              {
                                "id" : 20,
                                "_type" : "AMFile",
                                "src" : 1,
                                "trackNumber" : 2,
                                "attributes" : {
                                  "ident" : "",
                                  "sampleRate" : 44100,
                                  "bitDepth" : 16,
                                  "gain" : 1.0,
                                  "mixToMono" : false
                                },
                                  "channelNumber" : "0,1",
                                "effects" : [

                                ],
                                "start" : 4736,
                                "duration" : 4037,
                                "mediaStart" : 5148,
                                "mediaDuration" : 4037,
                                "scalar" : 1,
                                "animationTracks" : {

                                }
                              }
,
                          "start" : 4736,
                          "duration" : 4037,
                          "mediaStart" : 0,
                          "mediaDuration" : 10432,
                          "scalar" : 1,
                          "metadata" : {
                            "AutoAppliedSmartFocus" : "False",
                            "WinSubProjectDisplayName" : "",
                            "clipSpeedAttribute" : false
                          }
                        },
                        {
                          "id" : 21,
                          "_type" : "UnifiedMedia",
                          "video" : 
                              {
                                "id" : 22,
                                "_type" : "ScreenVMFile",
                                "src" : 1,
                                "trackNumber" : 0,
                                "attributes" : {
                                  "ident" : "Rec 04-30-19_002"
                                },
                                "parameters" : {
                                  "cursorScale" : {
                                    "type" : "double",
                                    "defaultValue" : 0.0,
                                    "interp" : "linr"
                                  },
                                  "cursorOpacity" : {
                                    "type" : "double",
                                    "defaultValue" : 0.0,
                                    "interp" : "linr"
                                  }
                                },
                                "effects" : [

                                ],
                                "start" : 8773,
                                "duration" : 1160,
                                "mediaStart" : 9272,
                                "mediaDuration" : 1160,
                                "scalar" : 1,
                                "animationTracks" : {

                                }
                              },
                          "audio" : 
                              {
                                "id" : 23,
                                "_type" : "AMFile",
                                "src" : 1,
                                "trackNumber" : 2,
                                "attributes" : {
                                  "ident" : "",
                                  "sampleRate" : 44100,
                                  "bitDepth" : 16,
                                  "gain" : 1.0,
                                  "mixToMono" : false
                                },
                                  "channelNumber" : "0,1",
                                "effects" : [

                                ],
                                "start" : 8773,
                                "duration" : 1160,
                                "mediaStart" : 9272,
                                "mediaDuration" : 1160,
                                "scalar" : 1,
                                "animationTracks" : {

                                }
                              }
,
                          "start" : 8773,
                          "duration" : 1160,
                          "mediaStart" : 0,
                          "mediaDuration" : 10432,
                          "scalar" : 1,
                          "metadata" : {
                            "AutoAppliedSmartFocus" : "False",
                            "WinSubProjectDisplayName" : "",
                            "clipSpeedAttribute" : false
                          }
                        }
                    ],
                    "effects" : [

                    ],
                    "start" : 556,
                    "duration" : 9499,
                    "mediaStart" : 286,
                    "mediaDuration" : 9499,
                    "scalar" : 1,
                    "metadata" : {
                      "AutoAppliedSmartFocus" : "False",
                      "WinSubProjectDisplayName" : "",
                      "clipSpeedAttribute" : false
                    },
                    "animationTracks" : {

                    }
                  }
                ],
                "transitions" : [
                  {
                    "name" : "Fade",
                    "duration" : 30,
                    "trivial" : false,
                    "useAudioPreRoll" : true,
                    "useVisualPreRoll" : true,
                    "rightMedia" : 5
                  }
                ]
              },
              {
                "trackIndex" : 1,
                "medias" : [
                  {
                    "id" : 24,
                    "_type" : "StitchedMedia",
                    "minMediaStart" : 0,
                    "attributes" : {
                      "ident" : "Rec 04-30-19_002",
                      "gain" : 1.0,
                      "mixToMono" : false
                    },
                    "parameters" : {
                      "volume" : 2.75510204081633,
                      "cursorOpacity" : 1.0,
                      "cursorScale" : 1.0
                    },
                    "medias" : [
                        {
                          "id" : 25,
                          "_type" : "AMFile",
                          "src" : 1,
                          "trackNumber" : 1,
                          "attributes" : {
                            "ident" : "Rec 04-30-19_002",
                            "sampleRate" : 44100,
                            "bitDepth" : 16,
                            "gain" : 1.0,
                            "mixToMono" : false
                          },
                            "channelNumber" : "0,1",
                          "effects" : [

                          ],
                          "start" : 0,
                          "duration" : 1953,
                          "mediaStart" : 0,
                          "mediaDuration" : 1953,
                          "scalar" : 1,
                          "metadata" : {
                            "WinSubProjectDisplayName" : "",
                            "clipSpeedAttribute" : false
                          },
                          "animationTracks" : {

                          }
                        },
                        {
                          "id" : 26,
                          "_type" : "AMFile",
                          "src" : 1,
                          "trackNumber" : 1,
                          "attributes" : {
                            "ident" : "Rec 04-30-19_002",
                            "sampleRate" : 44100,
                            "bitDepth" : 16,
                            "gain" : 1.0,
                            "mixToMono" : false
                          },
                            "channelNumber" : "0,1",
                          "effects" : [

                          ],
                          "start" : 1953,
                          "duration" : 140,
                          "mediaStart" : 2040,
                          "mediaDuration" : 140,
                          "scalar" : 1,
                          "metadata" : {
                            "WinSubProjectDisplayName" : "",
                            "clipSpeedAttribute" : false
                          },
                          "animationTracks" : {

                          }
                        },
                        {
                          "id" : 27,
                          "_type" : "AMFile",
                          "src" : 1,
                          "trackNumber" : 1,
                          "attributes" : {
                            "ident" : "Rec 04-30-19_002",
                            "sampleRate" : 44100,
                            "bitDepth" : 16,
                            "gain" : 1.0,
                            "mixToMono" : false
                          },
                            "channelNumber" : "0,1",
                          "effects" : [

                          ],
                          "start" : 2093,
                          "duration" : 2522,
                          "mediaStart" : 2314,
                          "mediaDuration" : 2522,
                          "scalar" : 1,
                          "metadata" : {
                            "WinSubProjectDisplayName" : "",
                            "clipSpeedAttribute" : false
                          },
                          "animationTracks" : {

                          }
                        },
                        {
                          "id" : 28,
                          "_type" : "AMFile",
                          "src" : 1,
                          "trackNumber" : 1,
                          "attributes" : {
                            "ident" : "Rec 04-30-19_002",
                            "sampleRate" : 44100,
                            "bitDepth" : 16,
                            "gain" : 1.0,
                            "mixToMono" : false
                          },
                            "channelNumber" : "0,1",
                          "effects" : [

                          ],
                          "start" : 4615,
                          "duration" : 121,
                          "mediaStart" : 4927,
                          "mediaDuration" : 121,
                          "scalar" : 1,
                          "metadata" : {
                            "WinSubProjectDisplayName" : "",
                            "clipSpeedAttribute" : false
                          },
                          "animationTracks" : {

                          }
                        },
                        {
                          "id" : 29,
                          "_type" : "AMFile",
                          "src" : 1,
                          "trackNumber" : 1,
                          "attributes" : {
                            "ident" : "Rec 04-30-19_002",
                            "sampleRate" : 44100,
                            "bitDepth" : 16,
                            "gain" : 1.0,
                            "mixToMono" : false
                          },
                            "channelNumber" : "0,1",
                          "effects" : [

                          ],
                          "start" : 4736,
                          "duration" : 4037,
                          "mediaStart" : 5148,
                          "mediaDuration" : 4037,
                          "scalar" : 1,
                          "metadata" : {
                            "WinSubProjectDisplayName" : "",
                            "clipSpeedAttribute" : false
                          },
                          "animationTracks" : {

                          }
                        },
                        {
                          "id" : 30,
                          "_type" : "AMFile",
                          "src" : 1,
                          "trackNumber" : 1,
                          "attributes" : {
                            "ident" : "Rec 04-30-19_002",
                            "sampleRate" : 44100,
                            "bitDepth" : 16,
                            "gain" : 1.0,
                            "mixToMono" : false
                          },
                            "channelNumber" : "0,1",
                          "effects" : [

                          ],
                          "start" : 8773,
                          "duration" : 1154,
                          "mediaStart" : 9272,
                          "mediaDuration" : 1154,
                          "scalar" : 1,
                          "metadata" : {
                            "WinSubProjectDisplayName" : "",
                            "clipSpeedAttribute" : false
                          },
                          "animationTracks" : {

                          }
                        }
                    ],
                    "effects" : [

                    ],
                    "start" : 556,
                    "duration" : 9499,
                    "mediaStart" : 286,
                    "mediaDuration" : 9499,
                    "scalar" : 1,
                    "metadata" : {
                      "WinSubProjectDisplayName" : "",
                      "clipSpeedAttribute" : false
                    },
                    "animationTracks" : {

                    }
                  }
                ]
              },
              {
                "trackIndex" : 2,
                "medias" : [
                  {
                    "id" : 31,
                    "_type" : "Group",
                    "parameters" : {
                      "translation0" : {
                        "type" : "double",
                        "defaultValue" : 1.45519152283669e-10,
                        "interp" : "eioe"
                      },
                      "translation1" : {
                        "type" : "double",
                        "defaultValue" : 1.32331479107961e-10,
                        "interp" : "eioe"
                      },
                      "volume" : 1.0
                    },
                    "tracks" : [
                      {
                        "trackIndex" : 0,
                        "medias" : [
                          {
                            "id" : 32,
                            "_type" : "Group",
                            "parameters" : {
                              "translation0" : {
                                "type" : "double",
                                "defaultValue" : -1.45519152283669e-10,
                                "interp" : "eioe"
                              },
                              "translation1" : {
                                "type" : "double",
                                "defaultValue" : -1.32331479107961e-10,
                                "interp" : "eioe"
                              },
                              "volume" : 1.0
                            },
                            "tracks" : [
                              {
                                "trackIndex" : 0,
                                "medias" : [
                                  {
                                    "id" : 33,
                                    "_type" : "Callout",
                                    "def" : {
                                      "kind" : "remix",
                                      "shape" : "shape-rectangle",
                                      "style" : "urban",
                                      "fill-color-blue" : {
                                        "type" : "double",
                                        "defaultValue" : 0.235294117647059,
                                        "interp" : "linr"
                                      },
                                      "fill-color-green" : {
                                        "type" : "double",
                                        "defaultValue" : 0.298039215686275,
                                        "interp" : "linr"
                                      },
                                      "fill-color-opacity" : {
                                        "type" : "double",
                                        "defaultValue" : 1.0,
                                        "interp" : "linr"
                                      },
                                      "fill-color-red" : {
                                        "type" : "double",
                                        "defaultValue" : 0.905882352941176,
                                        "interp" : "linr"
                                      },
                                      "height" : {
                                        "type" : "double",
                                        "defaultValue" : 1080.0000000002,
                                        "interp" : "linr"
                                      },
                                      "stroke-color-blue" : {
                                        "type" : "double",
                                        "defaultValue" : 1.0,
                                        "interp" : "linr"
                                      },
                                      "stroke-color-green" : {
                                        "type" : "double",
                                        "defaultValue" : 1.0,
                                        "interp" : "linr"
                                      },
                                      "stroke-color-opacity" : {
                                        "type" : "double",
                                        "defaultValue" : 1.0,
                                        "interp" : "linr"
                                      },
                                      "stroke-color-red" : {
                                        "type" : "double",
                                        "defaultValue" : 1.0,
                                        "interp" : "linr"
                                      },
                                      "stroke-width" : {
                                        "type" : "double",
                                        "defaultValue" : 0.0,
                                        "interp" : "linr"
                                      },
                                      "width" : {
                                        "type" : "double",
                                        "defaultValue" : 1920.00000000019,
                                        "interp" : "linr"
                                      },
                                      "horizontal-alignment" : "center",
                                      "stroke-style" : "solid",
                                      "vertical-alignment" : "center",
                                      "textAttributes" : {
                                        "type" : "textAttributeList",
                                        "keyframes" : [
                                          {
                                            "endTime" : 0,
                                            "time" : 0,
                                            "value" : null,
                                            "duration" : 0
                                          }
                                        ]
                                      }
                                    },
                                    "attributes" : {
                                      "autoRotateText" : true
                                    },
                                    "parameters" : {
                                      "translation0" : {
                                        "type" : "double",
                                        "defaultValue" : 2.43858266912866e-11,
                                        "interp" : "eioe"
                                      },
                                      "translation1" : {
                                        "type" : "double",
                                        "defaultValue" : 1.125499693444e-11,
                                        "interp" : "eioe"
                                      }
                                    },
                                    "effects" : [

                                    ],
                                    "start" : 0,
                                    "duration" : 100,
                                    "mediaStart" : 0,
                                    "mediaDuration" : 100,
                                    "scalar" : 1,
                                    "metadata" : {
                                      "WinSubProjectDisplayName" : "",
                                      "clipSpeedAttribute" : false
                                    },
                                    "animationTracks" : {

                                    }
                                  }
                                ],
                                  "ident" : "",
                                  "audioMuted" : false,
                                  "videoHidden" : false,
                                  "metadata" : {
                                    "IsLocked" : "False",
                                    "WinTrackHeight" : "0"
                                  }
                              },
                              {
                                "trackIndex" : 1,
                                "medias" : [
                                  {
                                    "id" : 34,
                                    "_type" : "Callout",
                                    "def" : {
                                      "kind" : "remix",
                                      "shape" : "shape-rectangle",
                                      "style" : "abstract",
                                      "fill-color-blue" : {
                                        "type" : "double",
                                        "defaultValue" : 0.556862745098039,
                                        "interp" : "linr"
                                      },
                                      "fill-color-green" : {
                                        "type" : "double",
                                        "defaultValue" : 0.454901960784314,
                                        "interp" : "linr"
                                      },
                                      "fill-color-opacity" : {
                                        "type" : "double",
                                        "defaultValue" : 1.0,
                                        "interp" : "linr"
                                      },
                                      "fill-color-red" : {
                                        "type" : "double",
                                        "defaultValue" : 0.235294117647059,
                                        "interp" : "linr"
                                      },
                                      "height" : {
                                        "type" : "double",
                                        "defaultValue" : 6.95536632864869,
                                        "interp" : "linr",
                                        "keyframes" : [
                                          {
                                            "endTime" : 32,
                                            "time" : 0,
                                            "value" : 784.000000000243,
                                            "duration" : 32
                                          }
                                        ]
                                      },
                                      "stroke-color-blue" : {
                                        "type" : "double",
                                        "defaultValue" : 1.0,
                                        "interp" : "linr"
                                      },
                                      "stroke-color-green" : {
                                        "type" : "double",
                                        "defaultValue" : 1.0,
                                        "interp" : "linr"
                                      },
                                      "stroke-color-opacity" : {
                                        "type" : "double",
                                        "defaultValue" : 1.0,
                                        "interp" : "linr"
                                      },
                                      "stroke-color-red" : {
                                        "type" : "double",
                                        "defaultValue" : 1.0,
                                        "interp" : "linr"
                                      },
                                      "stroke-width" : {
                                        "type" : "double",
                                        "defaultValue" : 0.0,
                                        "interp" : "linr"
                                      },
                                      "width" : {
                                        "type" : "double",
                                        "defaultValue" : 7.26449372104034,
                                        "interp" : "linr",
                                        "keyframes" : [
                                          {
                                            "endTime" : 32,
                                            "time" : 0,
                                            "value" : 818.844444445516,
                                            "duration" : 32
                                          }
                                        ]
                                      },
                                      "horizontal-alignment" : "center",
                                      "stroke-style" : "solid",
                                      "vertical-alignment" : "center",
                                      "textAttributes" : {
                                        "type" : "textAttributeList",
                                        "keyframes" : [
                                          {
                                            "endTime" : 0,
                                            "time" : 0,
                                            "value" : null,
                                            "duration" : 0
                                          }
                                        ]
                                      }
                                    },
                                    "attributes" : {
                                      "autoRotateText" : true
                                    },
                                    "parameters" : {
                                      "translation0" : {
                                        "type" : "double",
                                        "defaultValue" : -6.11635186942294e-11,
                                        "interp" : "eioe",
                                        "keyframes" : [
                                          {
                                            "endTime" : 32,
                                            "time" : 0,
                                            "value" : -6.11635186942294e-11,
                                            "duration" : 32
                                          }
                                        ]
                                      },
                                      "translation1" : {
                                        "type" : "double",
                                        "defaultValue" : -7.98650034994353e-12,
                                        "interp" : "eioe",
                                        "keyframes" : [
                                          {
                                            "endTime" : 32,
                                            "time" : 0,
                                            "value" : -7.98650034994353e-12,
                                            "duration" : 32
                                          }
                                        ]
                                      },
                                      "rotation2" : {
                                        "type" : "double",
                                        "defaultValue" : 0.935769591402824,
                                        "interp" : "eioe",
                                        "keyframes" : [
                                          {
                                            "endTime" : 32,
                                            "time" : 0,
                                            "value" : 0.0,
                                            "duration" : 32
                                          }
                                        ]
                                      }
                                    },
                                    "effects" : [

                                    ],
                                    "start" : 10,
                                    "duration" : 37,
                                    "mediaStart" : 0,
                                    "mediaDuration" : 37,
                                    "scalar" : 1,
                                    "metadata" : {
                                      "WinSubProjectDisplayName" : "",
                                      "clipSpeedAttribute" : false
                                    },
                                    "animationTracks" : {
                                      "visual" : [
                                        {
                                          "endTime" : 32,
                                          "duration" : 32,
                                          "range" : [ 0, 32]
                                        }
                                      ]
                                    }
                                  }
                                ],
                                  "ident" : "",
                                  "audioMuted" : false,
                                  "videoHidden" : false,
                                  "metadata" : {
                                    "IsLocked" : "False",
                                    "WinTrackHeight" : "0"
                                  }
                              },
                              {
                                "trackIndex" : 2,
                                "medias" : [
                                  {
                                    "id" : 35,
                                    "_type" : "Callout",
                                    "def" : {
                                      "kind" : "remix",
                                      "shape" : "shape-rectangle",
                                      "style" : "abstract",
                                      "fill-color-blue" : {
                                        "type" : "double",
                                        "defaultValue" : 0.235294117647059,
                                        "interp" : "linr",
                                        "keyframes" : [
                                          {
                                            "endTime" : 25,
                                            "time" : 0,
                                            "value" : 0.235294117647059,
                                            "duration" : 25
                                          }
                                        ]
                                      },
                                      "fill-color-green" : {
                                        "type" : "double",
                                        "defaultValue" : 0.298039215686275,
                                        "interp" : "linr",
                                        "keyframes" : [
                                          {
                                            "endTime" : 25,
                                            "time" : 0,
                                            "value" : 0.298039215686275,
                                            "duration" : 25
                                          }
                                        ]
                                      },
                                      "fill-color-opacity" : {
                                        "type" : "double",
                                        "defaultValue" : 1.0,
                                        "interp" : "linr"
                                      },
                                      "fill-color-red" : {
                                        "type" : "double",
                                        "defaultValue" : 0.905882352941176,
                                        "interp" : "linr",
                                        "keyframes" : [
                                          {
                                            "endTime" : 25,
                                            "time" : 0,
                                            "value" : 0.905882352941176,
                                            "duration" : 25
                                          }
                                        ]
                                      },
                                      "height" : {
                                        "type" : "double",
                                        "defaultValue" : 6.95536632864869,
                                        "interp" : "linr",
                                        "keyframes" : [
                                          {
                                            "endTime" : 25,
                                            "time" : 0,
                                            "value" : 1051.32817372388,
                                            "duration" : 25
                                          }
                                        ]
                                      },
                                      "stroke-color-blue" : {
                                        "type" : "double",
                                        "defaultValue" : 1.0,
                                        "interp" : "linr"
                                      },
                                      "stroke-color-green" : {
                                        "type" : "double",
                                        "defaultValue" : 1.0,
                                        "interp" : "linr"
                                      },
                                      "stroke-color-opacity" : {
                                        "type" : "double",
                                        "defaultValue" : 1.0,
                                        "interp" : "linr"
                                      },
                                      "stroke-color-red" : {
                                        "type" : "double",
                                        "defaultValue" : 1.0,
                                        "interp" : "linr"
                                      },
                                      "stroke-width" : {
                                        "type" : "double",
                                        "defaultValue" : 0.0,
                                        "interp" : "linr"
                                      },
                                      "width" : {
                                        "type" : "double",
                                        "defaultValue" : 7.26449372104034,
                                        "interp" : "linr",
                                        "keyframes" : [
                                          {
                                            "endTime" : 25,
                                            "time" : 0,
                                            "value" : 1098.05387033492,
                                            "duration" : 25
                                          }
                                        ]
                                      },
                                      "horizontal-alignment" : "center",
                                      "stroke-style" : "solid",
                                      "vertical-alignment" : "center",
                                      "textAttributes" : {
                                        "type" : "textAttributeList",
                                        "keyframes" : [
                                          {
                                            "endTime" : 0,
                                            "time" : 0,
                                            "value" : null,
                                            "duration" : 0
                                          }
                                        ]
                                      }
                                    },
                                    "attributes" : {
                                      "autoRotateText" : true
                                    },
                                    "parameters" : {
                                      "translation0" : {
                                        "type" : "double",
                                        "defaultValue" : -6.11635186942294e-11,
                                        "interp" : "eioe",
                                        "keyframes" : [
                                          {
                                            "endTime" : 25,
                                            "time" : 0,
                                            "value" : -6.11635186942294e-11,
                                            "duration" : 25
                                          }
                                        ]
                                      },
                                      "translation1" : {
                                        "type" : "double",
                                        "defaultValue" : -7.98650034994353e-12,
                                        "interp" : "eioe",
                                        "keyframes" : [
                                          {
                                            "endTime" : 25,
                                            "time" : 0,
                                            "value" : -7.98650034994353e-12,
                                            "duration" : 25
                                          }
                                        ]
                                      },
                                      "rotation2" : {
                                        "type" : "double",
                                        "defaultValue" : 0.935769591402824,
                                        "interp" : "eioe",
                                        "keyframes" : [
                                          {
                                            "endTime" : 25,
                                            "time" : 0,
                                            "value" : -0.255182390620909,
                                            "duration" : 25
                                          }
                                        ]
                                      }
                                    },
                                    "effects" : [

                                    ],
                                    "start" : 17,
                                    "duration" : 30,
                                    "mediaStart" : 0,
                                    "mediaDuration" : 30,
                                    "scalar" : 1,
                                    "metadata" : {
                                      "WinSubProjectDisplayName" : "",
                                      "clipSpeedAttribute" : false
                                    },
                                    "animationTracks" : {
                                      "visual" : [
                                        {
                                          "endTime" : 25,
                                          "duration" : 25,
                                          "range" : [ 0, 25]
                                        }
                                      ]
                                    }
                                  }
                                ],
                                  "ident" : "",
                                  "audioMuted" : false,
                                  "videoHidden" : false,
                                  "metadata" : {
                                    "IsLocked" : "False",
                                    "WinTrackHeight" : "0"
                                  }
                              },
                              {
                                "trackIndex" : 3,
                                "medias" : [
                                  {
                                    "id" : 36,
                                    "_type" : "Callout",
                                    "def" : {
                                      "kind" : "remix",
                                      "shape" : "shape-ellipse",
                                      "style" : "bold",
                                      "fill-color-blue" : {
                                        "type" : "double",
                                        "defaultValue" : 0.235294117647059,
                                        "interp" : "linr",
                                        "keyframes" : [
                                          {
                                            "endTime" : 21,
                                            "time" : 0,
                                            "value" : 0.235294117647059,
                                            "duration" : 21
                                          },
                                          {
                                            "endTime" : 25,
                                            "time" : 21,
                                            "value" : 0.235294117647059,
                                            "duration" : 4
                                          }
                                        ]
                                      },
                                      "fill-color-green" : {
                                        "type" : "double",
                                        "defaultValue" : 0.298039215686275,
                                        "interp" : "linr",
                                        "keyframes" : [
                                          {
                                            "endTime" : 21,
                                            "time" : 0,
                                            "value" : 0.298039215686275,
                                            "duration" : 21
                                          },
                                          {
                                            "endTime" : 25,
                                            "time" : 21,
                                            "value" : 0.298039215686275,
                                            "duration" : 4
                                          }
                                        ]
                                      },
                                      "fill-color-opacity" : {
                                        "type" : "double",
                                        "defaultValue" : 1.0,
                                        "interp" : "linr"
                                      },
                                      "fill-color-red" : {
                                        "type" : "double",
                                        "defaultValue" : 0.905882352941176,
                                        "interp" : "linr",
                                        "keyframes" : [
                                          {
                                            "endTime" : 21,
                                            "time" : 0,
                                            "value" : 0.905882352941176,
                                            "duration" : 21
                                          },
                                          {
                                            "endTime" : 25,
                                            "time" : 21,
                                            "value" : 0.905882352941176,
                                            "duration" : 4
                                          }
                                        ]
                                      },
                                      "height" : {
                                        "type" : "double",
                                        "defaultValue" : 12.000000000389,
                                        "interp" : "linr",
                                        "keyframes" : [
                                          {
                                            "endTime" : 21,
                                            "time" : 0,
                                            "value" : 673.920000000227,
                                            "duration" : 21
                                          },
                                          {
                                            "endTime" : 25,
                                            "time" : 21,
                                            "value" : 800.000000000197,
                                            "duration" : 4
                                          }
                                        ]
                                      },
                                      "stroke-color-blue" : {
                                        "type" : "double",
                                        "defaultValue" : 1.0,
                                        "interp" : "linr"
                                      },
                                      "stroke-color-green" : {
                                        "type" : "double",
                                        "defaultValue" : 1.0,
                                        "interp" : "linr"
                                      },
                                      "stroke-color-opacity" : {
                                        "type" : "double",
                                        "defaultValue" : 1.0,
                                        "interp" : "linr",
                                        "keyframes" : [
                                          {
                                            "endTime" : 21,
                                            "time" : 0,
                                            "value" : 1.0,
                                            "duration" : 21
                                          },
                                          {
                                            "endTime" : 25,
                                            "time" : 21,
                                            "value" : 0.0,
                                            "duration" : 4
                                          }
                                        ]
                                      },
                                      "stroke-color-red" : {
                                        "type" : "double",
                                        "defaultValue" : 1.0,
                                        "interp" : "linr"
                                      },
                                      "stroke-width" : {
                                        "type" : "double",
                                        "defaultValue" : 3.2972282606003,
                                        "interp" : "linr",
                                        "keyframes" : [
                                          {
                                            "endTime" : 21,
                                            "time" : 0,
                                            "value" : 13.2523923911482,
                                            "duration" : 21
                                          },
                                          {
                                            "endTime" : 25,
                                            "time" : 21,
                                            "value" : 15.1486141303002,
                                            "duration" : 4
                                          }
                                        ]
                                      },
                                      "width" : {
                                        "type" : "double",
                                        "defaultValue" : 12.000000000389,
                                        "interp" : "linr",
                                        "keyframes" : [
                                          {
                                            "endTime" : 21,
                                            "time" : 0,
                                            "value" : 673.920000000227,
                                            "duration" : 21
                                          },
                                          {
                                            "endTime" : 25,
                                            "time" : 21,
                                            "value" : 800.000000000197,
                                            "duration" : 4
                                          }
                                        ]
                                      },
                                      "horizontal-alignment" : "center",
                                      "stroke-style" : "solid",
                                      "vertical-alignment" : "center",
                                      "textAttributes" : {
                                        "type" : "textAttributeList",
                                        "keyframes" : [
                                          {
                                            "endTime" : 0,
                                            "time" : 0,
                                            "value" : null,
                                            "duration" : 0
                                          }
                                        ]
                                      }
                                    },
                                    "attributes" : {
                                      "autoRotateText" : true
                                    },
                                    "parameters" : {
                                      "translation0" : {
                                        "type" : "double",
                                        "defaultValue" : 1.59104729391402e-10,
                                        "interp" : "eioe",
                                        "keyframes" : [
                                          {
                                            "endTime" : 21,
                                            "time" : 0,
                                            "value" : 1.59104729391402e-10,
                                            "duration" : 21
                                          },
                                          {
                                            "endTime" : 25,
                                            "time" : 21,
                                            "value" : 1.59104729391402e-10,
                                            "duration" : 4
                                          }
                                        ]
                                      },
                                      "translation1" : {
                                        "type" : "double",
                                        "defaultValue" : -6.55546728012268e-11,
                                        "interp" : "eioe",
                                        "keyframes" : [
                                          {
                                            "endTime" : 21,
                                            "time" : 0,
                                            "value" : -6.55546728012268e-11,
                                            "duration" : 21
                                          },
                                          {
                                            "endTime" : 25,
                                            "time" : 21,
                                            "value" : -6.55546728012268e-11,
                                            "duration" : 4
                                          }
                                        ]
                                      }
                                    },
                                    "effects" : [

                                    ],
                                    "start" : 26,
                                    "duration" : 30,
                                    "mediaStart" : 0,
                                    "mediaDuration" : 30,
                                    "scalar" : 1,
                                    "metadata" : {
                                      "WinSubProjectDisplayName" : "",
                                      "clipSpeedAttribute" : false
                                    },
                                    "animationTracks" : {
                                      "visual" : [
                                        {
                                          "endTime" : 21,
                                          "duration" : 21,
                                          "range" : [ 0, 21]
                                        },
                                        {
                                          "endTime" : 25,
                                          "duration" : 4,
                                          "range" : [ 21, 4]
                                        }
                                      ]
                                    }
                                  },
                                  {
                                    "id" : 37,
                                    "_type" : "Callout",
                                    "def" : {
                                      "kind" : "remix",
                                      "shape" : "shape-rectangle",
                                      "style" : "abstract",
                                      "fill-color-blue" : {
                                        "type" : "double",
                                        "defaultValue" : 0.725490196078431,
                                        "interp" : "linr"
                                      },
                                      "fill-color-green" : {
                                        "type" : "double",
                                        "defaultValue" : 0.501960784313725,
                                        "interp" : "linr"
                                      },
                                      "fill-color-opacity" : {
                                        "type" : "double",
                                        "defaultValue" : 1.0,
                                        "interp" : "linr"
                                      },
                                      "fill-color-red" : {
                                        "type" : "double",
                                        "defaultValue" : 0.16078431372549,
                                        "interp" : "linr"
                                      },
                                      "height" : {
                                        "type" : "double",
                                        "defaultValue" : 1970.84482462071,
                                        "interp" : "linr",
                                        "keyframes" : [
                                          {
                                            "endTime" : 21,
                                            "time" : 7,
                                            "value" : 2713.03609938265,
                                            "duration" : 14
                                          }
                                        ]
                                      },
                                      "stroke-color-blue" : {
                                        "type" : "double",
                                        "defaultValue" : 1.0,
                                        "interp" : "linr"
                                      },
                                      "stroke-color-green" : {
                                        "type" : "double",
                                        "defaultValue" : 1.0,
                                        "interp" : "linr"
                                      },
                                      "stroke-color-opacity" : {
                                        "type" : "double",
                                        "defaultValue" : 1.0,
                                        "interp" : "linr"
                                      },
                                      "stroke-color-red" : {
                                        "type" : "double",
                                        "defaultValue" : 1.0,
                                        "interp" : "linr"
                                      },
                                      "stroke-width" : {
                                        "type" : "double",
                                        "defaultValue" : 0.0,
                                        "interp" : "linr"
                                      },
                                      "width" : {
                                        "type" : "double",
                                        "defaultValue" : 6.44547658048049,
                                        "interp" : "linr",
                                        "keyframes" : [
                                          {
                                            "endTime" : 21,
                                            "time" : 7,
                                            "value" : 2256.39114786797,
                                            "duration" : 14
                                          }
                                        ]
                                      },
                                      "horizontal-alignment" : "center",
                                      "stroke-style" : "solid",
                                      "vertical-alignment" : "center",
                                      "textAttributes" : {
                                        "type" : "textAttributeList",
                                        "keyframes" : [
                                          {
                                            "endTime" : 0,
                                            "time" : 0,
                                            "value" : null,
                                            "duration" : 0
                                          }
                                        ]
                                      }
                                    },
                                    "attributes" : {
                                      "autoRotateText" : true
                                    },
                                    "parameters" : {
                                      "translation0" : {
                                        "type" : "double",
                                        "defaultValue" : 1.45519152283669e-10,
                                        "interp" : "eioe",
                                        "keyframes" : [
                                          {
                                            "endTime" : 21,
                                            "time" : 7,
                                            "value" : 1.45519152283669e-10,
                                            "duration" : 14
                                          }
                                        ]
                                      },
                                      "translation1" : {
                                        "type" : "double",
                                        "defaultValue" : 1.32367006244749e-10,
                                        "interp" : "eioe",
                                        "keyframes" : [
                                          {
                                            "endTime" : 21,
                                            "time" : 7,
                                            "value" : 1.32367006244749e-10,
                                            "duration" : 14
                                          }
                                        ]
                                      },
                                      "rotation2" : {
                                        "type" : "double",
                                        "defaultValue" : -0.518985227673131,
                                        "interp" : "eioe",
                                        "keyframes" : [
                                          {
                                            "endTime" : 21,
                                            "time" : 7,
                                            "value" : -0.518985227673131,
                                            "duration" : 14
                                          }
                                        ]
                                      }
                                    },
                                    "effects" : [

                                    ],
                                    "start" : 84,
                                    "duration" : 18,
                                    "mediaStart" : 7,
                                    "mediaDuration" : 18,
                                    "scalar" : 1,
                                    "metadata" : {
                                      "WinSubProjectDisplayName" : "",
                                      "clipSpeedAttribute" : false
                                    },
                                    "animationTracks" : {
                                      "visual" : [
                                        {
                                          "endTime" : 21,
                                          "duration" : 14,
                                          "range" : [ 7, 14],
                                          "interp" : "linr"
                                        }
                                      ]
                                    }
                                  },
                                  {
                                    "id" : 38,
                                    "_type" : "Callout",
                                    "def" : {
                                      "kind" : "remix",
                                      "shape" : "shape-rectangle",
                                      "style" : "urban",
                                      "fill-color-blue" : {
                                        "type" : "double",
                                        "defaultValue" : 0.725490196078431,
                                        "interp" : "linr"
                                      },
                                      "fill-color-green" : {
                                        "type" : "double",
                                        "defaultValue" : 0.501960784313725,
                                        "interp" : "linr"
                                      },
                                      "fill-color-opacity" : {
                                        "type" : "double",
                                        "defaultValue" : 1.0,
                                        "interp" : "linr"
                                      },
                                      "fill-color-red" : {
                                        "type" : "double",
                                        "defaultValue" : 0.16078431372549,
                                        "interp" : "linr"
                                      },
                                      "height" : {
                                        "type" : "double",
                                        "defaultValue" : 1080.00000000011,
                                        "interp" : "linr"
                                      },
                                      "stroke-color-blue" : {
                                        "type" : "double",
                                        "defaultValue" : 1.0,
                                        "interp" : "linr"
                                      },
                                      "stroke-color-green" : {
                                        "type" : "double",
                                        "defaultValue" : 1.0,
                                        "interp" : "linr"
                                      },
                                      "stroke-color-opacity" : {
                                        "type" : "double",
                                        "defaultValue" : 1.0,
                                        "interp" : "linr"
                                      },
                                      "stroke-color-red" : {
                                        "type" : "double",
                                        "defaultValue" : 1.0,
                                        "interp" : "linr"
                                      },
                                      "stroke-width" : {
                                        "type" : "double",
                                        "defaultValue" : 0.0,
                                        "interp" : "linr"
                                      },
                                      "width" : {
                                        "type" : "double",
                                        "defaultValue" : 1920.00002629153,
                                        "interp" : "linr"
                                      },
                                      "fill-style" : "solid",
                                      "horizontal-alignment" : "center",
                                      "stroke-style" : "solid",
                                      "vertical-alignment" : "center",
                                      "textAttributes" : {
                                        "type" : "textAttributeList",
                                        "keyframes" : [
                                          {
                                            "endTime" : 0,
                                            "time" : 0,
                                            "value" : null,
                                            "duration" : 0
                                          }
                                        ]
                                      }
                                    },
                                    "attributes" : {
                                      "autoRotateText" : true
                                    },
                                    "parameters" : {
                                      "translation0" : {
                                        "type" : "double",
                                        "defaultValue" : 1.31458509144977e-05,
                                        "interp" : "eioe"
                                      },
                                      "translation1" : {
                                        "type" : "double",
                                        "defaultValue" : 4.2348347051302e-11,
                                        "interp" : "eioe"
                                      }
                                    },
                                    "effects" : [
                                        {
                                          "effectName" : "DropShadow",
                                          "category" : "categoryVisualEffects",
                                          "parameters" : {
                                            "angle" : {
                                              "type" : "double",
                                              "defaultValue" : 5.49778714378214,
                                              "interp" : "linr",
                                              "valueBounds" : {
                                                "minValue" : 0.0,
                                                "maxValue" : 0.0,
                                                "defaultValue" : 5.49778714378214
                                              },
                                              "uiHints" : {
                                                "userInterfaceType" : 0,
                                                "unitType" : 0
                                              }
                                            },
                                            "blur" : {
                                              "type" : "double",
                                              "defaultValue" : 10.0,
                                              "interp" : "linr",
                                              "valueBounds" : {
                                                "minValue" : 0.0,
                                                "maxValue" : 50.0,
                                                "defaultValue" : 10.0
                                              },
                                              "uiHints" : {
                                                "userInterfaceType" : 0,
                                                "unitType" : 0
                                              }
                                            },
                                            "color-alpha" : {
                                              "type" : "double",
                                              "defaultValue" : 1.0,
                                              "interp" : "linr",
                                              "valueBounds" : {
                                                "minValue" : 0.0,
                                                "maxValue" : 1.0,
                                                "defaultValue" : 1.0
                                              },
                                              "uiHints" : {
                                                "userInterfaceType" : 0,
                                                "unitType" : 0
                                              }
                                            },
                                            "color-blue" : {
                                              "type" : "double",
                                              "defaultValue" : 0.1216,
                                              "interp" : "linr",
                                              "valueBounds" : {
                                                "minValue" : 0.0,
                                                "maxValue" : 1.0,
                                                "defaultValue" : 0.1216
                                              },
                                              "uiHints" : {
                                                "userInterfaceType" : 0,
                                                "unitType" : 0
                                              }
                                            },
                                            "color-green" : {
                                              "type" : "double",
                                              "defaultValue" : 0.1216,
                                              "interp" : "linr",
                                              "valueBounds" : {
                                                "minValue" : 0.0,
                                                "maxValue" : 1.0,
                                                "defaultValue" : 0.1216
                                              },
                                              "uiHints" : {
                                                "userInterfaceType" : 0,
                                                "unitType" : 0
                                              }
                                            },
                                            "color-red" : {
                                              "type" : "double",
                                              "defaultValue" : 0.1216,
                                              "interp" : "linr",
                                              "valueBounds" : {
                                                "minValue" : 0.0,
                                                "maxValue" : 1.0,
                                                "defaultValue" : 0.1216
                                              },
                                              "uiHints" : {
                                                "userInterfaceType" : 0,
                                                "unitType" : 0
                                              }
                                            },
                                            "enabled" : {
                                              "type" : "int",
                                              "valueBounds" : {
                                                "minValue" : 0,
                                                "maxValue" : 1,
                                                "defaultValue" : 1
                                              },
                                              "uiHints" : {
                                                "userInterfaceType" : 0,
                                                "unitType" : 0
                                              },
                                              "keyframes" : [
                                                {
                                                  "endTime" : 0,
                                                  "time" : 0,
                                                  "value" : 1,
                                                  "duration" : 0
                                                }
                                              ]
                                            },
                                            "offset" : {
                                              "type" : "double",
                                              "defaultValue" : 10.0,
                                              "interp" : "linr",
                                              "valueBounds" : {
                                                "minValue" : 0.0,
                                                "maxValue" : 250.0,
                                                "defaultValue" : 10.0
                                              },
                                              "uiHints" : {
                                                "userInterfaceType" : 0,
                                                "unitType" : 0
                                              }
                                            },
                                            "opacity" : {
                                              "type" : "double",
                                              "defaultValue" : 0.4,
                                              "interp" : "linr",
                                              "valueBounds" : {
                                                "minValue" : 0.0,
                                                "maxValue" : 1.0,
                                                "defaultValue" : 0.4
                                              },
                                              "uiHints" : {
                                                "userInterfaceType" : 0,
                                                "unitType" : 0
                                              }
                                            }
                                          }
                                        }
                                    ],
                                    "start" : 102,
                                    "duration" : 454,
                                    "mediaStart" : 0,
                                    "mediaDuration" : 454,
                                    "scalar" : 1,
                                    "metadata" : {
                                      "WinSubProjectDisplayName" : "",
                                      "clipSpeedAttribute" : false
                                    },
                                    "animationTracks" : {

                                    }
                                  }
                                ],
                                "transitions" : [
                                  {
                                    "name" : "Fade",
                                    "duration" : 30,
                                    "trivial" : true,
                                    "useAudioPreRoll" : false,
                                    "useVisualPreRoll" : true,
                                    "leftMedia" : 38
                                  }
                                ],
                                  "ident" : "",
                                  "audioMuted" : false,
                                  "videoHidden" : false,
                                  "metadata" : {
                                    "IsLocked" : "False",
                                    "WinTrackHeight" : "0"
                                  }
                              },
                              {
                                "trackIndex" : 4,
                                "medias" : [
                                  {
                                    "id" : 39,
                                    "_type" : "Callout",
                                    "def" : {
                                      "kind" : "remix",
                                      "shape" : "shape-ellipse",
                                      "style" : "bold",
                                      "fill-color-blue" : {
                                        "type" : "double",
                                        "defaultValue" : 0.235294117647059,
                                        "interp" : "linr",
                                        "keyframes" : [
                                          {
                                            "endTime" : 21,
                                            "time" : 0,
                                            "value" : 0.235294117647059,
                                            "duration" : 21
                                          },
                                          {
                                            "endTime" : 25,
                                            "time" : 21,
                                            "value" : 0.235294117647059,
                                            "duration" : 4
                                          }
                                        ]
                                      },
                                      "fill-color-green" : {
                                        "type" : "double",
                                        "defaultValue" : 0.298039215686275,
                                        "interp" : "linr",
                                        "keyframes" : [
                                          {
                                            "endTime" : 21,
                                            "time" : 0,
                                            "value" : 0.298039215686275,
                                            "duration" : 21
                                          },
                                          {
                                            "endTime" : 25,
                                            "time" : 21,
                                            "value" : 0.298039215686275,
                                            "duration" : 4
                                          }
                                        ]
                                      },
                                      "fill-color-opacity" : {
                                        "type" : "double",
                                        "defaultValue" : 1.0,
                                        "interp" : "linr"
                                      },
                                      "fill-color-red" : {
                                        "type" : "double",
                                        "defaultValue" : 0.905882352941176,
                                        "interp" : "linr",
                                        "keyframes" : [
                                          {
                                            "endTime" : 21,
                                            "time" : 0,
                                            "value" : 0.905882352941176,
                                            "duration" : 21
                                          },
                                          {
                                            "endTime" : 25,
                                            "time" : 21,
                                            "value" : 0.905882352941176,
                                            "duration" : 4
                                          }
                                        ]
                                      },
                                      "height" : {
                                        "type" : "double",
                                        "defaultValue" : 12.000000000389,
                                        "interp" : "linr",
                                        "keyframes" : [
                                          {
                                            "endTime" : 21,
                                            "time" : 0,
                                            "value" : 673.920000000227,
                                            "duration" : 21
                                          },
                                          {
                                            "endTime" : 25,
                                            "time" : 21,
                                            "value" : 800.000000000197,
                                            "duration" : 4
                                          }
                                        ]
                                      },
                                      "stroke-color-blue" : {
                                        "type" : "double",
                                        "defaultValue" : 1.0,
                                        "interp" : "linr"
                                      },
                                      "stroke-color-green" : {
                                        "type" : "double",
                                        "defaultValue" : 1.0,
                                        "interp" : "linr"
                                      },
                                      "stroke-color-opacity" : {
                                        "type" : "double",
                                        "defaultValue" : 1.0,
                                        "interp" : "linr",
                                        "keyframes" : [
                                          {
                                            "endTime" : 21,
                                            "time" : 0,
                                            "value" : 1.0,
                                            "duration" : 21
                                          },
                                          {
                                            "endTime" : 25,
                                            "time" : 21,
                                            "value" : 0.0,
                                            "duration" : 4
                                          }
                                        ]
                                      },
                                      "stroke-color-red" : {
                                        "type" : "double",
                                        "defaultValue" : 1.0,
                                        "interp" : "linr"
                                      },
                                      "stroke-width" : {
                                        "type" : "double",
                                        "defaultValue" : 3.2972282606003,
                                        "interp" : "linr",
                                        "keyframes" : [
                                          {
                                            "endTime" : 21,
                                            "time" : 0,
                                            "value" : 13.2523923911482,
                                            "duration" : 21
                                          },
                                          {
                                            "endTime" : 25,
                                            "time" : 21,
                                            "value" : 15.1486141303002,
                                            "duration" : 4
                                          }
                                        ]
                                      },
                                      "width" : {
                                        "type" : "double",
                                        "defaultValue" : 12.000000000389,
                                        "interp" : "linr",
                                        "keyframes" : [
                                          {
                                            "endTime" : 21,
                                            "time" : 0,
                                            "value" : 673.920000000227,
                                            "duration" : 21
                                          },
                                          {
                                            "endTime" : 25,
                                            "time" : 21,
                                            "value" : 800.000000000197,
                                            "duration" : 4
                                          }
                                        ]
                                      },
                                      "horizontal-alignment" : "center",
                                      "stroke-style" : "solid",
                                      "vertical-alignment" : "center",
                                      "textAttributes" : {
                                        "type" : "textAttributeList",
                                        "keyframes" : [
                                          {
                                            "endTime" : 0,
                                            "time" : 0,
                                            "value" : null,
                                            "duration" : 0
                                          }
                                        ]
                                      }
                                    },
                                    "attributes" : {
                                      "autoRotateText" : true
                                    },
                                    "parameters" : {
                                      "translation0" : {
                                        "type" : "double",
                                        "defaultValue" : 1.59104729391402e-10,
                                        "interp" : "eioe",
                                        "keyframes" : [
                                          {
                                            "endTime" : 21,
                                            "time" : 0,
                                            "value" : 1.59104729391402e-10,
                                            "duration" : 21
                                          },
                                          {
                                            "endTime" : 25,
                                            "time" : 21,
                                            "value" : 1.59104729391402e-10,
                                            "duration" : 4
                                          }
                                        ]
                                      },
                                      "translation1" : {
                                        "type" : "double",
                                        "defaultValue" : -6.55546728012268e-11,
                                        "interp" : "eioe",
                                        "keyframes" : [
                                          {
                                            "endTime" : 21,
                                            "time" : 0,
                                            "value" : -6.55546728012268e-11,
                                            "duration" : 21
                                          },
                                          {
                                            "endTime" : 25,
                                            "time" : 21,
                                            "value" : -6.55546728012268e-11,
                                            "duration" : 4
                                          }
                                        ]
                                      }
                                    },
                                    "effects" : [

                                    ],
                                    "start" : 35,
                                    "duration" : 30,
                                    "mediaStart" : 0,
                                    "mediaDuration" : 30,
                                    "scalar" : 1,
                                    "metadata" : {
                                      "WinSubProjectDisplayName" : "",
                                      "clipSpeedAttribute" : false
                                    },
                                    "animationTracks" : {
                                      "visual" : [
                                        {
                                          "endTime" : 21,
                                          "duration" : 21,
                                          "range" : [ 0, 21]
                                        },
                                        {
                                          "endTime" : 25,
                                          "duration" : 4,
                                          "range" : [ 21, 4]
                                        }
                                      ]
                                    }
                                  },
                                  {
                                    "id" : 40,
                                    "_type" : "Callout",
                                    "def" : {
                                      "kind" : "remix",
                                      "shape" : "shape-rectangle",
                                      "style" : "urban",
                                      "fill-color-blue" : {
                                        "type" : "double",
                                        "defaultValue" : 1.0,
                                        "interp" : "linr",
                                        "keyframes" : [
                                          {
                                            "endTime" : 10,
                                            "time" : 0,
                                            "value" : 1.0,
                                            "duration" : 10
                                          }
                                        ]
                                      },
                                      "fill-color-green" : {
                                        "type" : "double",
                                        "defaultValue" : 1.0,
                                        "interp" : "linr",
                                        "keyframes" : [
                                          {
                                            "endTime" : 10,
                                            "time" : 0,
                                            "value" : 1.0,
                                            "duration" : 10
                                          }
                                        ]
                                      },
                                      "fill-color-opacity" : {
                                        "type" : "double",
                                        "defaultValue" : 1.0,
                                        "interp" : "linr"
                                      },
                                      "fill-color-red" : {
                                        "type" : "double",
                                        "defaultValue" : 1.0,
                                        "interp" : "linr",
                                        "keyframes" : [
                                          {
                                            "endTime" : 10,
                                            "time" : 0,
                                            "value" : 1.0,
                                            "duration" : 10
                                          }
                                        ]
                                      },
                                      "height" : {
                                        "type" : "double",
                                        "defaultValue" : 6.861561236135,
                                        "interp" : "linr",
                                        "keyframes" : [
                                          {
                                            "endTime" : 10,
                                            "time" : 0,
                                            "value" : 1314.7048957085,
                                            "duration" : 10
                                          }
                                        ]
                                      },
                                      "stroke-color-blue" : {
                                        "type" : "double",
                                        "defaultValue" : 1.0,
                                        "interp" : "linr"
                                      },
                                      "stroke-color-green" : {
                                        "type" : "double",
                                        "defaultValue" : 1.0,
                                        "interp" : "linr"
                                      },
                                      "stroke-color-opacity" : {
                                        "type" : "double",
                                        "defaultValue" : 1.0,
                                        "interp" : "linr"
                                      },
                                      "stroke-color-red" : {
                                        "type" : "double",
                                        "defaultValue" : 1.0,
                                        "interp" : "linr"
                                      },
                                      "stroke-width" : {
                                        "type" : "double",
                                        "defaultValue" : 0.0,
                                        "interp" : "linr"
                                      },
                                      "width" : {
                                        "type" : "double",
                                        "defaultValue" : 7.99999999997041,
                                        "interp" : "linr"
                                      },
                                      "horizontal-alignment" : "center",
                                      "stroke-style" : "solid",
                                      "vertical-alignment" : "center",
                                      "textAttributes" : {
                                        "type" : "textAttributeList",
                                        "keyframes" : [
                                          {
                                            "endTime" : 0,
                                            "time" : 0,
                                            "value" : null,
                                            "duration" : 0
                                          }
                                        ]
                                      }
                                    },
                                    "attributes" : {
                                      "autoRotateText" : true
                                    },
                                    "parameters" : {
                                      "translation0" : {
                                        "type" : "double",
                                        "defaultValue" : -1.00115471468598e-11,
                                        "interp" : "eioe",
                                        "keyframes" : [
                                          {
                                            "endTime" : 10,
                                            "time" : 0,
                                            "value" : -1.00115471468598e-11,
                                            "duration" : 10
                                          }
                                        ]
                                      },
                                      "translation1" : {
                                        "type" : "double",
                                        "defaultValue" : -3.00737212910462e-12,
                                        "interp" : "eioe",
                                        "keyframes" : [
                                          {
                                            "endTime" : 10,
                                            "time" : 0,
                                            "value" : -3.00737212910462e-12,
                                            "duration" : 10
                                          }
                                        ]
                                      },
                                      "rotation2" : {
                                        "type" : "double",
                                        "defaultValue" : -0.523598775598299,
                                        "interp" : "eioe",
                                        "keyframes" : [
                                          {
                                            "endTime" : 10,
                                            "time" : 0,
                                            "value" : -0.523598775598299,
                                            "duration" : 10
                                          }
                                        ]
                                      }
                                    },
                                    "effects" : [

                                    ],
                                    "start" : 65,
                                    "duration" : 11,
                                    "mediaStart" : 0,
                                    "mediaDuration" : 11,
                                    "scalar" : 1,
                                    "metadata" : {
                                      "WinSubProjectDisplayName" : "",
                                      "clipSpeedAttribute" : false
                                    },
                                    "animationTracks" : {
                                      "visual" : [
                                        {
                                          "endTime" : 10,
                                          "duration" : 10,
                                          "range" : [ 0, 10]
                                        }
                                      ]
                                    }
                                  },
                                  {
                                    "id" : 41,
                                    "_type" : "Callout",
                                    "def" : {
                                      "kind" : "remix",
                                      "shape" : "shape-rectangle",
                                      "style" : "urban",
                                      "fill-color-blue" : {
                                        "type" : "double",
                                        "defaultValue" : 1.0,
                                        "interp" : "linr",
                                        "keyframes" : [
                                          {
                                            "endTime" : 10,
                                            "time" : 0,
                                            "value" : 1.0,
                                            "duration" : 10
                                          },
                                          {
                                            "endTime" : 33,
                                            "time" : 19,
                                            "value" : 1.0,
                                            "duration" : 14
                                          }
                                        ]
                                      },
                                      "fill-color-green" : {
                                        "type" : "double",
                                        "defaultValue" : 1.0,
                                        "interp" : "linr",
                                        "keyframes" : [
                                          {
                                            "endTime" : 10,
                                            "time" : 0,
                                            "value" : 1.0,
                                            "duration" : 10
                                          },
                                          {
                                            "endTime" : 33,
                                            "time" : 19,
                                            "value" : 1.0,
                                            "duration" : 14
                                          }
                                        ]
                                      },
                                      "fill-color-opacity" : {
                                        "type" : "double",
                                        "defaultValue" : 1.0,
                                        "interp" : "linr"
                                      },
                                      "fill-color-red" : {
                                        "type" : "double",
                                        "defaultValue" : 1.0,
                                        "interp" : "linr",
                                        "keyframes" : [
                                          {
                                            "endTime" : 10,
                                            "time" : 0,
                                            "value" : 1.0,
                                            "duration" : 10
                                          },
                                          {
                                            "endTime" : 33,
                                            "time" : 19,
                                            "value" : 1.0,
                                            "duration" : 14
                                          }
                                        ]
                                      },
                                      "height" : {
                                        "type" : "double",
                                        "defaultValue" : 6.861561236135,
                                        "interp" : "linr",
                                        "keyframes" : [
                                          {
                                            "endTime" : 10,
                                            "time" : 0,
                                            "value" : 1314.7048957085,
                                            "duration" : 10
                                          }
                                        ]
                                      },
                                      "stroke-color-blue" : {
                                        "type" : "double",
                                        "defaultValue" : 1.0,
                                        "interp" : "linr"
                                      },
                                      "stroke-color-green" : {
                                        "type" : "double",
                                        "defaultValue" : 1.0,
                                        "interp" : "linr"
                                      },
                                      "stroke-color-opacity" : {
                                        "type" : "double",
                                        "defaultValue" : 1.0,
                                        "interp" : "linr"
                                      },
                                      "stroke-color-red" : {
                                        "type" : "double",
                                        "defaultValue" : 1.0,
                                        "interp" : "linr"
                                      },
                                      "stroke-width" : {
                                        "type" : "double",
                                        "defaultValue" : 0.0,
                                        "interp" : "linr"
                                      },
                                      "width" : {
                                        "type" : "double",
                                        "defaultValue" : 7.99999999997041,
                                        "interp" : "linr"
                                      },
                                      "horizontal-alignment" : "center",
                                      "stroke-style" : "solid",
                                      "vertical-alignment" : "center",
                                      "textAttributes" : {
                                        "type" : "textAttributeList",
                                        "keyframes" : [
                                          {
                                            "endTime" : 0,
                                            "time" : 0,
                                            "value" : null,
                                            "duration" : 0
                                          }
                                        ]
                                      }
                                    },
                                    "attributes" : {
                                      "autoRotateText" : true
                                    },
                                    "parameters" : {
                                      "translation0" : {
                                        "type" : "double",
                                        "defaultValue" : -1.00115471468598e-11,
                                        "interp" : "eioe",
                                        "keyframes" : [
                                          {
                                            "endTime" : 33,
                                            "time" : 19,
                                            "value" : -1300.00000000008,
                                            "duration" : 14
                                          }
                                        ]
                                      },
                                      "translation1" : {
                                        "type" : "double",
                                        "defaultValue" : -3.00737212910462e-12,
                                        "interp" : "eioe",
                                        "keyframes" : [
                                          {
                                            "endTime" : 10,
                                            "time" : 0,
                                            "value" : -3.00737212910462e-12,
                                            "duration" : 10
                                          },
                                          {
                                            "endTime" : 33,
                                            "time" : 19,
                                            "value" : -3.00737212910462e-12,
                                            "duration" : 14
                                          }
                                        ]
                                      },
                                      "rotation2" : {
                                        "type" : "double",
                                        "defaultValue" : -0.523598775598299,
                                        "interp" : "eioe",
                                        "keyframes" : [
                                          {
                                            "endTime" : 10,
                                            "time" : 0,
                                            "value" : -0.523598775598299,
                                            "duration" : 10
                                          },
                                          {
                                            "endTime" : 33,
                                            "time" : 19,
                                            "value" : -0.523598775598299,
                                            "duration" : 14
                                          }
                                        ]
                                      }
                                    },
                                    "effects" : [

                                    ],
                                    "start" : 76,
                                    "duration" : 24,
                                    "mediaStart" : 11,
                                    "mediaDuration" : 24,
                                    "scalar" : 1,
                                    "metadata" : {
                                      "WinSubProjectDisplayName" : "",
                                      "clipSpeedAttribute" : false
                                    },
                                    "animationTracks" : {
                                      "visual" : [
                                        {
                                          "endTime" : 10,
                                          "duration" : 10,
                                          "range" : [ 0, 10]
                                        },
                                        {
                                          "endTime" : 33,
                                          "duration" : 14,
                                          "range" : [ 19, 14],
                                          "interp" : "linr"
                                        }
                                      ]
                                    }
                                  }
                                ],
                                  "ident" : "",
                                  "audioMuted" : false,
                                  "videoHidden" : false,
                                  "metadata" : {
                                    "IsLocked" : "False",
                                    "WinTrackHeight" : "0"
                                  }
                              },
                              {
                                "trackIndex" : 5,
                                "medias" : [
                                  {
                                    "id" : 42,
                                    "_type" : "Callout",
                                    "def" : {
                                      "kind" : "remix",
                                      "shape" : "shape-rectangle",
                                      "style" : "urban",
                                      "fill-color-blue" : {
                                        "type" : "double",
                                        "defaultValue" : 1.0,
                                        "interp" : "linr",
                                        "keyframes" : [
                                          {
                                            "endTime" : 10,
                                            "time" : 0,
                                            "value" : 1.0,
                                            "duration" : 10
                                          },
                                          {
                                            "endTime" : 33,
                                            "time" : 19,
                                            "value" : 1.0,
                                            "duration" : 14
                                          }
                                        ]
                                      },
                                      "fill-color-green" : {
                                        "type" : "double",
                                        "defaultValue" : 1.0,
                                        "interp" : "linr",
                                        "keyframes" : [
                                          {
                                            "endTime" : 10,
                                            "time" : 0,
                                            "value" : 1.0,
                                            "duration" : 10
                                          },
                                          {
                                            "endTime" : 33,
                                            "time" : 19,
                                            "value" : 1.0,
                                            "duration" : 14
                                          }
                                        ]
                                      },
                                      "fill-color-opacity" : {
                                        "type" : "double",
                                        "defaultValue" : 1.0,
                                        "interp" : "linr"
                                      },
                                      "fill-color-red" : {
                                        "type" : "double",
                                        "defaultValue" : 1.0,
                                        "interp" : "linr",
                                        "keyframes" : [
                                          {
                                            "endTime" : 10,
                                            "time" : 0,
                                            "value" : 1.0,
                                            "duration" : 10
                                          },
                                          {
                                            "endTime" : 33,
                                            "time" : 19,
                                            "value" : 1.0,
                                            "duration" : 14
                                          }
                                        ]
                                      },
                                      "height" : {
                                        "type" : "double",
                                        "defaultValue" : 6.861561236135,
                                        "interp" : "linr",
                                        "keyframes" : [
                                          {
                                            "endTime" : 10,
                                            "time" : 0,
                                            "value" : 1314.7048957085,
                                            "duration" : 10
                                          }
                                        ]
                                      },
                                      "stroke-color-blue" : {
                                        "type" : "double",
                                        "defaultValue" : 1.0,
                                        "interp" : "linr"
                                      },
                                      "stroke-color-green" : {
                                        "type" : "double",
                                        "defaultValue" : 1.0,
                                        "interp" : "linr"
                                      },
                                      "stroke-color-opacity" : {
                                        "type" : "double",
                                        "defaultValue" : 1.0,
                                        "interp" : "linr"
                                      },
                                      "stroke-color-red" : {
                                        "type" : "double",
                                        "defaultValue" : 1.0,
                                        "interp" : "linr"
                                      },
                                      "stroke-width" : {
                                        "type" : "double",
                                        "defaultValue" : 0.0,
                                        "interp" : "linr"
                                      },
                                      "width" : {
                                        "type" : "double",
                                        "defaultValue" : 7.99999999997041,
                                        "interp" : "linr"
                                      },
                                      "horizontal-alignment" : "center",
                                      "stroke-style" : "solid",
                                      "vertical-alignment" : "center",
                                      "textAttributes" : {
                                        "type" : "textAttributeList",
                                        "keyframes" : [
                                          {
                                            "endTime" : 0,
                                            "time" : 0,
                                            "value" : null,
                                            "duration" : 0
                                          }
                                        ]
                                      }
                                    },
                                    "attributes" : {
                                      "autoRotateText" : true
                                    },
                                    "parameters" : {
                                      "translation0" : {
                                        "type" : "double",
                                        "defaultValue" : -1.00115471468598e-11,
                                        "interp" : "eioe",
                                        "keyframes" : [
                                          {
                                            "endTime" : 33,
                                            "time" : 19,
                                            "value" : 1302.00000000006,
                                            "duration" : 14
                                          }
                                        ]
                                      },
                                      "translation1" : {
                                        "type" : "double",
                                        "defaultValue" : -3.00737212910462e-12,
                                        "interp" : "eioe",
                                        "keyframes" : [
                                          {
                                            "endTime" : 10,
                                            "time" : 0,
                                            "value" : -3.00737212910462e-12,
                                            "duration" : 10
                                          },
                                          {
                                            "endTime" : 33,
                                            "time" : 19,
                                            "value" : -3.00737212910462e-12,
                                            "duration" : 14
                                          }
                                        ]
                                      },
                                      "rotation2" : {
                                        "type" : "double",
                                        "defaultValue" : -0.523598775598299,
                                        "interp" : "eioe",
                                        "keyframes" : [
                                          {
                                            "endTime" : 10,
                                            "time" : 0,
                                            "value" : -0.523598775598299,
                                            "duration" : 10
                                          },
                                          {
                                            "endTime" : 33,
                                            "time" : 19,
                                            "value" : -0.523598775598299,
                                            "duration" : 14
                                          }
                                        ]
                                      }
                                    },
                                    "effects" : [

                                    ],
                                    "start" : 76,
                                    "duration" : 24,
                                    "mediaStart" : 11,
                                    "mediaDuration" : 24,
                                    "scalar" : 1,
                                    "metadata" : {
                                      "WinSubProjectDisplayName" : "",
                                      "clipSpeedAttribute" : false
                                    },
                                    "animationTracks" : {
                                      "visual" : [
                                        {
                                          "endTime" : 10,
                                          "duration" : 10,
                                          "range" : [ 0, 10]
                                        },
                                        {
                                          "endTime" : 33,
                                          "duration" : 14,
                                          "range" : [ 19, 14],
                                          "interp" : "linr"
                                        }
                                      ]
                                    }
                                  }
                                ],
                                  "ident" : "",
                                  "audioMuted" : false,
                                  "videoHidden" : false,
                                  "metadata" : {
                                    "IsLocked" : "False",
                                    "WinTrackHeight" : "0"
                                  }
                              },
                              {
                                "trackIndex" : 6,
                                "medias" : [
                                  {
                                    "id" : 43,
                                    "_type" : "IMFile",
                                    "src" : 3,
                                    "trackNumber" : 0,
                                    "trimStartSum" : 0,
                                    "attributes" : {
                                      "ident" : "Lens-Shadow-001"
                                    },
                                    "parameters" : {
                                      "opacity" : {
                                        "type" : "double",
                                        "defaultValue" : 0.5,
                                        "interp" : "linr"
                                      }
                                    },
                                    "effects" : [

                                    ],
                                    "start" : 0,
                                    "duration" : 556,
                                    "mediaStart" : 0,
                                    "mediaDuration" : 1,
                                    "scalar" : 1,
                                    "metadata" : {
                                      "WinSubProjectDisplayName" : "",
                                      "clipSpeedAttribute" : false
                                    },
                                    "animationTracks" : {

                                    }
                                  }
                                ],
                                "transitions" : [
                                  {
                                    "name" : "Fade",
                                    "duration" : 30,
                                    "trivial" : true,
                                    "useAudioPreRoll" : false,
                                    "useVisualPreRoll" : true,
                                    "leftMedia" : 43
                                  }
                                ],
                                  "ident" : "",
                                  "audioMuted" : false,
                                  "videoHidden" : false,
                                  "metadata" : {
                                    "IsLocked" : "False",
                                    "WinTrackHeight" : "0"
                                  }
                              }
                            ],
                            "attributes" : {
                              "ident" : "Shapes",
                              "gain" : 1.0,
                              "mixToMono" : false
                            },
                            "effects" : [

                            ],
                            "start" : 0,
                            "duration" : 556,
                            "mediaStart" : 0.0,
                            "mediaDuration" : 556.0,
                            "scalar" : 1,
                            "metadata" : {
                              "IsGroupExpanded" : "False",
                              "WinSubProjectDisplayName" : "Shapes",
                              "clipSpeedAttribute" : false,
                              "effectApplied" : "none",
                              "isOpen" : false
                            },
                            "animationTracks" : {

                            }
                          }
                        ],
                          "ident" : "",
                          "audioMuted" : false,
                          "videoHidden" : false,
                          "metadata" : {
                            "IsLocked" : "False",
                            "WinTrackHeight" : "0"
                          }
                      },
                      {
                        "trackIndex" : 1,
                        "medias" : [
                          {
                            "id" : 44,
                            "_type" : "Callout",
                            "def" : {
                              "kind" : "remix",
                              "shape" : "text",
                              "style" : "basic",
                              "height" : {
                                "type" : "double",
                                "defaultValue" : 72.0000000001311,
                                "interp" : "linr"
                              },
                              "width" : {
                                "type" : "double",
                                "defaultValue" : 1153.09090909266,
                                "interp" : "linr"
                              },
                              "word-wrap" : {
                                "type" : "double",
                                "defaultValue" : 1.0,
                                "interp" : "linr"
                              },
                              "horizontal-alignment" : "center",
                              "text" : "",
                              "vertical-alignment" : "center",
                              "font" : {
                                "color-blue" : {
                                  "type" : "double",
                                  "defaultValue" : 1.0,
                                  "interp" : "linr"
                                },
                                "color-green" : {
                                  "type" : "double",
                                  "defaultValue" : 1.0,
                                  "interp" : "linr"
                                },
                                "color-red" : {
                                  "type" : "double",
                                  "defaultValue" : 1.0,
                                  "interp" : "linr"
                                },
                                "size" : {
                                  "type" : "double",
                                  "defaultValue" : 96.0,
                                  "interp" : "linr"
                                },
                                "tracking" : {
                                  "type" : "double",
                                  "defaultValue" : 0.0,
                                  "interp" : "linr"
                                },
                                "name" : "Montserrat",
                                "weight" : "Regular"
                              },
                              "textAttributes" : {
                                "type" : "textAttributeList",
                                "keyframes" : [
                                  {
                                    "endTime" : 0,
                                    "time" : 0,
                                    "value" : [{"name":"underline","rangeEnd":1,"rangeStart":0,"value":0,"valueType":"int"},{"name":"fontName","rangeEnd":1,"rangeStart":0,"value":"Montserrat","valueType":"string"},{"name":"fgColor","rangeEnd":1,"rangeStart":0,"value":"(255,255,255,255)","valueType":"color"},{"name":"fontWeight","rangeEnd":1,"rangeStart":0,"value":400,"valueType":"int"},{"name":"fontSize","rangeEnd":1,"rangeStart":0,"value":96,"valueType":"double"},{"name":"fontItalic","rangeEnd":1,"rangeStart":0,"value":0,"valueType":"int"},{"name":"strikethrough","rangeEnd":1,"rangeStart":0,"value":0,"valueType":"int"}],
                                    "duration" : 0
                                  }
                                ]
                              }
                            },
                            "attributes" : {
                              "autoRotateText" : true
                            },
                            "parameters" : {
                              "translation0" : {
                                "type" : "double",
                                "defaultValue" : 0.346879437911497,
                                "interp" : "eioe"
                              },
                              "translation1" : {
                                "type" : "double",
                                "defaultValue" : -129.999999999932,
                                "interp" : "eioe"
                              }
                            },
                            "effects" : [
                                {
                                  "_type" : "GenericBehaviorEffect",
                                  "effectName" : "pulsating",
                                  "start" : 0,
                                  "duration" : 437                                ,
                                  "in" : {
                                    "attributes" : {
                                      "name" : "grow",
                                      "type" : 1,
                                      "characterOrder" : 6,
                                      "offsetBetweenCharacters" : 1,
                                      "suggestedDurationPerCharacter" : 18,
                                      "overlapProportion" : "3/4",
                                      "movement" : 30,
                                      "springDamping" : 5.0,
                                      "springStiffness" : 50.0,
                                      "bounceBounciness" : 0.45
                                    }
                                  
                                  },
                                  "center" : {
                                    "attributes" : {
                                      "name" : "none",
                                      "type" : 1,
                                      "characterOrder" : 6,
                                      "offsetBetweenCharacters" : 0,
                                      "secondsPerLoop" : 1,
                                      "numberOfLoops" : -1,
                                      "delayBetweenLoops" : 0,
                                      "offsetBetweenCharacters" : 0
                                    }
                                  
                                  },
                                  "out" : {
                                    "attributes" : {
                                      "name" : "none",
                                      "type" : 1,
                                      "characterOrder" : 6,
                                      "offsetBetweenCharacters" : 0,
                                      "suggestedDurationPerCharacter" : 0,
                                      "overlapProportion" : 0,
                                      "movement" : -1,
                                      "springDamping" : 5.0,
                                      "springStiffness" : 50.0,
                                      "bounceBounciness" : 0.45
                                    }
                                  
                                  }
                                }
                            ],
                            "start" : 119,
                            "duration" : 437,
                            "mediaStart" : 0,
                            "mediaDuration" : 437,
                            "scalar" : 1,
                            "metadata" : {
                              "WinSubProjectDisplayName" : "",
                              "clipSpeedAttribute" : false,
                              "default-HAlign" : "center",
                              "default-VAlign" : "center",
                              "default-text-attributes" : "[{\"name\":\"fontName\",\"rangeEnd\":17,\"rangeStart\":0,\"value\":\"Montserrat\",\"valueType\":\"string\"},{\"name\":\"strikethrough\",\"rangeEnd\":17,\"rangeStart\":0,\"value\":0,\"valueType\":\"int\"},{\"name\":\"fgColor\",\"rangeEnd\":17,\"rangeStart\":0,\"value\":\"(255,255,255,255)\",\"valueType\":\"color\"},{\"name\":\"fontItalic\",\"rangeEnd\":17,\"rangeStart\":0,\"value\":0,\"valueType\":\"int\"},{\"name\":\"fontSize\",\"rangeEnd\":17,\"rangeStart\":0,\"value\":51,\"valueType\":\"double\"},{\"name\":\"fontWeight\",\"rangeEnd\":17,\"rangeStart\":0,\"value\":100,\"valueType\":\"int\"},{\"name\":\"underline\",\"rangeEnd\":17,\"rangeStart\":0,\"value\":0,\"valueType\":\"int\"}]",
                              "default-translation0" : 0.454545453540789,
                              "default-translation1" : -123.000000000281,
                              "effectApplied" : "none"
                            },
                            "animationTracks" : {

                            }
                          }
                        ],
                        "transitions" : [
                          {
                            "name" : "Fade",
                            "duration" : 30,
                            "trivial" : true,
                            "useAudioPreRoll" : false,
                            "useVisualPreRoll" : true,
                            "leftMedia" : 44
                          }
                        ],
                          "ident" : "",
                          "audioMuted" : false,
                          "videoHidden" : false,
                          "metadata" : {
                            "IsLocked" : "False",
                            "WinTrackHeight" : "1.03347310004105e-311"
                          }
                      },
                      {
                        "trackIndex" : 2,
                        "medias" : [
                          {
                            "id" : 45,
                            "_type" : "Callout",
                            "def" : {
                              "kind" : "remix",
                              "shape" : "text",
                              "style" : "basic",
                              "height" : {
                                "type" : "double",
                                "defaultValue" : 187.999999999995,
                                "interp" : "linr"
                              },
                              "width" : {
                                "type" : "double",
                                "defaultValue" : 1920.21538461358,
                                "interp" : "linr"
                              },
                              "word-wrap" : {
                                "type" : "double",
                                "defaultValue" : 1.0,
                                "interp" : "linr"
                              },
                              "horizontal-alignment" : "center",
                              "text" : "HCM Master Data",
                              "vertical-alignment" : "center",
                              "font" : {
                                "color-blue" : {
                                  "type" : "double",
                                  "defaultValue" : 1.0,
                                  "interp" : "linr"
                                },
                                "color-green" : {
                                  "type" : "double",
                                  "defaultValue" : 1.0,
                                  "interp" : "linr"
                                },
                                "color-red" : {
                                  "type" : "double",
                                  "defaultValue" : 1.0,
                                  "interp" : "linr"
                                },
                                "size" : {
                                  "type" : "double",
                                  "defaultValue" : 96.0,
                                  "interp" : "linr"
                                },
                                "tracking" : {
                                  "type" : "double",
                                  "defaultValue" : 0.0,
                                  "interp" : "linr"
                                },
                                "name" : "Montserrat",
                                "weight" : "Regular"
                              },
                              "textAttributes" : {
                                "type" : "textAttributeList",
                                "keyframes" : [
                                  {
                                    "endTime" : 0,
                                    "time" : 0,
                                    "value" : [{"name":"strikethrough","rangeEnd":15,"rangeStart":0,"value":0,"valueType":"int"},{"name":"fontSize","rangeEnd":15,"rangeStart":0,"value":151,"valueType":"double"},{"name":"fontItalic","rangeEnd":15,"rangeStart":0,"value":0,"valueType":"int"},{"name":"fontWeight","rangeEnd":15,"rangeStart":0,"value":400,"valueType":"int"},{"name":"underline","rangeEnd":15,"rangeStart":0,"value":0,"valueType":"int"},{"name":"fontName","rangeEnd":15,"rangeStart":0,"value":"Montserrat","valueType":"string"},{"name":"fgColor","rangeEnd":15,"rangeStart":0,"value":"(255,255,255,255)","valueType":"color"}],
                                    "duration" : 0
                                  }
                                ]
                              }
                            },
                            "attributes" : {
                              "autoRotateText" : true
                            },
                            "parameters" : {
                              "translation0" : {
                                "type" : "double",
                                "defaultValue" : 0.284641677673506,
                                "interp" : "eioe"
                              },
                              "translation1" : {
                                "type" : "double",
                                "defaultValue" : 1.70459202308849e-11,
                                "interp" : "eioe"
                              }
                            },
                            "effects" : [
                                {
                                  "_type" : "GenericBehaviorEffect",
                                  "effectName" : "popUp",
                                  "start" : 2,
                                  "duration" : 468                                ,
                                  "in" : {
                                    "attributes" : {
                                      "name" : "hinge",
                                      "type" : 1,
                                      "characterOrder" : 6,
                                      "offsetBetweenCharacters" : "3/2",
                                      "suggestedDurationPerCharacter" : "147/2",
                                      "overlapProportion" : "1/3",
                                      "movement" : 30,
                                      "springDamping" : 5.0,
                                      "springStiffness" : 50.0,
                                      "bounceBounciness" : 0.45
                                    },
                                    "parameters" : {
                                      "direction" : {
                                        "type" : "int",
                                        "valueBounds" : {
                                          "minValue" : 0,
                                          "maxValue" : 3,
                                          "defaultValue" : 3
                                        },
                                        "uiHints" : {
                                          "userInterfaceType" : 2,
                                          "unitType" : 0
                                        },
                                        "keyframes" : [
                                          {
                                            "endTime" : 0,
                                            "time" : 0,
                                            "value" : 3,
                                            "duration" : 0
                                          }
                                        ]
                                      }
                                    }
                                  
                                  },
                                  "center" : {
                                    "attributes" : {
                                      "name" : "none",
                                      "type" : 1,
                                      "characterOrder" : 6,
                                      "offsetBetweenCharacters" : 0,
                                      "secondsPerLoop" : 1,
                                      "numberOfLoops" : -1,
                                      "delayBetweenLoops" : 0,
                                      "offsetBetweenCharacters" : 0
                                    }
                                  
                                  },
                                  "out" : {
                                    "attributes" : {
                                      "name" : "none",
                                      "type" : 1,
                                      "characterOrder" : 6,
                                      "offsetBetweenCharacters" : 0,
                                      "suggestedDurationPerCharacter" : 0,
                                      "overlapProportion" : 0,
                                      "movement" : -1,
                                      "springDamping" : 5.0,
                                      "springStiffness" : 50.0,
                                      "bounceBounciness" : 0.45
                                    }
                                  
                                  }
                                }
                            ],
                            "start" : 88,
                            "duration" : 468,
                            "mediaStart" : 2,
                            "mediaDuration" : 468,
                            "scalar" : 1,
                            "metadata" : {
                              "WinSubProjectDisplayName" : "",
                              "clipSpeedAttribute" : false,
                              "default-HAlign" : "center",
                              "default-VAlign" : "center",
                              "default-text-attributes" : "[{\"name\":\"fontSize\",\"rangeEnd\":9,\"rangeStart\":0,\"value\":151,\"valueType\":\"double\"},{\"name\":\"underline\",\"rangeEnd\":9,\"rangeStart\":0,\"value\":0,\"valueType\":\"int\"},{\"name\":\"fontWeight\",\"rangeEnd\":9,\"rangeStart\":0,\"value\":100,\"valueType\":\"int\"},{\"name\":\"strikethrough\",\"rangeEnd\":9,\"rangeStart\":0,\"value\":0,\"valueType\":\"int\"},{\"name\":\"fontItalic\",\"rangeEnd\":9,\"rangeStart\":0,\"value\":0,\"valueType\":\"int\"},{\"name\":\"fgColor\",\"rangeEnd\":9,\"rangeStart\":0,\"value\":\"(255,255,255,255)\",\"valueType\":\"color\"},{\"name\":\"fontName\",\"rangeEnd\":9,\"rangeStart\":0,\"value\":\"Montserrat\",\"valueType\":\"string\"}]",
                              "effectApplied" : "none"
                            },
                            "animationTracks" : {

                            }
                          }
                        ],
                        "transitions" : [
                          {
                            "name" : "Fade",
                            "duration" : 30,
                            "trivial" : true,
                            "useAudioPreRoll" : false,
                            "useVisualPreRoll" : true,
                            "leftMedia" : 45
                          }
                        ],
                          "ident" : "",
                          "audioMuted" : false,
                          "videoHidden" : false,
                          "metadata" : {
                            "IsLocked" : "False",
                            "WinTrackHeight" : "1.03347310004105e-311"
                          }
                      },
                      {
                        "trackIndex" : 3,
                        "medias" : [
                          {
                            "id" : 46,
                            "_type" : "Callout",
                            "def" : {
                              "kind" : "remix",
                              "shape" : "text-rectangle",
                              "style" : "basic",
                              "fill-color-blue" : {
                                "type" : "double",
                                "defaultValue" : 0.235294117647059,
                                "interp" : "linr"
                              },
                              "fill-color-green" : {
                                "type" : "double",
                                "defaultValue" : 0.298039215686275,
                                "interp" : "linr"
                              },
                              "fill-color-opacity" : {
                                "type" : "double",
                                "defaultValue" : 1.0,
                                "interp" : "linr"
                              },
                              "fill-color-red" : {
                                "type" : "double",
                                "defaultValue" : 0.901960784313726,
                                "interp" : "linr"
                              },
                              "height" : {
                                "type" : "double",
                                "defaultValue" : 83.9999999998924,
                                "interp" : "linr"
                              },
                              "stroke-color-blue" : {
                                "type" : "double",
                                "defaultValue" : 0.56078431372549,
                                "interp" : "linr"
                              },
                              "stroke-color-green" : {
                                "type" : "double",
                                "defaultValue" : 0.686274509803922,
                                "interp" : "linr"
                              },
                              "stroke-color-opacity" : {
                                "type" : "double",
                                "defaultValue" : 1.0,
                                "interp" : "linr"
                              },
                              "stroke-color-red" : {
                                "type" : "double",
                                "defaultValue" : 0.0196078431372549,
                                "interp" : "linr"
                              },
                              "stroke-width" : {
                                "type" : "double",
                                "defaultValue" : 0.0,
                                "interp" : "linr"
                              },
                              "width" : {
                                "type" : "double",
                                "defaultValue" : 732.000000000374,
                                "interp" : "linr"
                              },
                              "word-wrap" : {
                                "type" : "double",
                                "defaultValue" : 1.0,
                                "interp" : "linr"
                              },
                              "horizontal-alignment" : "left",
                              "stroke-style" : "solid",
                              "text" : "Unit 6 - Lesson 2",
                              "vertical-alignment" : "center",
                              "font" : {
                                "color-blue" : {
                                  "type" : "double",
                                  "defaultValue" : 0.266666666666667,
                                  "interp" : "linr"
                                },
                                "color-green" : {
                                  "type" : "double",
                                  "defaultValue" : 0.231372549019608,
                                  "interp" : "linr"
                                },
                                "color-opacity" : {
                                  "type" : "double",
                                  "defaultValue" : 1.0,
                                  "interp" : "linr"
                                },
                                "color-red" : {
                                  "type" : "double",
                                  "defaultValue" : 0.184313725490196,
                                  "interp" : "linr"
                                },
                                "size" : {
                                  "type" : "double",
                                  "defaultValue" : 64.0,
                                  "interp" : "linr"
                                },
                                "tracking" : {
                                  "type" : "double",
                                  "defaultValue" : 0.0,
                                  "interp" : "linr"
                                },
                                "name" : "Montserrat",
                                "weight" : "Regular"
                              },
                              "textAttributes" : {
                                "type" : "textAttributeList",
                                "keyframes" : [
                                  {
                                    "endTime" : 0,
                                    "time" : 0,
                                    "value" : [{"name":"fontWeight","rangeEnd":17,"rangeStart":0,"value":700,"valueType":"int"},{"name":"fgColor","rangeEnd":17,"rangeStart":0,"value":"(255,255,255,255)","valueType":"color"},{"name":"fontItalic","rangeEnd":17,"rangeStart":0,"value":0,"valueType":"int"},{"name":"fontName","rangeEnd":17,"rangeStart":0,"value":"Montserrat","valueType":"string"},{"name":"fontSize","rangeEnd":17,"rangeStart":0,"value":64,"valueType":"double"},{"name":"strikethrough","rangeEnd":17,"rangeStart":0,"value":0,"valueType":"int"},{"name":"underline","rangeEnd":17,"rangeStart":0,"value":0,"valueType":"int"}],
                                    "duration" : 0
                                  }
                                ]
                              }
                            },
                            "attributes" : {
                              "autoRotateText" : true
                            },
                            "parameters" : {
                              "translation0" : {
                                "type" : "double",
                                "defaultValue" : -80.999999999634,
                                "interp" : "eioe"
                              },
                              "translation1" : {
                                "type" : "double",
                                "defaultValue" : 145.999999999818,
                                "interp" : "eioe"
                              }
                            },
                            "effects" : [

                            ],
                            "start" : 91,
                            "duration" : 465,
                            "mediaStart" : 0,
                            "mediaDuration" : 465,
                            "scalar" : 1,
                            "metadata" : {
                              "WinSubProjectDisplayName" : "",
                              "clipSpeedAttribute" : false,
                              "default-HAlign" : "left",
                              "default-VAlign" : "center",
                              "default-text-attributes" : "[{\"name\":\"fontName\",\"rangeEnd\":8,\"rangeStart\":0,\"value\":\"Montserrat\",\"valueType\":\"string\"},{\"name\":\"underline\",\"rangeEnd\":8,\"rangeStart\":0,\"value\":0,\"valueType\":\"int\"},{\"name\":\"fontItalic\",\"rangeEnd\":8,\"rangeStart\":0,\"value\":0,\"valueType\":\"int\"},{\"name\":\"fgColor\",\"rangeEnd\":8,\"rangeStart\":0,\"value\":\"(255,255,255,255)\",\"valueType\":\"color\"},{\"name\":\"fontSize\",\"rangeEnd\":8,\"rangeStart\":0,\"value\":64,\"valueType\":\"double\"},{\"name\":\"fontWeight\",\"rangeEnd\":8,\"rangeStart\":0,\"value\":700,\"valueType\":\"int\"},{\"name\":\"strikethrough\",\"rangeEnd\":8,\"rangeStart\":0,\"value\":0,\"valueType\":\"int\"}]",
                              "effectApplied" : "none"
                            },
                            "animationTracks" : {

                            }
                          }
                        ],
                        "transitions" : [
                          {
                            "name" : "Fade",
                            "duration" : 30,
                            "trivial" : true,
                            "useAudioPreRoll" : false,
                            "useVisualPreRoll" : true,
                            "leftMedia" : 46
                          }
                        ],
                          "ident" : "",
                          "audioMuted" : false,
                          "videoHidden" : false,
                          "metadata" : {
                            "IsLocked" : "False",
                            "WinTrackHeight" : "1.03347310004105e-311"
                          }
                      }
                    ],
                    "attributes" : {
                      "ident" : "linewipe",
                      "gain" : 1.0,
                      "mixToMono" : false,
                      "assetProperties" : [
                        {
                          "type" : 0,
                          "name" : "Title",
                          "objects" : [ 45 ]
                        },
                        {
                          "type" : 0,
                          "name" : "Subtitle",
                          "objects" : [ 46 ]
                        },
                        {
                          "type" : 0,
                          "name" : "Subtitle 2",
                          "objects" : [ 44 ]
                        },
                        {
                          "type" : 1,
                          "name" : "Color 1",
                          "objects" : [ 46, 33, 35, 36, 39 ]
                        },
                        {
                          "type" : 1,
                          "name" : "Color 2",
                          "objects" : [ 34, 37, 38 ]
                        }
                      ]
                    },
                    "effects" : [

                    ],
                    "start" : 0,
                    "duration" : 556,
                    "mediaStart" : 0.0,
                    "mediaDuration" : 556.0,
                    "scalar" : 1,
                    "metadata" : {
                      "IsGroupExpanded" : "False",
                      "WinSubProjectDisplayName" : "",
                      "clipSpeedAttribute" : false,
                      "effectApplied" : "none",
                      "isOpen" : false
                    },
                    "animationTracks" : {

                    }
                  }
                ]
              },
              {
                "trackIndex" : 3,
                "medias" : [
                  {
                    "id" : 47,
                    "_type" : "AMFile",
                    "src" : 2,
                    "trackNumber" : 0,
                    "attributes" : {
                      "ident" : "04 Silver and Cold",
                      "sampleRate" : 44100,
                      "bitDepth" : 16,
                      "gain" : 1.0,
                      "mixToMono" : false
                    },
                      "channelNumber" : "0,1",
                    "parameters" : {
                      "volume" : {
                        "type" : "double",
                        "keyframes" : [
                          {
                            "endTime" : 0,
                            "time" : 0,
                            "value" : 0.604395604395604,
                            "duration" : 0
                          },
                          {
                            "endTime" : 834,
                            "time" : 834,
                            "value" : 0.604395604395604,
                            "duration" : 0
                          },
                          {
                            "endTime" : 924,
                            "time" : 924,
                            "value" : 0.0,
                            "duration" : 0
                          },
                          {
                            "endTime" : 925,
                            "time" : 925,
                            "value" : 0.604395604395604,
                            "duration" : 0
                          }
                        ]
                      }
                    },
                    "effects" : [

                    ],
                    "start" : 0,
                    "duration" : 546,
                    "mediaStart" : 378,
                    "mediaDuration" : 546,
                    "scalar" : 1,
                    "metadata" : {
                      "WinSubProjectDisplayName" : "",
                      "clipSpeedAttribute" : false
                    },
                    "animationTracks" : {

                    }
                  }
                ]
              },
              {
                "trackIndex" : 4,
                "medias" : [
                ]
              }
            ]
          }
        }
      ]
    },
    "trackAttributes" : [
      {
        "ident" : "",
        "audioMuted" : false,
        "videoHidden" : false,
        "metadata" : {
          "IsLocked" : "False",
          "WinTrackHeight" : "56"
        }
      },
      {
        "ident" : "",
        "audioMuted" : false,
        "videoHidden" : false,
        "metadata" : {
          "IsLocked" : "False",
          "WinTrackHeight" : "56"
        }
      },
      {
        "ident" : "",
        "audioMuted" : false,
        "videoHidden" : false,
        "metadata" : {
          "IsLocked" : "False",
          "WinTrackHeight" : "56"
        }
      },
      {
        "ident" : "",
        "audioMuted" : false,
        "videoHidden" : false,
        "metadata" : {
          "IsLocked" : "False",
          "WinTrackHeight" : "56"
        }
      },
      {
        "ident" : "",
        "audioMuted" : false,
        "videoHidden" : false,
        "metadata" : {
          "IsLocked" : "False",
          "WinTrackHeight" : "56"
        }
      }
    ],
    "captionAttributes" : {
      "enabled" : true,
      "fontName" : "Arial",
      "fontSize" : 64,
      "backgroundColor" : [ 0, 0, 0, 191],
      "foregroundColor" : [ 255, 255, 255, 255],
      "lang" : "en",
      "alignment" : 0,
      "defaultFontSize" : true,
      "opacity" : 0.5,
      "backgroundEnabled" : true,
      "backgroundOnlyAroundText" : true
    },
    "backgroundColor" : [ 0, 0, 0, 255]
  },
  "metadata" : {
    "AutoSaveFile" : "",
    "CanvasZoom" : 49,
    "Date" : "2019-04-30 11:28:22 AM",
    "IsAutoSave" : "0",
    "Language" : "ENU",
    "ProfileName" : "MP4 only (up to 720p)",
    "ProjectDimensionsChanged" : "1",
    "Title" : "HCM Master Data",
    "audioNarrationNotes" : "",
    "calloutStyle" : "Legacy",
    "canvasDetached" : "False",
    "canvasPositionHeight" : "0",
    "canvasPositionLeft" : "0",
    "canvasPositionTop" : "0",
    "canvasPositionWidth" : "0"
  }
}
