{
  "title" : "",
  "description" : "",
  "author" : "",
  "targetLoudness" : -18.0,
  "shouldApplyLoudnessNormalization" : true,
  "width" : 1920.0,
  "height" : 1080.0,
  "version" : "3.0",
  "editRate" : 30,
  "authoringClientName" :  {
    "name" : "Camtasia",
    "platform" : "Windows",
    "version" : "19.0"
  },
  "sourceBin" : [
    {
      "id" : 1,
      "src" : "C:\\ProgramData\\TechSmith\\Camtasia Studio 19\\Library 4.0\\Camtasia Libraries\\Camtasia 2019\\Intros\\linewipe.asset\\Motion Graphics - Intro Clips - linewipe-91.png",
      "rect" : [0, 0, 1920, 1080],
      "lastMod" : "20190205T165848",
      "sourceTracks" : [
        {
          "range" : [0, 1],
          "type" : 1,
          "editRate" : 10000000,
          "trackRect" : [0, 0, 1920, 1080],
          "sampleRate" : 0,
          "bitDepth" : 32,
          "numChannels" : 0,
          "integratedLUFS" : 100.0,
          "peakLevel" : -1.0,
          "metaData" : ""
        }
      ],
      "metadata" : {
        "assetLibraryId" : "a492c94c-cb95-4254-b03b-3ad8fd84235f"
      }
    },
    {
      "id" : 2,
      "src" : "C:\\Users\\rhigh\\Music\\01 Cry Baby (American Idol Studio Ve.m4a",
      "rect" : [0, 0, 0, 0],
      "lastMod" : "20140116T060317",
      "sourceTracks" : [
        {
          "range" : [0, 2254889793],
          "type" : 2,
          "editRate" : 10000000,
          "trackRect" : [0, 0, 0, 0],
          "sampleRate" : 44100,
          "bitDepth" : 16,
          "numChannels" : 2,
          "integratedLUFS" : -8.15028372366077,
          "peakLevel" : 1.11587810516357,
          "metaData" : ""
        }
      ]
    },
    {
      "id" : 3,
      "src" : "C:\\Users\\rhigh\\OneDrive\\Documents\\Camtasia\\Rec 05-29-19_009.trec",
      "rect" : [0, 0, 1920, 1080],
      "lastMod" : "20190529T160401",
      "sourceTracks" : [
        {
          "range" : [0, 10731],
          "type" : 0,
          "editRate" : 30,
          "trackRect" : [0, 0, 1920, 1080],
          "sampleRate" : 29,
          "bitDepth" : 0,
          "numChannels" : 0,
          "integratedLUFS" : 100.0,
          "peakLevel" : -1.0,
          "metaData" : "Rec 05-29-19_009.trec;"
        },
        {
          "range" : [0, 15767552],
          "type" : 2,
          "editRate" : 44100,
          "trackRect" : [0, 0, 0, 0],
          "sampleRate" : 44100,
          "bitDepth" : 16,
          "numChannels" : 2,
          "integratedLUFS" : -28.595474157095,
          "peakLevel" : 0.524932861328125,
          "metaData" : ""
        },
        {
          "range" : [0, 15767552],
          "type" : 2,
          "editRate" : 44100,
          "trackRect" : [0, 0, 0, 0],
          "sampleRate" : 44100,
          "bitDepth" : 16,
          "numChannels" : 2,
          "integratedLUFS" : 0.0,
          "peakLevel" : 0.0,
          "metaData" : ""
        }
      ]
    },
    {
      "id" : 4,
      "src" : "C:\\Users\\rhigh\\OneDrive\\Documents\\Camtasia\\Rec 05-30-19.trec",
      "rect" : [0, 0, 1920, 1080],
      "lastMod" : "20190530T174655",
      "sourceTracks" : [
        {
          "range" : [0, 11899],
          "type" : 0,
          "editRate" : 30,
          "trackRect" : [0, 0, 1920, 1080],
          "sampleRate" : 29,
          "bitDepth" : 0,
          "numChannels" : 0,
          "integratedLUFS" : 100.0,
          "peakLevel" : -1.0,
          "metaData" : "Rec 05-30-19.trec;"
        },
        {
          "range" : [0, 17486848],
          "type" : 2,
          "editRate" : 44100,
          "trackRect" : [0, 0, 0, 0],
          "sampleRate" : 44100,
          "bitDepth" : 16,
          "numChannels" : 2,
          "integratedLUFS" : -26.6270085608955,
          "peakLevel" : 0.611236572265625,
          "metaData" : ""
        },
        {
          "range" : [0, 17494016],
          "type" : 2,
          "editRate" : 44100,
          "trackRect" : [0, 0, 0, 0],
          "sampleRate" : 44100,
          "bitDepth" : 16,
          "numChannels" : 2,
          "integratedLUFS" : -1.79769313486232e+308,
          "peakLevel" : 0.0,
          "metaData" : ""
        }
      ]
    },
    {
      "id" : 5,
      "src" : "C:\\Users\\rhigh\\OneDrive\\Documents\\Camtasia\\Rec 05-30-19_001.trec",
      "rect" : [0, 0, 1920, 1080],
      "lastMod" : "20190530T180219",
      "sourceTracks" : [
        {
          "range" : [0, 10807],
          "type" : 0,
          "editRate" : 30,
          "trackRect" : [0, 0, 1920, 1080],
          "sampleRate" : 29,
          "bitDepth" : 0,
          "numChannels" : 0,
          "integratedLUFS" : 100.0,
          "peakLevel" : -1.0,
          "metaData" : "Rec 05-30-19_001.trec;"
        },
        {
          "range" : [0, 15877120],
          "type" : 2,
          "editRate" : 44100,
          "trackRect" : [0, 0, 0, 0],
          "sampleRate" : 44100,
          "bitDepth" : 16,
          "numChannels" : 2,
          "integratedLUFS" : -26.3058920299197,
          "peakLevel" : 0.6422119140625,
          "metaData" : ""
        },
        {
          "range" : [0, 15885312],
          "type" : 2,
          "editRate" : 44100,
          "trackRect" : [0, 0, 0, 0],
          "sampleRate" : 44100,
          "bitDepth" : 16,
          "numChannels" : 2,
          "integratedLUFS" : -1.79769313486232e+308,
          "peakLevel" : 0.0,
          "metaData" : ""
        }
      ]
    }
  ],
  "timeline" : {
    "id" : 6,
    "sceneTrack" : {
      "scenes" : [
        {
          "duration" : 939.1,
          "title" : "",
          "type" : "",
          "csml" : {
            "tracks" : [
              {
                "trackIndex" : 0,
                "medias" : [
                  {
                    "id" : 7,
                    "_type" : "UnifiedMedia",
                    "video" : 
                        {
                          "id" : 8,
                          "_type" : "ScreenVMFile",
                          "src" : 3,
                          "trackNumber" : 0,
                          "attributes" : {
                            "ident" : "Rec 05-29-19_009"
                          },
                          "parameters" : {
                            "cursorScale" : {
                              "type" : "double",
                              "defaultValue" : 1.0,
                              "interp" : "linr"
                            },
                            "cursorOpacity" : {
                              "type" : "double",
                              "defaultValue" : 1.0,
                              "interp" : "linr"
                            }
                          },
                          "effects" : [

                          ],
                          "start" : 270,
                          "duration" : 10726,
                          "mediaStart" : 0,
                          "mediaDuration" : 10726,
                          "scalar" : 1,
                          "animationTracks" : {

                          }
                        },
                    "audio" : 
                        {
                          "id" : 9,
                          "_type" : "AMFile",
                          "src" : 3,
                          "trackNumber" : 2,
                          "attributes" : {
                            "ident" : "",
                            "sampleRate" : 44100,
                            "bitDepth" : 16,
                            "gain" : 1.0,
                            "mixToMono" : false
                          },
                            "channelNumber" : "0,1",
                          "effects" : [

                          ],
                          "start" : 270,
                          "duration" : 10726,
                          "mediaStart" : 0,
                          "mediaDuration" : 10726,
                          "scalar" : 1,
                          "animationTracks" : {

                          }
                        }
,
                    "start" : 270,
                    "duration" : 10726,
                    "mediaStart" : 0,
                    "mediaDuration" : 10726,
                    "scalar" : 1,
                    "metadata" : {
                      "AutoAppliedSmartFocus" : "False",
                      "WinSubProjectDisplayName" : "",
                      "clipSpeedAttribute" : false
                    }
                  },
                  {
                    "id" : 10,
                    "_type" : "StitchedMedia",
                    "minMediaStart" : 0,
                    "attributes" : {
                      "ident" : "Rec 05-30-19",
                      "gain" : 1.0,
                      "mixToMono" : false
                    },
                    "parameters" : {
                      "volume" : 1.0,
                      "cursorOpacity" : 1.0,
                      "cursorScale" : 1.0
                    },
                    "medias" : [
                        {
                          "id" : 11,
                          "_type" : "UnifiedMedia",
                          "video" : 
                              {
                                "id" : 12,
                                "_type" : "ScreenVMFile",
                                "src" : 4,
                                "trackNumber" : 0,
                                "attributes" : {
                                  "ident" : "Rec 05-30-19"
                                },
                                "parameters" : {
                                  "cursorScale" : {
                                    "type" : "double",
                                    "defaultValue" : 0.0,
                                    "interp" : "linr"
                                  },
                                  "cursorOpacity" : {
                                    "type" : "double",
                                    "defaultValue" : 0.0,
                                    "interp" : "linr"
                                  }
                                },
                                "effects" : [

                                ],
                                "start" : 0,
                                "duration" : 2718,
                                "mediaStart" : 0,
                                "mediaDuration" : 2718,
                                "scalar" : 1,
                                "animationTracks" : {

                                }
                              },
                          "audio" : 
                              {
                                "id" : 13,
                                "_type" : "AMFile",
                                "src" : 4,
                                "trackNumber" : 2,
                                "attributes" : {
                                  "ident" : "",
                                  "sampleRate" : 44100,
                                  "bitDepth" : 16,
                                  "gain" : 1.0,
                                  "mixToMono" : false
                                },
                                  "channelNumber" : "0,1",
                                "effects" : [

                                ],
                                "start" : 0,
                                "duration" : 2718,
                                "mediaStart" : 0,
                                "mediaDuration" : 2718,
                                "scalar" : 1,
                                "animationTracks" : {

                                }
                              }
,
                          "start" : 0,
                          "duration" : 2718,
                          "mediaStart" : 0,
                          "mediaDuration" : 11899,
                          "scalar" : 1,
                          "metadata" : {
                            "AutoAppliedSmartFocus" : "False",
                            "WinSubProjectDisplayName" : "",
                            "clipSpeedAttribute" : false
                          }
                        },
                        {
                          "id" : 14,
                          "_type" : "UnifiedMedia",
                          "video" : 
                              {
                                "id" : 15,
                                "_type" : "ScreenVMFile",
                                "src" : 4,
                                "trackNumber" : 0,
                                "attributes" : {
                                  "ident" : "Rec 05-30-19"
                                },
                                "parameters" : {
                                  "cursorScale" : {
                                    "type" : "double",
                                    "defaultValue" : 0.0,
                                    "interp" : "linr"
                                  },
                                  "cursorOpacity" : {
                                    "type" : "double",
                                    "defaultValue" : 0.0,
                                    "interp" : "linr"
                                  }
                                },
                                "effects" : [

                                ],
                                "start" : 2718,
                                "duration" : 1516,
                                "mediaStart" : 2765,
                                "mediaDuration" : 1516,
                                "scalar" : 1,
                                "animationTracks" : {

                                }
                              },
                          "audio" : 
                              {
                                "id" : 16,
                                "_type" : "AMFile",
                                "src" : 4,
                                "trackNumber" : 2,
                                "attributes" : {
                                  "ident" : "",
                                  "sampleRate" : 44100,
                                  "bitDepth" : 16,
                                  "gain" : 1.0,
                                  "mixToMono" : false
                                },
                                  "channelNumber" : "0,1",
                                "effects" : [

                                ],
                                "start" : 2718,
                                "duration" : 1516,
                                "mediaStart" : 2765,
                                "mediaDuration" : 1516,
                                "scalar" : 1,
                                "animationTracks" : {

                                }
                              }
,
                          "start" : 2718,
                          "duration" : 1516,
                          "mediaStart" : 0,
                          "mediaDuration" : 11899,
                          "scalar" : 1,
                          "metadata" : {
                            "AutoAppliedSmartFocus" : "False",
                            "WinSubProjectDisplayName" : "",
                            "clipSpeedAttribute" : false
                          }
                        },
                        {
                          "id" : 17,
                          "_type" : "UnifiedMedia",
                          "video" : 
                              {
                                "id" : 18,
                                "_type" : "ScreenVMFile",
                                "src" : 4,
                                "trackNumber" : 0,
                                "attributes" : {
                                  "ident" : "Rec 05-30-19"
                                },
                                "parameters" : {
                                  "cursorScale" : {
                                    "type" : "double",
                                    "defaultValue" : 0.0,
                                    "interp" : "linr"
                                  },
                                  "cursorOpacity" : {
                                    "type" : "double",
                                    "defaultValue" : 0.0,
                                    "interp" : "linr"
                                  }
                                },
                                "effects" : [

                                ],
                                "start" : 4234,
                                "duration" : 4207,
                                "mediaStart" : 4444,
                                "mediaDuration" : 4207,
                                "scalar" : 1,
                                "animationTracks" : {

                                }
                              },
                          "audio" : 
                              {
                                "id" : 19,
                                "_type" : "AMFile",
                                "src" : 4,
                                "trackNumber" : 2,
                                "attributes" : {
                                  "ident" : "",
                                  "sampleRate" : 44100,
                                  "bitDepth" : 16,
                                  "gain" : 1.0,
                                  "mixToMono" : false
                                },
                                  "channelNumber" : "0,1",
                                "effects" : [

                                ],
                                "start" : 4234,
                                "duration" : 4207,
                                "mediaStart" : 4444,
                                "mediaDuration" : 4207,
                                "scalar" : 1,
                                "animationTracks" : {

                                }
                              }
,
                          "start" : 4234,
                          "duration" : 4207,
                          "mediaStart" : 0,
                          "mediaDuration" : 11899,
                          "scalar" : 1,
                          "metadata" : {
                            "AutoAppliedSmartFocus" : "False",
                            "WinSubProjectDisplayName" : "",
                            "clipSpeedAttribute" : false
                          }
                        },
                        {
                          "id" : 20,
                          "_type" : "UnifiedMedia",
                          "video" : 
                              {
                                "id" : 21,
                                "_type" : "ScreenVMFile",
                                "src" : 4,
                                "trackNumber" : 0,
                                "attributes" : {
                                  "ident" : "Rec 05-30-19"
                                },
                                "parameters" : {
                                  "cursorScale" : {
                                    "type" : "double",
                                    "defaultValue" : 0.0,
                                    "interp" : "linr"
                                  },
                                  "cursorOpacity" : {
                                    "type" : "double",
                                    "defaultValue" : 0.0,
                                    "interp" : "linr"
                                  }
                                },
                                "effects" : [

                                ],
                                "start" : 8441,
                                "duration" : 2233,
                                "mediaStart" : 9666,
                                "mediaDuration" : 2233,
                                "scalar" : 1,
                                "animationTracks" : {

                                }
                              },
                          "audio" : 
                              {
                                "id" : 22,
                                "_type" : "AMFile",
                                "src" : 4,
                                "trackNumber" : 2,
                                "attributes" : {
                                  "ident" : "",
                                  "sampleRate" : 44100,
                                  "bitDepth" : 16,
                                  "gain" : 1.0,
                                  "mixToMono" : false
                                },
                                  "channelNumber" : "0,1",
                                "effects" : [

                                ],
                                "start" : 8441,
                                "duration" : 2233,
                                "mediaStart" : 9666,
                                "mediaDuration" : 2233,
                                "scalar" : 1,
                                "animationTracks" : {

                                }
                              }
,
                          "start" : 8441,
                          "duration" : 2233,
                          "mediaStart" : 0,
                          "mediaDuration" : 11899,
                          "scalar" : 1,
                          "metadata" : {
                            "AutoAppliedSmartFocus" : "False",
                            "WinSubProjectDisplayName" : "",
                            "clipSpeedAttribute" : false
                          }
                        }
                    ],
                    "effects" : [

                    ],
                    "start" : 10996,
                    "duration" : 10603,
                    "mediaStart" : 0,
                    "mediaDuration" : 10603,
                    "scalar" : 1,
                    "metadata" : {
                      "AutoAppliedSmartFocus" : "False",
                      "WinSubProjectDisplayName" : "",
                      "clipSpeedAttribute" : false
                    },
                    "animationTracks" : {

                    }
                  },
                  {
                    "id" : 23,
                    "_type" : "StitchedMedia",
                    "minMediaStart" : 0,
                    "attributes" : {
                      "ident" : "Rec 05-30-19_001",
                      "gain" : 1.0,
                      "mixToMono" : false
                    },
                    "parameters" : {
                      "volume" : 1.0,
                      "cursorOpacity" : 1.0,
                      "cursorScale" : 1.0
                    },
                    "medias" : [
                        {
                          "id" : 24,
                          "_type" : "UnifiedMedia",
                          "video" : 
                              {
                                "id" : 25,
                                "_type" : "ScreenVMFile",
                                "src" : 5,
                                "trackNumber" : 0,
                                "attributes" : {
                                  "ident" : "Rec 05-30-19_001"
                                },
                                "parameters" : {
                                  "cursorScale" : {
                                    "type" : "double",
                                    "defaultValue" : 0.0,
                                    "interp" : "linr"
                                  },
                                  "cursorOpacity" : {
                                    "type" : "double",
                                    "defaultValue" : 0.0,
                                    "interp" : "linr"
                                  }
                                },
                                "effects" : [

                                ],
                                "start" : 0,
                                "duration" : 2121,
                                "mediaStart" : 0,
                                "mediaDuration" : 2121,
                                "scalar" : 1,
                                "animationTracks" : {

                                }
                              },
                          "audio" : 
                              {
                                "id" : 26,
                                "_type" : "AMFile",
                                "src" : 5,
                                "trackNumber" : 2,
                                "attributes" : {
                                  "ident" : "",
                                  "sampleRate" : 44100,
                                  "bitDepth" : 16,
                                  "gain" : 1.0,
                                  "mixToMono" : false
                                },
                                  "channelNumber" : "0,1",
                                "effects" : [

                                ],
                                "start" : 0,
                                "duration" : 2121,
                                "mediaStart" : 0,
                                "mediaDuration" : 2121,
                                "scalar" : 1,
                                "animationTracks" : {

                                }
                              }
,
                          "start" : 0,
                          "duration" : 2121,
                          "mediaStart" : 0,
                          "mediaDuration" : 10806,
                          "scalar" : 1,
                          "metadata" : {
                            "AutoAppliedSmartFocus" : "False",
                            "WinSubProjectDisplayName" : "",
                            "clipSpeedAttribute" : false
                          }
                        },
                        {
                          "id" : 27,
                          "_type" : "UnifiedMedia",
                          "video" : 
                              {
                                "id" : 28,
                                "_type" : "ScreenVMFile",
                                "src" : 5,
                                "trackNumber" : 0,
                                "attributes" : {
                                  "ident" : "Rec 05-30-19_001"
                                },
                                "parameters" : {
                                  "cursorScale" : {
                                    "type" : "double",
                                    "defaultValue" : 0.0,
                                    "interp" : "linr"
                                  },
                                  "cursorOpacity" : {
                                    "type" : "double",
                                    "defaultValue" : 0.0,
                                    "interp" : "linr"
                                  }
                                },
                                "effects" : [

                                ],
                                "start" : 2121,
                                "duration" : 367,
                                "mediaStart" : 2479,
                                "mediaDuration" : 367,
                                "scalar" : 1,
                                "animationTracks" : {

                                }
                              },
                          "audio" : 
                              {
                                "id" : 29,
                                "_type" : "AMFile",
                                "src" : 5,
                                "trackNumber" : 2,
                                "attributes" : {
                                  "ident" : "",
                                  "sampleRate" : 44100,
                                  "bitDepth" : 16,
                                  "gain" : 1.0,
                                  "mixToMono" : false
                                },
                                  "channelNumber" : "0,1",
                                "effects" : [

                                ],
                                "start" : 2121,
                                "duration" : 367,
                                "mediaStart" : 2479,
                                "mediaDuration" : 367,
                                "scalar" : 1,
                                "animationTracks" : {

                                }
                              }
,
                          "start" : 2121,
                          "duration" : 367,
                          "mediaStart" : 0,
                          "mediaDuration" : 10806,
                          "scalar" : 1,
                          "metadata" : {
                            "AutoAppliedSmartFocus" : "False",
                            "WinSubProjectDisplayName" : "",
                            "clipSpeedAttribute" : false
                          }
                        },
                        {
                          "id" : 30,
                          "_type" : "UnifiedMedia",
                          "video" : 
                              {
                                "id" : 31,
                                "_type" : "ScreenVMFile",
                                "src" : 5,
                                "trackNumber" : 0,
                                "attributes" : {
                                  "ident" : "Rec 05-30-19_001"
                                },
                                "parameters" : {
                                  "cursorScale" : {
                                    "type" : "double",
                                    "defaultValue" : 0.0,
                                    "interp" : "linr"
                                  },
                                  "cursorOpacity" : {
                                    "type" : "double",
                                    "defaultValue" : 0.0,
                                    "interp" : "linr"
                                  }
                                },
                                "effects" : [

                                ],
                                "start" : 2488,
                                "duration" : 489,
                                "mediaStart" : 3078,
                                "mediaDuration" : 489,
                                "scalar" : 1,
                                "animationTracks" : {

                                }
                              },
                          "audio" : 
                              {
                                "id" : 32,
                                "_type" : "AMFile",
                                "src" : 5,
                                "trackNumber" : 2,
                                "attributes" : {
                                  "ident" : "",
                                  "sampleRate" : 44100,
                                  "bitDepth" : 16,
                                  "gain" : 1.0,
                                  "mixToMono" : false
                                },
                                  "channelNumber" : "0,1",
                                "effects" : [

                                ],
                                "start" : 2488,
                                "duration" : 489,
                                "mediaStart" : 3078,
                                "mediaDuration" : 489,
                                "scalar" : 1,
                                "animationTracks" : {

                                }
                              }
,
                          "start" : 2488,
                          "duration" : 489,
                          "mediaStart" : 0,
                          "mediaDuration" : 10806,
                          "scalar" : 1,
                          "metadata" : {
                            "AutoAppliedSmartFocus" : "False",
                            "WinSubProjectDisplayName" : "",
                            "clipSpeedAttribute" : false
                          }
                        },
                        {
                          "id" : 33,
                          "_type" : "UnifiedMedia",
                          "video" : 
                              {
                                "id" : 34,
                                "_type" : "ScreenVMFile",
                                "src" : 5,
                                "trackNumber" : 0,
                                "attributes" : {
                                  "ident" : "Rec 05-30-19_001"
                                },
                                "parameters" : {
                                  "cursorScale" : {
                                    "type" : "double",
                                    "defaultValue" : 0.0,
                                    "interp" : "linr"
                                  },
                                  "cursorOpacity" : {
                                    "type" : "double",
                                    "defaultValue" : 0.0,
                                    "interp" : "linr"
                                  }
                                },
                                "effects" : [

                                ],
                                "start" : 2977,
                                "duration" : 235,
                                "mediaStart" : 3738,
                                "mediaDuration" : 235,
                                "scalar" : 1,
                                "animationTracks" : {

                                }
                              },
                          "audio" : 
                              {
                                "id" : 35,
                                "_type" : "AMFile",
                                "src" : 5,
                                "trackNumber" : 2,
                                "attributes" : {
                                  "ident" : "",
                                  "sampleRate" : 44100,
                                  "bitDepth" : 16,
                                  "gain" : 1.0,
                                  "mixToMono" : false
                                },
                                  "channelNumber" : "0,1",
                                "effects" : [

                                ],
                                "start" : 2977,
                                "duration" : 235,
                                "mediaStart" : 3738,
                                "mediaDuration" : 235,
                                "scalar" : 1,
                                "animationTracks" : {

                                }
                              }
,
                          "start" : 2977,
                          "duration" : 235,
                          "mediaStart" : 0,
                          "mediaDuration" : 10806,
                          "scalar" : 1,
                          "metadata" : {
                            "AutoAppliedSmartFocus" : "False",
                            "WinSubProjectDisplayName" : "",
                            "clipSpeedAttribute" : false
                          }
                        },
                        {
                          "id" : 36,
                          "_type" : "UnifiedMedia",
                          "video" : 
                              {
                                "id" : 37,
                                "_type" : "ScreenVMFile",
                                "src" : 5,
                                "trackNumber" : 0,
                                "attributes" : {
                                  "ident" : "Rec 05-30-19_001"
                                },
                                "parameters" : {
                                  "cursorScale" : {
                                    "type" : "double",
                                    "defaultValue" : 0.0,
                                    "interp" : "linr"
                                  },
                                  "cursorOpacity" : {
                                    "type" : "double",
                                    "defaultValue" : 0.0,
                                    "interp" : "linr"
                                  }
                                },
                                "effects" : [

                                ],
                                "start" : 3212,
                                "duration" : 584,
                                "mediaStart" : 4136,
                                "mediaDuration" : 584,
                                "scalar" : 1,
                                "animationTracks" : {

                                }
                              },
                          "audio" : 
                              {
                                "id" : 38,
                                "_type" : "AMFile",
                                "src" : 5,
                                "trackNumber" : 2,
                                "attributes" : {
                                  "ident" : "",
                                  "sampleRate" : 44100,
                                  "bitDepth" : 16,
                                  "gain" : 1.0,
                                  "mixToMono" : false
                                },
                                  "channelNumber" : "0,1",
                                "effects" : [

                                ],
                                "start" : 3212,
                                "duration" : 584,
                                "mediaStart" : 4136,
                                "mediaDuration" : 584,
                                "scalar" : 1,
                                "animationTracks" : {

                                }
                              }
,
                          "start" : 3212,
                          "duration" : 584,
                          "mediaStart" : 0,
                          "mediaDuration" : 10806,
                          "scalar" : 1,
                          "metadata" : {
                            "AutoAppliedSmartFocus" : "False",
                            "WinSubProjectDisplayName" : "",
                            "clipSpeedAttribute" : false
                          }
                        },
                        {
                          "id" : 39,
                          "_type" : "UnifiedMedia",
                          "video" : 
                              {
                                "id" : 40,
                                "_type" : "ScreenVMFile",
                                "src" : 5,
                                "trackNumber" : 0,
                                "attributes" : {
                                  "ident" : "Rec 05-30-19_001"
                                },
                                "parameters" : {
                                  "cursorScale" : {
                                    "type" : "double",
                                    "defaultValue" : 0.0,
                                    "interp" : "linr"
                                  },
                                  "cursorOpacity" : {
                                    "type" : "double",
                                    "defaultValue" : 0.0,
                                    "interp" : "linr"
                                  }
                                },
                                "effects" : [

                                ],
                                "start" : 3796,
                                "duration" : 42,
                                "mediaStart" : 6172,
                                "mediaDuration" : 42,
                                "scalar" : 1,
                                "animationTracks" : {

                                }
                              },
                          "audio" : 
                              {
                                "id" : 41,
                                "_type" : "AMFile",
                                "src" : 5,
                                "trackNumber" : 2,
                                "attributes" : {
                                  "ident" : "",
                                  "sampleRate" : 44100,
                                  "bitDepth" : 16,
                                  "gain" : 1.0,
                                  "mixToMono" : false
                                },
                                  "channelNumber" : "0,1",
                                "effects" : [

                                ],
                                "start" : 3796,
                                "duration" : 42,
                                "mediaStart" : 6172,
                                "mediaDuration" : 42,
                                "scalar" : 1,
                                "animationTracks" : {

                                }
                              }
,
                          "start" : 3796,
                          "duration" : 42,
                          "mediaStart" : 0,
                          "mediaDuration" : 10806,
                          "scalar" : 1,
                          "metadata" : {
                            "AutoAppliedSmartFocus" : "False",
                            "WinSubProjectDisplayName" : "",
                            "clipSpeedAttribute" : false
                          }
                        },
                        {
                          "id" : 42,
                          "_type" : "UnifiedMedia",
                          "video" : 
                              {
                                "id" : 43,
                                "_type" : "ScreenVMFile",
                                "src" : 5,
                                "trackNumber" : 0,
                                "attributes" : {
                                  "ident" : "Rec 05-30-19_001"
                                },
                                "parameters" : {
                                  "cursorScale" : {
                                    "type" : "double",
                                    "defaultValue" : 0.0,
                                    "interp" : "linr"
                                  },
                                  "cursorOpacity" : {
                                    "type" : "double",
                                    "defaultValue" : 0.0,
                                    "interp" : "linr"
                                  }
                                },
                                "effects" : [

                                ],
                                "start" : 3838,
                                "duration" : 1305,
                                "mediaStart" : 7692,
                                "mediaDuration" : 1305,
                                "scalar" : 1,
                                "animationTracks" : {

                                }
                              },
                          "audio" : 
                              {
                                "id" : 44,
                                "_type" : "AMFile",
                                "src" : 5,
                                "trackNumber" : 2,
                                "attributes" : {
                                  "ident" : "",
                                  "sampleRate" : 44100,
                                  "bitDepth" : 16,
                                  "gain" : 1.0,
                                  "mixToMono" : false
                                },
                                  "channelNumber" : "0,1",
                                "effects" : [

                                ],
                                "start" : 3838,
                                "duration" : 1305,
                                "mediaStart" : 7692,
                                "mediaDuration" : 1305,
                                "scalar" : 1,
                                "animationTracks" : {

                                }
                              }
,
                          "start" : 3838,
                          "duration" : 1305,
                          "mediaStart" : 0,
                          "mediaDuration" : 10806,
                          "scalar" : 1,
                          "metadata" : {
                            "AutoAppliedSmartFocus" : "False",
                            "WinSubProjectDisplayName" : "",
                            "clipSpeedAttribute" : false
                          }
                        },
                        {
                          "id" : 45,
                          "_type" : "UnifiedMedia",
                          "video" : 
                              {
                                "id" : 46,
                                "_type" : "ScreenVMFile",
                                "src" : 5,
                                "trackNumber" : 0,
                                "attributes" : {
                                  "ident" : "Rec 05-30-19_001"
                                },
                                "parameters" : {
                                  "cursorScale" : {
                                    "type" : "double",
                                    "defaultValue" : 0.0,
                                    "interp" : "linr"
                                  },
                                  "cursorOpacity" : {
                                    "type" : "double",
                                    "defaultValue" : 0.0,
                                    "interp" : "linr"
                                  }
                                },
                                "effects" : [

                                ],
                                "start" : 5143,
                                "duration" : 1643,
                                "mediaStart" : 9163,
                                "mediaDuration" : 1643,
                                "scalar" : 1,
                                "animationTracks" : {

                                }
                              },
                          "audio" : 
                              {
                                "id" : 47,
                                "_type" : "AMFile",
                                "src" : 5,
                                "trackNumber" : 2,
                                "attributes" : {
                                  "ident" : "",
                                  "sampleRate" : 44100,
                                  "bitDepth" : 16,
                                  "gain" : 1.0,
                                  "mixToMono" : false
                                },
                                  "channelNumber" : "0,1",
                                "effects" : [

                                ],
                                "start" : 5143,
                                "duration" : 1643,
                                "mediaStart" : 9163,
                                "mediaDuration" : 1643,
                                "scalar" : 1,
                                "animationTracks" : {

                                }
                              }
,
                          "start" : 5143,
                          "duration" : 1643,
                          "mediaStart" : 0,
                          "mediaDuration" : 10806,
                          "scalar" : 1,
                          "metadata" : {
                            "AutoAppliedSmartFocus" : "False",
                            "WinSubProjectDisplayName" : "",
                            "clipSpeedAttribute" : false
                          }
                        }
                    ],
                    "effects" : [

                    ],
                    "start" : 21599,
                    "duration" : 6574,
                    "mediaStart" : 0,
                    "mediaDuration" : 6574,
                    "scalar" : 1,
                    "metadata" : {
                      "AutoAppliedSmartFocus" : "False",
                      "WinSubProjectDisplayName" : "",
                      "clipSpeedAttribute" : false
                    },
                    "animationTracks" : {

                    }
                  }
                ],
                "transitions" : [
                  {
                    "name" : "Fade",
                    "duration" : 15,
                    "trivial" : false,
                    "useAudioPreRoll" : true,
                    "useVisualPreRoll" : true,
                    "leftMedia" : 7,
                    "rightMedia" : 10
                  },
                  {
                    "name" : "Fade",
                    "duration" : 15,
                    "trivial" : false,
                    "useAudioPreRoll" : true,
                    "useVisualPreRoll" : true,
                    "leftMedia" : 10,
                    "rightMedia" : 23
                  }
                ]
              },
              {
                "trackIndex" : 1,
                "medias" : [
                  {
                    "id" : 48,
                    "_type" : "Group",
                    "parameters" : {
                      "translation0" : 1.45519152283669e-10,
                      "translation1" : 1.32331479107961e-10,
                      "volume" : 1.0
                    },
                    "tracks" : [
                      {
                        "trackIndex" : 0,
                        "medias" : [
                          {
                            "id" : 49,
                            "_type" : "Group",
                            "parameters" : {
                              "translation0" : -1.45519152283669e-10,
                              "translation1" : -1.32331479107961e-10,
                              "volume" : 1.0
                            },
                            "tracks" : [
                              {
                                "trackIndex" : 0,
                                "medias" : [
                                  {
                                    "id" : 50,
                                    "_type" : "Callout",
                                    "def" : {
                                      "kind" : "remix",
                                      "shape" : "shape-rectangle",
                                      "style" : "urban",
                                      "fill-color-blue" : 0.235294117647059,
                                      "fill-color-green" : 0.298039215686275,
                                      "fill-color-opacity" : 1.0,
                                      "fill-color-red" : 0.905882352941176,
                                      "height" : 1080.0000000002,
                                      "stroke-color-blue" : 0.777079198166942,
                                      "stroke-color-green" : 0.93090625,
                                      "stroke-color-opacity" : 1.0,
                                      "stroke-color-red" : 0.113700037136884,
                                      "stroke-width" : 0.0,
                                      "width" : 1920.00000000019,
                                      "horizontal-alignment" : "center",
                                      "stroke-style" : "solid",
                                      "vertical-alignment" : "center",
                                      "textAttributes" : {
                                        "type" : "textAttributeList",
                                        "keyframes" : [
                                          {
                                            "endTime" : 0,
                                            "time" : 0,
                                            "value" : null,
                                            "duration" : 0
                                          }
                                        ]
                                      }
                                    },
                                    "attributes" : {
                                      "autoRotateText" : true
                                    },
                                    "parameters" : {
                                      "translation0" : 2.43858266912866e-11,
                                      "translation1" : 1.125499693444e-11
                                    },
                                    "effects" : [

                                    ],
                                    "start" : 0,
                                    "duration" : 100,
                                    "mediaStart" : 0,
                                    "mediaDuration" : 100,
                                    "scalar" : 1,
                                    "metadata" : {
                                      "WinSubProjectDisplayName" : "",
                                      "clipSpeedAttribute" : false
                                    },
                                    "animationTracks" : {

                                    }
                                  }
                                ],
                                  "ident" : "",
                                  "audioMuted" : false,
                                  "videoHidden" : false,
                                  "metadata" : {
                                    "IsLocked" : "False",
                                    "WinTrackHeight" : "0"
                                  }
                              },
                              {
                                "trackIndex" : 1,
                                "medias" : [
                                  {
                                    "id" : 51,
                                    "_type" : "Callout",
                                    "def" : {
                                      "kind" : "remix",
                                      "shape" : "shape-rectangle",
                                      "style" : "abstract",
                                      "fill-color-blue" : {
                                        "type" : "double",
                                        "defaultValue" : 0.556862745098039,
                                        "keyframes" : [
                                          {
                                            "endTime" : 32,
                                            "time" : 0,
                                            "value" : 0.556862745098039,
                                            "duration" : 32
                                          }
                                        ]
                                      },
                                      "fill-color-green" : {
                                        "type" : "double",
                                        "defaultValue" : 0.454901960784314,
                                        "keyframes" : [
                                          {
                                            "endTime" : 32,
                                            "time" : 0,
                                            "value" : 0.454901960784314,
                                            "duration" : 32
                                          }
                                        ]
                                      },
                                      "fill-color-opacity" : 1.0,
                                      "fill-color-red" : {
                                        "type" : "double",
                                        "defaultValue" : 0.235294117647059,
                                        "keyframes" : [
                                          {
                                            "endTime" : 32,
                                            "time" : 0,
                                            "value" : 0.235294117647059,
                                            "duration" : 32
                                          }
                                        ]
                                      },
                                      "height" : {
                                        "type" : "double",
                                        "defaultValue" : 6.95536632864869,
                                        "keyframes" : [
                                          {
                                            "endTime" : 32,
                                            "time" : 0,
                                            "value" : 784.000000000243,
                                            "duration" : 32
                                          }
                                        ]
                                      },
                                      "stroke-color-blue" : 1.0,
                                      "stroke-color-green" : 1.0,
                                      "stroke-color-opacity" : 1.0,
                                      "stroke-color-red" : 1.0,
                                      "stroke-width" : 0.0,
                                      "width" : {
                                        "type" : "double",
                                        "defaultValue" : 7.26449372104034,
                                        "keyframes" : [
                                          {
                                            "endTime" : 32,
                                            "time" : 0,
                                            "value" : 818.844444445516,
                                            "duration" : 32
                                          }
                                        ]
                                      },
                                      "horizontal-alignment" : "center",
                                      "stroke-style" : "solid",
                                      "vertical-alignment" : "center",
                                      "textAttributes" : {
                                        "type" : "textAttributeList",
                                        "keyframes" : [
                                          {
                                            "endTime" : 0,
                                            "time" : 0,
                                            "value" : null,
                                            "duration" : 0
                                          }
                                        ]
                                      }
                                    },
                                    "attributes" : {
                                      "autoRotateText" : true
                                    },
                                    "parameters" : {
                                      "translation0" : {
                                        "type" : "double",
                                        "defaultValue" : -6.11635186942294e-11,
                                        "keyframes" : [
                                          {
                                            "endTime" : 32,
                                            "time" : 0,
                                            "value" : -6.11635186942294e-11,
                                            "duration" : 32
                                          }
                                        ]
                                      },
                                      "translation1" : {
                                        "type" : "double",
                                        "defaultValue" : -7.98650034994353e-12,
                                        "keyframes" : [
                                          {
                                            "endTime" : 32,
                                            "time" : 0,
                                            "value" : -7.98650034994353e-12,
                                            "duration" : 32
                                          }
                                        ]
                                      },
                                      "rotation2" : {
                                        "type" : "double",
                                        "defaultValue" : 0.935769591402824,
                                        "keyframes" : [
                                          {
                                            "endTime" : 32,
                                            "time" : 0,
                                            "value" : 0.0,
                                            "duration" : 32
                                          }
                                        ]
                                      }
                                    },
                                    "effects" : [

                                    ],
                                    "start" : 10,
                                    "duration" : 37,
                                    "mediaStart" : 0,
                                    "mediaDuration" : 37,
                                    "scalar" : 1,
                                    "metadata" : {
                                      "WinSubProjectDisplayName" : "",
                                      "clipSpeedAttribute" : false
                                    },
                                    "animationTracks" : {
                                      "visual" : [
                                        {
                                          "endTime" : 32,
                                          "duration" : 32,
                                          "range" : [ 0, 32]
                                        }
                                      ]
                                    }
                                  }
                                ],
                                  "ident" : "",
                                  "audioMuted" : false,
                                  "videoHidden" : false,
                                  "metadata" : {
                                    "IsLocked" : "False",
                                    "WinTrackHeight" : "0"
                                  }
                              },
                              {
                                "trackIndex" : 2,
                                "medias" : [
                                  {
                                    "id" : 52,
                                    "_type" : "Callout",
                                    "def" : {
                                      "kind" : "remix",
                                      "shape" : "shape-rectangle",
                                      "style" : "abstract",
                                      "fill-color-blue" : {
                                        "type" : "double",
                                        "defaultValue" : 0.235294117647059,
                                        "keyframes" : [
                                          {
                                            "endTime" : 25,
                                            "time" : 0,
                                            "value" : 0.235294117647059,
                                            "duration" : 25
                                          }
                                        ]
                                      },
                                      "fill-color-green" : {
                                        "type" : "double",
                                        "defaultValue" : 0.298039215686275,
                                        "keyframes" : [
                                          {
                                            "endTime" : 25,
                                            "time" : 0,
                                            "value" : 0.298039215686275,
                                            "duration" : 25
                                          }
                                        ]
                                      },
                                      "fill-color-opacity" : 1.0,
                                      "fill-color-red" : {
                                        "type" : "double",
                                        "defaultValue" : 0.905882352941176,
                                        "keyframes" : [
                                          {
                                            "endTime" : 25,
                                            "time" : 0,
                                            "value" : 0.905882352941176,
                                            "duration" : 25
                                          }
                                        ]
                                      },
                                      "height" : {
                                        "type" : "double",
                                        "defaultValue" : 6.95536632864869,
                                        "keyframes" : [
                                          {
                                            "endTime" : 25,
                                            "time" : 0,
                                            "value" : 1051.32817372388,
                                            "duration" : 25
                                          }
                                        ]
                                      },
                                      "stroke-color-blue" : {
                                        "type" : "double",
                                        "defaultValue" : 0.777079198166942,
                                        "keyframes" : [
                                          {
                                            "endTime" : 25,
                                            "time" : 0,
                                            "value" : 0.777079198166942,
                                            "duration" : 25
                                          }
                                        ]
                                      },
                                      "stroke-color-green" : {
                                        "type" : "double",
                                        "defaultValue" : 0.93090625,
                                        "keyframes" : [
                                          {
                                            "endTime" : 25,
                                            "time" : 0,
                                            "value" : 0.93090625,
                                            "duration" : 25
                                          }
                                        ]
                                      },
                                      "stroke-color-opacity" : 1.0,
                                      "stroke-color-red" : {
                                        "type" : "double",
                                        "defaultValue" : 0.113700037136884,
                                        "keyframes" : [
                                          {
                                            "endTime" : 25,
                                            "time" : 0,
                                            "value" : 0.113700037136884,
                                            "duration" : 25
                                          }
                                        ]
                                      },
                                      "stroke-width" : 0.0,
                                      "width" : {
                                        "type" : "double",
                                        "defaultValue" : 7.26449372104034,
                                        "keyframes" : [
                                          {
                                            "endTime" : 25,
                                            "time" : 0,
                                            "value" : 1098.05387033492,
                                            "duration" : 25
                                          }
                                        ]
                                      },
                                      "horizontal-alignment" : "center",
                                      "stroke-style" : "solid",
                                      "vertical-alignment" : "center",
                                      "textAttributes" : {
                                        "type" : "textAttributeList",
                                        "keyframes" : [
                                          {
                                            "endTime" : 0,
                                            "time" : 0,
                                            "value" : null,
                                            "duration" : 0
                                          }
                                        ]
                                      }
                                    },
                                    "attributes" : {
                                      "autoRotateText" : true
                                    },
                                    "parameters" : {
                                      "translation0" : {
                                        "type" : "double",
                                        "defaultValue" : -6.11635186942294e-11,
                                        "keyframes" : [
                                          {
                                            "endTime" : 25,
                                            "time" : 0,
                                            "value" : -6.11635186942294e-11,
                                            "duration" : 25
                                          }
                                        ]
                                      },
                                      "translation1" : {
                                        "type" : "double",
                                        "defaultValue" : -7.98650034994353e-12,
                                        "keyframes" : [
                                          {
                                            "endTime" : 25,
                                            "time" : 0,
                                            "value" : -7.98650034994353e-12,
                                            "duration" : 25
                                          }
                                        ]
                                      },
                                      "rotation2" : {
                                        "type" : "double",
                                        "defaultValue" : 0.935769591402824,
                                        "keyframes" : [
                                          {
                                            "endTime" : 25,
                                            "time" : 0,
                                            "value" : -0.255182390620909,
                                            "duration" : 25
                                          }
                                        ]
                                      }
                                    },
                                    "effects" : [

                                    ],
                                    "start" : 17,
                                    "duration" : 30,
                                    "mediaStart" : 0,
                                    "mediaDuration" : 30,
                                    "scalar" : 1,
                                    "metadata" : {
                                      "WinSubProjectDisplayName" : "",
                                      "clipSpeedAttribute" : false
                                    },
                                    "animationTracks" : {
                                      "visual" : [
                                        {
                                          "endTime" : 25,
                                          "duration" : 25,
                                          "range" : [ 0, 25]
                                        }
                                      ]
                                    }
                                  }
                                ],
                                  "ident" : "",
                                  "audioMuted" : false,
                                  "videoHidden" : false,
                                  "metadata" : {
                                    "IsLocked" : "False",
                                    "WinTrackHeight" : "0"
                                  }
                              },
                              {
                                "trackIndex" : 3,
                                "medias" : [
                                  {
                                    "id" : 53,
                                    "_type" : "Callout",
                                    "def" : {
                                      "kind" : "remix",
                                      "shape" : "shape-ellipse",
                                      "style" : "bold",
                                      "fill-color-blue" : {
                                        "type" : "double",
                                        "defaultValue" : 0.235294117647059,
                                        "keyframes" : [
                                          {
                                            "endTime" : 21,
                                            "time" : 0,
                                            "value" : 0.235294117647059,
                                            "duration" : 21
                                          },
                                          {
                                            "endTime" : 25,
                                            "time" : 21,
                                            "value" : 0.235294117647059,
                                            "duration" : 4
                                          }
                                        ]
                                      },
                                      "fill-color-green" : {
                                        "type" : "double",
                                        "defaultValue" : 0.298039215686275,
                                        "keyframes" : [
                                          {
                                            "endTime" : 21,
                                            "time" : 0,
                                            "value" : 0.298039215686275,
                                            "duration" : 21
                                          },
                                          {
                                            "endTime" : 25,
                                            "time" : 21,
                                            "value" : 0.298039215686275,
                                            "duration" : 4
                                          }
                                        ]
                                      },
                                      "fill-color-opacity" : 1.0,
                                      "fill-color-red" : {
                                        "type" : "double",
                                        "defaultValue" : 0.905882352941176,
                                        "keyframes" : [
                                          {
                                            "endTime" : 21,
                                            "time" : 0,
                                            "value" : 0.905882352941176,
                                            "duration" : 21
                                          },
                                          {
                                            "endTime" : 25,
                                            "time" : 21,
                                            "value" : 0.905882352941176,
                                            "duration" : 4
                                          }
                                        ]
                                      },
                                      "height" : {
                                        "type" : "double",
                                        "defaultValue" : 12.000000000389,
                                        "keyframes" : [
                                          {
                                            "endTime" : 21,
                                            "time" : 0,
                                            "value" : 673.920000000227,
                                            "duration" : 21
                                          },
                                          {
                                            "endTime" : 25,
                                            "time" : 21,
                                            "value" : 800.000000000197,
                                            "duration" : 4
                                          }
                                        ]
                                      },
                                      "stroke-color-blue" : {
                                        "type" : "double",
                                        "defaultValue" : 0.777079198166942,
                                        "keyframes" : [
                                          {
                                            "endTime" : 21,
                                            "time" : 0,
                                            "value" : 0.777079198166942,
                                            "duration" : 21
                                          },
                                          {
                                            "endTime" : 25,
                                            "time" : 21,
                                            "value" : 0.777079198166942,
                                            "duration" : 4
                                          }
                                        ]
                                      },
                                      "stroke-color-green" : {
                                        "type" : "double",
                                        "defaultValue" : 0.93090625,
                                        "keyframes" : [
                                          {
                                            "endTime" : 21,
                                            "time" : 0,
                                            "value" : 0.93090625,
                                            "duration" : 21
                                          },
                                          {
                                            "endTime" : 25,
                                            "time" : 21,
                                            "value" : 0.93090625,
                                            "duration" : 4
                                          }
                                        ]
                                      },
                                      "stroke-color-opacity" : {
                                        "type" : "double",
                                        "defaultValue" : 1.0,
                                        "keyframes" : [
                                          {
                                            "endTime" : 21,
                                            "time" : 0,
                                            "value" : 1.0,
                                            "duration" : 21
                                          },
                                          {
                                            "endTime" : 25,
                                            "time" : 21,
                                            "value" : 0.0,
                                            "duration" : 4
                                          }
                                        ]
                                      },
                                      "stroke-color-red" : {
                                        "type" : "double",
                                        "defaultValue" : 0.113700037136884,
                                        "keyframes" : [
                                          {
                                            "endTime" : 21,
                                            "time" : 0,
                                            "value" : 0.113700037136884,
                                            "duration" : 21
                                          },
                                          {
                                            "endTime" : 25,
                                            "time" : 21,
                                            "value" : 0.113700037136884,
                                            "duration" : 4
                                          }
                                        ]
                                      },
                                      "stroke-width" : {
                                        "type" : "double",
                                        "defaultValue" : 3.2972282606003,
                                        "keyframes" : [
                                          {
                                            "endTime" : 21,
                                            "time" : 0,
                                            "value" : 13.2523923911482,
                                            "duration" : 21
                                          },
                                          {
                                            "endTime" : 25,
                                            "time" : 21,
                                            "value" : 15.1486141303002,
                                            "duration" : 4
                                          }
                                        ]
                                      },
                                      "width" : {
                                        "type" : "double",
                                        "defaultValue" : 12.000000000389,
                                        "keyframes" : [
                                          {
                                            "endTime" : 21,
                                            "time" : 0,
                                            "value" : 673.920000000227,
                                            "duration" : 21
                                          },
                                          {
                                            "endTime" : 25,
                                            "time" : 21,
                                            "value" : 800.000000000197,
                                            "duration" : 4
                                          }
                                        ]
                                      },
                                      "horizontal-alignment" : "center",
                                      "stroke-style" : "solid",
                                      "vertical-alignment" : "center",
                                      "textAttributes" : {
                                        "type" : "textAttributeList",
                                        "keyframes" : [
                                          {
                                            "endTime" : 0,
                                            "time" : 0,
                                            "value" : null,
                                            "duration" : 0
                                          }
                                        ]
                                      }
                                    },
                                    "attributes" : {
                                      "autoRotateText" : true
                                    },
                                    "parameters" : {
                                      "translation0" : {
                                        "type" : "double",
                                        "defaultValue" : 1.59104729391402e-10,
                                        "keyframes" : [
                                          {
                                            "endTime" : 21,
                                            "time" : 0,
                                            "value" : 1.59104729391402e-10,
                                            "duration" : 21
                                          },
                                          {
                                            "endTime" : 25,
                                            "time" : 21,
                                            "value" : 1.59104729391402e-10,
                                            "duration" : 4
                                          }
                                        ]
                                      },
                                      "translation1" : {
                                        "type" : "double",
                                        "defaultValue" : -6.55546728012268e-11,
                                        "keyframes" : [
                                          {
                                            "endTime" : 21,
                                            "time" : 0,
                                            "value" : -6.55546728012268e-11,
                                            "duration" : 21
                                          },
                                          {
                                            "endTime" : 25,
                                            "time" : 21,
                                            "value" : -6.55546728012268e-11,
                                            "duration" : 4
                                          }
                                        ]
                                      }
                                    },
                                    "effects" : [

                                    ],
                                    "start" : 26,
                                    "duration" : 30,
                                    "mediaStart" : 0,
                                    "mediaDuration" : 30,
                                    "scalar" : 1,
                                    "metadata" : {
                                      "WinSubProjectDisplayName" : "",
                                      "clipSpeedAttribute" : false
                                    },
                                    "animationTracks" : {
                                      "visual" : [
                                        {
                                          "endTime" : 21,
                                          "duration" : 21,
                                          "range" : [ 0, 21]
                                        },
                                        {
                                          "endTime" : 25,
                                          "duration" : 4,
                                          "range" : [ 21, 4]
                                        }
                                      ]
                                    }
                                  },
                                  {
                                    "id" : 54,
                                    "_type" : "Callout",
                                    "def" : {
                                      "kind" : "remix",
                                      "shape" : "shape-rectangle",
                                      "style" : "abstract",
                                      "fill-color-blue" : {
                                        "type" : "double",
                                        "defaultValue" : 0.725490196078431,
                                        "keyframes" : [
                                          {
                                            "endTime" : 21,
                                            "time" : 7,
                                            "value" : 0.725490196078431,
                                            "duration" : 14
                                          }
                                        ]
                                      },
                                      "fill-color-green" : {
                                        "type" : "double",
                                        "defaultValue" : 0.501960784313725,
                                        "keyframes" : [
                                          {
                                            "endTime" : 21,
                                            "time" : 7,
                                            "value" : 0.501960784313725,
                                            "duration" : 14
                                          }
                                        ]
                                      },
                                      "fill-color-opacity" : 1.0,
                                      "fill-color-red" : {
                                        "type" : "double",
                                        "defaultValue" : 0.16078431372549,
                                        "keyframes" : [
                                          {
                                            "endTime" : 21,
                                            "time" : 7,
                                            "value" : 0.16078431372549,
                                            "duration" : 14
                                          }
                                        ]
                                      },
                                      "height" : {
                                        "type" : "double",
                                        "defaultValue" : 1970.84482462071,
                                        "keyframes" : [
                                          {
                                            "endTime" : 21,
                                            "time" : 7,
                                            "value" : 2713.03609938265,
                                            "duration" : 14
                                          }
                                        ]
                                      },
                                      "stroke-color-blue" : 1.0,
                                      "stroke-color-green" : 1.0,
                                      "stroke-color-opacity" : 1.0,
                                      "stroke-color-red" : 1.0,
                                      "stroke-width" : 0.0,
                                      "width" : {
                                        "type" : "double",
                                        "defaultValue" : 6.44547658048049,
                                        "keyframes" : [
                                          {
                                            "endTime" : 21,
                                            "time" : 7,
                                            "value" : 2256.39114786797,
                                            "duration" : 14
                                          }
                                        ]
                                      },
                                      "horizontal-alignment" : "center",
                                      "stroke-style" : "solid",
                                      "vertical-alignment" : "center",
                                      "textAttributes" : {
                                        "type" : "textAttributeList",
                                        "keyframes" : [
                                          {
                                            "endTime" : 0,
                                            "time" : 0,
                                            "value" : null,
                                            "duration" : 0
                                          }
                                        ]
                                      }
                                    },
                                    "attributes" : {
                                      "autoRotateText" : true
                                    },
                                    "parameters" : {
                                      "translation0" : {
                                        "type" : "double",
                                        "defaultValue" : 1.45519152283669e-10,
                                        "keyframes" : [
                                          {
                                            "endTime" : 21,
                                            "time" : 7,
                                            "value" : 1.45519152283669e-10,
                                            "duration" : 14
                                          }
                                        ]
                                      },
                                      "translation1" : {
                                        "type" : "double",
                                        "defaultValue" : 1.32367006244749e-10,
                                        "keyframes" : [
                                          {
                                            "endTime" : 21,
                                            "time" : 7,
                                            "value" : 1.32367006244749e-10,
                                            "duration" : 14
                                          }
                                        ]
                                      },
                                      "rotation2" : {
                                        "type" : "double",
                                        "defaultValue" : -0.518985227673131,
                                        "keyframes" : [
                                          {
                                            "endTime" : 21,
                                            "time" : 7,
                                            "value" : -0.518985227673131,
                                            "duration" : 14
                                          }
                                        ]
                                      }
                                    },
                                    "effects" : [

                                    ],
                                    "start" : 84,
                                    "duration" : 18,
                                    "mediaStart" : 7,
                                    "mediaDuration" : 18,
                                    "scalar" : 1,
                                    "metadata" : {
                                      "WinSubProjectDisplayName" : "",
                                      "clipSpeedAttribute" : false
                                    },
                                    "animationTracks" : {
                                      "visual" : [
                                        {
                                          "endTime" : 21,
                                          "duration" : 14,
                                          "range" : [ 7, 14],
                                          "interp" : "linr"
                                        }
                                      ]
                                    }
                                  },
                                  {
                                    "id" : 55,
                                    "_type" : "Callout",
                                    "def" : {
                                      "kind" : "remix",
                                      "shape" : "shape-rectangle",
                                      "style" : "urban",
                                      "fill-color-blue" : 0.725490196078431,
                                      "fill-color-green" : 0.501960784313725,
                                      "fill-color-opacity" : 1.0,
                                      "fill-color-red" : 0.16078431372549,
                                      "height" : 1080.00000000011,
                                      "stroke-color-blue" : 1.0,
                                      "stroke-color-green" : 1.0,
                                      "stroke-color-opacity" : 1.0,
                                      "stroke-color-red" : 1.0,
                                      "stroke-width" : 0.0,
                                      "width" : 1920.00002629153,
                                      "fill-style" : "solid",
                                      "horizontal-alignment" : "center",
                                      "stroke-style" : "solid",
                                      "vertical-alignment" : "center",
                                      "textAttributes" : {
                                        "type" : "textAttributeList",
                                        "keyframes" : [
                                          {
                                            "endTime" : 0,
                                            "time" : 0,
                                            "value" : null,
                                            "duration" : 0
                                          }
                                        ]
                                      }
                                    },
                                    "attributes" : {
                                      "autoRotateText" : true
                                    },
                                    "parameters" : {
                                      "translation0" : 1.31458509144977e-05,
                                      "translation1" : 4.2348347051302e-11
                                    },
                                    "effects" : [
                                        {
                                          "effectName" : "DropShadow",
                                          "category" : "categoryVisualEffects",
                                          "parameters" : {
                                            "angle" : {
                                              "type" : "double",
                                              "defaultValue" : 5.49778714378214,
                                              "valueBounds" : {
                                                "minValue" : 0.0,
                                                "maxValue" : 0.0,
                                                "defaultValue" : 5.49778714378214
                                              },
                                              "uiHints" : {
                                                "userInterfaceType" : 0,
                                                "unitType" : 0
                                              }
                                            },
                                            "blur" : {
                                              "type" : "double",
                                              "defaultValue" : 10.0,
                                              "valueBounds" : {
                                                "minValue" : 0.0,
                                                "maxValue" : 50.0,
                                                "defaultValue" : 10.0
                                              },
                                              "uiHints" : {
                                                "userInterfaceType" : 0,
                                                "unitType" : 0
                                              }
                                            },
                                            "color-alpha" : {
                                              "type" : "double",
                                              "defaultValue" : 1.0,
                                              "valueBounds" : {
                                                "minValue" : 0.0,
                                                "maxValue" : 1.0,
                                                "defaultValue" : 1.0
                                              },
                                              "uiHints" : {
                                                "userInterfaceType" : 0,
                                                "unitType" : 0
                                              }
                                            },
                                            "color-blue" : {
                                              "type" : "double",
                                              "defaultValue" : 0.1216,
                                              "valueBounds" : {
                                                "minValue" : 0.0,
                                                "maxValue" : 1.0,
                                                "defaultValue" : 0.1216
                                              },
                                              "uiHints" : {
                                                "userInterfaceType" : 0,
                                                "unitType" : 0
                                              }
                                            },
                                            "color-green" : {
                                              "type" : "double",
                                              "defaultValue" : 0.1216,
                                              "valueBounds" : {
                                                "minValue" : 0.0,
                                                "maxValue" : 1.0,
                                                "defaultValue" : 0.1216
                                              },
                                              "uiHints" : {
                                                "userInterfaceType" : 0,
                                                "unitType" : 0
                                              }
                                            },
                                            "color-red" : {
                                              "type" : "double",
                                              "defaultValue" : 0.1216,
                                              "valueBounds" : {
                                                "minValue" : 0.0,
                                                "maxValue" : 1.0,
                                                "defaultValue" : 0.1216
                                              },
                                              "uiHints" : {
                                                "userInterfaceType" : 0,
                                                "unitType" : 0
                                              }
                                            },
                                            "enabled" : {
                                              "type" : "int",
                                              "valueBounds" : {
                                                "minValue" : 0,
                                                "maxValue" : 1,
                                                "defaultValue" : 1
                                              },
                                              "uiHints" : {
                                                "userInterfaceType" : 0,
                                                "unitType" : 0
                                              },
                                              "keyframes" : [
                                                {
                                                  "endTime" : 0,
                                                  "time" : 0,
                                                  "value" : 1,
                                                  "duration" : 0
                                                }
                                              ]
                                            },
                                            "offset" : {
                                              "type" : "double",
                                              "defaultValue" : 10.0,
                                              "valueBounds" : {
                                                "minValue" : 0.0,
                                                "maxValue" : 250.0,
                                                "defaultValue" : 10.0
                                              },
                                              "uiHints" : {
                                                "userInterfaceType" : 0,
                                                "unitType" : 0
                                              }
                                            },
                                            "opacity" : {
                                              "type" : "double",
                                              "defaultValue" : 0.4,
                                              "valueBounds" : {
                                                "minValue" : 0.0,
                                                "maxValue" : 1.0,
                                                "defaultValue" : 0.4
                                              },
                                              "uiHints" : {
                                                "userInterfaceType" : 0,
                                                "unitType" : 0
                                              }
                                            }
                                          }
                                        }
                                    ],
                                    "start" : 102,
                                    "duration" : 168,
                                    "mediaStart" : 0,
                                    "mediaDuration" : 168,
                                    "scalar" : 1,
                                    "metadata" : {
                                      "WinSubProjectDisplayName" : "",
                                      "clipSpeedAttribute" : false
                                    },
                                    "animationTracks" : {

                                    }
                                  }
                                ],
                                "transitions" : [
                                  {
                                    "name" : "Fade",
                                    "duration" : 30,
                                    "trivial" : false,
                                    "useAudioPreRoll" : false,
                                    "useVisualPreRoll" : true,
                                    "leftMedia" : 55
                                  }
                                ],
                                  "ident" : "",
                                  "audioMuted" : false,
                                  "videoHidden" : false,
                                  "metadata" : {
                                    "IsLocked" : "False",
                                    "WinTrackHeight" : "0"
                                  }
                              },
                              {
                                "trackIndex" : 4,
                                "medias" : [
                                  {
                                    "id" : 56,
                                    "_type" : "Callout",
                                    "def" : {
                                      "kind" : "remix",
                                      "shape" : "shape-ellipse",
                                      "style" : "bold",
                                      "fill-color-blue" : {
                                        "type" : "double",
                                        "defaultValue" : 0.235294117647059,
                                        "keyframes" : [
                                          {
                                            "endTime" : 21,
                                            "time" : 0,
                                            "value" : 0.235294117647059,
                                            "duration" : 21
                                          },
                                          {
                                            "endTime" : 25,
                                            "time" : 21,
                                            "value" : 0.235294117647059,
                                            "duration" : 4
                                          }
                                        ]
                                      },
                                      "fill-color-green" : {
                                        "type" : "double",
                                        "defaultValue" : 0.298039215686275,
                                        "keyframes" : [
                                          {
                                            "endTime" : 21,
                                            "time" : 0,
                                            "value" : 0.298039215686275,
                                            "duration" : 21
                                          },
                                          {
                                            "endTime" : 25,
                                            "time" : 21,
                                            "value" : 0.298039215686275,
                                            "duration" : 4
                                          }
                                        ]
                                      },
                                      "fill-color-opacity" : 1.0,
                                      "fill-color-red" : {
                                        "type" : "double",
                                        "defaultValue" : 0.905882352941176,
                                        "keyframes" : [
                                          {
                                            "endTime" : 21,
                                            "time" : 0,
                                            "value" : 0.905882352941176,
                                            "duration" : 21
                                          },
                                          {
                                            "endTime" : 25,
                                            "time" : 21,
                                            "value" : 0.905882352941176,
                                            "duration" : 4
                                          }
                                        ]
                                      },
                                      "height" : {
                                        "type" : "double",
                                        "defaultValue" : 12.000000000389,
                                        "keyframes" : [
                                          {
                                            "endTime" : 21,
                                            "time" : 0,
                                            "value" : 673.920000000227,
                                            "duration" : 21
                                          },
                                          {
                                            "endTime" : 25,
                                            "time" : 21,
                                            "value" : 800.000000000197,
                                            "duration" : 4
                                          }
                                        ]
                                      },
                                      "stroke-color-blue" : {
                                        "type" : "double",
                                        "defaultValue" : 0.777079198166942,
                                        "keyframes" : [
                                          {
                                            "endTime" : 21,
                                            "time" : 0,
                                            "value" : 0.777079198166942,
                                            "duration" : 21
                                          },
                                          {
                                            "endTime" : 25,
                                            "time" : 21,
                                            "value" : 0.777079198166942,
                                            "duration" : 4
                                          }
                                        ]
                                      },
                                      "stroke-color-green" : {
                                        "type" : "double",
                                        "defaultValue" : 0.93090625,
                                        "keyframes" : [
                                          {
                                            "endTime" : 21,
                                            "time" : 0,
                                            "value" : 0.93090625,
                                            "duration" : 21
                                          },
                                          {
                                            "endTime" : 25,
                                            "time" : 21,
                                            "value" : 0.93090625,
                                            "duration" : 4
                                          }
                                        ]
                                      },
                                      "stroke-color-opacity" : {
                                        "type" : "double",
                                        "defaultValue" : 1.0,
                                        "keyframes" : [
                                          {
                                            "endTime" : 21,
                                            "time" : 0,
                                            "value" : 1.0,
                                            "duration" : 21
                                          },
                                          {
                                            "endTime" : 25,
                                            "time" : 21,
                                            "value" : 0.0,
                                            "duration" : 4
                                          }
                                        ]
                                      },
                                      "stroke-color-red" : {
                                        "type" : "double",
                                        "defaultValue" : 0.113700037136884,
                                        "keyframes" : [
                                          {
                                            "endTime" : 21,
                                            "time" : 0,
                                            "value" : 0.113700037136884,
                                            "duration" : 21
                                          },
                                          {
                                            "endTime" : 25,
                                            "time" : 21,
                                            "value" : 0.113700037136884,
                                            "duration" : 4
                                          }
                                        ]
                                      },
                                      "stroke-width" : {
                                        "type" : "double",
                                        "defaultValue" : 3.2972282606003,
                                        "keyframes" : [
                                          {
                                            "endTime" : 21,
                                            "time" : 0,
                                            "value" : 13.2523923911482,
                                            "duration" : 21
                                          },
                                          {
                                            "endTime" : 25,
                                            "time" : 21,
                                            "value" : 15.1486141303002,
                                            "duration" : 4
                                          }
                                        ]
                                      },
                                      "width" : {
                                        "type" : "double",
                                        "defaultValue" : 12.000000000389,
                                        "keyframes" : [
                                          {
                                            "endTime" : 21,
                                            "time" : 0,
                                            "value" : 673.920000000227,
                                            "duration" : 21
                                          },
                                          {
                                            "endTime" : 25,
                                            "time" : 21,
                                            "value" : 800.000000000197,
                                            "duration" : 4
                                          }
                                        ]
                                      },
                                      "horizontal-alignment" : "center",
                                      "stroke-style" : "solid",
                                      "vertical-alignment" : "center",
                                      "textAttributes" : {
                                        "type" : "textAttributeList",
                                        "keyframes" : [
                                          {
                                            "endTime" : 0,
                                            "time" : 0,
                                            "value" : null,
                                            "duration" : 0
                                          }
                                        ]
                                      }
                                    },
                                    "attributes" : {
                                      "autoRotateText" : true
                                    },
                                    "parameters" : {
                                      "translation0" : {
                                        "type" : "double",
                                        "defaultValue" : 1.59104729391402e-10,
                                        "keyframes" : [
                                          {
                                            "endTime" : 21,
                                            "time" : 0,
                                            "value" : 1.59104729391402e-10,
                                            "duration" : 21
                                          },
                                          {
                                            "endTime" : 25,
                                            "time" : 21,
                                            "value" : 1.59104729391402e-10,
                                            "duration" : 4
                                          }
                                        ]
                                      },
                                      "translation1" : {
                                        "type" : "double",
                                        "defaultValue" : -6.55546728012268e-11,
                                        "keyframes" : [
                                          {
                                            "endTime" : 21,
                                            "time" : 0,
                                            "value" : -6.55546728012268e-11,
                                            "duration" : 21
                                          },
                                          {
                                            "endTime" : 25,
                                            "time" : 21,
                                            "value" : -6.55546728012268e-11,
                                            "duration" : 4
                                          }
                                        ]
                                      }
                                    },
                                    "effects" : [

                                    ],
                                    "start" : 35,
                                    "duration" : 30,
                                    "mediaStart" : 0,
                                    "mediaDuration" : 30,
                                    "scalar" : 1,
                                    "metadata" : {
                                      "WinSubProjectDisplayName" : "",
                                      "clipSpeedAttribute" : false
                                    },
                                    "animationTracks" : {
                                      "visual" : [
                                        {
                                          "endTime" : 21,
                                          "duration" : 21,
                                          "range" : [ 0, 21]
                                        },
                                        {
                                          "endTime" : 25,
                                          "duration" : 4,
                                          "range" : [ 21, 4]
                                        }
                                      ]
                                    }
                                  },
                                  {
                                    "id" : 57,
                                    "_type" : "Callout",
                                    "def" : {
                                      "kind" : "remix",
                                      "shape" : "shape-rectangle",
                                      "style" : "urban",
                                      "fill-color-blue" : {
                                        "type" : "double",
                                        "defaultValue" : 1.0,
                                        "keyframes" : [
                                          {
                                            "endTime" : 10,
                                            "time" : 0,
                                            "value" : 1.0,
                                            "duration" : 10
                                          }
                                        ]
                                      },
                                      "fill-color-green" : {
                                        "type" : "double",
                                        "defaultValue" : 1.0,
                                        "keyframes" : [
                                          {
                                            "endTime" : 10,
                                            "time" : 0,
                                            "value" : 1.0,
                                            "duration" : 10
                                          }
                                        ]
                                      },
                                      "fill-color-opacity" : 1.0,
                                      "fill-color-red" : {
                                        "type" : "double",
                                        "defaultValue" : 1.0,
                                        "keyframes" : [
                                          {
                                            "endTime" : 10,
                                            "time" : 0,
                                            "value" : 1.0,
                                            "duration" : 10
                                          }
                                        ]
                                      },
                                      "height" : {
                                        "type" : "double",
                                        "defaultValue" : 6.861561236135,
                                        "keyframes" : [
                                          {
                                            "endTime" : 10,
                                            "time" : 0,
                                            "value" : 1314.7048957085,
                                            "duration" : 10
                                          }
                                        ]
                                      },
                                      "stroke-color-blue" : 1.0,
                                      "stroke-color-green" : 1.0,
                                      "stroke-color-opacity" : 1.0,
                                      "stroke-color-red" : 1.0,
                                      "stroke-width" : 0.0,
                                      "width" : 7.99999999997041,
                                      "horizontal-alignment" : "center",
                                      "stroke-style" : "solid",
                                      "vertical-alignment" : "center",
                                      "textAttributes" : {
                                        "type" : "textAttributeList",
                                        "keyframes" : [
                                          {
                                            "endTime" : 0,
                                            "time" : 0,
                                            "value" : null,
                                            "duration" : 0
                                          }
                                        ]
                                      }
                                    },
                                    "attributes" : {
                                      "autoRotateText" : true
                                    },
                                    "parameters" : {
                                      "translation0" : {
                                        "type" : "double",
                                        "defaultValue" : -1.00115471468598e-11,
                                        "keyframes" : [
                                          {
                                            "endTime" : 10,
                                            "time" : 0,
                                            "value" : -1.00115471468598e-11,
                                            "duration" : 10
                                          }
                                        ]
                                      },
                                      "translation1" : {
                                        "type" : "double",
                                        "defaultValue" : -3.00737212910462e-12,
                                        "keyframes" : [
                                          {
                                            "endTime" : 10,
                                            "time" : 0,
                                            "value" : -3.00737212910462e-12,
                                            "duration" : 10
                                          }
                                        ]
                                      },
                                      "rotation2" : {
                                        "type" : "double",
                                        "defaultValue" : -0.523598775598299,
                                        "keyframes" : [
                                          {
                                            "endTime" : 10,
                                            "time" : 0,
                                            "value" : -0.523598775598299,
                                            "duration" : 10
                                          }
                                        ]
                                      }
                                    },
                                    "effects" : [

                                    ],
                                    "start" : 65,
                                    "duration" : 11,
                                    "mediaStart" : 0,
                                    "mediaDuration" : 11,
                                    "scalar" : 1,
                                    "metadata" : {
                                      "WinSubProjectDisplayName" : "",
                                      "clipSpeedAttribute" : false
                                    },
                                    "animationTracks" : {
                                      "visual" : [
                                        {
                                          "endTime" : 10,
                                          "duration" : 10,
                                          "range" : [ 0, 10]
                                        }
                                      ]
                                    }
                                  },
                                  {
                                    "id" : 58,
                                    "_type" : "Callout",
                                    "def" : {
                                      "kind" : "remix",
                                      "shape" : "shape-rectangle",
                                      "style" : "urban",
                                      "fill-color-blue" : {
                                        "type" : "double",
                                        "defaultValue" : 1.0,
                                        "keyframes" : [
                                          {
                                            "endTime" : 10,
                                            "time" : 0,
                                            "value" : 1.0,
                                            "duration" : 10
                                          },
                                          {
                                            "endTime" : 33,
                                            "time" : 19,
                                            "value" : 1.0,
                                            "duration" : 14
                                          }
                                        ]
                                      },
                                      "fill-color-green" : {
                                        "type" : "double",
                                        "defaultValue" : 1.0,
                                        "keyframes" : [
                                          {
                                            "endTime" : 10,
                                            "time" : 0,
                                            "value" : 1.0,
                                            "duration" : 10
                                          },
                                          {
                                            "endTime" : 33,
                                            "time" : 19,
                                            "value" : 1.0,
                                            "duration" : 14
                                          }
                                        ]
                                      },
                                      "fill-color-opacity" : 1.0,
                                      "fill-color-red" : {
                                        "type" : "double",
                                        "defaultValue" : 1.0,
                                        "keyframes" : [
                                          {
                                            "endTime" : 10,
                                            "time" : 0,
                                            "value" : 1.0,
                                            "duration" : 10
                                          },
                                          {
                                            "endTime" : 33,
                                            "time" : 19,
                                            "value" : 1.0,
                                            "duration" : 14
                                          }
                                        ]
                                      },
                                      "height" : {
                                        "type" : "double",
                                        "defaultValue" : 6.861561236135,
                                        "keyframes" : [
                                          {
                                            "endTime" : 10,
                                            "time" : 0,
                                            "value" : 1314.7048957085,
                                            "duration" : 10
                                          }
                                        ]
                                      },
                                      "stroke-color-blue" : 1.0,
                                      "stroke-color-green" : 1.0,
                                      "stroke-color-opacity" : 1.0,
                                      "stroke-color-red" : 1.0,
                                      "stroke-width" : 0.0,
                                      "width" : 7.99999999997041,
                                      "horizontal-alignment" : "center",
                                      "stroke-style" : "solid",
                                      "vertical-alignment" : "center",
                                      "textAttributes" : {
                                        "type" : "textAttributeList",
                                        "keyframes" : [
                                          {
                                            "endTime" : 0,
                                            "time" : 0,
                                            "value" : null,
                                            "duration" : 0
                                          }
                                        ]
                                      }
                                    },
                                    "attributes" : {
                                      "autoRotateText" : true
                                    },
                                    "parameters" : {
                                      "translation0" : {
                                        "type" : "double",
                                        "defaultValue" : -1.00115471468598e-11,
                                        "keyframes" : [
                                          {
                                            "endTime" : 33,
                                            "time" : 19,
                                            "value" : -1300.00000000008,
                                            "duration" : 14
                                          }
                                        ]
                                      },
                                      "translation1" : {
                                        "type" : "double",
                                        "defaultValue" : -3.00737212910462e-12,
                                        "keyframes" : [
                                          {
                                            "endTime" : 10,
                                            "time" : 0,
                                            "value" : -3.00737212910462e-12,
                                            "duration" : 10
                                          },
                                          {
                                            "endTime" : 33,
                                            "time" : 19,
                                            "value" : -3.00737212910462e-12,
                                            "duration" : 14
                                          }
                                        ]
                                      },
                                      "rotation2" : {
                                        "type" : "double",
                                        "defaultValue" : -0.523598775598299,
                                        "keyframes" : [
                                          {
                                            "endTime" : 10,
                                            "time" : 0,
                                            "value" : -0.523598775598299,
                                            "duration" : 10
                                          },
                                          {
                                            "endTime" : 33,
                                            "time" : 19,
                                            "value" : -0.523598775598299,
                                            "duration" : 14
                                          }
                                        ]
                                      }
                                    },
                                    "effects" : [

                                    ],
                                    "start" : 76,
                                    "duration" : 24,
                                    "mediaStart" : 11,
                                    "mediaDuration" : 24,
                                    "scalar" : 1,
                                    "metadata" : {
                                      "WinSubProjectDisplayName" : "",
                                      "clipSpeedAttribute" : false
                                    },
                                    "animationTracks" : {
                                      "visual" : [
                                        {
                                          "endTime" : 10,
                                          "duration" : 10,
                                          "range" : [ 0, 10]
                                        },
                                        {
                                          "endTime" : 33,
                                          "duration" : 14,
                                          "range" : [ 19, 14],
                                          "interp" : "linr"
                                        }
                                      ]
                                    }
                                  }
                                ],
                                  "ident" : "",
                                  "audioMuted" : false,
                                  "videoHidden" : false,
                                  "metadata" : {
                                    "IsLocked" : "False",
                                    "WinTrackHeight" : "0"
                                  }
                              },
                              {
                                "trackIndex" : 5,
                                "medias" : [
                                  {
                                    "id" : 59,
                                    "_type" : "Callout",
                                    "def" : {
                                      "kind" : "remix",
                                      "shape" : "shape-rectangle",
                                      "style" : "urban",
                                      "fill-color-blue" : {
                                        "type" : "double",
                                        "defaultValue" : 1.0,
                                        "keyframes" : [
                                          {
                                            "endTime" : 10,
                                            "time" : 0,
                                            "value" : 1.0,
                                            "duration" : 10
                                          },
                                          {
                                            "endTime" : 33,
                                            "time" : 19,
                                            "value" : 1.0,
                                            "duration" : 14
                                          }
                                        ]
                                      },
                                      "fill-color-green" : {
                                        "type" : "double",
                                        "defaultValue" : 1.0,
                                        "keyframes" : [
                                          {
                                            "endTime" : 10,
                                            "time" : 0,
                                            "value" : 1.0,
                                            "duration" : 10
                                          },
                                          {
                                            "endTime" : 33,
                                            "time" : 19,
                                            "value" : 1.0,
                                            "duration" : 14
                                          }
                                        ]
                                      },
                                      "fill-color-opacity" : 1.0,
                                      "fill-color-red" : {
                                        "type" : "double",
                                        "defaultValue" : 1.0,
                                        "keyframes" : [
                                          {
                                            "endTime" : 10,
                                            "time" : 0,
                                            "value" : 1.0,
                                            "duration" : 10
                                          },
                                          {
                                            "endTime" : 33,
                                            "time" : 19,
                                            "value" : 1.0,
                                            "duration" : 14
                                          }
                                        ]
                                      },
                                      "height" : {
                                        "type" : "double",
                                        "defaultValue" : 6.861561236135,
                                        "keyframes" : [
                                          {
                                            "endTime" : 10,
                                            "time" : 0,
                                            "value" : 1314.7048957085,
                                            "duration" : 10
                                          }
                                        ]
                                      },
                                      "stroke-color-blue" : 1.0,
                                      "stroke-color-green" : 1.0,
                                      "stroke-color-opacity" : 1.0,
                                      "stroke-color-red" : 1.0,
                                      "stroke-width" : 0.0,
                                      "width" : 7.99999999997041,
                                      "horizontal-alignment" : "center",
                                      "stroke-style" : "solid",
                                      "vertical-alignment" : "center",
                                      "textAttributes" : {
                                        "type" : "textAttributeList",
                                        "keyframes" : [
                                          {
                                            "endTime" : 0,
                                            "time" : 0,
                                            "value" : null,
                                            "duration" : 0
                                          }
                                        ]
                                      }
                                    },
                                    "attributes" : {
                                      "autoRotateText" : true
                                    },
                                    "parameters" : {
                                      "translation0" : {
                                        "type" : "double",
                                        "defaultValue" : -1.00115471468598e-11,
                                        "keyframes" : [
                                          {
                                            "endTime" : 33,
                                            "time" : 19,
                                            "value" : 1302.00000000006,
                                            "duration" : 14
                                          }
                                        ]
                                      },
                                      "translation1" : {
                                        "type" : "double",
                                        "defaultValue" : -3.00737212910462e-12,
                                        "keyframes" : [
                                          {
                                            "endTime" : 10,
                                            "time" : 0,
                                            "value" : -3.00737212910462e-12,
                                            "duration" : 10
                                          },
                                          {
                                            "endTime" : 33,
                                            "time" : 19,
                                            "value" : -3.00737212910462e-12,
                                            "duration" : 14
                                          }
                                        ]
                                      },
                                      "rotation2" : {
                                        "type" : "double",
                                        "defaultValue" : -0.523598775598299,
                                        "keyframes" : [
                                          {
                                            "endTime" : 10,
                                            "time" : 0,
                                            "value" : -0.523598775598299,
                                            "duration" : 10
                                          },
                                          {
                                            "endTime" : 33,
                                            "time" : 19,
                                            "value" : -0.523598775598299,
                                            "duration" : 14
                                          }
                                        ]
                                      }
                                    },
                                    "effects" : [

                                    ],
                                    "start" : 76,
                                    "duration" : 24,
                                    "mediaStart" : 11,
                                    "mediaDuration" : 24,
                                    "scalar" : 1,
                                    "metadata" : {
                                      "WinSubProjectDisplayName" : "",
                                      "clipSpeedAttribute" : false
                                    },
                                    "animationTracks" : {
                                      "visual" : [
                                        {
                                          "endTime" : 10,
                                          "duration" : 10,
                                          "range" : [ 0, 10]
                                        },
                                        {
                                          "endTime" : 33,
                                          "duration" : 14,
                                          "range" : [ 19, 14],
                                          "interp" : "linr"
                                        }
                                      ]
                                    }
                                  }
                                ],
                                  "ident" : "",
                                  "audioMuted" : false,
                                  "videoHidden" : false,
                                  "metadata" : {
                                    "IsLocked" : "False",
                                    "WinTrackHeight" : "0"
                                  }
                              },
                              {
                                "trackIndex" : 6,
                                "medias" : [
                                  {
                                    "id" : 60,
                                    "_type" : "IMFile",
                                    "src" : 1,
                                    "trackNumber" : 0,
                                    "trimStartSum" : 0,
                                    "attributes" : {
                                      "ident" : "Lens-Shadow-001"
                                    },
                                    "parameters" : {
                                      "opacity" : 0.5
                                    },
                                    "effects" : [

                                    ],
                                    "start" : 0,
                                    "duration" : 270,
                                    "mediaStart" : 0,
                                    "mediaDuration" : 1,
                                    "scalar" : 1,
                                    "metadata" : {
                                      "WinSubProjectDisplayName" : "",
                                      "clipSpeedAttribute" : false
                                    },
                                    "animationTracks" : {

                                    }
                                  }
                                ],
                                "transitions" : [
                                  {
                                    "name" : "Fade",
                                    "duration" : 30,
                                    "trivial" : false,
                                    "useAudioPreRoll" : false,
                                    "useVisualPreRoll" : true,
                                    "leftMedia" : 60
                                  }
                                ],
                                  "ident" : "",
                                  "audioMuted" : false,
                                  "videoHidden" : false,
                                  "metadata" : {
                                    "IsLocked" : "False",
                                    "WinTrackHeight" : "0"
                                  }
                              }
                            ],
                            "attributes" : {
                              "ident" : "Shapes",
                              "gain" : 1.0,
                              "mixToMono" : false
                            },
                            "effects" : [

                            ],
                            "start" : 0,
                            "duration" : 270,
                            "mediaStart" : 0.0,
                            "mediaDuration" : 270.0,
                            "scalar" : 1,
                            "metadata" : {
                              "IsGroupExpanded" : "False",
                              "WinSubProjectDisplayName" : "Shapes",
                              "clipSpeedAttribute" : false,
                              "effectApplied" : "none",
                              "isOpen" : false
                            },
                            "animationTracks" : {

                            }
                          }
                        ],
                          "ident" : "",
                          "audioMuted" : false,
                          "videoHidden" : false,
                          "metadata" : {
                            "IsLocked" : "False",
                            "WinTrackHeight" : "0"
                          }
                      },
                      {
                        "trackIndex" : 1,
                        "medias" : [
                          {
                            "id" : 61,
                            "_type" : "Callout",
                            "def" : {
                              "kind" : "remix",
                              "shape" : "text",
                              "style" : "basic",
                              "height" : 72.0000000001311,
                              "line-spacing" : 0.0,
                              "width" : 1153.09090909266,
                              "word-wrap" : 1.0,
                              "horizontal-alignment" : "center",
                              "text" : "Processing a Stock Transfer Order",
                              "vertical-alignment" : "center",
                              "font" : {
                                "color-blue" : 1.0,
                                "color-green" : 1.0,
                                "color-red" : 1.0,
                                "size" : 96.0,
                                "tracking" : 0.0,
                                "name" : "Montserrat",
                                "weight" : "Regular"
                              },
                              "textAttributes" : {
                                "type" : "textAttributeList",
                                "keyframes" : [
                                  {
                                    "endTime" : 0,
                                    "time" : 0,
                                    "value" : [{"name":"underline","rangeEnd":33,"rangeStart":0,"value":0,"valueType":"int"},{"name":"fgColor","rangeEnd":33,"rangeStart":0,"value":"(255,255,255,255)","valueType":"color"},{"name":"fontName","rangeEnd":33,"rangeStart":0,"value":"Montserrat","valueType":"string"},{"name":"fontItalic","rangeEnd":33,"rangeStart":0,"value":0,"valueType":"int"},{"name":"fontSize","rangeEnd":33,"rangeStart":0,"value":51,"valueType":"double"},{"name":"strikethrough","rangeEnd":33,"rangeStart":0,"value":0,"valueType":"int"},{"name":"fontWeight","rangeEnd":33,"rangeStart":0,"value":400,"valueType":"int"},{"name":"kerning","rangeEnd":33,"rangeStart":0,"value":0,"valueType":"double"}],
                                    "duration" : 0
                                  }
                                ]
                              }
                            },
                            "attributes" : {
                              "autoRotateText" : true
                            },
                            "parameters" : {
                              "translation0" : 0.454545453540789,
                              "translation1" : -123.000000000281
                            },
                            "effects" : [
                                {
                                  "_type" : "GenericBehaviorEffect",
                                  "effectName" : "pulsating",
                                  "start" : 0,
                                  "duration" : 151                                ,
                                  "in" : {
                                    "attributes" : {
                                      "name" : "grow",
                                      "type" : 1,
                                      "characterOrder" : 6,
                                      "offsetBetweenCharacters" : 1,
                                      "suggestedDurationPerCharacter" : 18,
                                      "overlapProportion" : "3/4",
                                      "movement" : 30,
                                      "springDamping" : 5.0,
                                      "springStiffness" : 50.0,
                                      "bounceBounciness" : 0.45
                                    }
                                  
                                  },
                                  "center" : {
                                    "attributes" : {
                                      "name" : "none",
                                      "type" : 1,
                                      "characterOrder" : 6,
                                      "offsetBetweenCharacters" : 0,
                                      "secondsPerLoop" : 1,
                                      "numberOfLoops" : -1,
                                      "delayBetweenLoops" : 0,
                                      "offsetBetweenCharacters" : 0
                                    }
                                  
                                  },
                                  "out" : {
                                    "attributes" : {
                                      "name" : "none",
                                      "type" : 1,
                                      "characterOrder" : 6,
                                      "offsetBetweenCharacters" : 0,
                                      "suggestedDurationPerCharacter" : 0,
                                      "overlapProportion" : 0,
                                      "movement" : -1,
                                      "springDamping" : 5.0,
                                      "springStiffness" : 50.0,
                                      "bounceBounciness" : 0.45
                                    }
                                  
                                  }
                                }
                            ],
                            "start" : 119,
                            "duration" : 151,
                            "mediaStart" : 0,
                            "mediaDuration" : 151,
                            "scalar" : 1,
                            "metadata" : {
                              "WinSubProjectDisplayName" : "",
                              "clipSpeedAttribute" : false,
                              "default-HAlign" : "center",
                              "default-LineSpace" : 0.0,
                              "default-VAlign" : "center",
                              "default-text-attributes" : "[{\"name\":\"fontName\",\"rangeEnd\":17,\"rangeStart\":0,\"value\":\"Montserrat\",\"valueType\":\"string\"},{\"name\":\"strikethrough\",\"rangeEnd\":17,\"rangeStart\":0,\"value\":0,\"valueType\":\"int\"},{\"name\":\"fgColor\",\"rangeEnd\":17,\"rangeStart\":0,\"value\":\"(255,255,255,255)\",\"valueType\":\"color\"},{\"name\":\"fontItalic\",\"rangeEnd\":17,\"rangeStart\":0,\"value\":0,\"valueType\":\"int\"},{\"name\":\"fontSize\",\"rangeEnd\":17,\"rangeStart\":0,\"value\":51,\"valueType\":\"double\"},{\"name\":\"fontWeight\",\"rangeEnd\":17,\"rangeStart\":0,\"value\":100,\"valueType\":\"int\"},{\"name\":\"underline\",\"rangeEnd\":17,\"rangeStart\":0,\"value\":0,\"valueType\":\"int\"}]",
                              "effectApplied" : "none"
                            },
                            "animationTracks" : {

                            }
                          }
                        ],
                        "transitions" : [
                          {
                            "name" : "Fade",
                            "duration" : 30,
                            "trivial" : false,
                            "useAudioPreRoll" : false,
                            "useVisualPreRoll" : true,
                            "leftMedia" : 61
                          }
                        ],
                          "ident" : "",
                          "audioMuted" : false,
                          "videoHidden" : false,
                          "metadata" : {
                            "IsLocked" : "False",
                            "WinTrackHeight" : "1.03347310004105e-311"
                          }
                      },
                      {
                        "trackIndex" : 2,
                        "medias" : [
                          {
                            "id" : 62,
                            "_type" : "Callout",
                            "def" : {
                              "kind" : "remix",
                              "shape" : "text",
                              "style" : "basic",
                              "height" : 187.999999999995,
                              "line-spacing" : 0.0,
                              "width" : 1920.21538461358,
                              "word-wrap" : 1.0,
                              "horizontal-alignment" : "center",
                              "text" : "Unit 8 - Lesson 3",
                              "vertical-alignment" : "center",
                              "font" : {
                                "color-blue" : 1.0,
                                "color-green" : 1.0,
                                "color-red" : 1.0,
                                "size" : 96.0,
                                "tracking" : 0.0,
                                "name" : "Montserrat",
                                "weight" : "Regular"
                              },
                              "textAttributes" : {
                                "type" : "textAttributeList",
                                "keyframes" : [
                                  {
                                    "endTime" : 0,
                                    "time" : 0,
                                    "value" : [{"name":"fgColor","rangeEnd":17,"rangeStart":0,"value":"(255,255,255,255)","valueType":"color"},{"name":"strikethrough","rangeEnd":17,"rangeStart":0,"value":0,"valueType":"int"},{"name":"fontSize","rangeEnd":17,"rangeStart":0,"value":151,"valueType":"double"},{"name":"kerning","rangeEnd":17,"rangeStart":0,"value":0,"valueType":"double"},{"name":"fontItalic","rangeEnd":17,"rangeStart":0,"value":0,"valueType":"int"},{"name":"fontWeight","rangeEnd":17,"rangeStart":0,"value":400,"valueType":"int"},{"name":"fontName","rangeEnd":17,"rangeStart":0,"value":"Montserrat","valueType":"string"},{"name":"underline","rangeEnd":17,"rangeStart":0,"value":0,"valueType":"int"}],
                                    "duration" : 0
                                  }
                                ]
                              }
                            },
                            "attributes" : {
                              "autoRotateText" : true
                            },
                            "parameters" : {
                              "translation0" : 0.284641677673506,
                              "translation1" : 1.70459202308849e-11
                            },
                            "effects" : [
                                {
                                  "_type" : "GenericBehaviorEffect",
                                  "effectName" : "popUp",
                                  "start" : 2,
                                  "duration" : 182                                ,
                                  "in" : {
                                    "attributes" : {
                                      "name" : "hinge",
                                      "type" : 1,
                                      "characterOrder" : 6,
                                      "offsetBetweenCharacters" : "3/2",
                                      "suggestedDurationPerCharacter" : "147/2",
                                      "overlapProportion" : "1/3",
                                      "movement" : 30,
                                      "springDamping" : 5.0,
                                      "springStiffness" : 50.0,
                                      "bounceBounciness" : 0.45
                                    },
                                    "parameters" : {
                                      "direction" : {
                                        "type" : "int",
                                        "valueBounds" : {
                                          "minValue" : 0,
                                          "maxValue" : 3,
                                          "defaultValue" : 3
                                        },
                                        "uiHints" : {
                                          "userInterfaceType" : 2,
                                          "unitType" : 0
                                        },
                                        "keyframes" : [
                                          {
                                            "endTime" : 0,
                                            "time" : 0,
                                            "value" : 3,
                                            "duration" : 0
                                          }
                                        ]
                                      }
                                    }
                                  
                                  },
                                  "center" : {
                                    "attributes" : {
                                      "name" : "none",
                                      "type" : 1,
                                      "characterOrder" : 6,
                                      "offsetBetweenCharacters" : 0,
                                      "secondsPerLoop" : 1,
                                      "numberOfLoops" : -1,
                                      "delayBetweenLoops" : 0,
                                      "offsetBetweenCharacters" : 0
                                    }
                                  
                                  },
                                  "out" : {
                                    "attributes" : {
                                      "name" : "none",
                                      "type" : 1,
                                      "characterOrder" : 6,
                                      "offsetBetweenCharacters" : 0,
                                      "suggestedDurationPerCharacter" : 0,
                                      "overlapProportion" : 0,
                                      "movement" : -1,
                                      "springDamping" : 5.0,
                                      "springStiffness" : 50.0,
                                      "bounceBounciness" : 0.45
                                    }
                                  
                                  }
                                }
                            ],
                            "start" : 88,
                            "duration" : 182,
                            "mediaStart" : 2,
                            "mediaDuration" : 182,
                            "scalar" : 1,
                            "metadata" : {
                              "WinSubProjectDisplayName" : "",
                              "clipSpeedAttribute" : false,
                              "default-HAlign" : "center",
                              "default-LineSpace" : 0.0,
                              "default-VAlign" : "center",
                              "default-text-attributes" : "[{\"name\":\"fontSize\",\"rangeEnd\":9,\"rangeStart\":0,\"value\":151,\"valueType\":\"double\"},{\"name\":\"underline\",\"rangeEnd\":9,\"rangeStart\":0,\"value\":0,\"valueType\":\"int\"},{\"name\":\"fontWeight\",\"rangeEnd\":9,\"rangeStart\":0,\"value\":100,\"valueType\":\"int\"},{\"name\":\"strikethrough\",\"rangeEnd\":9,\"rangeStart\":0,\"value\":0,\"valueType\":\"int\"},{\"name\":\"fontItalic\",\"rangeEnd\":9,\"rangeStart\":0,\"value\":0,\"valueType\":\"int\"},{\"name\":\"fgColor\",\"rangeEnd\":9,\"rangeStart\":0,\"value\":\"(255,255,255,255)\",\"valueType\":\"color\"},{\"name\":\"fontName\",\"rangeEnd\":9,\"rangeStart\":0,\"value\":\"Montserrat\",\"valueType\":\"string\"}]",
                              "effectApplied" : "none"
                            },
                            "animationTracks" : {

                            }
                          }
                        ],
                        "transitions" : [
                          {
                            "name" : "Fade",
                            "duration" : 30,
                            "trivial" : false,
                            "useAudioPreRoll" : false,
                            "useVisualPreRoll" : true,
                            "leftMedia" : 62
                          }
                        ],
                          "ident" : "",
                          "audioMuted" : false,
                          "videoHidden" : false,
                          "metadata" : {
                            "IsLocked" : "False",
                            "WinTrackHeight" : "1.03347310004105e-311"
                          }
                      },
                      {
                        "trackIndex" : 3,
                        "medias" : [
                          {
                            "id" : 63,
                            "_type" : "Callout",
                            "def" : {
                              "kind" : "remix",
                              "shape" : "text-rectangle",
                              "style" : "basic",
                              "fill-color-blue" : 0.235294117647059,
                              "fill-color-green" : 0.298039215686275,
                              "fill-color-opacity" : 1.0,
                              "fill-color-red" : 0.901960784313726,
                              "height" : 83.9999999998924,
                              "line-spacing" : 0.0,
                              "stroke-color-blue" : 0.777079198166942,
                              "stroke-color-green" : 0.93090625,
                              "stroke-color-opacity" : 1.0,
                              "stroke-color-red" : 0.113700037136884,
                              "stroke-width" : 0.0,
                              "width" : 732.000000000374,
                              "word-wrap" : 1.0,
                              "horizontal-alignment" : "left",
                              "stroke-style" : "solid",
                              "text" : "",
                              "vertical-alignment" : "center",
                              "font" : {
                                "color-blue" : 0.266666666666667,
                                "color-green" : 0.231372549019608,
                                "color-opacity" : 1.0,
                                "color-red" : 0.184313725490196,
                                "size" : 64.0,
                                "tracking" : 0.0,
                                "name" : "Montserrat",
                                "weight" : "Regular"
                              },
                              "textAttributes" : {
                                "type" : "textAttributeList",
                                "keyframes" : [
                                  {
                                    "endTime" : 0,
                                    "time" : 0,
                                    "value" : [{"name":"strikethrough","rangeEnd":1,"rangeStart":0,"value":0,"valueType":"int"},{"name":"fontItalic","rangeEnd":1,"rangeStart":0,"value":0,"valueType":"int"},{"name":"kerning","rangeEnd":1,"rangeStart":0,"value":0,"valueType":"double"},{"name":"underline","rangeEnd":1,"rangeStart":0,"value":0,"valueType":"int"},{"name":"fontName","rangeEnd":1,"rangeStart":0,"value":"Montserrat","valueType":"string"},{"name":"fgColor","rangeEnd":1,"rangeStart":0,"value":"(46,59,68,255)","valueType":"color"},{"name":"fontSize","rangeEnd":1,"rangeStart":0,"value":64,"valueType":"double"},{"name":"fontWeight","rangeEnd":1,"rangeStart":0,"value":400,"valueType":"int"}],
                                    "duration" : 0
                                  }
                                ]
                              }
                            },
                            "attributes" : {
                              "autoRotateText" : true
                            },
                            "parameters" : {
                              "translation0" : -80.999999999634,
                              "translation1" : 145.999999999818
                            },
                            "effects" : [

                            ],
                            "start" : 91,
                            "duration" : 179,
                            "mediaStart" : 0,
                            "mediaDuration" : 179,
                            "scalar" : 1,
                            "metadata" : {
                              "WinSubProjectDisplayName" : "",
                              "clipSpeedAttribute" : false,
                              "default-HAlign" : "left",
                              "default-LineSpace" : 0.0,
                              "default-VAlign" : "center",
                              "default-text-attributes" : "[{\"name\":\"fontName\",\"rangeEnd\":8,\"rangeStart\":0,\"value\":\"Montserrat\",\"valueType\":\"string\"},{\"name\":\"underline\",\"rangeEnd\":8,\"rangeStart\":0,\"value\":0,\"valueType\":\"int\"},{\"name\":\"fontItalic\",\"rangeEnd\":8,\"rangeStart\":0,\"value\":0,\"valueType\":\"int\"},{\"name\":\"fgColor\",\"rangeEnd\":8,\"rangeStart\":0,\"value\":\"(255,255,255,255)\",\"valueType\":\"color\"},{\"name\":\"fontSize\",\"rangeEnd\":8,\"rangeStart\":0,\"value\":64,\"valueType\":\"double\"},{\"name\":\"fontWeight\",\"rangeEnd\":8,\"rangeStart\":0,\"value\":700,\"valueType\":\"int\"},{\"name\":\"strikethrough\",\"rangeEnd\":8,\"rangeStart\":0,\"value\":0,\"valueType\":\"int\"}]",
                              "effectApplied" : "none"
                            },
                            "animationTracks" : {

                            }
                          }
                        ],
                        "transitions" : [
                          {
                            "name" : "Fade",
                            "duration" : 30,
                            "trivial" : false,
                            "useAudioPreRoll" : false,
                            "useVisualPreRoll" : true,
                            "leftMedia" : 63
                          }
                        ],
                          "ident" : "",
                          "audioMuted" : false,
                          "videoHidden" : false,
                          "metadata" : {
                            "IsLocked" : "False",
                            "WinTrackHeight" : "1.03347310004105e-311"
                          }
                      }
                    ],
                    "attributes" : {
                      "ident" : "linewipe",
                      "gain" : 1.0,
                      "mixToMono" : false,
                      "assetProperties" : [
                        {
                          "type" : 0,
                          "name" : "Title",
                          "objects" : [ 62 ],
                          "themeMappings" :  {
                            "font-color" : "foreground-1",
                            "font-family" : "font-1"
                          }
                        },
                        {
                          "type" : 0,
                          "name" : "Subtitle",
                          "objects" : [ 63 ],
                          "themeMappings" :  {
                            "font-color" : "foreground-1",
                            "font-family" : "font-1"
                          }
                        },
                        {
                          "type" : 0,
                          "name" : "Subtitle 2",
                          "objects" : [ 61 ],
                          "themeMappings" :  {
                            "font-color" : "foreground-1",
                            "font-family" : "font-1"
                          }
                        },
                        {
                          "type" : 1,
                          "name" : "Color 1",
                          "objects" : [ 63, 50, 52, 53, 56 ],
                          "themeMappings" :  {
                            "fill" : "accent-1",
                            "outline" : "foreground-1"
                          }
                        },
                        {
                          "type" : 1,
                          "name" : "Color 2",
                          "objects" : [ 51, 54, 55 ],
                          "themeMappings" :  {
                            "fill" : "background-1"
                          }
                        }
                      ]
                    },
                    "effects" : [

                    ],
                    "start" : 0,
                    "duration" : 270,
                    "mediaStart" : 0.0,
                    "mediaDuration" : 270.0,
                    "scalar" : 1,
                    "metadata" : {
                      "AppliedThemeId" : "",
                      "IsGroupExpanded" : "False",
                      "WinSubProjectDisplayName" : "",
                      "clipSpeedAttribute" : false,
                      "effectApplied" : "none",
                      "isOpen" : false
                    },
                    "animationTracks" : {

                    }
                  },
                  {
                    "id" : 64,
                    "_type" : "AMFile",
                    "src" : 3,
                    "trackNumber" : 1,
                    "attributes" : {
                      "ident" : "Rec 05-29-19_009",
                      "sampleRate" : 44100,
                      "bitDepth" : 16,
                      "gain" : 1.0,
                      "mixToMono" : false
                    },
                      "channelNumber" : "0,1",
                    "parameters" : {
                      "volume" : 1.53061224489796
                    },
                    "effects" : [

                    ],
                    "start" : 270,
                    "duration" : 10726,
                    "mediaStart" : 0,
                    "mediaDuration" : 10726,
                    "scalar" : 1,
                    "metadata" : {
                      "WinSubProjectDisplayName" : "",
                      "clipSpeedAttribute" : false
                    },
                    "animationTracks" : {

                    }
                  },
                  {
                    "id" : 65,
                    "_type" : "StitchedMedia",
                    "minMediaStart" : 0,
                    "attributes" : {
                      "ident" : "Rec 05-30-19",
                      "gain" : 1.0,
                      "mixToMono" : false
                    },
                    "parameters" : {
                      "volume" : 2.14285714285714,
                      "cursorOpacity" : 1.0,
                      "cursorScale" : 1.0
                    },
                    "medias" : [
                        {
                          "id" : 66,
                          "_type" : "AMFile",
                          "src" : 4,
                          "trackNumber" : 1,
                          "attributes" : {
                            "ident" : "Rec 05-30-19",
                            "sampleRate" : 44100,
                            "bitDepth" : 16,
                            "gain" : 1.0,
                            "mixToMono" : false
                          },
                            "channelNumber" : "0,1",
                          "effects" : [

                          ],
                          "start" : 0,
                          "duration" : 2718,
                          "mediaStart" : 0,
                          "mediaDuration" : 2718,
                          "scalar" : 1,
                          "metadata" : {
                            "WinSubProjectDisplayName" : "",
                            "clipSpeedAttribute" : false
                          },
                          "animationTracks" : {

                          }
                        },
                        {
                          "id" : 67,
                          "_type" : "AMFile",
                          "src" : 4,
                          "trackNumber" : 1,
                          "attributes" : {
                            "ident" : "Rec 05-30-19",
                            "sampleRate" : 44100,
                            "bitDepth" : 16,
                            "gain" : 1.0,
                            "mixToMono" : false
                          },
                            "channelNumber" : "0,1",
                          "effects" : [

                          ],
                          "start" : 2718,
                          "duration" : 1516,
                          "mediaStart" : 2765,
                          "mediaDuration" : 1516,
                          "scalar" : 1,
                          "metadata" : {
                            "WinSubProjectDisplayName" : "",
                            "clipSpeedAttribute" : false
                          },
                          "animationTracks" : {

                          }
                        },
                        {
                          "id" : 68,
                          "_type" : "AMFile",
                          "src" : 4,
                          "trackNumber" : 1,
                          "attributes" : {
                            "ident" : "Rec 05-30-19",
                            "sampleRate" : 44100,
                            "bitDepth" : 16,
                            "gain" : 1.0,
                            "mixToMono" : false
                          },
                            "channelNumber" : "0,1",
                          "effects" : [

                          ],
                          "start" : 4234,
                          "duration" : 4207,
                          "mediaStart" : 4444,
                          "mediaDuration" : 4207,
                          "scalar" : 1,
                          "metadata" : {
                            "WinSubProjectDisplayName" : "",
                            "clipSpeedAttribute" : false
                          },
                          "animationTracks" : {

                          }
                        },
                        {
                          "id" : 69,
                          "_type" : "AMFile",
                          "src" : 4,
                          "trackNumber" : 1,
                          "attributes" : {
                            "ident" : "Rec 05-30-19",
                            "sampleRate" : 44100,
                            "bitDepth" : 16,
                            "gain" : 1.0,
                            "mixToMono" : false
                          },
                            "channelNumber" : "0,1",
                          "effects" : [

                          ],
                          "start" : 8441,
                          "duration" : 2230,
                          "mediaStart" : 9666,
                          "mediaDuration" : 2230,
                          "scalar" : 1,
                          "metadata" : {
                            "WinSubProjectDisplayName" : "",
                            "clipSpeedAttribute" : false
                          },
                          "animationTracks" : {

                          }
                        }
                    ],
                    "effects" : [

                    ],
                    "start" : 10996,
                    "duration" : 10603,
                    "mediaStart" : 0,
                    "mediaDuration" : 10603,
                    "scalar" : 1,
                    "metadata" : {
                      "WinSubProjectDisplayName" : "",
                      "clipSpeedAttribute" : false
                    },
                    "animationTracks" : {

                    }
                  },
                  {
                    "id" : 70,
                    "_type" : "StitchedMedia",
                    "minMediaStart" : 0,
                    "attributes" : {
                      "ident" : "Rec 05-30-19_001",
                      "gain" : 1.0,
                      "mixToMono" : false
                    },
                    "parameters" : {
                      "volume" : 2.55102040816327,
                      "cursorOpacity" : 1.0,
                      "cursorScale" : 1.0
                    },
                    "medias" : [
                        {
                          "id" : 71,
                          "_type" : "AMFile",
                          "src" : 5,
                          "trackNumber" : 1,
                          "attributes" : {
                            "ident" : "Rec 05-30-19_001",
                            "sampleRate" : 44100,
                            "bitDepth" : 16,
                            "gain" : 1.0,
                            "mixToMono" : false
                          },
                            "channelNumber" : "0,1",
                          "effects" : [

                          ],
                          "start" : 0,
                          "duration" : 2121,
                          "mediaStart" : 0,
                          "mediaDuration" : 2121,
                          "scalar" : 1,
                          "metadata" : {
                            "WinSubProjectDisplayName" : "",
                            "clipSpeedAttribute" : false
                          },
                          "animationTracks" : {

                          }
                        },
                        {
                          "id" : 72,
                          "_type" : "AMFile",
                          "src" : 5,
                          "trackNumber" : 1,
                          "attributes" : {
                            "ident" : "Rec 05-30-19_001",
                            "sampleRate" : 44100,
                            "bitDepth" : 16,
                            "gain" : 1.0,
                            "mixToMono" : false
                          },
                            "channelNumber" : "0,1",
                          "effects" : [

                          ],
                          "start" : 2121,
                          "duration" : 367,
                          "mediaStart" : 2479,
                          "mediaDuration" : 367,
                          "scalar" : 1,
                          "metadata" : {
                            "WinSubProjectDisplayName" : "",
                            "clipSpeedAttribute" : false
                          },
                          "animationTracks" : {

                          }
                        },
                        {
                          "id" : 73,
                          "_type" : "AMFile",
                          "src" : 5,
                          "trackNumber" : 1,
                          "attributes" : {
                            "ident" : "Rec 05-30-19_001",
                            "sampleRate" : 44100,
                            "bitDepth" : 16,
                            "gain" : 1.0,
                            "mixToMono" : false
                          },
                            "channelNumber" : "0,1",
                          "effects" : [

                          ],
                          "start" : 2488,
                          "duration" : 489,
                          "mediaStart" : 3078,
                          "mediaDuration" : 489,
                          "scalar" : 1,
                          "metadata" : {
                            "WinSubProjectDisplayName" : "",
                            "clipSpeedAttribute" : false
                          },
                          "animationTracks" : {

                          }
                        },
                        {
                          "id" : 74,
                          "_type" : "AMFile",
                          "src" : 5,
                          "trackNumber" : 1,
                          "attributes" : {
                            "ident" : "Rec 05-30-19_001",
                            "sampleRate" : 44100,
                            "bitDepth" : 16,
                            "gain" : 1.0,
                            "mixToMono" : false
                          },
                            "channelNumber" : "0,1",
                          "effects" : [

                          ],
                          "start" : 2977,
                          "duration" : 235,
                          "mediaStart" : 3738,
                          "mediaDuration" : 235,
                          "scalar" : 1,
                          "metadata" : {
                            "WinSubProjectDisplayName" : "",
                            "clipSpeedAttribute" : false
                          },
                          "animationTracks" : {

                          }
                        },
                        {
                          "id" : 75,
                          "_type" : "AMFile",
                          "src" : 5,
                          "trackNumber" : 1,
                          "attributes" : {
                            "ident" : "Rec 05-30-19_001",
                            "sampleRate" : 44100,
                            "bitDepth" : 16,
                            "gain" : 1.0,
                            "mixToMono" : false
                          },
                            "channelNumber" : "0,1",
                          "effects" : [

                          ],
                          "start" : 3212,
                          "duration" : 584,
                          "mediaStart" : 4136,
                          "mediaDuration" : 584,
                          "scalar" : 1,
                          "metadata" : {
                            "WinSubProjectDisplayName" : "",
                            "clipSpeedAttribute" : false
                          },
                          "animationTracks" : {

                          }
                        },
                        {
                          "id" : 76,
                          "_type" : "AMFile",
                          "src" : 5,
                          "trackNumber" : 1,
                          "attributes" : {
                            "ident" : "Rec 05-30-19_001",
                            "sampleRate" : 44100,
                            "bitDepth" : 16,
                            "gain" : 1.0,
                            "mixToMono" : false
                          },
                            "channelNumber" : "0,1",
                          "effects" : [

                          ],
                          "start" : 3796,
                          "duration" : 42,
                          "mediaStart" : 6172,
                          "mediaDuration" : 42,
                          "scalar" : 1,
                          "metadata" : {
                            "WinSubProjectDisplayName" : "",
                            "clipSpeedAttribute" : false
                          },
                          "animationTracks" : {

                          }
                        },
                        {
                          "id" : 77,
                          "_type" : "AMFile",
                          "src" : 5,
                          "trackNumber" : 1,
                          "attributes" : {
                            "ident" : "Rec 05-30-19_001",
                            "sampleRate" : 44100,
                            "bitDepth" : 16,
                            "gain" : 1.0,
                            "mixToMono" : false
                          },
                            "channelNumber" : "0,1",
                          "effects" : [

                          ],
                          "start" : 3838,
                          "duration" : 1305,
                          "mediaStart" : 7692,
                          "mediaDuration" : 1305,
                          "scalar" : 1,
                          "metadata" : {
                            "WinSubProjectDisplayName" : "",
                            "clipSpeedAttribute" : false
                          },
                          "animationTracks" : {

                          }
                        },
                        {
                          "id" : 78,
                          "_type" : "AMFile",
                          "src" : 5,
                          "trackNumber" : 1,
                          "attributes" : {
                            "ident" : "Rec 05-30-19_001",
                            "sampleRate" : 44100,
                            "bitDepth" : 16,
                            "gain" : 1.0,
                            "mixToMono" : false
                          },
                            "channelNumber" : "0,1",
                          "effects" : [

                          ],
                          "start" : 5143,
                          "duration" : 1638,
                          "mediaStart" : 9163,
                          "mediaDuration" : 1638,
                          "scalar" : 1,
                          "metadata" : {
                            "WinSubProjectDisplayName" : "",
                            "clipSpeedAttribute" : false
                          },
                          "animationTracks" : {

                          }
                        }
                    ],
                    "effects" : [

                    ],
                    "start" : 21599,
                    "duration" : 6574,
                    "mediaStart" : 0,
                    "mediaDuration" : 6574,
                    "scalar" : 1,
                    "metadata" : {
                      "WinSubProjectDisplayName" : "",
                      "clipSpeedAttribute" : false
                    },
                    "animationTracks" : {

                    }
                  }
                ]
              },
              {
                "trackIndex" : 2,
                "medias" : [
                  {
                    "id" : 79,
                    "_type" : "AMFile",
                    "src" : 2,
                    "trackNumber" : 0,
                    "attributes" : {
                      "ident" : "01 Cry Baby (American Idol Studio Ve",
                      "sampleRate" : 44100,
                      "bitDepth" : 16,
                      "gain" : 1.0,
                      "mixToMono" : false
                    },
                      "channelNumber" : "0,1",
                    "parameters" : {
                      "volume" : {
                        "type" : "double",
                        "keyframes" : [
                          {
                            "endTime" : 0,
                            "time" : 0,
                            "value" : 0.549450549450549,
                            "duration" : 0
                          },
                          {
                            "endTime" : 174,
                            "time" : 174,
                            "value" : 0.549450549450549,
                            "duration" : 0
                          },
                          {
                            "endTime" : 264,
                            "time" : 264,
                            "value" : 0.0,
                            "duration" : 0
                          },
                          {
                            "endTime" : 265,
                            "time" : 265,
                            "value" : 0.741758241758242,
                            "duration" : 0
                          }
                        ]
                      }
                    },
                    "effects" : [

                    ],
                    "start" : 0,
                    "duration" : 264,
                    "mediaStart" : 0,
                    "mediaDuration" : 264,
                    "scalar" : 1,
                    "metadata" : {
                      "WinSubProjectDisplayName" : "",
                      "clipSpeedAttribute" : false
                    },
                    "animationTracks" : {

                    }
                  }
                ]
              },
              {
                "trackIndex" : 3,
                "medias" : [
                ]
              },
              {
                "trackIndex" : 4,
                "medias" : [
                ]
              },
              {
                "trackIndex" : 5,
                "medias" : [
                ]
              }
            ]
          }
        }
      ]
    },
    "trackAttributes" : [
      {
        "ident" : "",
        "audioMuted" : false,
        "videoHidden" : false,
        "metadata" : {
          "IsLocked" : "False",
          "WinTrackHeight" : "56"
        }
      },
      {
        "ident" : "",
        "audioMuted" : false,
        "videoHidden" : false,
        "metadata" : {
          "IsLocked" : "False",
          "WinTrackHeight" : "56"
        }
      },
      {
        "ident" : "",
        "audioMuted" : false,
        "videoHidden" : false,
        "metadata" : {
          "IsLocked" : "False",
          "WinTrackHeight" : "56"
        }
      },
      {
        "ident" : "",
        "audioMuted" : false,
        "videoHidden" : false,
        "metadata" : {
          "IsLocked" : "False",
          "WinTrackHeight" : "56"
        }
      },
      {
        "ident" : "",
        "audioMuted" : false,
        "videoHidden" : false,
        "metadata" : {
          "IsLocked" : "False",
          "WinTrackHeight" : "56"
        }
      },
      {
        "ident" : "",
        "audioMuted" : false,
        "videoHidden" : false,
        "metadata" : {
          "IsLocked" : "False",
          "WinTrackHeight" : "56"
        }
      }
    ],
    "captionAttributes" : {
      "enabled" : true,
      "fontName" : "Arial",
      "fontSize" : 64,
      "backgroundColor" : [ 0, 0, 0, 191],
      "foregroundColor" : [ 255, 255, 255, 255],
      "lang" : "en",
      "alignment" : 0,
      "defaultFontSize" : true,
      "opacity" : 0.5,
      "backgroundEnabled" : true,
      "backgroundOnlyAroundText" : true
    },
    "backgroundColor" : [ 0, 0, 0, 255]
  },
  "metadata" : {
    "AutoSaveFile" : "C:\\Users\\rhigh\\AppData\\Local\\TechSmith\\Camtasia Studio\\19.0\\Auto-Saves\\Processing a Stock Transfer Order1f94716e.autosave.tscproj",
    "CanvasZoom" : 49,
    "Date" : "2019-05-29 10:56:11 AM",
    "IsAutoSave" : "0",
    "Language" : "ENU",
    "ProfileName" : "MP4 only (up to 720p)",
    "Title" : "Processing a Stock Transfer Order",
    "audioNarrationNotes" : "",
    "calloutStyle" : "Basic",
    "canvasDetached" : "False",
    "canvasPositionHeight" : "0",
    "canvasPositionLeft" : "0",
    "canvasPositionTop" : "0",
    "canvasPositionWidth" : "0"
  }
}
