{
  "title" : "",
  "description" : "",
  "author" : "",
  "targetLoudness" : -18.0,
  "shouldApplyLoudnessNormalization" : false,
  "width" : 1920.0,
  "height" : 1080.0,
  "version" : "3.0",
  "editRate" : 30,
  "authoringClientName" :  {
    "name" : "Camtasia",
    "platform" : "Windows",
    "version" : "19.0"
  },
  "sourceBin" : [
    {
      "id" : 1,
      "src" : "C:\\Users\\rhigh\\OneDrive\\Documents\\Camtasia\\Rec 05-02-19_002.trec",
      "rect" : [0, 0, 1920, 1080],
      "lastMod" : "20190502T185023",
      "sourceTracks" : [
        {
          "range" : [0, 11146],
          "type" : 0,
          "editRate" : 30,
          "trackRect" : [0, 0, 1920, 1080],
          "sampleRate" : 26,
          "bitDepth" : 0,
          "numChannels" : 0,
          "integratedLUFS" : 100.0,
          "peakLevel" : -1.0,
          "metaData" : "Rec 05-02-19_002.trec;"
        },
        {
          "range" : [0, 16385024],
          "type" : 2,
          "editRate" : 44100,
          "trackRect" : [0, 0, 0, 0],
          "sampleRate" : 44100,
          "bitDepth" : 16,
          "numChannels" : 2,
          "integratedLUFS" : -18.9257328089668,
          "peakLevel" : 1.0,
          "metaData" : ""
        },
        {
          "range" : [0, 16388096],
          "type" : 2,
          "editRate" : 44100,
          "trackRect" : [0, 0, 0, 0],
          "sampleRate" : 44100,
          "bitDepth" : 16,
          "numChannels" : 2,
          "integratedLUFS" : -1.79769313486232e+308,
          "peakLevel" : 0.0,
          "metaData" : ""
        }
      ]
    },
    {
      "id" : 2,
      "src" : "C:\\ProgramData\\TechSmith\\Camtasia Studio 18\\Library 4.0\\Camtasia Libraries\\Camtasia 2018\\Intros\\fadingsquares.asset\\Motion Graphics - Intro Clips - fadingsquares-91.mp4",
      "rect" : [0, 0, 1920, 1080],
      "lastMod" : "20180830T135426",
      "sourceTracks" : [
        {
          "range" : [0, 200199999],
          "type" : 0,
          "editRate" : 10000000,
          "trackRect" : [0, 0, 1920, 1080],
          "sampleRate" : "5000000/166833",
          "bitDepth" : 24,
          "numChannels" : 0,
          "integratedLUFS" : 100.0,
          "peakLevel" : -1.0,
          "metaData" : ""
        }
      ],
      "metadata" : {
        "assetLibraryId" : "2fd0c162-2957-4aaf-9487-66a116a00ee9"
      }
    },
    {
      "id" : 3,
      "src" : "C:\\Users\\rhigh\\Music\\02 Come a Little Closer.m4a",
      "rect" : [0, 0, 0, 0],
      "lastMod" : "20140405T192939",
      "sourceTracks" : [
        {
          "range" : [0, 2294131518],
          "type" : 2,
          "editRate" : 10000000,
          "trackRect" : [0, 0, 0, 0],
          "sampleRate" : 44100,
          "bitDepth" : 16,
          "numChannels" : 2,
          "integratedLUFS" : -6.04429960510592,
          "peakLevel" : 1.16060447692871,
          "metaData" : ""
        }
      ]
    },
    {
      "id" : 4,
      "src" : "C:\\Users\\rhigh\\OneDrive\\Documents\\Camtasia\\Rec 05-02-19_003.trec",
      "rect" : [0, 0, 1920, 1080],
      "lastMod" : "20190502T185600",
      "sourceTracks" : [
        {
          "range" : [0, 4036],
          "type" : 0,
          "editRate" : 30,
          "trackRect" : [0, 0, 1920, 1080],
          "sampleRate" : 26,
          "bitDepth" : 0,
          "numChannels" : 0,
          "integratedLUFS" : 100.0,
          "peakLevel" : -1.0,
          "metaData" : "Rec 05-02-19_003.trec;"
        },
        {
          "range" : [0, 5933056],
          "type" : 2,
          "editRate" : 44100,
          "trackRect" : [0, 0, 0, 0],
          "sampleRate" : 44100,
          "bitDepth" : 16,
          "numChannels" : 2,
          "integratedLUFS" : -19.3891686831793,
          "peakLevel" : 1.0,
          "metaData" : ""
        },
        {
          "range" : [0, 5934080],
          "type" : 2,
          "editRate" : 44100,
          "trackRect" : [0, 0, 0, 0],
          "sampleRate" : 44100,
          "bitDepth" : 16,
          "numChannels" : 2,
          "integratedLUFS" : -1.79769313486232e+308,
          "peakLevel" : 0.0,
          "metaData" : ""
        }
      ]
    },
    {
      "id" : 5,
      "src" : "C:\\Users\\rhigh\\OneDrive\\Documents\\Camtasia\\Rec 05-02-19_004.trec",
      "rect" : [0, 0, 1920, 1080],
      "lastMod" : "20190502T190222",
      "sourceTracks" : [
        {
          "range" : [0, 4711],
          "type" : 0,
          "editRate" : 30,
          "trackRect" : [0, 0, 1920, 1080],
          "sampleRate" : 26,
          "bitDepth" : 0,
          "numChannels" : 0,
          "integratedLUFS" : 100.0,
          "peakLevel" : -1.0,
          "metaData" : "Rec 05-02-19_004.trec;"
        },
        {
          "range" : [0, 6925312],
          "type" : 2,
          "editRate" : 44100,
          "trackRect" : [0, 0, 0, 0],
          "sampleRate" : 44100,
          "bitDepth" : 16,
          "numChannels" : 2,
          "integratedLUFS" : -19.2216002943649,
          "peakLevel" : 1.0,
          "metaData" : ""
        },
        {
          "range" : [0, 6926336],
          "type" : 2,
          "editRate" : 44100,
          "trackRect" : [0, 0, 0, 0],
          "sampleRate" : 44100,
          "bitDepth" : 16,
          "numChannels" : 2,
          "integratedLUFS" : -1.79769313486232e+308,
          "peakLevel" : 0.0,
          "metaData" : ""
        }
      ]
    },
    {
      "id" : 6,
      "src" : "C:\\Users\\rhigh\\OneDrive\\Documents\\Camtasia\\Rec 05-02-19_005.trec",
      "rect" : [0, 0, 1920, 1080],
      "lastMod" : "20190502T191034",
      "sourceTracks" : [
        {
          "range" : [0, 7144],
          "type" : 0,
          "editRate" : 30,
          "trackRect" : [0, 0, 1920, 1080],
          "sampleRate" : 26,
          "bitDepth" : 0,
          "numChannels" : 0,
          "integratedLUFS" : 100.0,
          "peakLevel" : -1.0,
          "metaData" : "Rec 05-02-19_005.trec;"
        },
        {
          "range" : [0, 10497024],
          "type" : 2,
          "editRate" : 44100,
          "trackRect" : [0, 0, 0, 0],
          "sampleRate" : 44100,
          "bitDepth" : 16,
          "numChannels" : 2,
          "integratedLUFS" : -18.2303447844669,
          "peakLevel" : 1.0,
          "metaData" : ""
        },
        {
          "range" : [0, 10504192],
          "type" : 2,
          "editRate" : 44100,
          "trackRect" : [0, 0, 0, 0],
          "sampleRate" : 44100,
          "bitDepth" : 16,
          "numChannels" : 2,
          "integratedLUFS" : -1.79769313486232e+308,
          "peakLevel" : 0.0,
          "metaData" : ""
        }
      ]
    }
  ],
  "timeline" : {
    "id" : 7,
    "sceneTrack" : {
      "scenes" : [
        {
          "duration" : 502.833333333333,
          "title" : "",
          "type" : "",
          "csml" : {
            "tracks" : [
              {
                "trackIndex" : 0,
                "medias" : [
                  {
                    "id" : 8,
                    "_type" : "StitchedMedia",
                    "minMediaStart" : 0,
                    "attributes" : {
                      "ident" : "Rec 05-02-19_003",
                      "gain" : 1.0,
                      "mixToMono" : false
                    },
                    "parameters" : {
                      "volume" : 1.0,
                      "cursorOpacity" : 1.0,
                      "cursorScale" : 1.0
                    },
                    "medias" : [
                        {
                          "id" : 9,
                          "_type" : "UnifiedMedia",
                          "video" : 
                              {
                                "id" : 10,
                                "_type" : "ScreenVMFile",
                                "src" : 4,
                                "trackNumber" : 0,
                                "attributes" : {
                                  "ident" : "Rec 05-02-19_003"
                                },
                                "parameters" : {
                                  "cursorScale" : {
                                    "type" : "double",
                                    "defaultValue" : 0.0,
                                    "interp" : "linr"
                                  },
                                  "cursorOpacity" : {
                                    "type" : "double",
                                    "defaultValue" : 0.0,
                                    "interp" : "linr"
                                  }
                                },
                                "effects" : [

                                ],
                                "start" : 0,
                                "duration" : 1,
                                "mediaStart" : 0,
                                "mediaDuration" : 1,
                                "scalar" : 1,
                                "animationTracks" : {

                                }
                              },
                          "audio" : 
                              {
                                "id" : 11,
                                "_type" : "AMFile",
                                "src" : 4,
                                "trackNumber" : 2,
                                "attributes" : {
                                  "ident" : "",
                                  "sampleRate" : 44100,
                                  "bitDepth" : 16,
                                  "gain" : 1.0,
                                  "mixToMono" : false
                                },
                                  "channelNumber" : "0,1",
                                "effects" : [

                                ],
                                "start" : 0,
                                "duration" : 1,
                                "mediaStart" : 0,
                                "mediaDuration" : 1,
                                "scalar" : 1,
                                "animationTracks" : {

                                }
                              }
,
                          "start" : 0,
                          "duration" : 1,
                          "mediaStart" : 0,
                          "mediaDuration" : 4036,
                          "scalar" : 1,
                          "metadata" : {
                            "AutoAppliedSmartFocus" : "False",
                            "WinSubProjectDisplayName" : "",
                            "clipSpeedAttribute" : false
                          }
                        },
                        {
                          "id" : 12,
                          "_type" : "UnifiedMedia",
                          "video" : 
                              {
                                "id" : 13,
                                "_type" : "ScreenVMFile",
                                "src" : 4,
                                "trackNumber" : 0,
                                "attributes" : {
                                  "ident" : "Rec 05-02-19_003"
                                },
                                "parameters" : {
                                  "cursorScale" : {
                                    "type" : "double",
                                    "defaultValue" : 0.0,
                                    "interp" : "linr"
                                  },
                                  "cursorOpacity" : {
                                    "type" : "double",
                                    "defaultValue" : 0.0,
                                    "interp" : "linr"
                                  }
                                },
                                "effects" : [

                                ],
                                "start" : 1,
                                "duration" : 3822,
                                "mediaStart" : 214,
                                "mediaDuration" : 3822,
                                "scalar" : 1,
                                "animationTracks" : {

                                }
                              },
                          "audio" : 
                              {
                                "id" : 14,
                                "_type" : "AMFile",
                                "src" : 4,
                                "trackNumber" : 2,
                                "attributes" : {
                                  "ident" : "",
                                  "sampleRate" : 44100,
                                  "bitDepth" : 16,
                                  "gain" : 1.0,
                                  "mixToMono" : false
                                },
                                  "channelNumber" : "0,1",
                                "effects" : [

                                ],
                                "start" : 1,
                                "duration" : 3822,
                                "mediaStart" : 214,
                                "mediaDuration" : 3822,
                                "scalar" : 1,
                                "animationTracks" : {

                                }
                              }
,
                          "start" : 1,
                          "duration" : 3822,
                          "mediaStart" : 0,
                          "mediaDuration" : 4036,
                          "scalar" : 1,
                          "metadata" : {
                            "AutoAppliedSmartFocus" : "False",
                            "WinSubProjectDisplayName" : "",
                            "clipSpeedAttribute" : false
                          }
                        }
                    ],
                    "effects" : [

                    ],
                    "start" : 442,
                    "duration" : 3581,
                    "mediaStart" : 0,
                    "mediaDuration" : 3581,
                    "scalar" : 1,
                    "metadata" : {
                      "AutoAppliedSmartFocus" : "False",
                      "WinSubProjectDisplayName" : "",
                      "clipSpeedAttribute" : false
                    },
                    "animationTracks" : {

                    }
                  },
                  {
                    "id" : 15,
                    "_type" : "StitchedMedia",
                    "minMediaStart" : 0,
                    "attributes" : {
                      "ident" : "Rec 05-02-19_004",
                      "gain" : 1.0,
                      "mixToMono" : false
                    },
                    "parameters" : {
                      "volume" : 1.0,
                      "cursorOpacity" : 1.0,
                      "cursorScale" : 1.0
                    },
                    "medias" : [
                        {
                          "id" : 16,
                          "_type" : "UnifiedMedia",
                          "video" : 
                              {
                                "id" : 17,
                                "_type" : "ScreenVMFile",
                                "src" : 5,
                                "trackNumber" : 0,
                                "attributes" : {
                                  "ident" : "Rec 05-02-19_004"
                                },
                                "parameters" : {
                                  "cursorScale" : {
                                    "type" : "double",
                                    "defaultValue" : 0.0,
                                    "interp" : "linr"
                                  },
                                  "cursorOpacity" : {
                                    "type" : "double",
                                    "defaultValue" : 0.0,
                                    "interp" : "linr"
                                  }
                                },
                                "effects" : [

                                ],
                                "start" : 0,
                                "duration" : 2210,
                                "mediaStart" : 0,
                                "mediaDuration" : 2210,
                                "scalar" : 1,
                                "animationTracks" : {

                                }
                              },
                          "audio" : 
                              {
                                "id" : 18,
                                "_type" : "AMFile",
                                "src" : 5,
                                "trackNumber" : 2,
                                "attributes" : {
                                  "ident" : "",
                                  "sampleRate" : 44100,
                                  "bitDepth" : 16,
                                  "gain" : 1.0,
                                  "mixToMono" : false
                                },
                                  "channelNumber" : "0,1",
                                "effects" : [

                                ],
                                "start" : 0,
                                "duration" : 2210,
                                "mediaStart" : 0,
                                "mediaDuration" : 2210,
                                "scalar" : 1,
                                "animationTracks" : {

                                }
                              }
,
                          "start" : 0,
                          "duration" : 2210,
                          "mediaStart" : 0,
                          "mediaDuration" : 4711,
                          "scalar" : 1,
                          "metadata" : {
                            "AutoAppliedSmartFocus" : "False",
                            "WinSubProjectDisplayName" : "",
                            "clipSpeedAttribute" : false
                          }
                        },
                        {
                          "id" : 19,
                          "_type" : "UnifiedMedia",
                          "video" : 
                              {
                                "id" : 20,
                                "_type" : "ScreenVMFile",
                                "src" : 5,
                                "trackNumber" : 0,
                                "attributes" : {
                                  "ident" : "Rec 05-02-19_004"
                                },
                                "parameters" : {
                                  "cursorScale" : {
                                    "type" : "double",
                                    "defaultValue" : 0.0,
                                    "interp" : "linr"
                                  },
                                  "cursorOpacity" : {
                                    "type" : "double",
                                    "defaultValue" : 0.0,
                                    "interp" : "linr"
                                  }
                                },
                                "effects" : [

                                ],
                                "start" : 2210,
                                "duration" : 1788,
                                "mediaStart" : 2256,
                                "mediaDuration" : 1788,
                                "scalar" : 1,
                                "animationTracks" : {

                                }
                              },
                          "audio" : 
                              {
                                "id" : 21,
                                "_type" : "AMFile",
                                "src" : 5,
                                "trackNumber" : 2,
                                "attributes" : {
                                  "ident" : "",
                                  "sampleRate" : 44100,
                                  "bitDepth" : 16,
                                  "gain" : 1.0,
                                  "mixToMono" : false
                                },
                                  "channelNumber" : "0,1",
                                "effects" : [

                                ],
                                "start" : 2210,
                                "duration" : 1788,
                                "mediaStart" : 2256,
                                "mediaDuration" : 1788,
                                "scalar" : 1,
                                "animationTracks" : {

                                }
                              }
,
                          "start" : 2210,
                          "duration" : 1788,
                          "mediaStart" : 0,
                          "mediaDuration" : 4711,
                          "scalar" : 1,
                          "metadata" : {
                            "AutoAppliedSmartFocus" : "False",
                            "WinSubProjectDisplayName" : "",
                            "clipSpeedAttribute" : false
                          }
                        },
                        {
                          "id" : 22,
                          "_type" : "UnifiedMedia",
                          "video" : 
                              {
                                "id" : 23,
                                "_type" : "ScreenVMFile",
                                "src" : 5,
                                "trackNumber" : 0,
                                "attributes" : {
                                  "ident" : "Rec 05-02-19_004"
                                },
                                "parameters" : {
                                  "cursorScale" : {
                                    "type" : "double",
                                    "defaultValue" : 0.0,
                                    "interp" : "linr"
                                  },
                                  "cursorOpacity" : {
                                    "type" : "double",
                                    "defaultValue" : 0.0,
                                    "interp" : "linr"
                                  }
                                },
                                "effects" : [

                                ],
                                "start" : 3998,
                                "duration" : 358,
                                "mediaStart" : 4353,
                                "mediaDuration" : 358,
                                "scalar" : 1,
                                "animationTracks" : {

                                }
                              },
                          "audio" : 
                              {
                                "id" : 24,
                                "_type" : "AMFile",
                                "src" : 5,
                                "trackNumber" : 2,
                                "attributes" : {
                                  "ident" : "",
                                  "sampleRate" : 44100,
                                  "bitDepth" : 16,
                                  "gain" : 1.0,
                                  "mixToMono" : false
                                },
                                  "channelNumber" : "0,1",
                                "effects" : [

                                ],
                                "start" : 3998,
                                "duration" : 358,
                                "mediaStart" : 4353,
                                "mediaDuration" : 358,
                                "scalar" : 1,
                                "animationTracks" : {

                                }
                              }
,
                          "start" : 3998,
                          "duration" : 358,
                          "mediaStart" : 0,
                          "mediaDuration" : 4711,
                          "scalar" : 1,
                          "metadata" : {
                            "AutoAppliedSmartFocus" : "False",
                            "WinSubProjectDisplayName" : "",
                            "clipSpeedAttribute" : false
                          }
                        }
                    ],
                    "effects" : [

                    ],
                    "start" : 4023,
                    "duration" : 4288,
                    "mediaStart" : 0,
                    "mediaDuration" : 4288,
                    "scalar" : 1,
                    "metadata" : {
                      "AutoAppliedSmartFocus" : "False",
                      "WinSubProjectDisplayName" : "",
                      "clipSpeedAttribute" : false
                    },
                    "animationTracks" : {

                    }
                  },
                  {
                    "id" : 25,
                    "_type" : "StitchedMedia",
                    "minMediaStart" : 0,
                    "attributes" : {
                      "ident" : "Rec 05-02-19_005",
                      "gain" : 1.0,
                      "mixToMono" : false
                    },
                    "parameters" : {
                      "volume" : 1.0,
                      "cursorOpacity" : 1.0,
                      "cursorScale" : 1.0
                    },
                    "medias" : [
                        {
                          "id" : 26,
                          "_type" : "UnifiedMedia",
                          "video" : 
                              {
                                "id" : 27,
                                "_type" : "ScreenVMFile",
                                "src" : 6,
                                "trackNumber" : 0,
                                "attributes" : {
                                  "ident" : "Rec 05-02-19_005"
                                },
                                "parameters" : {
                                  "cursorScale" : {
                                    "type" : "double",
                                    "defaultValue" : 0.0,
                                    "interp" : "linr"
                                  },
                                  "cursorOpacity" : {
                                    "type" : "double",
                                    "defaultValue" : 0.0,
                                    "interp" : "linr"
                                  }
                                },
                                "effects" : [

                                ],
                                "start" : 0,
                                "duration" : 2768,
                                "mediaStart" : 0,
                                "mediaDuration" : 2768,
                                "scalar" : 1,
                                "animationTracks" : {

                                }
                              },
                          "audio" : 
                              {
                                "id" : 28,
                                "_type" : "AMFile",
                                "src" : 6,
                                "trackNumber" : 2,
                                "attributes" : {
                                  "ident" : "",
                                  "sampleRate" : 44100,
                                  "bitDepth" : 16,
                                  "gain" : 1.0,
                                  "mixToMono" : false
                                },
                                  "channelNumber" : "0,1",
                                "effects" : [

                                ],
                                "start" : 0,
                                "duration" : 2768,
                                "mediaStart" : 0,
                                "mediaDuration" : 2768,
                                "scalar" : 1,
                                "animationTracks" : {

                                }
                              }
,
                          "start" : 0,
                          "duration" : 2768,
                          "mediaStart" : 0,
                          "mediaDuration" : 7144,
                          "scalar" : 1,
                          "metadata" : {
                            "AutoAppliedSmartFocus" : "False",
                            "WinSubProjectDisplayName" : "",
                            "clipSpeedAttribute" : false
                          }
                        },
                        {
                          "id" : 29,
                          "_type" : "UnifiedMedia",
                          "video" : 
                              {
                                "id" : 30,
                                "_type" : "ScreenVMFile",
                                "src" : 6,
                                "trackNumber" : 0,
                                "attributes" : {
                                  "ident" : "Rec 05-02-19_005"
                                },
                                "parameters" : {
                                  "cursorScale" : {
                                    "type" : "double",
                                    "defaultValue" : 0.0,
                                    "interp" : "linr"
                                  },
                                  "cursorOpacity" : {
                                    "type" : "double",
                                    "defaultValue" : 0.0,
                                    "interp" : "linr"
                                  }
                                },
                                "effects" : [

                                ],
                                "start" : 2768,
                                "duration" : 33,
                                "mediaStart" : 2842,
                                "mediaDuration" : 33,
                                "scalar" : 1,
                                "animationTracks" : {

                                }
                              },
                          "audio" : 
                              {
                                "id" : 31,
                                "_type" : "AMFile",
                                "src" : 6,
                                "trackNumber" : 2,
                                "attributes" : {
                                  "ident" : "",
                                  "sampleRate" : 44100,
                                  "bitDepth" : 16,
                                  "gain" : 1.0,
                                  "mixToMono" : false
                                },
                                  "channelNumber" : "0,1",
                                "effects" : [

                                ],
                                "start" : 2768,
                                "duration" : 33,
                                "mediaStart" : 2842,
                                "mediaDuration" : 33,
                                "scalar" : 1,
                                "animationTracks" : {

                                }
                              }
,
                          "start" : 2768,
                          "duration" : 33,
                          "mediaStart" : 0,
                          "mediaDuration" : 7144,
                          "scalar" : 1,
                          "metadata" : {
                            "AutoAppliedSmartFocus" : "False",
                            "WinSubProjectDisplayName" : "",
                            "clipSpeedAttribute" : false
                          }
                        },
                        {
                          "id" : 32,
                          "_type" : "UnifiedMedia",
                          "video" : 
                              {
                                "id" : 33,
                                "_type" : "ScreenVMFile",
                                "src" : 6,
                                "trackNumber" : 0,
                                "attributes" : {
                                  "ident" : "Rec 05-02-19_005"
                                },
                                "parameters" : {
                                  "cursorScale" : {
                                    "type" : "double",
                                    "defaultValue" : 0.0,
                                    "interp" : "linr"
                                  },
                                  "cursorOpacity" : {
                                    "type" : "double",
                                    "defaultValue" : 0.0,
                                    "interp" : "linr"
                                  }
                                },
                                "effects" : [

                                ],
                                "start" : 2801,
                                "duration" : 57,
                                "mediaStart" : 2968,
                                "mediaDuration" : 57,
                                "scalar" : 1,
                                "animationTracks" : {

                                }
                              },
                          "audio" : 
                              {
                                "id" : 34,
                                "_type" : "AMFile",
                                "src" : 6,
                                "trackNumber" : 2,
                                "attributes" : {
                                  "ident" : "",
                                  "sampleRate" : 44100,
                                  "bitDepth" : 16,
                                  "gain" : 1.0,
                                  "mixToMono" : false
                                },
                                  "channelNumber" : "0,1",
                                "effects" : [

                                ],
                                "start" : 2801,
                                "duration" : 57,
                                "mediaStart" : 2968,
                                "mediaDuration" : 57,
                                "scalar" : 1,
                                "animationTracks" : {

                                }
                              }
,
                          "start" : 2801,
                          "duration" : 57,
                          "mediaStart" : 0,
                          "mediaDuration" : 7144,
                          "scalar" : 1,
                          "metadata" : {
                            "AutoAppliedSmartFocus" : "False",
                            "WinSubProjectDisplayName" : "",
                            "clipSpeedAttribute" : false
                          }
                        },
                        {
                          "id" : 35,
                          "_type" : "UnifiedMedia",
                          "video" : 
                              {
                                "id" : 36,
                                "_type" : "ScreenVMFile",
                                "src" : 6,
                                "trackNumber" : 0,
                                "attributes" : {
                                  "ident" : "Rec 05-02-19_005"
                                },
                                "parameters" : {
                                  "cursorScale" : {
                                    "type" : "double",
                                    "defaultValue" : 0.0,
                                    "interp" : "linr"
                                  },
                                  "cursorOpacity" : {
                                    "type" : "double",
                                    "defaultValue" : 0.0,
                                    "interp" : "linr"
                                  }
                                },
                                "effects" : [

                                ],
                                "start" : 2858,
                                "duration" : 4078,
                                "mediaStart" : 3066,
                                "mediaDuration" : 4078,
                                "scalar" : 1,
                                "animationTracks" : {

                                }
                              },
                          "audio" : 
                              {
                                "id" : 37,
                                "_type" : "AMFile",
                                "src" : 6,
                                "trackNumber" : 2,
                                "attributes" : {
                                  "ident" : "",
                                  "sampleRate" : 44100,
                                  "bitDepth" : 16,
                                  "gain" : 1.0,
                                  "mixToMono" : false
                                },
                                  "channelNumber" : "0,1",
                                "effects" : [

                                ],
                                "start" : 2858,
                                "duration" : 4078,
                                "mediaStart" : 3066,
                                "mediaDuration" : 4078,
                                "scalar" : 1,
                                "animationTracks" : {

                                }
                              }
,
                          "start" : 2858,
                          "duration" : 4078,
                          "mediaStart" : 0,
                          "mediaDuration" : 7144,
                          "scalar" : 1,
                          "metadata" : {
                            "AutoAppliedSmartFocus" : "False",
                            "WinSubProjectDisplayName" : "",
                            "clipSpeedAttribute" : false
                          }
                        }
                    ],
                    "effects" : [

                    ],
                    "start" : 8311,
                    "duration" : 6774,
                    "mediaStart" : 162,
                    "mediaDuration" : 6774,
                    "scalar" : 1,
                    "metadata" : {
                      "AutoAppliedSmartFocus" : "False",
                      "WinSubProjectDisplayName" : "",
                      "clipSpeedAttribute" : false
                    },
                    "animationTracks" : {

                    }
                  }
                ],
                "transitions" : [
                  {
                    "name" : "Fade",
                    "duration" : 15,
                    "trivial" : false,
                    "useAudioPreRoll" : true,
                    "useVisualPreRoll" : true,
                    "leftMedia" : 8,
                    "rightMedia" : 15
                  },
                  {
                    "name" : "Fade",
                    "duration" : 15,
                    "trivial" : false,
                    "useAudioPreRoll" : true,
                    "useVisualPreRoll" : true,
                    "leftMedia" : 15
                  },
                  {
                    "name" : "Fade",
                    "duration" : 30,
                    "trivial" : false,
                    "useAudioPreRoll" : true,
                    "useVisualPreRoll" : true,
                    "rightMedia" : 25
                  }
                ]
              },
              {
                "trackIndex" : 1,
                "medias" : [
                  {
                    "id" : 38,
                    "_type" : "StitchedMedia",
                    "minMediaStart" : 0,
                    "attributes" : {
                      "ident" : "Rec 05-02-19_003",
                      "gain" : 1.0,
                      "mixToMono" : false
                    },
                    "parameters" : {
                      "volume" : 2.75510204081633,
                      "cursorOpacity" : 1.0,
                      "cursorScale" : 1.0
                    },
                    "medias" : [
                        {
                          "id" : 39,
                          "_type" : "AMFile",
                          "src" : 4,
                          "trackNumber" : 1,
                          "attributes" : {
                            "ident" : "Rec 05-02-19_003",
                            "sampleRate" : 44100,
                            "bitDepth" : 16,
                            "gain" : 1.0,
                            "mixToMono" : false
                          },
                            "channelNumber" : "0,1",
                          "effects" : [

                          ],
                          "start" : 0,
                          "duration" : 1,
                          "mediaStart" : 0,
                          "mediaDuration" : 1,
                          "scalar" : 1,
                          "metadata" : {
                            "WinSubProjectDisplayName" : "",
                            "clipSpeedAttribute" : false
                          },
                          "animationTracks" : {

                          }
                        },
                        {
                          "id" : 40,
                          "_type" : "AMFile",
                          "src" : 4,
                          "trackNumber" : 1,
                          "attributes" : {
                            "ident" : "Rec 05-02-19_003",
                            "sampleRate" : 44100,
                            "bitDepth" : 16,
                            "gain" : 1.0,
                            "mixToMono" : false
                          },
                            "channelNumber" : "0,1",
                          "effects" : [

                          ],
                          "start" : 1,
                          "duration" : 3822,
                          "mediaStart" : 214,
                          "mediaDuration" : 3822,
                          "scalar" : 1,
                          "metadata" : {
                            "WinSubProjectDisplayName" : "",
                            "clipSpeedAttribute" : false
                          },
                          "animationTracks" : {

                          }
                        }
                    ],
                    "effects" : [

                    ],
                    "start" : 442,
                    "duration" : 3581,
                    "mediaStart" : 0,
                    "mediaDuration" : 3581,
                    "scalar" : 1,
                    "metadata" : {
                      "WinSubProjectDisplayName" : "",
                      "clipSpeedAttribute" : false
                    },
                    "animationTracks" : {

                    }
                  },
                  {
                    "id" : 41,
                    "_type" : "StitchedMedia",
                    "minMediaStart" : 0,
                    "attributes" : {
                      "ident" : "Rec 05-02-19_004",
                      "gain" : 1.0,
                      "mixToMono" : false
                    },
                    "parameters" : {
                      "volume" : 2.95918367346939,
                      "cursorOpacity" : 1.0,
                      "cursorScale" : 1.0
                    },
                    "medias" : [
                        {
                          "id" : 42,
                          "_type" : "AMFile",
                          "src" : 5,
                          "trackNumber" : 1,
                          "attributes" : {
                            "ident" : "Rec 05-02-19_004",
                            "sampleRate" : 44100,
                            "bitDepth" : 16,
                            "gain" : 1.0,
                            "mixToMono" : false
                          },
                            "channelNumber" : "0,1",
                          "effects" : [

                          ],
                          "start" : 0,
                          "duration" : 2210,
                          "mediaStart" : 0,
                          "mediaDuration" : 2210,
                          "scalar" : 1,
                          "metadata" : {
                            "WinSubProjectDisplayName" : "",
                            "clipSpeedAttribute" : false
                          },
                          "animationTracks" : {

                          }
                        },
                        {
                          "id" : 43,
                          "_type" : "AMFile",
                          "src" : 5,
                          "trackNumber" : 1,
                          "attributes" : {
                            "ident" : "Rec 05-02-19_004",
                            "sampleRate" : 44100,
                            "bitDepth" : 16,
                            "gain" : 1.0,
                            "mixToMono" : false
                          },
                            "channelNumber" : "0,1",
                          "effects" : [

                          ],
                          "start" : 2210,
                          "duration" : 1788,
                          "mediaStart" : 2256,
                          "mediaDuration" : 1788,
                          "scalar" : 1,
                          "metadata" : {
                            "WinSubProjectDisplayName" : "",
                            "clipSpeedAttribute" : false
                          },
                          "animationTracks" : {

                          }
                        },
                        {
                          "id" : 44,
                          "_type" : "AMFile",
                          "src" : 5,
                          "trackNumber" : 1,
                          "attributes" : {
                            "ident" : "Rec 05-02-19_004",
                            "sampleRate" : 44100,
                            "bitDepth" : 16,
                            "gain" : 1.0,
                            "mixToMono" : false
                          },
                            "channelNumber" : "0,1",
                          "effects" : [

                          ],
                          "start" : 3998,
                          "duration" : 358,
                          "mediaStart" : 4353,
                          "mediaDuration" : 358,
                          "scalar" : 1,
                          "metadata" : {
                            "WinSubProjectDisplayName" : "",
                            "clipSpeedAttribute" : false
                          },
                          "animationTracks" : {

                          }
                        }
                    ],
                    "effects" : [

                    ],
                    "start" : 4023,
                    "duration" : 4288,
                    "mediaStart" : 0,
                    "mediaDuration" : 4288,
                    "scalar" : 1,
                    "metadata" : {
                      "WinSubProjectDisplayName" : "",
                      "clipSpeedAttribute" : false
                    },
                    "animationTracks" : {

                    }
                  },
                  {
                    "id" : 45,
                    "_type" : "StitchedMedia",
                    "minMediaStart" : 0,
                    "attributes" : {
                      "ident" : "Rec 05-02-19_005",
                      "gain" : 1.0,
                      "mixToMono" : false
                    },
                    "parameters" : {
                      "volume" : 2.14285714285714,
                      "cursorOpacity" : 1.0,
                      "cursorScale" : 1.0
                    },
                    "medias" : [
                        {
                          "id" : 46,
                          "_type" : "AMFile",
                          "src" : 6,
                          "trackNumber" : 1,
                          "attributes" : {
                            "ident" : "Rec 05-02-19_005",
                            "sampleRate" : 44100,
                            "bitDepth" : 16,
                            "gain" : 1.0,
                            "mixToMono" : false
                          },
                            "channelNumber" : "0,1",
                          "effects" : [

                          ],
                          "start" : 0,
                          "duration" : 2768,
                          "mediaStart" : 0,
                          "mediaDuration" : 2768,
                          "scalar" : 1,
                          "metadata" : {
                            "WinSubProjectDisplayName" : "",
                            "clipSpeedAttribute" : false
                          },
                          "animationTracks" : {

                          }
                        },
                        {
                          "id" : 47,
                          "_type" : "AMFile",
                          "src" : 6,
                          "trackNumber" : 1,
                          "attributes" : {
                            "ident" : "Rec 05-02-19_005",
                            "sampleRate" : 44100,
                            "bitDepth" : 16,
                            "gain" : 1.0,
                            "mixToMono" : false
                          },
                            "channelNumber" : "0,1",
                          "effects" : [

                          ],
                          "start" : 2768,
                          "duration" : 33,
                          "mediaStart" : 2842,
                          "mediaDuration" : 33,
                          "scalar" : 1,
                          "metadata" : {
                            "WinSubProjectDisplayName" : "",
                            "clipSpeedAttribute" : false
                          },
                          "animationTracks" : {

                          }
                        },
                        {
                          "id" : 48,
                          "_type" : "AMFile",
                          "src" : 6,
                          "trackNumber" : 1,
                          "attributes" : {
                            "ident" : "Rec 05-02-19_005",
                            "sampleRate" : 44100,
                            "bitDepth" : 16,
                            "gain" : 1.0,
                            "mixToMono" : false
                          },
                            "channelNumber" : "0,1",
                          "effects" : [

                          ],
                          "start" : 2801,
                          "duration" : 57,
                          "mediaStart" : 2968,
                          "mediaDuration" : 57,
                          "scalar" : 1,
                          "metadata" : {
                            "WinSubProjectDisplayName" : "",
                            "clipSpeedAttribute" : false
                          },
                          "animationTracks" : {

                          }
                        },
                        {
                          "id" : 49,
                          "_type" : "AMFile",
                          "src" : 6,
                          "trackNumber" : 1,
                          "attributes" : {
                            "ident" : "Rec 05-02-19_005",
                            "sampleRate" : 44100,
                            "bitDepth" : 16,
                            "gain" : 1.0,
                            "mixToMono" : false
                          },
                            "channelNumber" : "0,1",
                          "effects" : [

                          ],
                          "start" : 2858,
                          "duration" : 4075,
                          "mediaStart" : 3066,
                          "mediaDuration" : 4075,
                          "scalar" : 1,
                          "metadata" : {
                            "WinSubProjectDisplayName" : "",
                            "clipSpeedAttribute" : false
                          },
                          "animationTracks" : {

                          }
                        }
                    ],
                    "effects" : [

                    ],
                    "start" : 8311,
                    "duration" : 6771,
                    "mediaStart" : 162,
                    "mediaDuration" : 6771,
                    "scalar" : 1,
                    "metadata" : {
                      "WinSubProjectDisplayName" : "",
                      "clipSpeedAttribute" : false
                    },
                    "animationTracks" : {

                    }
                  }
                ]
              },
              {
                "trackIndex" : 2,
                "medias" : [
                  {
                    "id" : 50,
                    "_type" : "Group",
                    "parameters" : {
                      "translation0" : -0.0158124385753808,
                      "scale0" : 0.999983528709817,
                      "scale1" : 0.999983528709817,
                      "volume" : 1.0
                    },
                    "tracks" : [
                      {
                        "trackIndex" : 0,
                        "medias" : [
                          {
                            "id" : 51,
                            "_type" : "Group",
                            "parameters" : {
                              "volume" : 1.0
                            },
                            "tracks" : [
                              {
                                "trackIndex" : 0,
                                "medias" : [
                                  {
                                    "id" : 52,
                                    "_type" : "VMFile",
                                    "src" : 2,
                                    "trackNumber" : 0,
                                    "attributes" : {
                                      "ident" : "bokeh-dots-background"
                                    },
                                    "parameters" : {
                                      "translation1" : 2.0,
                                      "scale0" : 1.00999999046326,
                                      "scale1" : 1.00999999046326
                                    },
                                    "effects" : [

                                    ],
                                    "start" : 0,
                                    "duration" : 442,
                                    "mediaStart" : 0,
                                    "mediaDuration" : 442,
                                    "scalar" : 1,
                                    "metadata" : {
                                      "WinSubProjectDisplayName" : "",
                                      "clipSpeedAttribute" : false,
                                      "effectApplied" : "none"
                                    },
                                    "animationTracks" : {

                                    }
                                  }
                                ],
                                "transitions" : [
                                  {
                                    "name" : "Fade",
                                    "duration" : 20,
                                    "trivial" : true,
                                    "useAudioPreRoll" : false,
                                    "useVisualPreRoll" : true,
                                    "rightMedia" : 52
                                  },
                                  {
                                    "name" : "Fade",
                                    "duration" : 20,
                                    "trivial" : true,
                                    "useAudioPreRoll" : false,
                                    "useVisualPreRoll" : true,
                                    "leftMedia" : 52
                                  }
                                ],
                                  "ident" : "",
                                  "audioMuted" : false,
                                  "videoHidden" : false,
                                  "metadata" : {
                                    "IsLocked" : "False",
                                    "WinTrackHeight" : "0",
                                    "trackHeight" : "48"
                                  }
                              },
                              {
                                "trackIndex" : 1,
                                "medias" : [
                                  {
                                    "id" : 53,
                                    "_type" : "Callout",
                                    "def" : {
                                      "kind" : "remix",
                                      "shape" : "shape-rectangle",
                                      "style" : "urban",
                                      "fill-color-blue" : 0.283691912889481,
                                      "fill-color-green" : 0.210302263498306,
                                      "fill-color-opacity" : 1.0,
                                      "fill-color-red" : 0.171782463788986,
                                      "height" : 264.108352144665,
                                      "stroke-color-blue" : 1.0,
                                      "stroke-color-green" : 1.0,
                                      "stroke-color-opacity" : 1.0,
                                      "stroke-color-red" : 1.0,
                                      "stroke-width" : 0.0,
                                      "width" : 278.571428571897,
                                      "fill-style" : "solid",
                                      "horizontal-alignment" : "center",
                                      "stroke-style" : "solid",
                                      "vertical-alignment" : "center",
                                      "textAttributes" : {
                                        "type" : "textAttributeList",
                                        "keyframes" : [
                                          {
                                            "endTime" : 0,
                                            "time" : 0,
                                            "value" : null,
                                            "duration" : 0
                                          }
                                        ]
                                      }
                                    },
                                    "attributes" : {
                                      "autoRotateText" : true
                                    },
                                    "parameters" : {
                                      "translation0" : -687.857175553816,
                                      "translation1" : -262.179773344983
                                    },
                                    "effects" : [
                                        {
                                          "_type" : "GenericBehaviorEffect",
                                          "effectName" : "scale",
                                          "start" : 0,
                                          "duration" : 270                                        ,
                                          "in" : {
                                            "attributes" : {
                                              "name" : "grow",
                                              "type" : 0,
                                              "characterOrder" : 6,
                                              "offsetBetweenCharacters" : 1,
                                              "suggestedDurationPerCharacter" : 18,
                                              "overlapProportion" : "3/4",
                                              "movement" : 30,
                                              "springDamping" : 10.0,
                                              "springStiffness" : 50.0,
                                              "bounceBounciness" : 0.45
                                            }
                                          
                                          },
                                          "center" : {
                                            "attributes" : {
                                              "name" : "none",
                                              "type" : 0,
                                              "characterOrder" : 6,
                                              "offsetBetweenCharacters" : 0,
                                              "secondsPerLoop" : 1,
                                              "numberOfLoops" : -1,
                                              "delayBetweenLoops" : 0,
                                              "offsetBetweenCharacters" : 0
                                            }
                                          
                                          },
                                          "out" : {
                                            "attributes" : {
                                              "name" : "shrink",
                                              "type" : 0,
                                              "characterOrder" : 6,
                                              "offsetBetweenCharacters" : 1,
                                              "suggestedDurationPerCharacter" : "29/2",
                                              "overlapProportion" : "1/10",
                                              "movement" : 11,
                                              "springDamping" : 5.0,
                                              "springStiffness" : 50.0,
                                              "bounceBounciness" : 0.45
                                            }
                                          
                                          }
                                        }
                                    ],
                                    "start" : 30,
                                    "duration" : 270,
                                    "mediaStart" : 0,
                                    "mediaDuration" : 270,
                                    "scalar" : 1,
                                    "metadata" : {
                                      "WinSubProjectDisplayName" : "",
                                      "clipSpeedAttribute" : false,
                                      "effectApplied" : "none"
                                    },
                                    "animationTracks" : {

                                    }
                                  }
                                ],
                                  "ident" : "",
                                  "audioMuted" : false,
                                  "videoHidden" : false,
                                  "metadata" : {
                                    "IsLocked" : "False",
                                    "WinTrackHeight" : "0",
                                    "trackHeight" : "48"
                                  }
                              },
                              {
                                "trackIndex" : 2,
                                "medias" : [
                                  {
                                    "id" : 54,
                                    "_type" : "Callout",
                                    "def" : {
                                      "kind" : "remix",
                                      "shape" : "shape-rectangle",
                                      "style" : "urban",
                                      "fill-color-blue" : 0.283691912889481,
                                      "fill-color-green" : 0.210302263498306,
                                      "fill-color-opacity" : 1.0,
                                      "fill-color-red" : 0.171782463788986,
                                      "height" : 264.108352144665,
                                      "stroke-color-blue" : 1.0,
                                      "stroke-color-green" : 1.0,
                                      "stroke-color-opacity" : 1.0,
                                      "stroke-color-red" : 1.0,
                                      "stroke-width" : 0.0,
                                      "width" : 278.571428571897,
                                      "fill-style" : "solid",
                                      "horizontal-alignment" : "center",
                                      "stroke-style" : "solid",
                                      "vertical-alignment" : "center",
                                      "textAttributes" : {
                                        "type" : "textAttributeList",
                                        "keyframes" : [
                                          {
                                            "endTime" : 0,
                                            "time" : 0,
                                            "value" : null,
                                            "duration" : 0
                                          }
                                        ]
                                      }
                                    },
                                    "attributes" : {
                                      "autoRotateText" : true
                                    },
                                    "parameters" : {
                                      "translation0" : -687.857169014626,
                                      "translation1" : -9.14424092002264e-12
                                    },
                                    "effects" : [
                                        {
                                          "_type" : "GenericBehaviorEffect",
                                          "effectName" : "scale",
                                          "start" : 5,
                                          "duration" : 269                                        ,
                                          "in" : {
                                            "attributes" : {
                                              "name" : "grow",
                                              "type" : 0,
                                              "characterOrder" : 6,
                                              "offsetBetweenCharacters" : 1,
                                              "suggestedDurationPerCharacter" : 18,
                                              "overlapProportion" : "3/4",
                                              "movement" : 30,
                                              "springDamping" : 10.0,
                                              "springStiffness" : 50.0,
                                              "bounceBounciness" : 0.45
                                            }
                                          
                                          },
                                          "center" : {
                                            "attributes" : {
                                              "name" : "none",
                                              "type" : 0,
                                              "characterOrder" : 6,
                                              "offsetBetweenCharacters" : 0,
                                              "secondsPerLoop" : 1,
                                              "numberOfLoops" : -1,
                                              "delayBetweenLoops" : 0,
                                              "offsetBetweenCharacters" : 0
                                            }
                                          
                                          },
                                          "out" : {
                                            "attributes" : {
                                              "name" : "shrink",
                                              "type" : 0,
                                              "characterOrder" : 6,
                                              "offsetBetweenCharacters" : 1,
                                              "suggestedDurationPerCharacter" : "29/2",
                                              "overlapProportion" : "1/10",
                                              "movement" : 11,
                                              "springDamping" : 5.0,
                                              "springStiffness" : 50.0,
                                              "bounceBounciness" : 0.45
                                            }
                                          
                                          }
                                        }
                                    ],
                                    "start" : 32,
                                    "duration" : 269,
                                    "mediaStart" : 5,
                                    "mediaDuration" : 269,
                                    "scalar" : 1,
                                    "metadata" : {
                                      "WinSubProjectDisplayName" : "",
                                      "clipSpeedAttribute" : false,
                                      "effectApplied" : "none"
                                    },
                                    "animationTracks" : {

                                    }
                                  }
                                ],
                                  "ident" : "",
                                  "audioMuted" : false,
                                  "videoHidden" : false,
                                  "metadata" : {
                                    "IsLocked" : "False",
                                    "WinTrackHeight" : "0",
                                    "trackHeight" : "48"
                                  }
                              },
                              {
                                "trackIndex" : 3,
                                "medias" : [
                                  {
                                    "id" : 55,
                                    "_type" : "Callout",
                                    "def" : {
                                      "kind" : "remix",
                                      "shape" : "shape-rectangle",
                                      "style" : "urban",
                                      "fill-color-blue" : 0.283691912889481,
                                      "fill-color-green" : 0.210302263498306,
                                      "fill-color-opacity" : 1.0,
                                      "fill-color-red" : 0.171782463788986,
                                      "height" : 264.108352144665,
                                      "stroke-color-blue" : 1.0,
                                      "stroke-color-green" : 1.0,
                                      "stroke-color-opacity" : 1.0,
                                      "stroke-color-red" : 1.0,
                                      "stroke-width" : 0.0,
                                      "width" : 278.571428571897,
                                      "fill-style" : "solid",
                                      "horizontal-alignment" : "center",
                                      "stroke-style" : "solid",
                                      "vertical-alignment" : "center",
                                      "textAttributes" : {
                                        "type" : "textAttributeList",
                                        "keyframes" : [
                                          {
                                            "endTime" : 0,
                                            "time" : 0,
                                            "value" : null,
                                            "duration" : 0
                                          }
                                        ]
                                      }
                                    },
                                    "attributes" : {
                                      "autoRotateText" : true
                                    },
                                    "parameters" : {
                                      "translation0" : -687.857182093007,
                                      "translation1" : 262.179773344884
                                    },
                                    "effects" : [
                                        {
                                          "_type" : "GenericBehaviorEffect",
                                          "effectName" : "scale",
                                          "start" : 10,
                                          "duration" : 269                                        ,
                                          "in" : {
                                            "attributes" : {
                                              "name" : "grow",
                                              "type" : 0,
                                              "characterOrder" : 6,
                                              "offsetBetweenCharacters" : 1,
                                              "suggestedDurationPerCharacter" : 18,
                                              "overlapProportion" : "3/4",
                                              "movement" : 30,
                                              "springDamping" : 10.0,
                                              "springStiffness" : 50.0,
                                              "bounceBounciness" : 0.45
                                            }
                                          
                                          },
                                          "center" : {
                                            "attributes" : {
                                              "name" : "none",
                                              "type" : 0,
                                              "characterOrder" : 6,
                                              "offsetBetweenCharacters" : 0,
                                              "secondsPerLoop" : 1,
                                              "numberOfLoops" : -1,
                                              "delayBetweenLoops" : 0,
                                              "offsetBetweenCharacters" : 0
                                            }
                                          
                                          },
                                          "out" : {
                                            "attributes" : {
                                              "name" : "shrink",
                                              "type" : 0,
                                              "characterOrder" : 6,
                                              "offsetBetweenCharacters" : 1,
                                              "suggestedDurationPerCharacter" : "29/2",
                                              "overlapProportion" : "1/10",
                                              "movement" : 11,
                                              "springDamping" : 5.0,
                                              "springStiffness" : 50.0,
                                              "bounceBounciness" : 0.45
                                            }
                                          
                                          }
                                        }
                                    ],
                                    "start" : 34,
                                    "duration" : 269,
                                    "mediaStart" : 10,
                                    "mediaDuration" : 269,
                                    "scalar" : 1,
                                    "metadata" : {
                                      "WinSubProjectDisplayName" : "",
                                      "clipSpeedAttribute" : false,
                                      "effectApplied" : "none"
                                    },
                                    "animationTracks" : {

                                    }
                                  }
                                ],
                                  "ident" : "",
                                  "audioMuted" : false,
                                  "videoHidden" : false,
                                  "metadata" : {
                                    "IsLocked" : "False",
                                    "WinTrackHeight" : "0",
                                    "trackHeight" : "48"
                                  }
                              },
                              {
                                "trackIndex" : 4,
                                "medias" : [
                                  {
                                    "id" : 56,
                                    "_type" : "Callout",
                                    "def" : {
                                      "kind" : "remix",
                                      "shape" : "shape-rectangle",
                                      "style" : "urban",
                                      "fill-color-blue" : 0.283691912889481,
                                      "fill-color-green" : 0.210302263498306,
                                      "fill-color-opacity" : 1.0,
                                      "fill-color-red" : 0.171782463788986,
                                      "height" : 264.108352144665,
                                      "stroke-color-blue" : 1.0,
                                      "stroke-color-green" : 1.0,
                                      "stroke-color-opacity" : 1.0,
                                      "stroke-color-red" : 1.0,
                                      "stroke-width" : 0.0,
                                      "width" : 278.571428571897,
                                      "fill-style" : "solid",
                                      "horizontal-alignment" : "center",
                                      "stroke-style" : "solid",
                                      "vertical-alignment" : "center",
                                      "textAttributes" : {
                                        "type" : "textAttributeList",
                                        "keyframes" : [
                                          {
                                            "endTime" : 0,
                                            "time" : 0,
                                            "value" : null,
                                            "duration" : 0
                                          }
                                        ]
                                      }
                                    },
                                    "attributes" : {
                                      "autoRotateText" : true
                                    },
                                    "parameters" : {
                                      "translation0" : -411.21429879278,
                                      "translation1" : -262.17978071617
                                    },
                                    "effects" : [
                                        {
                                          "_type" : "GenericBehaviorEffect",
                                          "effectName" : "pulsating",
                                          "start" : 0,
                                          "duration" : 270                                        ,
                                          "in" : {
                                            "attributes" : {
                                              "name" : "grow",
                                              "type" : 0,
                                              "characterOrder" : 6,
                                              "offsetBetweenCharacters" : 1,
                                              "suggestedDurationPerCharacter" : 18,
                                              "overlapProportion" : "3/4",
                                              "movement" : 30,
                                              "springDamping" : 10.0,
                                              "springStiffness" : 50.0,
                                              "bounceBounciness" : 0.45
                                            }
                                          
                                          },
                                          "center" : {
                                            "attributes" : {
                                              "name" : "none",
                                              "type" : 0,
                                              "characterOrder" : 6,
                                              "offsetBetweenCharacters" : 0,
                                              "secondsPerLoop" : 1,
                                              "numberOfLoops" : -1,
                                              "delayBetweenLoops" : 0,
                                              "offsetBetweenCharacters" : 0
                                            }
                                          
                                          },
                                          "out" : {
                                            "attributes" : {
                                              "name" : "shrink",
                                              "type" : 0,
                                              "characterOrder" : 6,
                                              "offsetBetweenCharacters" : 1,
                                              "suggestedDurationPerCharacter" : "29/2",
                                              "overlapProportion" : "1/10",
                                              "movement" : 11,
                                              "springDamping" : 5.0,
                                              "springStiffness" : 50.0,
                                              "bounceBounciness" : 0.45
                                            }
                                          
                                          }
                                        }
                                    ],
                                    "start" : 36,
                                    "duration" : 270,
                                    "mediaStart" : 0,
                                    "mediaDuration" : 270,
                                    "scalar" : 1,
                                    "metadata" : {
                                      "WinSubProjectDisplayName" : "",
                                      "clipSpeedAttribute" : false,
                                      "effectApplied" : "none"
                                    },
                                    "animationTracks" : {

                                    }
                                  }
                                ],
                                  "ident" : "",
                                  "audioMuted" : false,
                                  "videoHidden" : false,
                                  "metadata" : {
                                    "IsLocked" : "False",
                                    "WinTrackHeight" : "0",
                                    "trackHeight" : "48"
                                  }
                              },
                              {
                                "trackIndex" : 5,
                                "medias" : [
                                  {
                                    "id" : 57,
                                    "_type" : "Callout",
                                    "def" : {
                                      "kind" : "remix",
                                      "shape" : "shape-rectangle",
                                      "style" : "urban",
                                      "fill-color-blue" : 0.283691912889481,
                                      "fill-color-green" : 0.210302263498306,
                                      "fill-color-opacity" : 1.0,
                                      "fill-color-red" : 0.171782463788986,
                                      "height" : 264.108352144665,
                                      "stroke-color-blue" : 1.0,
                                      "stroke-color-green" : 1.0,
                                      "stroke-color-opacity" : 1.0,
                                      "stroke-color-red" : 1.0,
                                      "stroke-width" : 0.0,
                                      "width" : 278.571428571897,
                                      "fill-style" : "solid",
                                      "horizontal-alignment" : "center",
                                      "stroke-style" : "solid",
                                      "vertical-alignment" : "center",
                                      "textAttributes" : {
                                        "type" : "textAttributeList",
                                        "keyframes" : [
                                          {
                                            "endTime" : 0,
                                            "time" : 0,
                                            "value" : null,
                                            "duration" : 0
                                          }
                                        ]
                                      }
                                    },
                                    "attributes" : {
                                      "autoRotateText" : true
                                    },
                                    "parameters" : {
                                      "translation0" : -411.214292253589,
                                      "translation1" : -7.37119619698134e-06
                                    },
                                    "effects" : [
                                        {
                                          "_type" : "GenericBehaviorEffect",
                                          "effectName" : "scale",
                                          "start" : 0,
                                          "duration" : 270                                        ,
                                          "in" : {
                                            "attributes" : {
                                              "name" : "grow",
                                              "type" : 0,
                                              "characterOrder" : 6,
                                              "offsetBetweenCharacters" : 1,
                                              "suggestedDurationPerCharacter" : 18,
                                              "overlapProportion" : "3/4",
                                              "movement" : 30,
                                              "springDamping" : 10.0,
                                              "springStiffness" : 50.0,
                                              "bounceBounciness" : 0.45
                                            }
                                          
                                          },
                                          "center" : {
                                            "attributes" : {
                                              "name" : "none",
                                              "type" : 0,
                                              "characterOrder" : 6,
                                              "offsetBetweenCharacters" : 0,
                                              "secondsPerLoop" : 1,
                                              "numberOfLoops" : -1,
                                              "delayBetweenLoops" : 0,
                                              "offsetBetweenCharacters" : 0
                                            }
                                          
                                          },
                                          "out" : {
                                            "attributes" : {
                                              "name" : "shrink",
                                              "type" : 0,
                                              "characterOrder" : 6,
                                              "offsetBetweenCharacters" : 1,
                                              "suggestedDurationPerCharacter" : "29/2",
                                              "overlapProportion" : "1/10",
                                              "movement" : 11,
                                              "springDamping" : 5.0,
                                              "springStiffness" : 50.0,
                                              "bounceBounciness" : 0.45
                                            }
                                          
                                          }
                                        }
                                    ],
                                    "start" : 38,
                                    "duration" : 270,
                                    "mediaStart" : 0,
                                    "mediaDuration" : 270,
                                    "scalar" : 1,
                                    "metadata" : {
                                      "WinSubProjectDisplayName" : "",
                                      "clipSpeedAttribute" : false,
                                      "effectApplied" : "none"
                                    },
                                    "animationTracks" : {

                                    }
                                  }
                                ],
                                  "ident" : "",
                                  "audioMuted" : false,
                                  "videoHidden" : false,
                                  "metadata" : {
                                    "IsLocked" : "False",
                                    "WinTrackHeight" : "0",
                                    "trackHeight" : "48"
                                  }
                              },
                              {
                                "trackIndex" : 6,
                                "medias" : [
                                  {
                                    "id" : 58,
                                    "_type" : "Callout",
                                    "def" : {
                                      "kind" : "remix",
                                      "shape" : "shape-rectangle",
                                      "style" : "urban",
                                      "fill-color-blue" : 0.283691912889481,
                                      "fill-color-green" : 0.210302263498306,
                                      "fill-color-opacity" : 1.0,
                                      "fill-color-red" : 0.171782463788986,
                                      "height" : 264.108352144665,
                                      "stroke-color-blue" : 1.0,
                                      "stroke-color-green" : 1.0,
                                      "stroke-color-opacity" : 1.0,
                                      "stroke-color-red" : 1.0,
                                      "stroke-width" : 0.0,
                                      "width" : 278.571428571897,
                                      "fill-style" : "solid",
                                      "horizontal-alignment" : "center",
                                      "stroke-style" : "solid",
                                      "vertical-alignment" : "center",
                                      "textAttributes" : {
                                        "type" : "textAttributeList",
                                        "keyframes" : [
                                          {
                                            "endTime" : 0,
                                            "time" : 0,
                                            "value" : null,
                                            "duration" : 0
                                          }
                                        ]
                                      }
                                    },
                                    "attributes" : {
                                      "autoRotateText" : true
                                    },
                                    "parameters" : {
                                      "translation0" : -411.21430533197,
                                      "translation1" : 262.179765973697
                                    },
                                    "effects" : [
                                        {
                                          "_type" : "GenericBehaviorEffect",
                                          "effectName" : "scale",
                                          "start" : 0,
                                          "duration" : 270                                        ,
                                          "in" : {
                                            "attributes" : {
                                              "name" : "grow",
                                              "type" : 0,
                                              "characterOrder" : 6,
                                              "offsetBetweenCharacters" : 1,
                                              "suggestedDurationPerCharacter" : 18,
                                              "overlapProportion" : "3/4",
                                              "movement" : 30,
                                              "springDamping" : 10.0,
                                              "springStiffness" : 50.0,
                                              "bounceBounciness" : 0.45
                                            }
                                          
                                          },
                                          "center" : {
                                            "attributes" : {
                                              "name" : "none",
                                              "type" : 0,
                                              "characterOrder" : 6,
                                              "offsetBetweenCharacters" : 0,
                                              "secondsPerLoop" : 1,
                                              "numberOfLoops" : -1,
                                              "delayBetweenLoops" : 0,
                                              "offsetBetweenCharacters" : 0
                                            }
                                          
                                          },
                                          "out" : {
                                            "attributes" : {
                                              "name" : "shrink",
                                              "type" : 0,
                                              "characterOrder" : 6,
                                              "offsetBetweenCharacters" : 1,
                                              "suggestedDurationPerCharacter" : "29/2",
                                              "overlapProportion" : "1/10",
                                              "movement" : 11,
                                              "springDamping" : 5.0,
                                              "springStiffness" : 50.0,
                                              "bounceBounciness" : 0.45
                                            }
                                          
                                          }
                                        }
                                    ],
                                    "start" : 40,
                                    "duration" : 270,
                                    "mediaStart" : 0,
                                    "mediaDuration" : 270,
                                    "scalar" : 1,
                                    "metadata" : {
                                      "WinSubProjectDisplayName" : "",
                                      "clipSpeedAttribute" : false,
                                      "effectApplied" : "none"
                                    },
                                    "animationTracks" : {

                                    }
                                  }
                                ],
                                  "ident" : "",
                                  "audioMuted" : false,
                                  "videoHidden" : false,
                                  "metadata" : {
                                    "IsLocked" : "False",
                                    "WinTrackHeight" : "0",
                                    "trackHeight" : "48"
                                  }
                              },
                              {
                                "trackIndex" : 7,
                                "medias" : [
                                  {
                                    "id" : 59,
                                    "_type" : "Callout",
                                    "def" : {
                                      "kind" : "remix",
                                      "shape" : "shape-rectangle",
                                      "style" : "urban",
                                      "fill-color-blue" : 0.283691912889481,
                                      "fill-color-green" : 0.210302263498306,
                                      "fill-color-opacity" : 1.0,
                                      "fill-color-red" : 0.171782463788986,
                                      "height" : 264.108352144665,
                                      "stroke-color-blue" : 1.0,
                                      "stroke-color-green" : 1.0,
                                      "stroke-color-opacity" : 1.0,
                                      "stroke-color-red" : 1.0,
                                      "stroke-width" : 0.0,
                                      "width" : 278.571428571897,
                                      "fill-style" : "solid",
                                      "horizontal-alignment" : "center",
                                      "stroke-style" : "solid",
                                      "vertical-alignment" : "center",
                                      "textAttributes" : {
                                        "type" : "textAttributeList",
                                        "keyframes" : [
                                          {
                                            "endTime" : 0,
                                            "time" : 0,
                                            "value" : null,
                                            "duration" : 0
                                          }
                                        ]
                                      }
                                    },
                                    "attributes" : {
                                      "autoRotateText" : true
                                    },
                                    "parameters" : {
                                      "translation0" : -139.285727364169,
                                      "translation1" : -262.179773345026
                                    },
                                    "effects" : [
                                        {
                                          "_type" : "GenericBehaviorEffect",
                                          "effectName" : "pulsating",
                                          "start" : 0,
                                          "duration" : 270                                        ,
                                          "in" : {
                                            "attributes" : {
                                              "name" : "grow",
                                              "type" : 0,
                                              "characterOrder" : 6,
                                              "offsetBetweenCharacters" : 1,
                                              "suggestedDurationPerCharacter" : 18,
                                              "overlapProportion" : "3/4",
                                              "movement" : 30,
                                              "springDamping" : 10.0,
                                              "springStiffness" : 50.0,
                                              "bounceBounciness" : 0.45
                                            }
                                          
                                          },
                                          "center" : {
                                            "attributes" : {
                                              "name" : "none",
                                              "type" : 0,
                                              "characterOrder" : 6,
                                              "offsetBetweenCharacters" : 0,
                                              "secondsPerLoop" : 1,
                                              "numberOfLoops" : -1,
                                              "delayBetweenLoops" : 0,
                                              "offsetBetweenCharacters" : 0
                                            }
                                          
                                          },
                                          "out" : {
                                            "attributes" : {
                                              "name" : "shrink",
                                              "type" : 0,
                                              "characterOrder" : 6,
                                              "offsetBetweenCharacters" : 1,
                                              "suggestedDurationPerCharacter" : "29/2",
                                              "overlapProportion" : "1/10",
                                              "movement" : 11,
                                              "springDamping" : 5.0,
                                              "springStiffness" : 50.0,
                                              "bounceBounciness" : 0.45
                                            }
                                          
                                          }
                                        }
                                    ],
                                    "start" : 42,
                                    "duration" : 270,
                                    "mediaStart" : 0,
                                    "mediaDuration" : 270,
                                    "scalar" : 1,
                                    "metadata" : {
                                      "WinSubProjectDisplayName" : "",
                                      "clipSpeedAttribute" : false,
                                      "effectApplied" : "none"
                                    },
                                    "animationTracks" : {

                                    }
                                  }
                                ],
                                  "ident" : "",
                                  "audioMuted" : false,
                                  "videoHidden" : false,
                                  "metadata" : {
                                    "IsLocked" : "False",
                                    "WinTrackHeight" : "0",
                                    "trackHeight" : "48"
                                  }
                              },
                              {
                                "trackIndex" : 8,
                                "medias" : [
                                  {
                                    "id" : 60,
                                    "_type" : "Callout",
                                    "def" : {
                                      "kind" : "remix",
                                      "shape" : "shape-rectangle",
                                      "style" : "urban",
                                      "fill-color-blue" : 0.283691912889481,
                                      "fill-color-green" : 0.210302263498306,
                                      "fill-color-opacity" : 1.0,
                                      "fill-color-red" : 0.171782463788986,
                                      "height" : 264.108352144665,
                                      "stroke-color-blue" : 1.0,
                                      "stroke-color-green" : 1.0,
                                      "stroke-color-opacity" : 1.0,
                                      "stroke-color-red" : 1.0,
                                      "stroke-width" : 0.0,
                                      "width" : 278.571428571897,
                                      "fill-style" : "solid",
                                      "horizontal-alignment" : "center",
                                      "stroke-style" : "solid",
                                      "vertical-alignment" : "center",
                                      "textAttributes" : {
                                        "type" : "textAttributeList",
                                        "keyframes" : [
                                          {
                                            "endTime" : 0,
                                            "time" : 0,
                                            "value" : null,
                                            "duration" : 0
                                          }
                                        ]
                                      }
                                    },
                                    "attributes" : {
                                      "autoRotateText" : true
                                    },
                                    "parameters" : {
                                      "translation0" : -139.285720824978,
                                      "translation1" : -5.23838750154937e-11
                                    },
                                    "effects" : [
                                        {
                                          "_type" : "GenericBehaviorEffect",
                                          "effectName" : "scale",
                                          "start" : 0,
                                          "duration" : 270                                        ,
                                          "in" : {
                                            "attributes" : {
                                              "name" : "grow",
                                              "type" : 0,
                                              "characterOrder" : 6,
                                              "offsetBetweenCharacters" : 1,
                                              "suggestedDurationPerCharacter" : 18,
                                              "overlapProportion" : "3/4",
                                              "movement" : 30,
                                              "springDamping" : 10.0,
                                              "springStiffness" : 50.0,
                                              "bounceBounciness" : 0.45
                                            }
                                          
                                          },
                                          "center" : {
                                            "attributes" : {
                                              "name" : "none",
                                              "type" : 0,
                                              "characterOrder" : 6,
                                              "offsetBetweenCharacters" : 0,
                                              "secondsPerLoop" : 1,
                                              "numberOfLoops" : -1,
                                              "delayBetweenLoops" : 0,
                                              "offsetBetweenCharacters" : 0
                                            }
                                          
                                          },
                                          "out" : {
                                            "attributes" : {
                                              "name" : "shrink",
                                              "type" : 0,
                                              "characterOrder" : 6,
                                              "offsetBetweenCharacters" : 1,
                                              "suggestedDurationPerCharacter" : "29/2",
                                              "overlapProportion" : "1/10",
                                              "movement" : 11,
                                              "springDamping" : 5.0,
                                              "springStiffness" : 50.0,
                                              "bounceBounciness" : 0.45
                                            }
                                          
                                          }
                                        }
                                    ],
                                    "start" : 44,
                                    "duration" : 270,
                                    "mediaStart" : 0,
                                    "mediaDuration" : 270,
                                    "scalar" : 1,
                                    "metadata" : {
                                      "WinSubProjectDisplayName" : "",
                                      "clipSpeedAttribute" : false,
                                      "effectApplied" : "none"
                                    },
                                    "animationTracks" : {

                                    }
                                  }
                                ],
                                  "ident" : "",
                                  "audioMuted" : false,
                                  "videoHidden" : false,
                                  "metadata" : {
                                    "IsLocked" : "False",
                                    "WinTrackHeight" : "0",
                                    "trackHeight" : "48"
                                  }
                              },
                              {
                                "trackIndex" : 9,
                                "medias" : [
                                  {
                                    "id" : 61,
                                    "_type" : "Callout",
                                    "def" : {
                                      "kind" : "remix",
                                      "shape" : "shape-rectangle",
                                      "style" : "urban",
                                      "fill-color-blue" : 0.283691912889481,
                                      "fill-color-green" : 0.210302263498306,
                                      "fill-color-opacity" : 1.0,
                                      "fill-color-red" : 0.171782463788986,
                                      "height" : 264.108352144665,
                                      "stroke-color-blue" : 1.0,
                                      "stroke-color-green" : 1.0,
                                      "stroke-color-opacity" : 1.0,
                                      "stroke-color-red" : 1.0,
                                      "stroke-width" : 0.0,
                                      "width" : 278.571428571897,
                                      "fill-style" : "solid",
                                      "horizontal-alignment" : "center",
                                      "stroke-style" : "solid",
                                      "vertical-alignment" : "center",
                                      "textAttributes" : {
                                        "type" : "textAttributeList",
                                        "keyframes" : [
                                          {
                                            "endTime" : 0,
                                            "time" : 0,
                                            "value" : null,
                                            "duration" : 0
                                          }
                                        ]
                                      }
                                    },
                                    "attributes" : {
                                      "autoRotateText" : true
                                    },
                                    "parameters" : {
                                      "translation0" : -139.285733903359,
                                      "translation1" : 262.179773344841
                                    },
                                    "effects" : [
                                        {
                                          "_type" : "GenericBehaviorEffect",
                                          "effectName" : "scale",
                                          "start" : 0,
                                          "duration" : 270                                        ,
                                          "in" : {
                                            "attributes" : {
                                              "name" : "grow",
                                              "type" : 0,
                                              "characterOrder" : 6,
                                              "offsetBetweenCharacters" : 1,
                                              "suggestedDurationPerCharacter" : 18,
                                              "overlapProportion" : "3/4",
                                              "movement" : 30,
                                              "springDamping" : 10.0,
                                              "springStiffness" : 50.0,
                                              "bounceBounciness" : 0.45
                                            }
                                          
                                          },
                                          "center" : {
                                            "attributes" : {
                                              "name" : "none",
                                              "type" : 0,
                                              "characterOrder" : 6,
                                              "offsetBetweenCharacters" : 0,
                                              "secondsPerLoop" : 1,
                                              "numberOfLoops" : -1,
                                              "delayBetweenLoops" : 0,
                                              "offsetBetweenCharacters" : 0
                                            }
                                          
                                          },
                                          "out" : {
                                            "attributes" : {
                                              "name" : "shrink",
                                              "type" : 0,
                                              "characterOrder" : 6,
                                              "offsetBetweenCharacters" : 1,
                                              "suggestedDurationPerCharacter" : "29/2",
                                              "overlapProportion" : "1/10",
                                              "movement" : 11,
                                              "springDamping" : 5.0,
                                              "springStiffness" : 50.0,
                                              "bounceBounciness" : 0.45
                                            }
                                          
                                          }
                                        }
                                    ],
                                    "start" : 46,
                                    "duration" : 270,
                                    "mediaStart" : 0,
                                    "mediaDuration" : 270,
                                    "scalar" : 1,
                                    "metadata" : {
                                      "WinSubProjectDisplayName" : "",
                                      "clipSpeedAttribute" : false,
                                      "effectApplied" : "none"
                                    },
                                    "animationTracks" : {

                                    }
                                  }
                                ],
                                  "ident" : "",
                                  "audioMuted" : false,
                                  "videoHidden" : false,
                                  "metadata" : {
                                    "IsLocked" : "False",
                                    "WinTrackHeight" : "0",
                                    "trackHeight" : "48"
                                  }
                              },
                              {
                                "trackIndex" : 10,
                                "medias" : [
                                  {
                                    "id" : 62,
                                    "_type" : "Callout",
                                    "def" : {
                                      "kind" : "remix",
                                      "shape" : "shape-rectangle",
                                      "style" : "urban",
                                      "fill-color-blue" : {
                                        "type" : "double",
                                        "defaultValue" : 0.283691912889481,
                                        "keyframes" : [
                                          {
                                            "endTime" : 46,
                                            "time" : 16,
                                            "value" : 0.283691912889481,
                                            "duration" : 30
                                          },
                                          {
                                            "endTime" : 76,
                                            "time" : 46,
                                            "value" : 0.283691912889481,
                                            "duration" : 30
                                          },
                                          {
                                            "endTime" : 106,
                                            "time" : 76,
                                            "value" : 0.283691912889481,
                                            "duration" : 30
                                          },
                                          {
                                            "endTime" : 136,
                                            "time" : 106,
                                            "value" : 0.283691912889481,
                                            "duration" : 30
                                          },
                                          {
                                            "endTime" : 166,
                                            "time" : 136,
                                            "value" : 0.283691912889481,
                                            "duration" : 30
                                          },
                                          {
                                            "endTime" : 196,
                                            "time" : 166,
                                            "value" : 0.283691912889481,
                                            "duration" : 30
                                          },
                                          {
                                            "endTime" : 226,
                                            "time" : 196,
                                            "value" : 0.283691912889481,
                                            "duration" : 30
                                          },
                                          {
                                            "endTime" : 256,
                                            "time" : 226,
                                            "value" : 0.283691912889481,
                                            "duration" : 30
                                          }
                                        ]
                                      },
                                      "fill-color-green" : {
                                        "type" : "double",
                                        "defaultValue" : 0.210302263498306,
                                        "keyframes" : [
                                          {
                                            "endTime" : 46,
                                            "time" : 16,
                                            "value" : 0.210302263498306,
                                            "duration" : 30
                                          },
                                          {
                                            "endTime" : 76,
                                            "time" : 46,
                                            "value" : 0.210302263498306,
                                            "duration" : 30
                                          },
                                          {
                                            "endTime" : 106,
                                            "time" : 76,
                                            "value" : 0.210302263498306,
                                            "duration" : 30
                                          },
                                          {
                                            "endTime" : 136,
                                            "time" : 106,
                                            "value" : 0.210302263498306,
                                            "duration" : 30
                                          },
                                          {
                                            "endTime" : 166,
                                            "time" : 136,
                                            "value" : 0.210302263498306,
                                            "duration" : 30
                                          },
                                          {
                                            "endTime" : 196,
                                            "time" : 166,
                                            "value" : 0.210302263498306,
                                            "duration" : 30
                                          },
                                          {
                                            "endTime" : 226,
                                            "time" : 196,
                                            "value" : 0.210302263498306,
                                            "duration" : 30
                                          },
                                          {
                                            "endTime" : 256,
                                            "time" : 226,
                                            "value" : 0.210302263498306,
                                            "duration" : 30
                                          }
                                        ]
                                      },
                                      "fill-color-opacity" : 1.0,
                                      "fill-color-red" : {
                                        "type" : "double",
                                        "defaultValue" : 0.171782463788986,
                                        "keyframes" : [
                                          {
                                            "endTime" : 46,
                                            "time" : 16,
                                            "value" : 0.171782463788986,
                                            "duration" : 30
                                          },
                                          {
                                            "endTime" : 76,
                                            "time" : 46,
                                            "value" : 0.171782463788986,
                                            "duration" : 30
                                          },
                                          {
                                            "endTime" : 106,
                                            "time" : 76,
                                            "value" : 0.171782463788986,
                                            "duration" : 30
                                          },
                                          {
                                            "endTime" : 136,
                                            "time" : 106,
                                            "value" : 0.171782463788986,
                                            "duration" : 30
                                          },
                                          {
                                            "endTime" : 166,
                                            "time" : 136,
                                            "value" : 0.171782463788986,
                                            "duration" : 30
                                          },
                                          {
                                            "endTime" : 196,
                                            "time" : 166,
                                            "value" : 0.171782463788986,
                                            "duration" : 30
                                          },
                                          {
                                            "endTime" : 226,
                                            "time" : 196,
                                            "value" : 0.171782463788986,
                                            "duration" : 30
                                          },
                                          {
                                            "endTime" : 256,
                                            "time" : 226,
                                            "value" : 0.171782463788986,
                                            "duration" : 30
                                          }
                                        ]
                                      },
                                      "height" : 264.108352144665,
                                      "stroke-color-blue" : 1.0,
                                      "stroke-color-green" : 1.0,
                                      "stroke-color-opacity" : 1.0,
                                      "stroke-color-red" : 1.0,
                                      "stroke-width" : 0.0,
                                      "width" : 278.571428571897,
                                      "fill-style" : "solid",
                                      "horizontal-alignment" : "center",
                                      "stroke-style" : "solid",
                                      "vertical-alignment" : "center",
                                      "textAttributes" : {
                                        "type" : "textAttributeList",
                                        "keyframes" : [
                                          {
                                            "endTime" : 0,
                                            "time" : 0,
                                            "value" : null,
                                            "duration" : 0
                                          }
                                        ]
                                      }
                                    },
                                    "attributes" : {
                                      "autoRotateText" : true
                                    },
                                    "parameters" : {
                                      "translation0" : {
                                        "type" : "double",
                                        "defaultValue" : 137.35712324015,
                                        "keyframes" : [
                                          {
                                            "endTime" : 46,
                                            "time" : 16,
                                            "value" : 137.35712324015,
                                            "duration" : 30
                                          },
                                          {
                                            "endTime" : 76,
                                            "time" : 46,
                                            "value" : 137.35712324015,
                                            "duration" : 30
                                          },
                                          {
                                            "endTime" : 106,
                                            "time" : 76,
                                            "value" : 137.35712324015,
                                            "duration" : 30
                                          },
                                          {
                                            "endTime" : 136,
                                            "time" : 106,
                                            "value" : 137.35712324015,
                                            "duration" : 30
                                          },
                                          {
                                            "endTime" : 166,
                                            "time" : 136,
                                            "value" : 137.35712324015,
                                            "duration" : 30
                                          },
                                          {
                                            "endTime" : 196,
                                            "time" : 166,
                                            "value" : 137.35712324015,
                                            "duration" : 30
                                          },
                                          {
                                            "endTime" : 226,
                                            "time" : 196,
                                            "value" : 137.35712324015,
                                            "duration" : 30
                                          },
                                          {
                                            "endTime" : 256,
                                            "time" : 226,
                                            "value" : 137.35712324015,
                                            "duration" : 30
                                          }
                                        ]
                                      },
                                      "translation1" : {
                                        "type" : "double",
                                        "defaultValue" : -262.179773345028,
                                        "keyframes" : [
                                          {
                                            "endTime" : 46,
                                            "time" : 16,
                                            "value" : -262.179773345028,
                                            "duration" : 30
                                          },
                                          {
                                            "endTime" : 76,
                                            "time" : 46,
                                            "value" : -262.179773345028,
                                            "duration" : 30
                                          },
                                          {
                                            "endTime" : 106,
                                            "time" : 76,
                                            "value" : -262.179773345028,
                                            "duration" : 30
                                          },
                                          {
                                            "endTime" : 136,
                                            "time" : 106,
                                            "value" : -262.179773345028,
                                            "duration" : 30
                                          },
                                          {
                                            "endTime" : 166,
                                            "time" : 136,
                                            "value" : -262.179773345028,
                                            "duration" : 30
                                          },
                                          {
                                            "endTime" : 196,
                                            "time" : 166,
                                            "value" : -262.179773345028,
                                            "duration" : 30
                                          },
                                          {
                                            "endTime" : 226,
                                            "time" : 196,
                                            "value" : -262.179773345028,
                                            "duration" : 30
                                          },
                                          {
                                            "endTime" : 256,
                                            "time" : 226,
                                            "value" : -262.179773345028,
                                            "duration" : 30
                                          }
                                        ]
                                      },
                                      "opacity" : {
                                        "type" : "double",
                                        "defaultValue" : 0.75,
                                        "keyframes" : [
                                          {
                                            "endTime" : 46,
                                            "time" : 16,
                                            "value" : 0.95,
                                            "duration" : 30
                                          },
                                          {
                                            "endTime" : 76,
                                            "time" : 46,
                                            "value" : 0.75,
                                            "duration" : 30
                                          },
                                          {
                                            "endTime" : 106,
                                            "time" : 76,
                                            "value" : 0.95,
                                            "duration" : 30
                                          },
                                          {
                                            "endTime" : 136,
                                            "time" : 106,
                                            "value" : 0.75,
                                            "duration" : 30
                                          },
                                          {
                                            "endTime" : 166,
                                            "time" : 136,
                                            "value" : 0.95,
                                            "duration" : 30
                                          },
                                          {
                                            "endTime" : 196,
                                            "time" : 166,
                                            "value" : 0.75,
                                            "duration" : 30
                                          },
                                          {
                                            "endTime" : 226,
                                            "time" : 196,
                                            "value" : 0.95,
                                            "duration" : 30
                                          },
                                          {
                                            "endTime" : 256,
                                            "time" : 226,
                                            "value" : 0.75,
                                            "duration" : 30
                                          }
                                        ]
                                      }
                                    },
                                    "effects" : [
                                        {
                                          "_type" : "GenericBehaviorEffect",
                                          "effectName" : "pulsating",
                                          "start" : 0,
                                          "duration" : 270                                        ,
                                          "in" : {
                                            "attributes" : {
                                              "name" : "grow",
                                              "type" : 0,
                                              "characterOrder" : 6,
                                              "offsetBetweenCharacters" : 1,
                                              "suggestedDurationPerCharacter" : 18,
                                              "overlapProportion" : "3/4",
                                              "movement" : 30,
                                              "springDamping" : 10.0,
                                              "springStiffness" : 50.0,
                                              "bounceBounciness" : 0.45
                                            }
                                          
                                          },
                                          "center" : {
                                            "attributes" : {
                                              "name" : "none",
                                              "type" : 0,
                                              "characterOrder" : 6,
                                              "offsetBetweenCharacters" : 0,
                                              "secondsPerLoop" : 1,
                                              "numberOfLoops" : -1,
                                              "delayBetweenLoops" : 0,
                                              "offsetBetweenCharacters" : 0
                                            }
                                          
                                          },
                                          "out" : {
                                            "attributes" : {
                                              "name" : "shrink",
                                              "type" : 0,
                                              "characterOrder" : 6,
                                              "offsetBetweenCharacters" : 1,
                                              "suggestedDurationPerCharacter" : "29/2",
                                              "overlapProportion" : "1/10",
                                              "movement" : 11,
                                              "springDamping" : 5.0,
                                              "springStiffness" : 50.0,
                                              "bounceBounciness" : 0.45
                                            }
                                          
                                          }
                                        }
                                    ],
                                    "start" : 48,
                                    "duration" : 270,
                                    "mediaStart" : 0,
                                    "mediaDuration" : 270,
                                    "scalar" : 1,
                                    "metadata" : {
                                      "WinSubProjectDisplayName" : "",
                                      "clipSpeedAttribute" : false,
                                      "effectApplied" : "none"
                                    },
                                    "animationTracks" : {
                                      "visual" : [
                                        {
                                          "endTime" : 46,
                                          "duration" : 30,
                                          "range" : [ 16, 30]
                                        },
                                        {
                                          "endTime" : 76,
                                          "duration" : 30,
                                          "range" : [ 46, 30]
                                        },
                                        {
                                          "endTime" : 106,
                                          "duration" : 30,
                                          "range" : [ 76, 30]
                                        },
                                        {
                                          "endTime" : 136,
                                          "duration" : 30,
                                          "range" : [ 106, 30]
                                        },
                                        {
                                          "endTime" : 166,
                                          "duration" : 30,
                                          "range" : [ 136, 30]
                                        },
                                        {
                                          "endTime" : 196,
                                          "duration" : 30,
                                          "range" : [ 166, 30]
                                        },
                                        {
                                          "endTime" : 226,
                                          "duration" : 30,
                                          "range" : [ 196, 30]
                                        },
                                        {
                                          "endTime" : 256,
                                          "duration" : 30,
                                          "range" : [ 226, 30]
                                        }
                                      ]
                                    }
                                  }
                                ],
                                  "ident" : "",
                                  "audioMuted" : false,
                                  "videoHidden" : false,
                                  "metadata" : {
                                    "IsLocked" : "False",
                                    "WinTrackHeight" : "0",
                                    "trackHeight" : "48"
                                  }
                              },
                              {
                                "trackIndex" : 11,
                                "medias" : [
                                  {
                                    "id" : 63,
                                    "_type" : "Callout",
                                    "def" : {
                                      "kind" : "remix",
                                      "shape" : "shape-rectangle",
                                      "style" : "urban",
                                      "fill-color-blue" : {
                                        "type" : "double",
                                        "defaultValue" : 0.283691912889481,
                                        "keyframes" : [
                                          {
                                            "endTime" : 43,
                                            "time" : 13,
                                            "value" : 0.283691912889481,
                                            "duration" : 30
                                          },
                                          {
                                            "endTime" : 73,
                                            "time" : 43,
                                            "value" : 0.283691912889481,
                                            "duration" : 30
                                          },
                                          {
                                            "endTime" : 103,
                                            "time" : 73,
                                            "value" : 0.283691912889481,
                                            "duration" : 30
                                          },
                                          {
                                            "endTime" : 133,
                                            "time" : 103,
                                            "value" : 0.283691912889481,
                                            "duration" : 30
                                          },
                                          {
                                            "endTime" : 163,
                                            "time" : 133,
                                            "value" : 0.283691912889481,
                                            "duration" : 30
                                          },
                                          {
                                            "endTime" : 193,
                                            "time" : 163,
                                            "value" : 0.283691912889481,
                                            "duration" : 30
                                          },
                                          {
                                            "endTime" : 223,
                                            "time" : 193,
                                            "value" : 0.283691912889481,
                                            "duration" : 30
                                          },
                                          {
                                            "endTime" : 253,
                                            "time" : 223,
                                            "value" : 0.283691912889481,
                                            "duration" : 30
                                          }
                                        ]
                                      },
                                      "fill-color-green" : {
                                        "type" : "double",
                                        "defaultValue" : 0.210302263498306,
                                        "keyframes" : [
                                          {
                                            "endTime" : 43,
                                            "time" : 13,
                                            "value" : 0.210302263498306,
                                            "duration" : 30
                                          },
                                          {
                                            "endTime" : 73,
                                            "time" : 43,
                                            "value" : 0.210302263498306,
                                            "duration" : 30
                                          },
                                          {
                                            "endTime" : 103,
                                            "time" : 73,
                                            "value" : 0.210302263498306,
                                            "duration" : 30
                                          },
                                          {
                                            "endTime" : 133,
                                            "time" : 103,
                                            "value" : 0.210302263498306,
                                            "duration" : 30
                                          },
                                          {
                                            "endTime" : 163,
                                            "time" : 133,
                                            "value" : 0.210302263498306,
                                            "duration" : 30
                                          },
                                          {
                                            "endTime" : 193,
                                            "time" : 163,
                                            "value" : 0.210302263498306,
                                            "duration" : 30
                                          },
                                          {
                                            "endTime" : 223,
                                            "time" : 193,
                                            "value" : 0.210302263498306,
                                            "duration" : 30
                                          },
                                          {
                                            "endTime" : 253,
                                            "time" : 223,
                                            "value" : 0.210302263498306,
                                            "duration" : 30
                                          }
                                        ]
                                      },
                                      "fill-color-opacity" : 1.0,
                                      "fill-color-red" : {
                                        "type" : "double",
                                        "defaultValue" : 0.171782463788986,
                                        "keyframes" : [
                                          {
                                            "endTime" : 43,
                                            "time" : 13,
                                            "value" : 0.171782463788986,
                                            "duration" : 30
                                          },
                                          {
                                            "endTime" : 73,
                                            "time" : 43,
                                            "value" : 0.171782463788986,
                                            "duration" : 30
                                          },
                                          {
                                            "endTime" : 103,
                                            "time" : 73,
                                            "value" : 0.171782463788986,
                                            "duration" : 30
                                          },
                                          {
                                            "endTime" : 133,
                                            "time" : 103,
                                            "value" : 0.171782463788986,
                                            "duration" : 30
                                          },
                                          {
                                            "endTime" : 163,
                                            "time" : 133,
                                            "value" : 0.171782463788986,
                                            "duration" : 30
                                          },
                                          {
                                            "endTime" : 193,
                                            "time" : 163,
                                            "value" : 0.171782463788986,
                                            "duration" : 30
                                          },
                                          {
                                            "endTime" : 223,
                                            "time" : 193,
                                            "value" : 0.171782463788986,
                                            "duration" : 30
                                          },
                                          {
                                            "endTime" : 253,
                                            "time" : 223,
                                            "value" : 0.171782463788986,
                                            "duration" : 30
                                          }
                                        ]
                                      },
                                      "height" : 264.108352144665,
                                      "stroke-color-blue" : 1.0,
                                      "stroke-color-green" : 1.0,
                                      "stroke-color-opacity" : 1.0,
                                      "stroke-color-red" : 1.0,
                                      "stroke-width" : 0.0,
                                      "width" : 278.571428571897,
                                      "fill-style" : "solid",
                                      "horizontal-alignment" : "center",
                                      "stroke-style" : "solid",
                                      "vertical-alignment" : "center",
                                      "textAttributes" : {
                                        "type" : "textAttributeList",
                                        "keyframes" : [
                                          {
                                            "endTime" : 0,
                                            "time" : 0,
                                            "value" : null,
                                            "duration" : 0
                                          }
                                        ]
                                      }
                                    },
                                    "attributes" : {
                                      "autoRotateText" : true
                                    },
                                    "parameters" : {
                                      "translation0" : {
                                        "type" : "double",
                                        "defaultValue" : 137.357129779341,
                                        "keyframes" : [
                                          {
                                            "endTime" : 43,
                                            "time" : 13,
                                            "value" : 137.357129779341,
                                            "duration" : 30
                                          },
                                          {
                                            "endTime" : 73,
                                            "time" : 43,
                                            "value" : 137.357129779341,
                                            "duration" : 30
                                          },
                                          {
                                            "endTime" : 103,
                                            "time" : 73,
                                            "value" : 137.357129779341,
                                            "duration" : 30
                                          },
                                          {
                                            "endTime" : 133,
                                            "time" : 103,
                                            "value" : 137.357129779341,
                                            "duration" : 30
                                          },
                                          {
                                            "endTime" : 163,
                                            "time" : 133,
                                            "value" : 137.357129779341,
                                            "duration" : 30
                                          },
                                          {
                                            "endTime" : 193,
                                            "time" : 163,
                                            "value" : 137.357129779341,
                                            "duration" : 30
                                          },
                                          {
                                            "endTime" : 223,
                                            "time" : 193,
                                            "value" : 137.357129779341,
                                            "duration" : 30
                                          },
                                          {
                                            "endTime" : 253,
                                            "time" : 223,
                                            "value" : 137.357129779341,
                                            "duration" : 30
                                          }
                                        ]
                                      },
                                      "translation1" : {
                                        "type" : "double",
                                        "defaultValue" : -5.40039124530267e-11,
                                        "keyframes" : [
                                          {
                                            "endTime" : 43,
                                            "time" : 13,
                                            "value" : -5.40039124530267e-11,
                                            "duration" : 30
                                          },
                                          {
                                            "endTime" : 73,
                                            "time" : 43,
                                            "value" : -5.40039124530267e-11,
                                            "duration" : 30
                                          },
                                          {
                                            "endTime" : 103,
                                            "time" : 73,
                                            "value" : -5.40039124530267e-11,
                                            "duration" : 30
                                          },
                                          {
                                            "endTime" : 133,
                                            "time" : 103,
                                            "value" : -5.40039124530267e-11,
                                            "duration" : 30
                                          },
                                          {
                                            "endTime" : 163,
                                            "time" : 133,
                                            "value" : -5.40039124530267e-11,
                                            "duration" : 30
                                          },
                                          {
                                            "endTime" : 193,
                                            "time" : 163,
                                            "value" : -5.40039124530267e-11,
                                            "duration" : 30
                                          },
                                          {
                                            "endTime" : 223,
                                            "time" : 193,
                                            "value" : -5.40039124530267e-11,
                                            "duration" : 30
                                          },
                                          {
                                            "endTime" : 253,
                                            "time" : 223,
                                            "value" : -5.40039124530267e-11,
                                            "duration" : 30
                                          }
                                        ]
                                      },
                                      "opacity" : {
                                        "type" : "double",
                                        "defaultValue" : 0.9,
                                        "keyframes" : [
                                          {
                                            "endTime" : 43,
                                            "time" : 13,
                                            "value" : 1.0,
                                            "duration" : 30
                                          },
                                          {
                                            "endTime" : 73,
                                            "time" : 43,
                                            "value" : 0.9,
                                            "duration" : 30
                                          },
                                          {
                                            "endTime" : 103,
                                            "time" : 73,
                                            "value" : 1.0,
                                            "duration" : 30
                                          },
                                          {
                                            "endTime" : 133,
                                            "time" : 103,
                                            "value" : 0.9,
                                            "duration" : 30
                                          },
                                          {
                                            "endTime" : 163,
                                            "time" : 133,
                                            "value" : 1.0,
                                            "duration" : 30
                                          },
                                          {
                                            "endTime" : 193,
                                            "time" : 163,
                                            "value" : 0.9,
                                            "duration" : 30
                                          },
                                          {
                                            "endTime" : 223,
                                            "time" : 193,
                                            "value" : 1.0,
                                            "duration" : 30
                                          },
                                          {
                                            "endTime" : 253,
                                            "time" : 223,
                                            "value" : 0.9,
                                            "duration" : 30
                                          }
                                        ]
                                      }
                                    },
                                    "effects" : [
                                        {
                                          "_type" : "GenericBehaviorEffect",
                                          "effectName" : "scale",
                                          "start" : 0,
                                          "duration" : 270                                        ,
                                          "in" : {
                                            "attributes" : {
                                              "name" : "grow",
                                              "type" : 0,
                                              "characterOrder" : 6,
                                              "offsetBetweenCharacters" : 1,
                                              "suggestedDurationPerCharacter" : 18,
                                              "overlapProportion" : "3/4",
                                              "movement" : 30,
                                              "springDamping" : 10.0,
                                              "springStiffness" : 50.0,
                                              "bounceBounciness" : 0.45
                                            }
                                          
                                          },
                                          "center" : {
                                            "attributes" : {
                                              "name" : "none",
                                              "type" : 0,
                                              "characterOrder" : 6,
                                              "offsetBetweenCharacters" : 0,
                                              "secondsPerLoop" : 1,
                                              "numberOfLoops" : -1,
                                              "delayBetweenLoops" : 0,
                                              "offsetBetweenCharacters" : 0
                                            }
                                          
                                          },
                                          "out" : {
                                            "attributes" : {
                                              "name" : "shrink",
                                              "type" : 0,
                                              "characterOrder" : 6,
                                              "offsetBetweenCharacters" : 1,
                                              "suggestedDurationPerCharacter" : "29/2",
                                              "overlapProportion" : "1/10",
                                              "movement" : 11,
                                              "springDamping" : 5.0,
                                              "springStiffness" : 50.0,
                                              "bounceBounciness" : 0.45
                                            }
                                          
                                          }
                                        }
                                    ],
                                    "start" : 50,
                                    "duration" : 270,
                                    "mediaStart" : 0,
                                    "mediaDuration" : 270,
                                    "scalar" : 1,
                                    "metadata" : {
                                      "WinSubProjectDisplayName" : "",
                                      "clipSpeedAttribute" : false,
                                      "effectApplied" : "none"
                                    },
                                    "animationTracks" : {
                                      "visual" : [
                                        {
                                          "endTime" : 43,
                                          "duration" : 30,
                                          "range" : [ 13, 30]
                                        },
                                        {
                                          "endTime" : 73,
                                          "duration" : 30,
                                          "range" : [ 43, 30]
                                        },
                                        {
                                          "endTime" : 103,
                                          "duration" : 30,
                                          "range" : [ 73, 30]
                                        },
                                        {
                                          "endTime" : 133,
                                          "duration" : 30,
                                          "range" : [ 103, 30]
                                        },
                                        {
                                          "endTime" : 163,
                                          "duration" : 30,
                                          "range" : [ 133, 30]
                                        },
                                        {
                                          "endTime" : 193,
                                          "duration" : 30,
                                          "range" : [ 163, 30]
                                        },
                                        {
                                          "endTime" : 223,
                                          "duration" : 30,
                                          "range" : [ 193, 30]
                                        },
                                        {
                                          "endTime" : 253,
                                          "duration" : 30,
                                          "range" : [ 223, 30]
                                        }
                                      ]
                                    }
                                  }
                                ],
                                  "ident" : "",
                                  "audioMuted" : false,
                                  "videoHidden" : false,
                                  "metadata" : {
                                    "IsLocked" : "False",
                                    "WinTrackHeight" : "0",
                                    "trackHeight" : "48"
                                  }
                              },
                              {
                                "trackIndex" : 12,
                                "medias" : [
                                  {
                                    "id" : 64,
                                    "_type" : "Callout",
                                    "def" : {
                                      "kind" : "remix",
                                      "shape" : "shape-rectangle",
                                      "style" : "urban",
                                      "fill-color-blue" : 0.283691912889481,
                                      "fill-color-green" : 0.210302263498306,
                                      "fill-color-opacity" : 1.0,
                                      "fill-color-red" : 0.171782463788986,
                                      "height" : 264.108352144665,
                                      "stroke-color-blue" : 1.0,
                                      "stroke-color-green" : 1.0,
                                      "stroke-color-opacity" : 1.0,
                                      "stroke-color-red" : 1.0,
                                      "stroke-width" : 0.0,
                                      "width" : 278.571428571897,
                                      "fill-style" : "solid",
                                      "horizontal-alignment" : "center",
                                      "stroke-style" : "solid",
                                      "vertical-alignment" : "center",
                                      "textAttributes" : {
                                        "type" : "textAttributeList",
                                        "keyframes" : [
                                          {
                                            "endTime" : 0,
                                            "time" : 0,
                                            "value" : null,
                                            "duration" : 0
                                          }
                                        ]
                                      }
                                    },
                                    "attributes" : {
                                      "autoRotateText" : true
                                    },
                                    "parameters" : {
                                      "translation0" : 137.35711670096,
                                      "translation1" : 262.179773344839
                                    },
                                    "effects" : [
                                        {
                                          "_type" : "GenericBehaviorEffect",
                                          "effectName" : "scale",
                                          "start" : 0,
                                          "duration" : 270                                        ,
                                          "in" : {
                                            "attributes" : {
                                              "name" : "grow",
                                              "type" : 0,
                                              "characterOrder" : 6,
                                              "offsetBetweenCharacters" : 1,
                                              "suggestedDurationPerCharacter" : 18,
                                              "overlapProportion" : "3/4",
                                              "movement" : 30,
                                              "springDamping" : 10.0,
                                              "springStiffness" : 50.0,
                                              "bounceBounciness" : 0.45
                                            }
                                          
                                          },
                                          "center" : {
                                            "attributes" : {
                                              "name" : "none",
                                              "type" : 0,
                                              "characterOrder" : 6,
                                              "offsetBetweenCharacters" : 0,
                                              "secondsPerLoop" : 1,
                                              "numberOfLoops" : -1,
                                              "delayBetweenLoops" : 0,
                                              "offsetBetweenCharacters" : 0
                                            }
                                          
                                          },
                                          "out" : {
                                            "attributes" : {
                                              "name" : "shrink",
                                              "type" : 0,
                                              "characterOrder" : 6,
                                              "offsetBetweenCharacters" : 1,
                                              "suggestedDurationPerCharacter" : "29/2",
                                              "overlapProportion" : "1/10",
                                              "movement" : 11,
                                              "springDamping" : 5.0,
                                              "springStiffness" : 50.0,
                                              "bounceBounciness" : 0.45
                                            }
                                          
                                          }
                                        }
                                    ],
                                    "start" : 52,
                                    "duration" : 270,
                                    "mediaStart" : 0,
                                    "mediaDuration" : 270,
                                    "scalar" : 1,
                                    "metadata" : {
                                      "WinSubProjectDisplayName" : "",
                                      "clipSpeedAttribute" : false,
                                      "effectApplied" : "none"
                                    },
                                    "animationTracks" : {

                                    }
                                  }
                                ],
                                  "ident" : "",
                                  "audioMuted" : false,
                                  "videoHidden" : false,
                                  "metadata" : {
                                    "IsLocked" : "False",
                                    "WinTrackHeight" : "0",
                                    "trackHeight" : "48"
                                  }
                              },
                              {
                                "trackIndex" : 13,
                                "medias" : [
                                  {
                                    "id" : 65,
                                    "_type" : "Callout",
                                    "def" : {
                                      "kind" : "remix",
                                      "shape" : "shape-rectangle",
                                      "style" : "urban",
                                      "fill-color-blue" : {
                                        "type" : "double",
                                        "defaultValue" : 0.283691912889481,
                                        "keyframes" : [
                                          {
                                            "endTime" : 52,
                                            "time" : 22,
                                            "value" : 0.283691912889481,
                                            "duration" : 30
                                          },
                                          {
                                            "endTime" : 82,
                                            "time" : 52,
                                            "value" : 0.283691912889481,
                                            "duration" : 30
                                          },
                                          {
                                            "endTime" : 112,
                                            "time" : 82,
                                            "value" : 0.283691912889481,
                                            "duration" : 30
                                          },
                                          {
                                            "endTime" : 142,
                                            "time" : 112,
                                            "value" : 0.283691912889481,
                                            "duration" : 30
                                          },
                                          {
                                            "endTime" : 172,
                                            "time" : 142,
                                            "value" : 0.283691912889481,
                                            "duration" : 30
                                          },
                                          {
                                            "endTime" : 202,
                                            "time" : 172,
                                            "value" : 0.283691912889481,
                                            "duration" : 30
                                          },
                                          {
                                            "endTime" : 232,
                                            "time" : 202,
                                            "value" : 0.283691912889481,
                                            "duration" : 30
                                          },
                                          {
                                            "endTime" : 262,
                                            "time" : 232,
                                            "value" : 0.283691912889481,
                                            "duration" : 30
                                          }
                                        ]
                                      },
                                      "fill-color-green" : {
                                        "type" : "double",
                                        "defaultValue" : 0.210302263498306,
                                        "keyframes" : [
                                          {
                                            "endTime" : 52,
                                            "time" : 22,
                                            "value" : 0.210302263498306,
                                            "duration" : 30
                                          },
                                          {
                                            "endTime" : 82,
                                            "time" : 52,
                                            "value" : 0.210302263498306,
                                            "duration" : 30
                                          },
                                          {
                                            "endTime" : 112,
                                            "time" : 82,
                                            "value" : 0.210302263498306,
                                            "duration" : 30
                                          },
                                          {
                                            "endTime" : 142,
                                            "time" : 112,
                                            "value" : 0.210302263498306,
                                            "duration" : 30
                                          },
                                          {
                                            "endTime" : 172,
                                            "time" : 142,
                                            "value" : 0.210302263498306,
                                            "duration" : 30
                                          },
                                          {
                                            "endTime" : 202,
                                            "time" : 172,
                                            "value" : 0.210302263498306,
                                            "duration" : 30
                                          },
                                          {
                                            "endTime" : 232,
                                            "time" : 202,
                                            "value" : 0.210302263498306,
                                            "duration" : 30
                                          },
                                          {
                                            "endTime" : 262,
                                            "time" : 232,
                                            "value" : 0.210302263498306,
                                            "duration" : 30
                                          }
                                        ]
                                      },
                                      "fill-color-opacity" : 1.0,
                                      "fill-color-red" : {
                                        "type" : "double",
                                        "defaultValue" : 0.171782463788986,
                                        "keyframes" : [
                                          {
                                            "endTime" : 52,
                                            "time" : 22,
                                            "value" : 0.171782463788986,
                                            "duration" : 30
                                          },
                                          {
                                            "endTime" : 82,
                                            "time" : 52,
                                            "value" : 0.171782463788986,
                                            "duration" : 30
                                          },
                                          {
                                            "endTime" : 112,
                                            "time" : 82,
                                            "value" : 0.171782463788986,
                                            "duration" : 30
                                          },
                                          {
                                            "endTime" : 142,
                                            "time" : 112,
                                            "value" : 0.171782463788986,
                                            "duration" : 30
                                          },
                                          {
                                            "endTime" : 172,
                                            "time" : 142,
                                            "value" : 0.171782463788986,
                                            "duration" : 30
                                          },
                                          {
                                            "endTime" : 202,
                                            "time" : 172,
                                            "value" : 0.171782463788986,
                                            "duration" : 30
                                          },
                                          {
                                            "endTime" : 232,
                                            "time" : 202,
                                            "value" : 0.171782463788986,
                                            "duration" : 30
                                          },
                                          {
                                            "endTime" : 262,
                                            "time" : 232,
                                            "value" : 0.171782463788986,
                                            "duration" : 30
                                          }
                                        ]
                                      },
                                      "height" : 264.108352144665,
                                      "stroke-color-blue" : 1.0,
                                      "stroke-color-green" : 1.0,
                                      "stroke-color-opacity" : 1.0,
                                      "stroke-color-red" : 1.0,
                                      "stroke-width" : 0.0,
                                      "width" : 278.571428571897,
                                      "fill-style" : "solid",
                                      "horizontal-alignment" : "center",
                                      "stroke-style" : "solid",
                                      "vertical-alignment" : "center",
                                      "textAttributes" : {
                                        "type" : "textAttributeList",
                                        "keyframes" : [
                                          {
                                            "endTime" : 0,
                                            "time" : 0,
                                            "value" : null,
                                            "duration" : 0
                                          }
                                        ]
                                      }
                                    },
                                    "attributes" : {
                                      "autoRotateText" : true
                                    },
                                    "parameters" : {
                                      "translation0" : {
                                        "type" : "double",
                                        "defaultValue" : 413.999973844609,
                                        "keyframes" : [
                                          {
                                            "endTime" : 52,
                                            "time" : 22,
                                            "value" : 413.999973844609,
                                            "duration" : 30
                                          },
                                          {
                                            "endTime" : 82,
                                            "time" : 52,
                                            "value" : 413.999973844609,
                                            "duration" : 30
                                          },
                                          {
                                            "endTime" : 112,
                                            "time" : 82,
                                            "value" : 413.999973844609,
                                            "duration" : 30
                                          },
                                          {
                                            "endTime" : 142,
                                            "time" : 112,
                                            "value" : 413.999973844609,
                                            "duration" : 30
                                          },
                                          {
                                            "endTime" : 172,
                                            "time" : 142,
                                            "value" : 413.999973844609,
                                            "duration" : 30
                                          },
                                          {
                                            "endTime" : 202,
                                            "time" : 172,
                                            "value" : 413.999973844609,
                                            "duration" : 30
                                          },
                                          {
                                            "endTime" : 232,
                                            "time" : 202,
                                            "value" : 413.999973844609,
                                            "duration" : 30
                                          },
                                          {
                                            "endTime" : 262,
                                            "time" : 232,
                                            "value" : 413.999973844609,
                                            "duration" : 30
                                          }
                                        ]
                                      },
                                      "translation1" : {
                                        "type" : "double",
                                        "defaultValue" : -5.50839374113821e-11,
                                        "keyframes" : [
                                          {
                                            "endTime" : 52,
                                            "time" : 22,
                                            "value" : -5.50839374113821e-11,
                                            "duration" : 30
                                          },
                                          {
                                            "endTime" : 82,
                                            "time" : 52,
                                            "value" : -5.50839374113821e-11,
                                            "duration" : 30
                                          },
                                          {
                                            "endTime" : 112,
                                            "time" : 82,
                                            "value" : -5.50839374113821e-11,
                                            "duration" : 30
                                          },
                                          {
                                            "endTime" : 142,
                                            "time" : 112,
                                            "value" : -5.50839374113821e-11,
                                            "duration" : 30
                                          },
                                          {
                                            "endTime" : 172,
                                            "time" : 142,
                                            "value" : -5.50839374113821e-11,
                                            "duration" : 30
                                          },
                                          {
                                            "endTime" : 202,
                                            "time" : 172,
                                            "value" : -5.50839374113821e-11,
                                            "duration" : 30
                                          },
                                          {
                                            "endTime" : 232,
                                            "time" : 202,
                                            "value" : -5.50839374113821e-11,
                                            "duration" : 30
                                          },
                                          {
                                            "endTime" : 262,
                                            "time" : 232,
                                            "value" : -5.50839374113821e-11,
                                            "duration" : 30
                                          }
                                        ]
                                      },
                                      "opacity" : {
                                        "type" : "double",
                                        "defaultValue" : 0.598333333333333,
                                        "keyframes" : [
                                          {
                                            "endTime" : 52,
                                            "time" : 22,
                                            "value" : 0.8,
                                            "duration" : 30
                                          },
                                          {
                                            "endTime" : 82,
                                            "time" : 52,
                                            "value" : 0.6,
                                            "duration" : 30
                                          },
                                          {
                                            "endTime" : 112,
                                            "time" : 82,
                                            "value" : 0.8,
                                            "duration" : 30
                                          },
                                          {
                                            "endTime" : 142,
                                            "time" : 112,
                                            "value" : 0.6,
                                            "duration" : 30
                                          },
                                          {
                                            "endTime" : 172,
                                            "time" : 142,
                                            "value" : 0.8,
                                            "duration" : 30
                                          },
                                          {
                                            "endTime" : 202,
                                            "time" : 172,
                                            "value" : 0.6,
                                            "duration" : 30
                                          },
                                          {
                                            "endTime" : 232,
                                            "time" : 202,
                                            "value" : 0.8,
                                            "duration" : 30
                                          },
                                          {
                                            "endTime" : 262,
                                            "time" : 232,
                                            "value" : 0.6,
                                            "duration" : 30
                                          }
                                        ]
                                      }
                                    },
                                    "effects" : [
                                        {
                                          "_type" : "GenericBehaviorEffect",
                                          "effectName" : "scale",
                                          "start" : 0,
                                          "duration" : 270                                        ,
                                          "in" : {
                                            "attributes" : {
                                              "name" : "grow",
                                              "type" : 0,
                                              "characterOrder" : 6,
                                              "offsetBetweenCharacters" : 1,
                                              "suggestedDurationPerCharacter" : 18,
                                              "overlapProportion" : "3/4",
                                              "movement" : 30,
                                              "springDamping" : 10.0,
                                              "springStiffness" : 50.0,
                                              "bounceBounciness" : 0.45
                                            }
                                          
                                          },
                                          "center" : {
                                            "attributes" : {
                                              "name" : "none",
                                              "type" : 0,
                                              "characterOrder" : 6,
                                              "offsetBetweenCharacters" : 0,
                                              "secondsPerLoop" : 1,
                                              "numberOfLoops" : -1,
                                              "delayBetweenLoops" : 0,
                                              "offsetBetweenCharacters" : 0
                                            }
                                          
                                          },
                                          "out" : {
                                            "attributes" : {
                                              "name" : "shrink",
                                              "type" : 0,
                                              "characterOrder" : 6,
                                              "offsetBetweenCharacters" : 1,
                                              "suggestedDurationPerCharacter" : "29/2",
                                              "overlapProportion" : "1/10",
                                              "movement" : 11,
                                              "springDamping" : 5.0,
                                              "springStiffness" : 50.0,
                                              "bounceBounciness" : 0.45
                                            }
                                          
                                          }
                                        }
                                    ],
                                    "start" : 56,
                                    "duration" : 270,
                                    "mediaStart" : 0,
                                    "mediaDuration" : 270,
                                    "scalar" : 1,
                                    "metadata" : {
                                      "WinSubProjectDisplayName" : "",
                                      "clipSpeedAttribute" : false,
                                      "effectApplied" : "none"
                                    },
                                    "animationTracks" : {
                                      "visual" : [
                                        {
                                          "endTime" : 52,
                                          "duration" : 30,
                                          "range" : [ 22, 30]
                                        },
                                        {
                                          "endTime" : 82,
                                          "duration" : 30,
                                          "range" : [ 52, 30]
                                        },
                                        {
                                          "endTime" : 112,
                                          "duration" : 30,
                                          "range" : [ 82, 30]
                                        },
                                        {
                                          "endTime" : 142,
                                          "duration" : 30,
                                          "range" : [ 112, 30]
                                        },
                                        {
                                          "endTime" : 172,
                                          "duration" : 30,
                                          "range" : [ 142, 30]
                                        },
                                        {
                                          "endTime" : 202,
                                          "duration" : 30,
                                          "range" : [ 172, 30]
                                        },
                                        {
                                          "endTime" : 232,
                                          "duration" : 30,
                                          "range" : [ 202, 30]
                                        },
                                        {
                                          "endTime" : 262,
                                          "duration" : 30,
                                          "range" : [ 232, 30]
                                        }
                                      ]
                                    }
                                  }
                                ],
                                  "ident" : "",
                                  "audioMuted" : false,
                                  "videoHidden" : false,
                                  "metadata" : {
                                    "IsLocked" : "False",
                                    "WinTrackHeight" : "0",
                                    "trackHeight" : "48"
                                  }
                              },
                              {
                                "trackIndex" : 14,
                                "medias" : [
                                  {
                                    "id" : 66,
                                    "_type" : "Callout",
                                    "def" : {
                                      "kind" : "remix",
                                      "shape" : "shape-rectangle",
                                      "style" : "urban",
                                      "fill-color-blue" : {
                                        "type" : "double",
                                        "defaultValue" : 0.283691912889481,
                                        "keyframes" : [
                                          {
                                            "endTime" : 46,
                                            "time" : 16,
                                            "value" : 0.283691912889481,
                                            "duration" : 30
                                          },
                                          {
                                            "endTime" : 76,
                                            "time" : 46,
                                            "value" : 0.283691912889481,
                                            "duration" : 30
                                          },
                                          {
                                            "endTime" : 106,
                                            "time" : 76,
                                            "value" : 0.283691912889481,
                                            "duration" : 30
                                          },
                                          {
                                            "endTime" : 136,
                                            "time" : 106,
                                            "value" : 0.283691912889481,
                                            "duration" : 30
                                          },
                                          {
                                            "endTime" : 166,
                                            "time" : 136,
                                            "value" : 0.283691912889481,
                                            "duration" : 30
                                          },
                                          {
                                            "endTime" : 196,
                                            "time" : 166,
                                            "value" : 0.283691912889481,
                                            "duration" : 30
                                          },
                                          {
                                            "endTime" : 226,
                                            "time" : 196,
                                            "value" : 0.283691912889481,
                                            "duration" : 30
                                          },
                                          {
                                            "endTime" : 256,
                                            "time" : 226,
                                            "value" : 0.283691912889481,
                                            "duration" : 30
                                          }
                                        ]
                                      },
                                      "fill-color-green" : {
                                        "type" : "double",
                                        "defaultValue" : 0.210302263498306,
                                        "keyframes" : [
                                          {
                                            "endTime" : 46,
                                            "time" : 16,
                                            "value" : 0.210302263498306,
                                            "duration" : 30
                                          },
                                          {
                                            "endTime" : 76,
                                            "time" : 46,
                                            "value" : 0.210302263498306,
                                            "duration" : 30
                                          },
                                          {
                                            "endTime" : 106,
                                            "time" : 76,
                                            "value" : 0.210302263498306,
                                            "duration" : 30
                                          },
                                          {
                                            "endTime" : 136,
                                            "time" : 106,
                                            "value" : 0.210302263498306,
                                            "duration" : 30
                                          },
                                          {
                                            "endTime" : 166,
                                            "time" : 136,
                                            "value" : 0.210302263498306,
                                            "duration" : 30
                                          },
                                          {
                                            "endTime" : 196,
                                            "time" : 166,
                                            "value" : 0.210302263498306,
                                            "duration" : 30
                                          },
                                          {
                                            "endTime" : 226,
                                            "time" : 196,
                                            "value" : 0.210302263498306,
                                            "duration" : 30
                                          },
                                          {
                                            "endTime" : 256,
                                            "time" : 226,
                                            "value" : 0.210302263498306,
                                            "duration" : 30
                                          }
                                        ]
                                      },
                                      "fill-color-opacity" : 1.0,
                                      "fill-color-red" : {
                                        "type" : "double",
                                        "defaultValue" : 0.171782463788986,
                                        "keyframes" : [
                                          {
                                            "endTime" : 46,
                                            "time" : 16,
                                            "value" : 0.171782463788986,
                                            "duration" : 30
                                          },
                                          {
                                            "endTime" : 76,
                                            "time" : 46,
                                            "value" : 0.171782463788986,
                                            "duration" : 30
                                          },
                                          {
                                            "endTime" : 106,
                                            "time" : 76,
                                            "value" : 0.171782463788986,
                                            "duration" : 30
                                          },
                                          {
                                            "endTime" : 136,
                                            "time" : 106,
                                            "value" : 0.171782463788986,
                                            "duration" : 30
                                          },
                                          {
                                            "endTime" : 166,
                                            "time" : 136,
                                            "value" : 0.171782463788986,
                                            "duration" : 30
                                          },
                                          {
                                            "endTime" : 196,
                                            "time" : 166,
                                            "value" : 0.171782463788986,
                                            "duration" : 30
                                          },
                                          {
                                            "endTime" : 226,
                                            "time" : 196,
                                            "value" : 0.171782463788986,
                                            "duration" : 30
                                          },
                                          {
                                            "endTime" : 256,
                                            "time" : 226,
                                            "value" : 0.171782463788986,
                                            "duration" : 30
                                          }
                                        ]
                                      },
                                      "height" : 264.108352144665,
                                      "stroke-color-blue" : 1.0,
                                      "stroke-color-green" : 1.0,
                                      "stroke-color-opacity" : 1.0,
                                      "stroke-color-red" : 1.0,
                                      "stroke-width" : 0.0,
                                      "width" : 278.571428571897,
                                      "fill-style" : "solid",
                                      "horizontal-alignment" : "center",
                                      "stroke-style" : "solid",
                                      "vertical-alignment" : "center",
                                      "textAttributes" : {
                                        "type" : "textAttributeList",
                                        "keyframes" : [
                                          {
                                            "endTime" : 0,
                                            "time" : 0,
                                            "value" : null,
                                            "duration" : 0
                                          }
                                        ]
                                      }
                                    },
                                    "attributes" : {
                                      "autoRotateText" : true
                                    },
                                    "parameters" : {
                                      "translation0" : {
                                        "type" : "double",
                                        "defaultValue" : 413.999967305327,
                                        "keyframes" : [
                                          {
                                            "endTime" : 46,
                                            "time" : 16,
                                            "value" : 413.999967305327,
                                            "duration" : 30
                                          },
                                          {
                                            "endTime" : 76,
                                            "time" : 46,
                                            "value" : 413.999967305327,
                                            "duration" : 30
                                          },
                                          {
                                            "endTime" : 106,
                                            "time" : 76,
                                            "value" : 413.999967305327,
                                            "duration" : 30
                                          },
                                          {
                                            "endTime" : 136,
                                            "time" : 106,
                                            "value" : 413.999967305327,
                                            "duration" : 30
                                          },
                                          {
                                            "endTime" : 166,
                                            "time" : 136,
                                            "value" : 413.999967305327,
                                            "duration" : 30
                                          },
                                          {
                                            "endTime" : 196,
                                            "time" : 166,
                                            "value" : 413.999967305327,
                                            "duration" : 30
                                          },
                                          {
                                            "endTime" : 226,
                                            "time" : 196,
                                            "value" : 413.999967305327,
                                            "duration" : 30
                                          },
                                          {
                                            "endTime" : 256,
                                            "time" : 226,
                                            "value" : 413.999967305327,
                                            "duration" : 30
                                          }
                                        ]
                                      },
                                      "translation1" : {
                                        "type" : "double",
                                        "defaultValue" : 262.179773344838,
                                        "keyframes" : [
                                          {
                                            "endTime" : 46,
                                            "time" : 16,
                                            "value" : 262.179773344838,
                                            "duration" : 30
                                          },
                                          {
                                            "endTime" : 76,
                                            "time" : 46,
                                            "value" : 262.179773344838,
                                            "duration" : 30
                                          },
                                          {
                                            "endTime" : 106,
                                            "time" : 76,
                                            "value" : 262.179773344838,
                                            "duration" : 30
                                          },
                                          {
                                            "endTime" : 136,
                                            "time" : 106,
                                            "value" : 262.179773344838,
                                            "duration" : 30
                                          },
                                          {
                                            "endTime" : 166,
                                            "time" : 136,
                                            "value" : 262.179773344838,
                                            "duration" : 30
                                          },
                                          {
                                            "endTime" : 196,
                                            "time" : 166,
                                            "value" : 262.179773344838,
                                            "duration" : 30
                                          },
                                          {
                                            "endTime" : 226,
                                            "time" : 196,
                                            "value" : 262.179773344838,
                                            "duration" : 30
                                          },
                                          {
                                            "endTime" : 256,
                                            "time" : 226,
                                            "value" : 262.179773344838,
                                            "duration" : 30
                                          }
                                        ]
                                      },
                                      "opacity" : {
                                        "type" : "double",
                                        "defaultValue" : 0.9,
                                        "keyframes" : [
                                          {
                                            "endTime" : 46,
                                            "time" : 16,
                                            "value" : 1.0,
                                            "duration" : 30
                                          },
                                          {
                                            "endTime" : 76,
                                            "time" : 46,
                                            "value" : 0.9,
                                            "duration" : 30
                                          },
                                          {
                                            "endTime" : 106,
                                            "time" : 76,
                                            "value" : 1.0,
                                            "duration" : 30
                                          },
                                          {
                                            "endTime" : 136,
                                            "time" : 106,
                                            "value" : 0.9,
                                            "duration" : 30
                                          },
                                          {
                                            "endTime" : 166,
                                            "time" : 136,
                                            "value" : 1.0,
                                            "duration" : 30
                                          },
                                          {
                                            "endTime" : 196,
                                            "time" : 166,
                                            "value" : 0.9,
                                            "duration" : 30
                                          },
                                          {
                                            "endTime" : 226,
                                            "time" : 196,
                                            "value" : 1.0,
                                            "duration" : 30
                                          },
                                          {
                                            "endTime" : 256,
                                            "time" : 226,
                                            "value" : 0.9,
                                            "duration" : 30
                                          }
                                        ]
                                      }
                                    },
                                    "effects" : [
                                        {
                                          "_type" : "GenericBehaviorEffect",
                                          "effectName" : "scale",
                                          "start" : 0,
                                          "duration" : 270                                        ,
                                          "in" : {
                                            "attributes" : {
                                              "name" : "grow",
                                              "type" : 0,
                                              "characterOrder" : 6,
                                              "offsetBetweenCharacters" : 1,
                                              "suggestedDurationPerCharacter" : 18,
                                              "overlapProportion" : "3/4",
                                              "movement" : 30,
                                              "springDamping" : 10.0,
                                              "springStiffness" : 50.0,
                                              "bounceBounciness" : 0.45
                                            }
                                          
                                          },
                                          "center" : {
                                            "attributes" : {
                                              "name" : "none",
                                              "type" : 0,
                                              "characterOrder" : 6,
                                              "offsetBetweenCharacters" : 0,
                                              "secondsPerLoop" : 1,
                                              "numberOfLoops" : -1,
                                              "delayBetweenLoops" : 0,
                                              "offsetBetweenCharacters" : 0
                                            }
                                          
                                          },
                                          "out" : {
                                            "attributes" : {
                                              "name" : "shrink",
                                              "type" : 0,
                                              "characterOrder" : 6,
                                              "offsetBetweenCharacters" : 1,
                                              "suggestedDurationPerCharacter" : "29/2",
                                              "overlapProportion" : "1/10",
                                              "movement" : 11,
                                              "springDamping" : 5.0,
                                              "springStiffness" : 50.0,
                                              "bounceBounciness" : 0.45
                                            }
                                          
                                          }
                                        }
                                    ],
                                    "start" : 58,
                                    "duration" : 270,
                                    "mediaStart" : 0,
                                    "mediaDuration" : 270,
                                    "scalar" : 1,
                                    "metadata" : {
                                      "WinSubProjectDisplayName" : "",
                                      "clipSpeedAttribute" : false,
                                      "effectApplied" : "none"
                                    },
                                    "animationTracks" : {
                                      "visual" : [
                                        {
                                          "endTime" : 46,
                                          "duration" : 30,
                                          "range" : [ 16, 30]
                                        },
                                        {
                                          "endTime" : 76,
                                          "duration" : 30,
                                          "range" : [ 46, 30]
                                        },
                                        {
                                          "endTime" : 106,
                                          "duration" : 30,
                                          "range" : [ 76, 30]
                                        },
                                        {
                                          "endTime" : 136,
                                          "duration" : 30,
                                          "range" : [ 106, 30]
                                        },
                                        {
                                          "endTime" : 166,
                                          "duration" : 30,
                                          "range" : [ 136, 30]
                                        },
                                        {
                                          "endTime" : 196,
                                          "duration" : 30,
                                          "range" : [ 166, 30]
                                        },
                                        {
                                          "endTime" : 226,
                                          "duration" : 30,
                                          "range" : [ 196, 30]
                                        },
                                        {
                                          "endTime" : 256,
                                          "duration" : 30,
                                          "range" : [ 226, 30]
                                        }
                                      ]
                                    }
                                  }
                                ],
                                  "ident" : "",
                                  "audioMuted" : false,
                                  "videoHidden" : false,
                                  "metadata" : {
                                    "IsLocked" : "False",
                                    "WinTrackHeight" : "0",
                                    "trackHeight" : "48"
                                  }
                              },
                              {
                                "trackIndex" : 15,
                                "medias" : [
                                  {
                                    "id" : 67,
                                    "_type" : "Callout",
                                    "def" : {
                                      "kind" : "remix",
                                      "shape" : "shape-rectangle",
                                      "style" : "urban",
                                      "fill-color-blue" : {
                                        "type" : "double",
                                        "defaultValue" : 0.283691912889481,
                                        "keyframes" : [
                                          {
                                            "endTime" : 42,
                                            "time" : 12,
                                            "value" : 0.283691912889481,
                                            "duration" : 30
                                          },
                                          {
                                            "endTime" : 72,
                                            "time" : 42,
                                            "value" : 0.283691912889481,
                                            "duration" : 30
                                          },
                                          {
                                            "endTime" : 102,
                                            "time" : 72,
                                            "value" : 0.283691912889481,
                                            "duration" : 30
                                          },
                                          {
                                            "endTime" : 132,
                                            "time" : 102,
                                            "value" : 0.283691912889481,
                                            "duration" : 30
                                          },
                                          {
                                            "endTime" : 162,
                                            "time" : 132,
                                            "value" : 0.283691912889481,
                                            "duration" : 30
                                          },
                                          {
                                            "endTime" : 192,
                                            "time" : 162,
                                            "value" : 0.283691912889481,
                                            "duration" : 30
                                          },
                                          {
                                            "endTime" : 222,
                                            "time" : 192,
                                            "value" : 0.283691912889481,
                                            "duration" : 30
                                          },
                                          {
                                            "endTime" : 252,
                                            "time" : 222,
                                            "value" : 0.283691912889481,
                                            "duration" : 30
                                          }
                                        ]
                                      },
                                      "fill-color-green" : {
                                        "type" : "double",
                                        "defaultValue" : 0.210302263498306,
                                        "keyframes" : [
                                          {
                                            "endTime" : 42,
                                            "time" : 12,
                                            "value" : 0.210302263498306,
                                            "duration" : 30
                                          },
                                          {
                                            "endTime" : 72,
                                            "time" : 42,
                                            "value" : 0.210302263498306,
                                            "duration" : 30
                                          },
                                          {
                                            "endTime" : 102,
                                            "time" : 72,
                                            "value" : 0.210302263498306,
                                            "duration" : 30
                                          },
                                          {
                                            "endTime" : 132,
                                            "time" : 102,
                                            "value" : 0.210302263498306,
                                            "duration" : 30
                                          },
                                          {
                                            "endTime" : 162,
                                            "time" : 132,
                                            "value" : 0.210302263498306,
                                            "duration" : 30
                                          },
                                          {
                                            "endTime" : 192,
                                            "time" : 162,
                                            "value" : 0.210302263498306,
                                            "duration" : 30
                                          },
                                          {
                                            "endTime" : 222,
                                            "time" : 192,
                                            "value" : 0.210302263498306,
                                            "duration" : 30
                                          },
                                          {
                                            "endTime" : 252,
                                            "time" : 222,
                                            "value" : 0.210302263498306,
                                            "duration" : 30
                                          }
                                        ]
                                      },
                                      "fill-color-opacity" : 1.0,
                                      "fill-color-red" : {
                                        "type" : "double",
                                        "defaultValue" : 0.171782463788986,
                                        "keyframes" : [
                                          {
                                            "endTime" : 42,
                                            "time" : 12,
                                            "value" : 0.171782463788986,
                                            "duration" : 30
                                          },
                                          {
                                            "endTime" : 72,
                                            "time" : 42,
                                            "value" : 0.171782463788986,
                                            "duration" : 30
                                          },
                                          {
                                            "endTime" : 102,
                                            "time" : 72,
                                            "value" : 0.171782463788986,
                                            "duration" : 30
                                          },
                                          {
                                            "endTime" : 132,
                                            "time" : 102,
                                            "value" : 0.171782463788986,
                                            "duration" : 30
                                          },
                                          {
                                            "endTime" : 162,
                                            "time" : 132,
                                            "value" : 0.171782463788986,
                                            "duration" : 30
                                          },
                                          {
                                            "endTime" : 192,
                                            "time" : 162,
                                            "value" : 0.171782463788986,
                                            "duration" : 30
                                          },
                                          {
                                            "endTime" : 222,
                                            "time" : 192,
                                            "value" : 0.171782463788986,
                                            "duration" : 30
                                          },
                                          {
                                            "endTime" : 252,
                                            "time" : 222,
                                            "value" : 0.171782463788986,
                                            "duration" : 30
                                          }
                                        ]
                                      },
                                      "height" : 264.108352144665,
                                      "stroke-color-blue" : 1.0,
                                      "stroke-color-green" : 1.0,
                                      "stroke-color-opacity" : 1.0,
                                      "stroke-color-red" : 1.0,
                                      "stroke-width" : 0.0,
                                      "width" : 278.571428571897,
                                      "fill-style" : "solid",
                                      "horizontal-alignment" : "center",
                                      "stroke-style" : "solid",
                                      "vertical-alignment" : "center",
                                      "textAttributes" : {
                                        "type" : "textAttributeList",
                                        "keyframes" : [
                                          {
                                            "endTime" : 0,
                                            "time" : 0,
                                            "value" : null,
                                            "duration" : 0
                                          }
                                        ]
                                      }
                                    },
                                    "attributes" : {
                                      "autoRotateText" : true
                                    },
                                    "parameters" : {
                                      "translation0" : {
                                        "type" : "double",
                                        "defaultValue" : 692.571402416441,
                                        "keyframes" : [
                                          {
                                            "endTime" : 42,
                                            "time" : 12,
                                            "value" : 692.571402416441,
                                            "duration" : 30
                                          },
                                          {
                                            "endTime" : 72,
                                            "time" : 42,
                                            "value" : 692.571402416441,
                                            "duration" : 30
                                          },
                                          {
                                            "endTime" : 102,
                                            "time" : 72,
                                            "value" : 691.6,
                                            "duration" : 30
                                          },
                                          {
                                            "endTime" : 132,
                                            "time" : 102,
                                            "value" : 691.6,
                                            "duration" : 30
                                          },
                                          {
                                            "endTime" : 162,
                                            "time" : 132,
                                            "value" : 691.6,
                                            "duration" : 30
                                          },
                                          {
                                            "endTime" : 192,
                                            "time" : 162,
                                            "value" : 691.6,
                                            "duration" : 30
                                          },
                                          {
                                            "endTime" : 222,
                                            "time" : 192,
                                            "value" : 692.571402416441,
                                            "duration" : 30
                                          },
                                          {
                                            "endTime" : 252,
                                            "time" : 222,
                                            "value" : 692.571402416441,
                                            "duration" : 30
                                          }
                                        ]
                                      },
                                      "translation1" : {
                                        "type" : "double",
                                        "defaultValue" : 262.179773344838,
                                        "keyframes" : [
                                          {
                                            "endTime" : 42,
                                            "time" : 12,
                                            "value" : 262.179773344838,
                                            "duration" : 30
                                          },
                                          {
                                            "endTime" : 72,
                                            "time" : 42,
                                            "value" : 262.179773344838,
                                            "duration" : 30
                                          },
                                          {
                                            "endTime" : 102,
                                            "time" : 72,
                                            "value" : 262.179773344838,
                                            "duration" : 30
                                          },
                                          {
                                            "endTime" : 132,
                                            "time" : 102,
                                            "value" : 262.179773344838,
                                            "duration" : 30
                                          },
                                          {
                                            "endTime" : 162,
                                            "time" : 132,
                                            "value" : 262.2,
                                            "duration" : 30
                                          },
                                          {
                                            "endTime" : 192,
                                            "time" : 162,
                                            "value" : 262.2,
                                            "duration" : 30
                                          },
                                          {
                                            "endTime" : 222,
                                            "time" : 192,
                                            "value" : 262.179773344838,
                                            "duration" : 30
                                          },
                                          {
                                            "endTime" : 252,
                                            "time" : 222,
                                            "value" : 262.179773344838,
                                            "duration" : 30
                                          }
                                        ]
                                      },
                                      "opacity" : {
                                        "type" : "double",
                                        "defaultValue" : 0.75,
                                        "keyframes" : [
                                          {
                                            "endTime" : 42,
                                            "time" : 12,
                                            "value" : 0.95,
                                            "duration" : 30
                                          },
                                          {
                                            "endTime" : 72,
                                            "time" : 42,
                                            "value" : 0.75,
                                            "duration" : 30
                                          },
                                          {
                                            "endTime" : 102,
                                            "time" : 72,
                                            "value" : 0.95,
                                            "duration" : 30
                                          },
                                          {
                                            "endTime" : 132,
                                            "time" : 102,
                                            "value" : 0.75,
                                            "duration" : 30
                                          },
                                          {
                                            "endTime" : 162,
                                            "time" : 132,
                                            "value" : 0.95,
                                            "duration" : 30
                                          },
                                          {
                                            "endTime" : 192,
                                            "time" : 162,
                                            "value" : 0.75,
                                            "duration" : 30
                                          },
                                          {
                                            "endTime" : 222,
                                            "time" : 192,
                                            "value" : 0.95,
                                            "duration" : 30
                                          },
                                          {
                                            "endTime" : 252,
                                            "time" : 222,
                                            "value" : 0.75,
                                            "duration" : 30
                                          }
                                        ]
                                      }
                                    },
                                    "effects" : [
                                        {
                                          "_type" : "GenericBehaviorEffect",
                                          "effectName" : "scale",
                                          "start" : 0,
                                          "duration" : 270                                        ,
                                          "in" : {
                                            "attributes" : {
                                              "name" : "grow",
                                              "type" : 0,
                                              "characterOrder" : 6,
                                              "offsetBetweenCharacters" : 1,
                                              "suggestedDurationPerCharacter" : 18,
                                              "overlapProportion" : "3/4",
                                              "movement" : 30,
                                              "springDamping" : 10.0,
                                              "springStiffness" : 50.0,
                                              "bounceBounciness" : 0.45
                                            }
                                          
                                          },
                                          "center" : {
                                            "attributes" : {
                                              "name" : "none",
                                              "type" : 0,
                                              "characterOrder" : 6,
                                              "offsetBetweenCharacters" : 0,
                                              "secondsPerLoop" : 1,
                                              "numberOfLoops" : -1,
                                              "delayBetweenLoops" : 0,
                                              "offsetBetweenCharacters" : 0
                                            }
                                          
                                          },
                                          "out" : {
                                            "attributes" : {
                                              "name" : "shrink",
                                              "type" : 0,
                                              "characterOrder" : 6,
                                              "offsetBetweenCharacters" : 1,
                                              "suggestedDurationPerCharacter" : "29/2",
                                              "overlapProportion" : "1/10",
                                              "movement" : 11,
                                              "springDamping" : 5.0,
                                              "springStiffness" : 50.0,
                                              "bounceBounciness" : 0.45
                                            }
                                          
                                          }
                                        }
                                    ],
                                    "start" : 64,
                                    "duration" : 270,
                                    "mediaStart" : 0,
                                    "mediaDuration" : 270,
                                    "scalar" : 1,
                                    "metadata" : {
                                      "WinSubProjectDisplayName" : "",
                                      "clipSpeedAttribute" : false,
                                      "effectApplied" : "none"
                                    },
                                    "animationTracks" : {
                                      "visual" : [
                                        {
                                          "endTime" : 42,
                                          "duration" : 30,
                                          "range" : [ 12, 30]
                                        },
                                        {
                                          "endTime" : 72,
                                          "duration" : 30,
                                          "range" : [ 42, 30]
                                        },
                                        {
                                          "endTime" : 102,
                                          "duration" : 30,
                                          "range" : [ 72, 30]
                                        },
                                        {
                                          "endTime" : 132,
                                          "duration" : 30,
                                          "range" : [ 102, 30]
                                        },
                                        {
                                          "endTime" : 162,
                                          "duration" : 30,
                                          "range" : [ 132, 30]
                                        },
                                        {
                                          "endTime" : 192,
                                          "duration" : 30,
                                          "range" : [ 162, 30]
                                        },
                                        {
                                          "endTime" : 222,
                                          "duration" : 30,
                                          "range" : [ 192, 30]
                                        },
                                        {
                                          "endTime" : 252,
                                          "duration" : 30,
                                          "range" : [ 222, 30]
                                        }
                                      ]
                                    }
                                  }
                                ],
                                  "ident" : "",
                                  "audioMuted" : false,
                                  "videoHidden" : false,
                                  "metadata" : {
                                    "IsLocked" : "False",
                                    "WinTrackHeight" : "0",
                                    "trackHeight" : "48"
                                  }
                              }
                            ],
                            "attributes" : {
                              "ident" : "Shapes",
                              "gain" : 1.0,
                              "mixToMono" : false
                            },
                            "effects" : [

                            ],
                            "start" : 0,
                            "duration" : 442,
                            "mediaStart" : 0.0,
                            "mediaDuration" : 442.0,
                            "scalar" : 1,
                            "metadata" : {
                              "IsGroupExpanded" : "False",
                              "WinSubProjectDisplayName" : "Shapes",
                              "clipSpeedAttribute" : false,
                              "effectApplied" : "none",
                              "isOpen" : false
                            },
                            "animationTracks" : {

                            }
                          }
                        ],
                          "ident" : "",
                          "audioMuted" : false,
                          "videoHidden" : false,
                          "metadata" : {
                            "IsLocked" : "False",
                            "WinTrackHeight" : "0",
                            "trackHeight" : "48"
                          }
                      },
                      {
                        "trackIndex" : 1,
                        "medias" : [
                          {
                            "id" : 68,
                            "_type" : "Callout",
                            "def" : {
                              "kind" : "remix",
                              "shape" : "text",
                              "style" : "basic",
                              "height" : 82.196428571417,
                              "line-spacing" : 0.0,
                              "width" : 710.354818442058,
                              "word-wrap" : 1.0,
                              "horizontal-alignment" : "left",
                              "text" : "Master Data",
                              "vertical-alignment" : "center",
                              "font" : {
                                "color-blue" : 1.0,
                                "color-green" : 1.0,
                                "color-red" : 1.0,
                                "size" : 96.0,
                                "tracking" : 0.0,
                                "name" : "Montserrat",
                                "weight" : "Regular"
                              },
                              "textAttributes" : {
                                "type" : "textAttributeList",
                                "keyframes" : [
                                  {
                                    "endTime" : 0,
                                    "time" : 0,
                                    "value" : [{"name":"fontItalic","rangeEnd":11,"rangeStart":0,"value":0,"valueType":"int"},{"name":"fontWeight","rangeEnd":11,"rangeStart":0,"value":400,"valueType":"int"},{"name":"fontSize","rangeEnd":11,"rangeStart":0,"value":50,"valueType":"double"},{"name":"underline","rangeEnd":11,"rangeStart":0,"value":0,"valueType":"int"},{"name":"fontName","rangeEnd":11,"rangeStart":0,"value":"Montserrat","valueType":"string"},{"name":"strikethrough","rangeEnd":11,"rangeStart":0,"value":0,"valueType":"int"},{"name":"fgColor","rangeEnd":11,"rangeStart":0,"value":"(255,255,255,255)","valueType":"color"}],
                                    "duration" : 0
                                  }
                                ]
                              }
                            },
                            "attributes" : {
                              "autoRotateText" : true
                            },
                            "parameters" : {
                              "translation0" : -410.036887391787,
                              "translation1" : -298.679781806064
                            },
                            "effects" : [
                                {
                                  "effectName" : "DropShadow",
                                  "category" : "categoryVisualEffects",
                                  "parameters" : {
                                    "angle" : {
                                      "type" : "double",
                                      "defaultValue" : 5.49778714378214,
                                      "valueBounds" : {
                                        "minValue" : 0.0,
                                        "maxValue" : 0.0,
                                        "defaultValue" : 5.49778714378214
                                      },
                                      "uiHints" : {
                                        "userInterfaceType" : 0,
                                        "unitType" : 0
                                      }
                                    },
                                    "blur" : {
                                      "type" : "double",
                                      "defaultValue" : 10.0,
                                      "valueBounds" : {
                                        "minValue" : 0.0,
                                        "maxValue" : 50.0,
                                        "defaultValue" : 10.0
                                      },
                                      "uiHints" : {
                                        "userInterfaceType" : 0,
                                        "unitType" : 0
                                      }
                                    },
                                    "color-alpha" : {
                                      "type" : "double",
                                      "defaultValue" : 1.0,
                                      "valueBounds" : {
                                        "minValue" : 0.0,
                                        "maxValue" : 1.0,
                                        "defaultValue" : 1.0
                                      },
                                      "uiHints" : {
                                        "userInterfaceType" : 0,
                                        "unitType" : 0
                                      }
                                    },
                                    "color-blue" : {
                                      "type" : "double",
                                      "defaultValue" : 0.1216,
                                      "valueBounds" : {
                                        "minValue" : 0.0,
                                        "maxValue" : 1.0,
                                        "defaultValue" : 0.1216
                                      },
                                      "uiHints" : {
                                        "userInterfaceType" : 0,
                                        "unitType" : 0
                                      }
                                    },
                                    "color-green" : {
                                      "type" : "double",
                                      "defaultValue" : 0.1216,
                                      "valueBounds" : {
                                        "minValue" : 0.0,
                                        "maxValue" : 1.0,
                                        "defaultValue" : 0.1216
                                      },
                                      "uiHints" : {
                                        "userInterfaceType" : 0,
                                        "unitType" : 0
                                      }
                                    },
                                    "color-red" : {
                                      "type" : "double",
                                      "defaultValue" : 0.1216,
                                      "valueBounds" : {
                                        "minValue" : 0.0,
                                        "maxValue" : 1.0,
                                        "defaultValue" : 0.1216
                                      },
                                      "uiHints" : {
                                        "userInterfaceType" : 0,
                                        "unitType" : 0
                                      }
                                    },
                                    "enabled" : {
                                      "type" : "int",
                                      "valueBounds" : {
                                        "minValue" : 0,
                                        "maxValue" : 1,
                                        "defaultValue" : 1
                                      },
                                      "uiHints" : {
                                        "userInterfaceType" : 0,
                                        "unitType" : 0
                                      },
                                      "keyframes" : [
                                        {
                                          "endTime" : 0,
                                          "time" : 0,
                                          "value" : 1,
                                          "duration" : 0
                                        }
                                      ]
                                    },
                                    "offset" : {
                                      "type" : "double",
                                      "defaultValue" : 10.0,
                                      "valueBounds" : {
                                        "minValue" : 0.0,
                                        "maxValue" : 250.0,
                                        "defaultValue" : 10.0
                                      },
                                      "uiHints" : {
                                        "userInterfaceType" : 0,
                                        "unitType" : 0
                                      }
                                    },
                                    "opacity" : {
                                      "type" : "double",
                                      "defaultValue" : 0.4,
                                      "valueBounds" : {
                                        "minValue" : 0.0,
                                        "maxValue" : 1.0,
                                        "defaultValue" : 0.4
                                      },
                                      "uiHints" : {
                                        "userInterfaceType" : 0,
                                        "unitType" : 0
                                      }
                                    }
                                  }
                                },
                                {
                                  "_type" : "GenericBehaviorEffect",
                                  "effectName" : "fade",
                                  "start" : 0,
                                  "duration" : 197                                ,
                                  "in" : {
                                    "attributes" : {
                                      "name" : "fadeIn",
                                      "type" : 1,
                                      "characterOrder" : 6,
                                      "offsetBetweenCharacters" : "3/2",
                                      "suggestedDurationPerCharacter" : "153/5",
                                      "overlapProportion" : 0,
                                      "movement" : 0,
                                      "springDamping" : 5.0,
                                      "springStiffness" : 50.0,
                                      "bounceBounciness" : 0.45
                                    }
                                  
                                  },
                                  "center" : {
                                    "attributes" : {
                                      "name" : "none",
                                      "type" : 1,
                                      "characterOrder" : 6,
                                      "offsetBetweenCharacters" : 0,
                                      "secondsPerLoop" : 1,
                                      "numberOfLoops" : -1,
                                      "delayBetweenLoops" : 0,
                                      "offsetBetweenCharacters" : 0
                                    }
                                  
                                  },
                                  "out" : {
                                    "attributes" : {
                                      "name" : "fadeOut",
                                      "type" : 1,
                                      "characterOrder" : 6,
                                      "offsetBetweenCharacters" : "3/2",
                                      "suggestedDurationPerCharacter" : 30,
                                      "overlapProportion" : 0,
                                      "movement" : 0,
                                      "springDamping" : 5.0,
                                      "springStiffness" : 50.0,
                                      "bounceBounciness" : 0.45
                                    }
                                  
                                  }
                                }
                            ],
                            "start" : 89,
                            "duration" : 197,
                            "mediaStart" : 0,
                            "mediaDuration" : 197,
                            "scalar" : 1,
                            "metadata" : {
                              "WinSubProjectDisplayName" : "",
                              "clipSpeedAttribute" : false,
                              "default-HAlign" : "left",
                              "default-VAlign" : "center",
                              "default-text-attributes" : "[{\"name\":\"fgColor\",\"rangeEnd\":8,\"rangeStart\":0,\"value\":\"(255,255,255,255)\",\"valueType\":\"color\"},{\"name\":\"fontName\",\"rangeEnd\":8,\"rangeStart\":0,\"value\":\"Montserrat\",\"valueType\":\"string\"},{\"name\":\"underline\",\"rangeEnd\":8,\"rangeStart\":0,\"value\":0,\"valueType\":\"int\"},{\"name\":\"fontSize\",\"rangeEnd\":8,\"rangeStart\":0,\"value\":50,\"valueType\":\"double\"},{\"name\":\"strikethrough\",\"rangeEnd\":8,\"rangeStart\":0,\"value\":0,\"valueType\":\"int\"},{\"name\":\"fontWeight\",\"rangeEnd\":8,\"rangeStart\":0,\"value\":100,\"valueType\":\"int\"},{\"name\":\"fontItalic\",\"rangeEnd\":8,\"rangeStart\":0,\"value\":0,\"valueType\":\"int\"}]",
                              "effectApplied" : "none"
                            },
                            "animationTracks" : {

                            }
                          }
                        ],
                          "ident" : "",
                          "audioMuted" : false,
                          "videoHidden" : false,
                          "metadata" : {
                            "IsLocked" : "False",
                            "WinTrackHeight" : "1.05102611805516e-311",
                            "trackHeight" : "48"
                          }
                      },
                      {
                        "trackIndex" : 2,
                        "medias" : [
                          {
                            "id" : 69,
                            "_type" : "Callout",
                            "def" : {
                              "kind" : "remix",
                              "shape" : "text",
                              "style" : "basic",
                              "height" : 106.39344813415,
                              "line-spacing" : 0.0,
                              "width" : 717.852511466127,
                              "word-wrap" : 1.0,
                              "horizontal-alignment" : "left",
                              "text" : "Unit 7 - Lessons 2, 3 and 4",
                              "vertical-alignment" : "center",
                              "font" : {
                                "color-blue" : 1.0,
                                "color-green" : 1.0,
                                "color-red" : 1.0,
                                "size" : 96.0,
                                "tracking" : 0.0,
                                "name" : "Montserrat",
                                "weight" : "Regular"
                              },
                              "textAttributes" : {
                                "type" : "textAttributeList",
                                "keyframes" : [
                                  {
                                    "endTime" : 0,
                                    "time" : 0,
                                    "value" : [{"name":"strikethrough","rangeEnd":27,"rangeStart":0,"value":0,"valueType":"int"},{"name":"fontItalic","rangeEnd":27,"rangeStart":0,"value":0,"valueType":"int"},{"name":"underline","rangeEnd":27,"rangeStart":0,"value":0,"valueType":"int"},{"name":"fontSize","rangeEnd":27,"rangeStart":0,"value":73,"valueType":"double"},{"name":"fontWeight","rangeEnd":27,"rangeStart":0,"value":400,"valueType":"int"},{"name":"fgColor","rangeEnd":27,"rangeStart":0,"value":"(189,195,199,255)","valueType":"color"},{"name":"fontName","rangeEnd":27,"rangeStart":0,"value":"Montserrat","valueType":"string"}],
                                    "duration" : 0
                                  }
                                ]
                              }
                            },
                            "attributes" : {
                              "autoRotateText" : true
                            },
                            "parameters" : {
                              "translation0" : -413.859478170759,
                              "translation1" : -221.750907510626
                            },
                            "effects" : [
                                {
                                  "effectName" : "DropShadow",
                                  "category" : "categoryVisualEffects",
                                  "parameters" : {
                                    "angle" : {
                                      "type" : "double",
                                      "defaultValue" : 5.49778714378214,
                                      "valueBounds" : {
                                        "minValue" : 0.0,
                                        "maxValue" : 0.0,
                                        "defaultValue" : 5.49778714378214
                                      },
                                      "uiHints" : {
                                        "userInterfaceType" : 0,
                                        "unitType" : 0
                                      }
                                    },
                                    "blur" : {
                                      "type" : "double",
                                      "defaultValue" : 10.0,
                                      "valueBounds" : {
                                        "minValue" : 0.0,
                                        "maxValue" : 50.0,
                                        "defaultValue" : 10.0
                                      },
                                      "uiHints" : {
                                        "userInterfaceType" : 0,
                                        "unitType" : 0
                                      }
                                    },
                                    "color-alpha" : {
                                      "type" : "double",
                                      "defaultValue" : 1.0,
                                      "valueBounds" : {
                                        "minValue" : 0.0,
                                        "maxValue" : 1.0,
                                        "defaultValue" : 1.0
                                      },
                                      "uiHints" : {
                                        "userInterfaceType" : 0,
                                        "unitType" : 0
                                      }
                                    },
                                    "color-blue" : {
                                      "type" : "double",
                                      "defaultValue" : 0.1216,
                                      "valueBounds" : {
                                        "minValue" : 0.0,
                                        "maxValue" : 1.0,
                                        "defaultValue" : 0.1216
                                      },
                                      "uiHints" : {
                                        "userInterfaceType" : 0,
                                        "unitType" : 0
                                      }
                                    },
                                    "color-green" : {
                                      "type" : "double",
                                      "defaultValue" : 0.1216,
                                      "valueBounds" : {
                                        "minValue" : 0.0,
                                        "maxValue" : 1.0,
                                        "defaultValue" : 0.1216
                                      },
                                      "uiHints" : {
                                        "userInterfaceType" : 0,
                                        "unitType" : 0
                                      }
                                    },
                                    "color-red" : {
                                      "type" : "double",
                                      "defaultValue" : 0.1216,
                                      "valueBounds" : {
                                        "minValue" : 0.0,
                                        "maxValue" : 1.0,
                                        "defaultValue" : 0.1216
                                      },
                                      "uiHints" : {
                                        "userInterfaceType" : 0,
                                        "unitType" : 0
                                      }
                                    },
                                    "enabled" : {
                                      "type" : "int",
                                      "valueBounds" : {
                                        "minValue" : 0,
                                        "maxValue" : 1,
                                        "defaultValue" : 1
                                      },
                                      "uiHints" : {
                                        "userInterfaceType" : 0,
                                        "unitType" : 0
                                      },
                                      "keyframes" : [
                                        {
                                          "endTime" : 0,
                                          "time" : 0,
                                          "value" : 1,
                                          "duration" : 0
                                        }
                                      ]
                                    },
                                    "offset" : {
                                      "type" : "double",
                                      "defaultValue" : 10.0,
                                      "valueBounds" : {
                                        "minValue" : 0.0,
                                        "maxValue" : 250.0,
                                        "defaultValue" : 10.0
                                      },
                                      "uiHints" : {
                                        "userInterfaceType" : 0,
                                        "unitType" : 0
                                      }
                                    },
                                    "opacity" : {
                                      "type" : "double",
                                      "defaultValue" : 0.4,
                                      "valueBounds" : {
                                        "minValue" : 0.0,
                                        "maxValue" : 1.0,
                                        "defaultValue" : 0.4
                                      },
                                      "uiHints" : {
                                        "userInterfaceType" : 0,
                                        "unitType" : 0
                                      }
                                    }
                                  }
                                },
                                {
                                  "_type" : "GenericBehaviorEffect",
                                  "effectName" : "fade",
                                  "start" : 0,
                                  "duration" : 210                                ,
                                  "in" : {
                                    "attributes" : {
                                      "name" : "fadeIn",
                                      "type" : 1,
                                      "characterOrder" : 6,
                                      "offsetBetweenCharacters" : "3/2",
                                      "suggestedDurationPerCharacter" : "153/5",
                                      "overlapProportion" : 0,
                                      "movement" : 0,
                                      "springDamping" : 5.0,
                                      "springStiffness" : 50.0,
                                      "bounceBounciness" : 0.45
                                    }
                                  
                                  },
                                  "center" : {
                                    "attributes" : {
                                      "name" : "none",
                                      "type" : 1,
                                      "characterOrder" : 6,
                                      "offsetBetweenCharacters" : 0,
                                      "secondsPerLoop" : 1,
                                      "numberOfLoops" : -1,
                                      "delayBetweenLoops" : 0,
                                      "offsetBetweenCharacters" : 0
                                    }
                                  
                                  },
                                  "out" : {
                                    "attributes" : {
                                      "name" : "fadeOut",
                                      "type" : 1,
                                      "characterOrder" : 6,
                                      "offsetBetweenCharacters" : "3/2",
                                      "suggestedDurationPerCharacter" : 30,
                                      "overlapProportion" : 0,
                                      "movement" : 0,
                                      "springDamping" : 5.0,
                                      "springStiffness" : 50.0,
                                      "bounceBounciness" : 0.45
                                    }
                                  
                                  }
                                }
                            ],
                            "start" : 76,
                            "duration" : 210,
                            "mediaStart" : 0,
                            "mediaDuration" : 210,
                            "scalar" : 1,
                            "metadata" : {
                              "WinSubProjectDisplayName" : "",
                              "clipSpeedAttribute" : false,
                              "default-HAlign" : "left",
                              "default-VAlign" : "center",
                              "default-text-attributes" : "[{\"name\":\"underline\",\"rangeEnd\":9,\"rangeStart\":0,\"value\":0,\"valueType\":\"int\"},{\"name\":\"fontName\",\"rangeEnd\":9,\"rangeStart\":0,\"value\":\"Montserrat\",\"valueType\":\"string\"},{\"name\":\"fontItalic\",\"rangeEnd\":9,\"rangeStart\":0,\"value\":0,\"valueType\":\"int\"},{\"name\":\"fgColor\",\"rangeEnd\":9,\"rangeStart\":0,\"value\":\"(189,195,199,255)\",\"valueType\":\"color\"},{\"name\":\"strikethrough\",\"rangeEnd\":9,\"rangeStart\":0,\"value\":0,\"valueType\":\"int\"},{\"name\":\"fontWeight\",\"rangeEnd\":9,\"rangeStart\":0,\"value\":100,\"valueType\":\"int\"},{\"name\":\"fontSize\",\"rangeEnd\":9,\"rangeStart\":0,\"value\":73,\"valueType\":\"double\"}]",
                              "effectApplied" : "none"
                            },
                            "animationTracks" : {

                            }
                          }
                        ],
                          "ident" : "",
                          "audioMuted" : false,
                          "videoHidden" : false,
                          "metadata" : {
                            "IsLocked" : "False",
                            "WinTrackHeight" : "1.05102611805516e-311",
                            "trackHeight" : "48"
                          }
                      }
                    ],
                    "attributes" : {
                      "ident" : "fadingsquares",
                      "gain" : 1.0,
                      "mixToMono" : false,
                      "assetProperties" : [
                        {
                          "type" : 0,
                          "name" : "Title",
                          "objects" : [ 69 ]
                        },
                        {
                          "type" : 0,
                          "name" : "Subtitle",
                          "objects" : [ 68 ]
                        },
                        {
                          "type" : 1,
                          "name" : "Callout",
                          "objects" : [ 57, 55, 56, 54, 53, 55, 56, 57, 58, 59, 60, 61, 64, 65, 66, 67, 54, 63, 62 ]
                        },
                        {
                          "type" : 2,
                          "name" : "Content",
                          "objects" : [ 52 ]
                        }
                      ]
                    },
                    "effects" : [

                    ],
                    "start" : 0,
                    "duration" : 442,
                    "mediaStart" : 0.0,
                    "mediaDuration" : 442.0,
                    "scalar" : 1,
                    "metadata" : {
                      "IsGroupExpanded" : "False",
                      "WinSubProjectDisplayName" : "",
                      "clipSpeedAttribute" : false,
                      "effectApplied" : "none",
                      "isOpen" : false
                    },
                    "animationTracks" : {

                    }
                  }
                ]
              },
              {
                "trackIndex" : 3,
                "medias" : [
                  {
                    "id" : 70,
                    "_type" : "AMFile",
                    "src" : 3,
                    "trackNumber" : 0,
                    "attributes" : {
                      "ident" : "02 Come a Little Closer",
                      "sampleRate" : 44100,
                      "bitDepth" : 16,
                      "gain" : 1.0,
                      "mixToMono" : false
                    },
                      "channelNumber" : "0,1",
                    "parameters" : {
                      "volume" : {
                        "type" : "double",
                        "keyframes" : [
                          {
                            "endTime" : 0,
                            "time" : 0,
                            "value" : 0.549450549450549,
                            "duration" : 0
                          },
                          {
                            "endTime" : 341,
                            "time" : 341,
                            "value" : 0.549450549450549,
                            "duration" : 0
                          },
                          {
                            "endTime" : 431,
                            "time" : 431,
                            "value" : 0.0,
                            "duration" : 0
                          },
                          {
                            "endTime" : 432,
                            "time" : 432,
                            "value" : 0.549450549450549,
                            "duration" : 0
                          }
                        ]
                      }
                    },
                    "effects" : [

                    ],
                    "start" : 0,
                    "duration" : 431,
                    "mediaStart" : 0,
                    "mediaDuration" : 431,
                    "scalar" : 1,
                    "metadata" : {
                      "WinSubProjectDisplayName" : "",
                      "clipSpeedAttribute" : false
                    },
                    "animationTracks" : {

                    }
                  }
                ]
              },
              {
                "trackIndex" : 4,
                "medias" : [
                ]
              },
              {
                "trackIndex" : 5,
                "medias" : [
                ]
              }
            ]
          }
        }
      ]
    },
    "trackAttributes" : [
      {
        "ident" : "",
        "audioMuted" : false,
        "videoHidden" : false,
        "metadata" : {
          "IsLocked" : "False",
          "WinTrackHeight" : "56"
        }
      },
      {
        "ident" : "",
        "audioMuted" : false,
        "videoHidden" : false,
        "metadata" : {
          "IsLocked" : "False",
          "WinTrackHeight" : "56"
        }
      },
      {
        "ident" : "",
        "audioMuted" : false,
        "videoHidden" : false,
        "metadata" : {
          "IsLocked" : "False",
          "WinTrackHeight" : "56"
        }
      },
      {
        "ident" : "",
        "audioMuted" : false,
        "videoHidden" : false,
        "metadata" : {
          "IsLocked" : "False",
          "WinTrackHeight" : "56"
        }
      },
      {
        "ident" : "",
        "audioMuted" : false,
        "videoHidden" : false,
        "metadata" : {
          "IsLocked" : "False",
          "WinTrackHeight" : "56"
        }
      },
      {
        "ident" : "",
        "audioMuted" : false,
        "videoHidden" : false,
        "metadata" : {
          "IsLocked" : "False",
          "WinTrackHeight" : "56"
        }
      }
    ],
    "captionAttributes" : {
      "enabled" : true,
      "fontName" : "Arial",
      "fontSize" : 64,
      "backgroundColor" : [ 0, 0, 0, 191],
      "foregroundColor" : [ 255, 255, 255, 255],
      "lang" : "en",
      "alignment" : 0,
      "defaultFontSize" : true,
      "opacity" : 0.5,
      "backgroundEnabled" : true,
      "backgroundOnlyAroundText" : true
    },
    "backgroundColor" : [ 0, 0, 0, 255]
  },
  "metadata" : {
    "AutoSaveFile" : "C:\\Users\\rhigh\\AppData\\Local\\TechSmith\\Camtasia Studio\\19.0\\Auto-Saves\\Procure-to-Pay Master Data1a042a22.autosave.tscproj",
    "CanvasZoom" : 49,
    "Date" : "2019-05-06 10:59:08 AM",
    "IsAutoSave" : "0",
    "Language" : "ENU",
    "ProfileName" : "MP4 only (up to 720p)",
    "ProjectDimensionsChanged" : "1",
    "Title" : "Goods Receipt",
    "audioNarrationNotes" : ""
  }
}
