{
  "title" : "",
  "description" : "",
  "author" : "",
  "targetLoudness" : -18.0,
  "shouldApplyLoudnessNormalization" : true,
  "width" : 1920.0,
  "height" : 1080.0,
  "version" : "3.0",
  "editRate" : 30,
  "authoringClientName" :  {
    "name" : "Camtasia",
    "platform" : "Windows",
    "version" : "19.0"
  },
  "sourceBin" : [
    {
      "id" : 1,
      "src" : "C:\\Users\\rhigh\\OneDrive\\Documents\\Camtasia\\Rec 05-06-19.trec",
      "rect" : [0, 0, 1920, 1080],
      "lastMod" : "20190506T152840",
      "sourceTracks" : [
        {
          "range" : [0, 10333],
          "type" : 0,
          "editRate" : 30,
          "trackRect" : [0, 0, 1920, 1080],
          "sampleRate" : 28,
          "bitDepth" : 0,
          "numChannels" : 0,
          "integratedLUFS" : 100.0,
          "peakLevel" : -1.0,
          "metaData" : "Rec 05-06-19.trec;"
        },
        {
          "range" : [0, 15171584],
          "type" : 2,
          "editRate" : 44100,
          "trackRect" : [0, 0, 0, 0],
          "sampleRate" : 44100,
          "bitDepth" : 16,
          "numChannels" : 2,
          "integratedLUFS" : -16.2248325755246,
          "peakLevel" : 1.0,
          "metaData" : ""
        },
        {
          "range" : [0, 15187968],
          "type" : 2,
          "editRate" : 44100,
          "trackRect" : [0, 0, 0, 0],
          "sampleRate" : 44100,
          "bitDepth" : 16,
          "numChannels" : 2,
          "integratedLUFS" : -24.8492456443388,
          "peakLevel" : 0.233367919921875,
          "metaData" : ""
        }
      ]
    },
    {
      "id" : 2,
      "src" : "C:\\Users\\rhigh\\Music\\05 Good Life.m4a",
      "rect" : [0, 0, 0, 0],
      "lastMod" : "20170712T210053",
      "sourceTracks" : [
        {
          "range" : [0, 1807441268],
          "type" : 2,
          "editRate" : 10000000,
          "trackRect" : [0, 0, 0, 0],
          "sampleRate" : 44100,
          "bitDepth" : 16,
          "numChannels" : 2,
          "integratedLUFS" : -9.29022628898483,
          "peakLevel" : 1.12564206123352,
          "metaData" : ""
        }
      ]
    },
    {
      "id" : 3,
      "src" : "C:\\ProgramData\\TechSmith\\Camtasia Studio 19\\Library 4.0\\Camtasia Libraries\\Camtasia 2019\\Intros\\ripples.asset\\Motion Graphics - Intro Clips - ripples-91.png",
      "rect" : [0, 0, 1920, 1080],
      "lastMod" : "20190205T165848",
      "sourceTracks" : [
        {
          "range" : [0, 1],
          "type" : 1,
          "editRate" : 10000000,
          "trackRect" : [0, 0, 1920, 1080],
          "sampleRate" : 0,
          "bitDepth" : 32,
          "numChannels" : 0,
          "integratedLUFS" : 100.0,
          "peakLevel" : -1.0,
          "metaData" : ""
        }
      ],
      "metadata" : {
        "assetLibraryId" : "18fb3f9d-3033-4942-a70b-54b4d5735126"
      }
    },
    {
      "id" : 4,
      "src" : "C:\\Users\\rhigh\\OneDrive\\Documents\\Camtasia\\Rec 05-29-19.trec",
      "rect" : [0, 0, 1920, 1080],
      "lastMod" : "20190529T145923",
      "sourceTracks" : [
        {
          "range" : [0, 5393],
          "type" : 0,
          "editRate" : 30,
          "trackRect" : [0, 0, 1920, 1080],
          "sampleRate" : 29,
          "bitDepth" : 0,
          "numChannels" : 0,
          "integratedLUFS" : 100.0,
          "peakLevel" : -1.0,
          "metaData" : "Rec 05-29-19.trec;"
        },
        {
          "range" : [0, 7917568],
          "type" : 2,
          "editRate" : 44100,
          "trackRect" : [0, 0, 0, 0],
          "sampleRate" : 44100,
          "bitDepth" : 16,
          "numChannels" : 2,
          "integratedLUFS" : -27.7922397852741,
          "peakLevel" : 0.5098876953125,
          "metaData" : ""
        },
        {
          "range" : [0, 7926784],
          "type" : 2,
          "editRate" : 44100,
          "trackRect" : [0, 0, 0, 0],
          "sampleRate" : 44100,
          "bitDepth" : 16,
          "numChannels" : 2,
          "integratedLUFS" : 0.0,
          "peakLevel" : 0.0,
          "metaData" : ""
        }
      ]
    }
  ],
  "timeline" : {
    "id" : 5,
    "sceneTrack" : {
      "scenes" : [
        {
          "duration" : 488.766666666667,
          "title" : "",
          "type" : "",
          "csml" : {
            "tracks" : [
              {
                "trackIndex" : 0,
                "medias" : [
                  {
                    "id" : 6,
                    "_type" : "StitchedMedia",
                    "minMediaStart" : 0,
                    "attributes" : {
                      "ident" : "Rec 05-06-19",
                      "gain" : 1.0,
                      "mixToMono" : false
                    },
                    "parameters" : {
                      "volume" : 1.0,
                      "cursorOpacity" : 1.0,
                      "cursorScale" : 1.0
                    },
                    "medias" : [
                        {
                          "id" : 7,
                          "_type" : "UnifiedMedia",
                          "video" : 
                              {
                                "id" : 8,
                                "_type" : "ScreenVMFile",
                                "src" : 1,
                                "trackNumber" : 0,
                                "attributes" : {
                                  "ident" : "Rec 05-06-19"
                                },
                                "parameters" : {
                                  "cursorScale" : {
                                    "type" : "double",
                                    "defaultValue" : 0.0,
                                    "interp" : "linr"
                                  },
                                  "cursorOpacity" : {
                                    "type" : "double",
                                    "defaultValue" : 0.0,
                                    "interp" : "linr"
                                  }
                                },
                                "effects" : [

                                ],
                                "start" : 0,
                                "duration" : 9225,
                                "mediaStart" : 0,
                                "mediaDuration" : 9225,
                                "scalar" : 1,
                                "animationTracks" : {

                                }
                              },
                          "audio" : 
                              {
                                "id" : 9,
                                "_type" : "AMFile",
                                "src" : 1,
                                "trackNumber" : 2,
                                "attributes" : {
                                  "ident" : "",
                                  "sampleRate" : 44100,
                                  "bitDepth" : 16,
                                  "gain" : 1.0,
                                  "mixToMono" : false
                                },
                                  "channelNumber" : "0,1",
                                "effects" : [

                                ],
                                "start" : 0,
                                "duration" : 9225,
                                "mediaStart" : 0,
                                "mediaDuration" : 9225,
                                "scalar" : 1,
                                "animationTracks" : {

                                }
                              }
,
                          "start" : 0,
                          "duration" : 9225,
                          "mediaStart" : 0,
                          "mediaDuration" : 10332,
                          "scalar" : 1,
                          "metadata" : {
                            "AutoAppliedSmartFocus" : "False",
                            "WinSubProjectDisplayName" : "",
                            "clipSpeedAttribute" : false
                          }
                        },
                        {
                          "id" : 10,
                          "_type" : "UnifiedMedia",
                          "video" : 
                              {
                                "id" : 11,
                                "_type" : "ScreenVMFile",
                                "src" : 1,
                                "trackNumber" : 0,
                                "attributes" : {
                                  "ident" : "Rec 05-06-19"
                                },
                                "parameters" : {
                                  "cursorScale" : {
                                    "type" : "double",
                                    "defaultValue" : 0.0,
                                    "interp" : "linr"
                                  },
                                  "cursorOpacity" : {
                                    "type" : "double",
                                    "defaultValue" : 0.0,
                                    "interp" : "linr"
                                  }
                                },
                                "effects" : [

                                ],
                                "start" : 9225,
                                "duration" : 1013,
                                "mediaStart" : 9319,
                                "mediaDuration" : 1013,
                                "scalar" : 1,
                                "animationTracks" : {

                                }
                              },
                          "audio" : 
                              {
                                "id" : 12,
                                "_type" : "AMFile",
                                "src" : 1,
                                "trackNumber" : 2,
                                "attributes" : {
                                  "ident" : "",
                                  "sampleRate" : 44100,
                                  "bitDepth" : 16,
                                  "gain" : 1.0,
                                  "mixToMono" : false
                                },
                                  "channelNumber" : "0,1",
                                "effects" : [

                                ],
                                "start" : 9225,
                                "duration" : 1013,
                                "mediaStart" : 9319,
                                "mediaDuration" : 1013,
                                "scalar" : 1,
                                "animationTracks" : {

                                }
                              }
,
                          "start" : 9225,
                          "duration" : 1013,
                          "mediaStart" : 0,
                          "mediaDuration" : 10332,
                          "scalar" : 1,
                          "metadata" : {
                            "AutoAppliedSmartFocus" : "False",
                            "WinSubProjectDisplayName" : "",
                            "clipSpeedAttribute" : false
                          }
                        }
                    ],
                    "effects" : [

                    ],
                    "start" : 298,
                    "duration" : 9752,
                    "mediaStart" : 240,
                    "mediaDuration" : 9752,
                    "scalar" : 1,
                    "metadata" : {
                      "AutoAppliedSmartFocus" : "False",
                      "WinSubProjectDisplayName" : "",
                      "clipSpeedAttribute" : false
                    },
                    "animationTracks" : {

                    }
                  },
                  {
                    "id" : 13,
                    "_type" : "StitchedMedia",
                    "minMediaStart" : 0,
                    "attributes" : {
                      "ident" : "Rec 05-29-19",
                      "gain" : 1.0,
                      "mixToMono" : false
                    },
                    "parameters" : {
                      "volume" : 1.0,
                      "cursorOpacity" : 1.0,
                      "cursorScale" : 1.0
                    },
                    "medias" : [
                        {
                          "id" : 14,
                          "_type" : "UnifiedMedia",
                          "video" : 
                              {
                                "id" : 15,
                                "_type" : "ScreenVMFile",
                                "src" : 4,
                                "trackNumber" : 0,
                                "attributes" : {
                                  "ident" : "Rec 05-29-19"
                                },
                                "parameters" : {
                                  "cursorScale" : {
                                    "type" : "double",
                                    "defaultValue" : 0.0,
                                    "interp" : "linr"
                                  },
                                  "cursorOpacity" : {
                                    "type" : "double",
                                    "defaultValue" : 0.0,
                                    "interp" : "linr"
                                  }
                                },
                                "effects" : [

                                ],
                                "start" : 0,
                                "duration" : 1153,
                                "mediaStart" : 0,
                                "mediaDuration" : 1153,
                                "scalar" : 1,
                                "animationTracks" : {

                                }
                              },
                          "audio" : 
                              {
                                "id" : 16,
                                "_type" : "AMFile",
                                "src" : 4,
                                "trackNumber" : 2,
                                "attributes" : {
                                  "ident" : "",
                                  "sampleRate" : 44100,
                                  "bitDepth" : 16,
                                  "gain" : 1.0,
                                  "mixToMono" : false
                                },
                                  "channelNumber" : "0,1",
                                "effects" : [

                                ],
                                "start" : 0,
                                "duration" : 1153,
                                "mediaStart" : 0,
                                "mediaDuration" : 1153,
                                "scalar" : 1,
                                "animationTracks" : {

                                }
                              }
,
                          "start" : 0,
                          "duration" : 1153,
                          "mediaStart" : 0,
                          "mediaDuration" : 5392,
                          "scalar" : 1,
                          "metadata" : {
                            "AutoAppliedSmartFocus" : "False",
                            "WinSubProjectDisplayName" : "",
                            "clipSpeedAttribute" : false
                          }
                        },
                        {
                          "id" : 17,
                          "_type" : "UnifiedMedia",
                          "video" : 
                              {
                                "id" : 18,
                                "_type" : "ScreenVMFile",
                                "src" : 4,
                                "trackNumber" : 0,
                                "attributes" : {
                                  "ident" : "Rec 05-29-19"
                                },
                                "parameters" : {
                                  "cursorScale" : {
                                    "type" : "double",
                                    "defaultValue" : 0.0,
                                    "interp" : "linr"
                                  },
                                  "cursorOpacity" : {
                                    "type" : "double",
                                    "defaultValue" : 0.0,
                                    "interp" : "linr"
                                  }
                                },
                                "effects" : [

                                ],
                                "start" : 1153,
                                "duration" : 497,
                                "mediaStart" : 1308,
                                "mediaDuration" : 497,
                                "scalar" : 1,
                                "animationTracks" : {

                                }
                              },
                          "audio" : 
                              {
                                "id" : 19,
                                "_type" : "AMFile",
                                "src" : 4,
                                "trackNumber" : 2,
                                "attributes" : {
                                  "ident" : "",
                                  "sampleRate" : 44100,
                                  "bitDepth" : 16,
                                  "gain" : 1.0,
                                  "mixToMono" : false
                                },
                                  "channelNumber" : "0,1",
                                "effects" : [

                                ],
                                "start" : 1153,
                                "duration" : 497,
                                "mediaStart" : 1308,
                                "mediaDuration" : 497,
                                "scalar" : 1,
                                "animationTracks" : {

                                }
                              }
,
                          "start" : 1153,
                          "duration" : 497,
                          "mediaStart" : 0,
                          "mediaDuration" : 5392,
                          "scalar" : 1,
                          "metadata" : {
                            "AutoAppliedSmartFocus" : "False",
                            "WinSubProjectDisplayName" : "",
                            "clipSpeedAttribute" : false
                          }
                        },
                        {
                          "id" : 20,
                          "_type" : "UnifiedMedia",
                          "video" : 
                              {
                                "id" : 21,
                                "_type" : "ScreenVMFile",
                                "src" : 4,
                                "trackNumber" : 0,
                                "attributes" : {
                                  "ident" : "Rec 05-29-19"
                                },
                                "parameters" : {
                                  "cursorScale" : {
                                    "type" : "double",
                                    "defaultValue" : 0.0,
                                    "interp" : "linr"
                                  },
                                  "cursorOpacity" : {
                                    "type" : "double",
                                    "defaultValue" : 0.0,
                                    "interp" : "linr"
                                  }
                                },
                                "effects" : [

                                ],
                                "start" : 1650,
                                "duration" : 2235,
                                "mediaStart" : 1885,
                                "mediaDuration" : 2235,
                                "scalar" : 1,
                                "animationTracks" : {

                                }
                              },
                          "audio" : 
                              {
                                "id" : 22,
                                "_type" : "AMFile",
                                "src" : 4,
                                "trackNumber" : 2,
                                "attributes" : {
                                  "ident" : "",
                                  "sampleRate" : 44100,
                                  "bitDepth" : 16,
                                  "gain" : 1.0,
                                  "mixToMono" : false
                                },
                                  "channelNumber" : "0,1",
                                "effects" : [

                                ],
                                "start" : 1650,
                                "duration" : 2235,
                                "mediaStart" : 1885,
                                "mediaDuration" : 2235,
                                "scalar" : 1,
                                "animationTracks" : {

                                }
                              }
,
                          "start" : 1650,
                          "duration" : 2235,
                          "mediaStart" : 0,
                          "mediaDuration" : 5392,
                          "scalar" : 1,
                          "metadata" : {
                            "AutoAppliedSmartFocus" : "False",
                            "WinSubProjectDisplayName" : "",
                            "clipSpeedAttribute" : false
                          }
                        },
                        {
                          "id" : 23,
                          "_type" : "UnifiedMedia",
                          "video" : 
                              {
                                "id" : 24,
                                "_type" : "ScreenVMFile",
                                "src" : 4,
                                "trackNumber" : 0,
                                "attributes" : {
                                  "ident" : "Rec 05-29-19"
                                },
                                "parameters" : {
                                  "cursorScale" : {
                                    "type" : "double",
                                    "defaultValue" : 0.0,
                                    "interp" : "linr"
                                  },
                                  "cursorOpacity" : {
                                    "type" : "double",
                                    "defaultValue" : 0.0,
                                    "interp" : "linr"
                                  }
                                },
                                "effects" : [

                                ],
                                "start" : 3885,
                                "duration" : 722,
                                "mediaStart" : 4670,
                                "mediaDuration" : 722,
                                "scalar" : 1,
                                "animationTracks" : {

                                }
                              },
                          "audio" : 
                              {
                                "id" : 25,
                                "_type" : "AMFile",
                                "src" : 4,
                                "trackNumber" : 2,
                                "attributes" : {
                                  "ident" : "",
                                  "sampleRate" : 44100,
                                  "bitDepth" : 16,
                                  "gain" : 1.0,
                                  "mixToMono" : false
                                },
                                  "channelNumber" : "0,1",
                                "effects" : [

                                ],
                                "start" : 3885,
                                "duration" : 722,
                                "mediaStart" : 4670,
                                "mediaDuration" : 722,
                                "scalar" : 1,
                                "animationTracks" : {

                                }
                              }
,
                          "start" : 3885,
                          "duration" : 722,
                          "mediaStart" : 0,
                          "mediaDuration" : 5392,
                          "scalar" : 1,
                          "metadata" : {
                            "AutoAppliedSmartFocus" : "False",
                            "WinSubProjectDisplayName" : "",
                            "clipSpeedAttribute" : false
                          }
                        }
                    ],
                    "effects" : [

                    ],
                    "start" : 10056,
                    "duration" : 4607,
                    "mediaStart" : 0,
                    "mediaDuration" : 4607,
                    "scalar" : 1,
                    "metadata" : {
                      "AutoAppliedSmartFocus" : "False",
                      "WinSubProjectDisplayName" : "",
                      "clipSpeedAttribute" : false
                    },
                    "animationTracks" : {

                    }
                  }
                ],
                "transitions" : [
                  {
                    "name" : "Fade",
                    "duration" : 30,
                    "trivial" : false,
                    "useAudioPreRoll" : true,
                    "useVisualPreRoll" : true,
                    "rightMedia" : 13
                  }
                ]
              },
              {
                "trackIndex" : 1,
                "medias" : [
                  {
                    "id" : 26,
                    "_type" : "StitchedMedia",
                    "minMediaStart" : 0,
                    "attributes" : {
                      "ident" : "Rec 05-06-19",
                      "gain" : 1.0,
                      "mixToMono" : false
                    },
                    "parameters" : {
                      "volume" : 2.75510204081633,
                      "cursorOpacity" : 1.0,
                      "cursorScale" : 1.0
                    },
                    "medias" : [
                        {
                          "id" : 27,
                          "_type" : "AMFile",
                          "src" : 1,
                          "trackNumber" : 1,
                          "attributes" : {
                            "ident" : "Rec 05-06-19",
                            "sampleRate" : 44100,
                            "bitDepth" : 16,
                            "gain" : 1.0,
                            "mixToMono" : false
                          },
                            "channelNumber" : "0,1",
                          "effects" : [

                          ],
                          "start" : 0,
                          "duration" : 9225,
                          "mediaStart" : 0,
                          "mediaDuration" : 9225,
                          "scalar" : 1,
                          "metadata" : {
                            "WinSubProjectDisplayName" : "",
                            "clipSpeedAttribute" : false
                          },
                          "animationTracks" : {

                          }
                        },
                        {
                          "id" : 28,
                          "_type" : "AMFile",
                          "src" : 1,
                          "trackNumber" : 1,
                          "attributes" : {
                            "ident" : "Rec 05-06-19",
                            "sampleRate" : 44100,
                            "bitDepth" : 16,
                            "gain" : 1.0,
                            "mixToMono" : false
                          },
                            "channelNumber" : "0,1",
                          "effects" : [

                          ],
                          "start" : 9225,
                          "duration" : 1002,
                          "mediaStart" : 9319,
                          "mediaDuration" : 1002,
                          "scalar" : 1,
                          "metadata" : {
                            "WinSubProjectDisplayName" : "",
                            "clipSpeedAttribute" : false
                          },
                          "animationTracks" : {

                          }
                        }
                    ],
                    "effects" : [

                    ],
                    "start" : 298,
                    "duration" : 9752,
                    "mediaStart" : 240,
                    "mediaDuration" : 9752,
                    "scalar" : 1,
                    "metadata" : {
                      "WinSubProjectDisplayName" : "",
                      "clipSpeedAttribute" : false
                    },
                    "animationTracks" : {

                    }
                  },
                  {
                    "id" : 29,
                    "_type" : "StitchedMedia",
                    "minMediaStart" : 0,
                    "attributes" : {
                      "ident" : "Rec 05-29-19",
                      "gain" : 1.0,
                      "mixToMono" : false
                    },
                    "parameters" : {
                      "volume" : 1.0,
                      "cursorOpacity" : 1.0,
                      "cursorScale" : 1.0
                    },
                    "medias" : [
                        {
                          "id" : 30,
                          "_type" : "AMFile",
                          "src" : 4,
                          "trackNumber" : 1,
                          "attributes" : {
                            "ident" : "Rec 05-29-19",
                            "sampleRate" : 44100,
                            "bitDepth" : 16,
                            "gain" : 1.0,
                            "mixToMono" : false
                          },
                            "channelNumber" : "0,1",
                          "effects" : [

                          ],
                          "start" : 0,
                          "duration" : 1153,
                          "mediaStart" : 0,
                          "mediaDuration" : 1153,
                          "scalar" : 1,
                          "metadata" : {
                            "WinSubProjectDisplayName" : "",
                            "clipSpeedAttribute" : false
                          },
                          "animationTracks" : {

                          }
                        },
                        {
                          "id" : 31,
                          "_type" : "AMFile",
                          "src" : 4,
                          "trackNumber" : 1,
                          "attributes" : {
                            "ident" : "Rec 05-29-19",
                            "sampleRate" : 44100,
                            "bitDepth" : 16,
                            "gain" : 1.0,
                            "mixToMono" : false
                          },
                            "channelNumber" : "0,1",
                          "effects" : [

                          ],
                          "start" : 1153,
                          "duration" : 497,
                          "mediaStart" : 1308,
                          "mediaDuration" : 497,
                          "scalar" : 1,
                          "metadata" : {
                            "WinSubProjectDisplayName" : "",
                            "clipSpeedAttribute" : false
                          },
                          "animationTracks" : {

                          }
                        },
                        {
                          "id" : 32,
                          "_type" : "AMFile",
                          "src" : 4,
                          "trackNumber" : 1,
                          "attributes" : {
                            "ident" : "Rec 05-29-19",
                            "sampleRate" : 44100,
                            "bitDepth" : 16,
                            "gain" : 1.0,
                            "mixToMono" : false
                          },
                            "channelNumber" : "0,1",
                          "effects" : [

                          ],
                          "start" : 1650,
                          "duration" : 2235,
                          "mediaStart" : 1885,
                          "mediaDuration" : 2235,
                          "scalar" : 1,
                          "metadata" : {
                            "WinSubProjectDisplayName" : "",
                            "clipSpeedAttribute" : false
                          },
                          "animationTracks" : {

                          }
                        },
                        {
                          "id" : 33,
                          "_type" : "AMFile",
                          "src" : 4,
                          "trackNumber" : 1,
                          "attributes" : {
                            "ident" : "Rec 05-29-19",
                            "sampleRate" : 44100,
                            "bitDepth" : 16,
                            "gain" : 1.0,
                            "mixToMono" : false
                          },
                            "channelNumber" : "0,1",
                          "effects" : [

                          ],
                          "start" : 3885,
                          "duration" : 716,
                          "mediaStart" : 4670,
                          "mediaDuration" : 716,
                          "scalar" : 1,
                          "metadata" : {
                            "WinSubProjectDisplayName" : "",
                            "clipSpeedAttribute" : false
                          },
                          "animationTracks" : {

                          }
                        }
                    ],
                    "effects" : [

                    ],
                    "start" : 10056,
                    "duration" : 4601,
                    "mediaStart" : 0,
                    "mediaDuration" : 4601,
                    "scalar" : 1,
                    "metadata" : {
                      "WinSubProjectDisplayName" : "",
                      "clipSpeedAttribute" : false
                    },
                    "animationTracks" : {

                    }
                  }
                ]
              },
              {
                "trackIndex" : 2,
                "medias" : [
                  {
                    "id" : 34,
                    "_type" : "Group",
                    "parameters" : {
                      "translation0" : -2.35843344853492e-10,
                      "translation1" : 7.05142610968323e-11,
                      "scale0" : 0.998151571164516,
                      "scale1" : 0.998151571164515,
                      "volume" : 1.0
                    },
                    "tracks" : [
                      {
                        "trackIndex" : 0,
                        "medias" : [
                          {
                            "id" : 35,
                            "_type" : "Group",
                            "parameters" : {
                              "translation0" : -0.499999999627335,
                              "translation1" : 0.499999999862666,
                              "volume" : 1.0
                            },
                            "tracks" : [
                              {
                                "trackIndex" : 0,
                                "medias" : [
                                  {
                                    "id" : 36,
                                    "_type" : "Callout",
                                    "def" : {
                                      "kind" : "remix",
                                      "shape" : "shape-ellipse",
                                      "style" : "bold",
                                      "fill-color-blue" : {
                                        "type" : "double",
                                        "defaultValue" : 0.611764705882353,
                                        "keyframes" : [
                                          {
                                            "endTime" : 9,
                                            "time" : 0,
                                            "value" : 0.611764705882353,
                                            "duration" : 9
                                          }
                                        ]
                                      },
                                      "fill-color-green" : {
                                        "type" : "double",
                                        "defaultValue" : 0.737254901960784,
                                        "keyframes" : [
                                          {
                                            "endTime" : 9,
                                            "time" : 0,
                                            "value" : 0.737254901960784,
                                            "duration" : 9
                                          }
                                        ]
                                      },
                                      "fill-color-opacity" : 1.0,
                                      "fill-color-red" : {
                                        "type" : "double",
                                        "defaultValue" : 0.101960784313725,
                                        "keyframes" : [
                                          {
                                            "endTime" : 9,
                                            "time" : 0,
                                            "value" : 0.101960784313725,
                                            "duration" : 9
                                          }
                                        ]
                                      },
                                      "height" : {
                                        "type" : "double",
                                        "defaultValue" : 24.4999999997613,
                                        "keyframes" : [
                                          {
                                            "endTime" : 9,
                                            "time" : 0,
                                            "value" : 2232.49999999942,
                                            "duration" : 9
                                          }
                                        ]
                                      },
                                      "stroke-color-blue" : 1.0,
                                      "stroke-color-green" : 1.0,
                                      "stroke-color-opacity" : 1.0,
                                      "stroke-color-red" : 1.0,
                                      "stroke-width" : 0.0,
                                      "width" : {
                                        "type" : "double",
                                        "defaultValue" : 24.4999999997613,
                                        "keyframes" : [
                                          {
                                            "endTime" : 9,
                                            "time" : 0,
                                            "value" : 2232.49999999942,
                                            "duration" : 9
                                          }
                                        ]
                                      },
                                      "horizontal-alignment" : "center",
                                      "stroke-style" : "solid",
                                      "vertical-alignment" : "center",
                                      "textAttributes" : {
                                        "type" : "textAttributeList",
                                        "keyframes" : [
                                          {
                                            "endTime" : 0,
                                            "time" : 0,
                                            "value" : null,
                                            "duration" : 0
                                          }
                                        ]
                                      }
                                    },
                                    "attributes" : {
                                      "autoRotateText" : true
                                    },
                                    "parameters" : {
                                      "translation0" : {
                                        "type" : "double",
                                        "defaultValue" : 0.499999999881766,
                                        "keyframes" : [
                                          {
                                            "endTime" : 9,
                                            "time" : 0,
                                            "value" : 0.499999999881766,
                                            "duration" : 9
                                          }
                                        ]
                                      },
                                      "translation1" : {
                                        "type" : "double",
                                        "defaultValue" : -0.499999999896517,
                                        "keyframes" : [
                                          {
                                            "endTime" : 9,
                                            "time" : 0,
                                            "value" : -0.499999999896517,
                                            "duration" : 9
                                          }
                                        ]
                                      }
                                    },
                                    "effects" : [

                                    ],
                                    "start" : 0,
                                    "duration" : 19,
                                    "mediaStart" : 0,
                                    "mediaDuration" : 19,
                                    "scalar" : 1,
                                    "metadata" : {
                                      "WinSubProjectDisplayName" : "",
                                      "clipSpeedAttribute" : false
                                    },
                                    "animationTracks" : {
                                      "visual" : [
                                        {
                                          "endTime" : 9,
                                          "duration" : 9,
                                          "range" : [ 0, 9]
                                        }
                                      ]
                                    }
                                  },
                                  {
                                    "id" : 37,
                                    "_type" : "Callout",
                                    "def" : {
                                      "kind" : "remix",
                                      "shape" : "shape-rectangle",
                                      "style" : "urban",
                                      "fill-color-blue" : 0.443137254901961,
                                      "fill-color-green" : 0.8,
                                      "fill-color-opacity" : 1.0,
                                      "fill-color-red" : 0.180392156862745,
                                      "height" : 1079.99999999982,
                                      "stroke-color-blue" : 1.0,
                                      "stroke-color-green" : 1.0,
                                      "stroke-color-opacity" : 1.0,
                                      "stroke-color-red" : 1.0,
                                      "stroke-width" : 0.0,
                                      "width" : 1919.99999999982,
                                      "horizontal-alignment" : "center",
                                      "stroke-style" : "solid",
                                      "vertical-alignment" : "center",
                                      "textAttributes" : {
                                        "type" : "textAttributeList",
                                        "keyframes" : [
                                          {
                                            "endTime" : 0,
                                            "time" : 0,
                                            "value" : null,
                                            "duration" : 0
                                          }
                                        ]
                                      }
                                    },
                                    "attributes" : {
                                      "autoRotateText" : true
                                    },
                                    "parameters" : {
                                      "translation0" : 0.499999999832085,
                                      "translation1" : -0.499999999940542
                                    },
                                    "effects" : [

                                    ],
                                    "start" : 28,
                                    "duration" : 83,
                                    "mediaStart" : -3,
                                    "mediaDuration" : 83,
                                    "scalar" : 1,
                                    "metadata" : {
                                      "WinSubProjectDisplayName" : "",
                                      "clipSpeedAttribute" : false
                                    },
                                    "animationTracks" : {

                                    }
                                  }
                                ],
                                  "ident" : "",
                                  "audioMuted" : false,
                                  "videoHidden" : false,
                                  "metadata" : {
                                    "IsLocked" : "False",
                                    "WinTrackHeight" : "0"
                                  }
                              },
                              {
                                "trackIndex" : 1,
                                "medias" : [
                                  {
                                    "id" : 38,
                                    "_type" : "Callout",
                                    "def" : {
                                      "kind" : "remix",
                                      "shape" : "shape-ellipse",
                                      "style" : "bold",
                                      "fill-color-blue" : {
                                        "type" : "double",
                                        "defaultValue" : 0.235294117647059,
                                        "keyframes" : [
                                          {
                                            "endTime" : 9,
                                            "time" : 0,
                                            "value" : 0.235294117647059,
                                            "duration" : 9
                                          }
                                        ]
                                      },
                                      "fill-color-green" : {
                                        "type" : "double",
                                        "defaultValue" : 0.298039215686275,
                                        "keyframes" : [
                                          {
                                            "endTime" : 9,
                                            "time" : 0,
                                            "value" : 0.298039215686275,
                                            "duration" : 9
                                          }
                                        ]
                                      },
                                      "fill-color-opacity" : 1.0,
                                      "fill-color-red" : {
                                        "type" : "double",
                                        "defaultValue" : 0.905882352941176,
                                        "keyframes" : [
                                          {
                                            "endTime" : 9,
                                            "time" : 0,
                                            "value" : 0.905882352941176,
                                            "duration" : 9
                                          }
                                        ]
                                      },
                                      "height" : {
                                        "type" : "double",
                                        "defaultValue" : 24.4999999997613,
                                        "keyframes" : [
                                          {
                                            "endTime" : 9,
                                            "time" : 0,
                                            "value" : 2232.49999999942,
                                            "duration" : 9
                                          }
                                        ]
                                      },
                                      "stroke-color-blue" : 1.0,
                                      "stroke-color-green" : 1.0,
                                      "stroke-color-opacity" : 1.0,
                                      "stroke-color-red" : 1.0,
                                      "stroke-width" : 0.0,
                                      "width" : {
                                        "type" : "double",
                                        "defaultValue" : 24.4999999997613,
                                        "keyframes" : [
                                          {
                                            "endTime" : 9,
                                            "time" : 0,
                                            "value" : 2232.49999999942,
                                            "duration" : 9
                                          }
                                        ]
                                      },
                                      "horizontal-alignment" : "center",
                                      "stroke-style" : "solid",
                                      "vertical-alignment" : "center",
                                      "textAttributes" : {
                                        "type" : "textAttributeList",
                                        "keyframes" : [
                                          {
                                            "endTime" : 0,
                                            "time" : 0,
                                            "value" : null,
                                            "duration" : 0
                                          }
                                        ]
                                      }
                                    },
                                    "attributes" : {
                                      "autoRotateText" : true
                                    },
                                    "parameters" : {
                                      "translation0" : {
                                        "type" : "double",
                                        "defaultValue" : 0.499999999881766,
                                        "keyframes" : [
                                          {
                                            "endTime" : 9,
                                            "time" : 0,
                                            "value" : 0.499999999881766,
                                            "duration" : 9
                                          }
                                        ]
                                      },
                                      "translation1" : {
                                        "type" : "double",
                                        "defaultValue" : -0.499999999896517,
                                        "keyframes" : [
                                          {
                                            "endTime" : 9,
                                            "time" : 0,
                                            "value" : -0.499999999896517,
                                            "duration" : 9
                                          }
                                        ]
                                      }
                                    },
                                    "effects" : [

                                    ],
                                    "start" : 9,
                                    "duration" : 19,
                                    "mediaStart" : 0,
                                    "mediaDuration" : 19,
                                    "scalar" : 1,
                                    "metadata" : {
                                      "WinSubProjectDisplayName" : "",
                                      "clipSpeedAttribute" : false
                                    },
                                    "animationTracks" : {
                                      "visual" : [
                                        {
                                          "endTime" : 9,
                                          "duration" : 9,
                                          "range" : [ 0, 9]
                                        }
                                      ]
                                    }
                                  },
                                  {
                                    "id" : 39,
                                    "_type" : "Callout",
                                    "def" : {
                                      "kind" : "remix",
                                      "shape" : "shape-rectangle",
                                      "style" : "urban",
                                      "fill-color-blue" : {
                                        "type" : "double",
                                        "defaultValue" : 0.713725490196078,
                                        "keyframes" : [
                                          {
                                            "endTime" : 9,
                                            "time" : 0,
                                            "value" : 0.713725490196078,
                                            "duration" : 9
                                          },
                                          {
                                            "endTime" : 29,
                                            "time" : 20,
                                            "value" : 0.713725490196078,
                                            "duration" : 9
                                          },
                                          {
                                            "endTime" : 49,
                                            "time" : 40,
                                            "value" : 0.713725490196078,
                                            "duration" : 9
                                          },
                                          {
                                            "endTime" : 68,
                                            "time" : 59,
                                            "value" : 0.713725490196078,
                                            "duration" : 9
                                          }
                                        ]
                                      },
                                      "fill-color-green" : {
                                        "type" : "double",
                                        "defaultValue" : 0.349019607843137,
                                        "keyframes" : [
                                          {
                                            "endTime" : 9,
                                            "time" : 0,
                                            "value" : 0.349019607843137,
                                            "duration" : 9
                                          },
                                          {
                                            "endTime" : 29,
                                            "time" : 20,
                                            "value" : 0.349019607843137,
                                            "duration" : 9
                                          },
                                          {
                                            "endTime" : 49,
                                            "time" : 40,
                                            "value" : 0.349019607843137,
                                            "duration" : 9
                                          },
                                          {
                                            "endTime" : 68,
                                            "time" : 59,
                                            "value" : 0.349019607843137,
                                            "duration" : 9
                                          }
                                        ]
                                      },
                                      "fill-color-opacity" : 1.0,
                                      "fill-color-red" : {
                                        "type" : "double",
                                        "defaultValue" : 0.607843137254902,
                                        "keyframes" : [
                                          {
                                            "endTime" : 9,
                                            "time" : 0,
                                            "value" : 0.607843137254902,
                                            "duration" : 9
                                          },
                                          {
                                            "endTime" : 29,
                                            "time" : 20,
                                            "value" : 0.607843137254902,
                                            "duration" : 9
                                          },
                                          {
                                            "endTime" : 49,
                                            "time" : 40,
                                            "value" : 0.607843137254902,
                                            "duration" : 9
                                          },
                                          {
                                            "endTime" : 68,
                                            "time" : 59,
                                            "value" : 0.607843137254902,
                                            "duration" : 9
                                          }
                                        ]
                                      },
                                      "height" : {
                                        "type" : "double",
                                        "defaultValue" : 9.88636363576558,
                                        "keyframes" : [
                                          {
                                            "endTime" : 9,
                                            "time" : 0,
                                            "value" : 326.2499999999,
                                            "duration" : 9
                                          },
                                          {
                                            "endTime" : 68,
                                            "time" : 59,
                                            "value" : 2180.19011804495,
                                            "duration" : 9
                                          }
                                        ]
                                      },
                                      "stroke-color-blue" : 1.0,
                                      "stroke-color-green" : 1.0,
                                      "stroke-color-opacity" : 1.0,
                                      "stroke-color-red" : 1.0,
                                      "stroke-width" : 0.0,
                                      "width" : {
                                        "type" : "double",
                                        "defaultValue" : 10.1953124993756,
                                        "keyframes" : [
                                          {
                                            "endTime" : 9,
                                            "time" : 0,
                                            "value" : 336.445312499645,
                                            "duration" : 9
                                          },
                                          {
                                            "endTime" : 68,
                                            "time" : 59,
                                            "value" : 2248.32105923218,
                                            "duration" : 9
                                          }
                                        ]
                                      },
                                      "horizontal-alignment" : "center",
                                      "stroke-style" : "solid",
                                      "vertical-alignment" : "center",
                                      "textAttributes" : {
                                        "type" : "textAttributeList",
                                        "keyframes" : [
                                          {
                                            "endTime" : 0,
                                            "time" : 0,
                                            "value" : null,
                                            "duration" : 0
                                          }
                                        ]
                                      }
                                    },
                                    "attributes" : {
                                      "autoRotateText" : true
                                    },
                                    "parameters" : {
                                      "translation0" : {
                                        "type" : "double",
                                        "defaultValue" : 0.499999999627445,
                                        "keyframes" : [
                                          {
                                            "endTime" : 9,
                                            "time" : 0,
                                            "value" : 0.499999999627445,
                                            "duration" : 9
                                          },
                                          {
                                            "endTime" : 29,
                                            "time" : 20,
                                            "value" : 0.499999999627445,
                                            "duration" : 9
                                          },
                                          {
                                            "endTime" : 49,
                                            "time" : 40,
                                            "value" : 0.499999999627445,
                                            "duration" : 9
                                          },
                                          {
                                            "endTime" : 68,
                                            "time" : 59,
                                            "value" : 0.499999999627445,
                                            "duration" : 9
                                          }
                                        ]
                                      },
                                      "translation1" : {
                                        "type" : "double",
                                        "defaultValue" : -0.499999999862744,
                                        "keyframes" : [
                                          {
                                            "endTime" : 9,
                                            "time" : 0,
                                            "value" : -0.499999999862744,
                                            "duration" : 9
                                          },
                                          {
                                            "endTime" : 29,
                                            "time" : 20,
                                            "value" : -0.499999999862744,
                                            "duration" : 9
                                          },
                                          {
                                            "endTime" : 49,
                                            "time" : 40,
                                            "value" : -0.499999999862744,
                                            "duration" : 9
                                          },
                                          {
                                            "endTime" : 68,
                                            "time" : 59,
                                            "value" : -0.499999999862744,
                                            "duration" : 9
                                          }
                                        ]
                                      },
                                      "rotation2" : {
                                        "type" : "double",
                                        "defaultValue" : 0.0,
                                        "keyframes" : [
                                          {
                                            "endTime" : 29,
                                            "time" : 20,
                                            "value" : 0.811033571921297,
                                            "duration" : 9
                                          },
                                          {
                                            "endTime" : 49,
                                            "time" : 40,
                                            "value" : 2.33716724905385,
                                            "duration" : 9
                                          }
                                        ]
                                      }
                                    },
                                    "effects" : [

                                    ],
                                    "start" : 28,
                                    "duration" : 270,
                                    "mediaStart" : 0,
                                    "mediaDuration" : 270,
                                    "scalar" : 1,
                                    "metadata" : {
                                      "WinSubProjectDisplayName" : "",
                                      "clipSpeedAttribute" : false
                                    },
                                    "animationTracks" : {
                                      "visual" : [
                                        {
                                          "endTime" : 9,
                                          "duration" : 9,
                                          "range" : [ 0, 9],
                                          "interp" : "linr"
                                        },
                                        {
                                          "endTime" : 29,
                                          "duration" : 9,
                                          "range" : [ 20, 9]
                                        },
                                        {
                                          "endTime" : 49,
                                          "duration" : 9,
                                          "range" : [ 40, 9]
                                        },
                                        {
                                          "endTime" : 68,
                                          "duration" : 9,
                                          "range" : [ 59, 9]
                                        }
                                      ]
                                    }
                                  }
                                ],
                                "transitions" : [
                                  {
                                    "name" : "Fade",
                                    "duration" : 25,
                                    "trivial" : false,
                                    "useAudioPreRoll" : false,
                                    "useVisualPreRoll" : true,
                                    "leftMedia" : 39
                                  }
                                ],
                                  "ident" : "",
                                  "audioMuted" : false,
                                  "videoHidden" : false,
                                  "metadata" : {
                                    "IsLocked" : "False",
                                    "WinTrackHeight" : "0"
                                  }
                              },
                              {
                                "trackIndex" : 2,
                                "medias" : [
                                  {
                                    "id" : 40,
                                    "_type" : "Callout",
                                    "def" : {
                                      "kind" : "remix",
                                      "shape" : "shape-ellipse",
                                      "style" : "bold",
                                      "fill-color-blue" : {
                                        "type" : "double",
                                        "defaultValue" : 0.443137254901961,
                                        "keyframes" : [
                                          {
                                            "endTime" : 9,
                                            "time" : 0,
                                            "value" : 0.443137254901961,
                                            "duration" : 9
                                          }
                                        ]
                                      },
                                      "fill-color-green" : {
                                        "type" : "double",
                                        "defaultValue" : 0.8,
                                        "keyframes" : [
                                          {
                                            "endTime" : 9,
                                            "time" : 0,
                                            "value" : 0.8,
                                            "duration" : 9
                                          }
                                        ]
                                      },
                                      "fill-color-opacity" : 1.0,
                                      "fill-color-red" : {
                                        "type" : "double",
                                        "defaultValue" : 0.180392156862745,
                                        "keyframes" : [
                                          {
                                            "endTime" : 9,
                                            "time" : 0,
                                            "value" : 0.180392156862745,
                                            "duration" : 9
                                          }
                                        ]
                                      },
                                      "height" : {
                                        "type" : "double",
                                        "defaultValue" : 24.4999999997613,
                                        "keyframes" : [
                                          {
                                            "endTime" : 9,
                                            "time" : 0,
                                            "value" : 2232.49999999942,
                                            "duration" : 9
                                          }
                                        ]
                                      },
                                      "stroke-color-blue" : 1.0,
                                      "stroke-color-green" : 1.0,
                                      "stroke-color-opacity" : 1.0,
                                      "stroke-color-red" : 1.0,
                                      "stroke-width" : 0.0,
                                      "width" : {
                                        "type" : "double",
                                        "defaultValue" : 24.4999999997613,
                                        "keyframes" : [
                                          {
                                            "endTime" : 9,
                                            "time" : 0,
                                            "value" : 2232.49999999942,
                                            "duration" : 9
                                          }
                                        ]
                                      },
                                      "horizontal-alignment" : "center",
                                      "stroke-style" : "solid",
                                      "vertical-alignment" : "center",
                                      "textAttributes" : {
                                        "type" : "textAttributeList",
                                        "keyframes" : [
                                          {
                                            "endTime" : 0,
                                            "time" : 0,
                                            "value" : null,
                                            "duration" : 0
                                          }
                                        ]
                                      }
                                    },
                                    "attributes" : {
                                      "autoRotateText" : true
                                    },
                                    "parameters" : {
                                      "translation0" : {
                                        "type" : "double",
                                        "defaultValue" : 0.499999999881766,
                                        "keyframes" : [
                                          {
                                            "endTime" : 9,
                                            "time" : 0,
                                            "value" : 0.499999999881766,
                                            "duration" : 9
                                          }
                                        ]
                                      },
                                      "translation1" : {
                                        "type" : "double",
                                        "defaultValue" : -0.499999999896517,
                                        "keyframes" : [
                                          {
                                            "endTime" : 9,
                                            "time" : 0,
                                            "value" : -0.499999999896517,
                                            "duration" : 9
                                          }
                                        ]
                                      }
                                    },
                                    "effects" : [

                                    ],
                                    "start" : 18,
                                    "duration" : 10,
                                    "mediaStart" : 0,
                                    "mediaDuration" : 10,
                                    "scalar" : 1,
                                    "metadata" : {
                                      "WinSubProjectDisplayName" : "",
                                      "clipSpeedAttribute" : false
                                    },
                                    "animationTracks" : {
                                      "visual" : [
                                        {
                                          "endTime" : 9,
                                          "duration" : 9,
                                          "range" : [ 0, 9]
                                        }
                                      ]
                                    }
                                  }
                                ],
                                  "ident" : "",
                                  "audioMuted" : false,
                                  "videoHidden" : false,
                                  "metadata" : {
                                    "IsLocked" : "False",
                                    "WinTrackHeight" : "0"
                                  }
                              },
                              {
                                "trackIndex" : 3,
                                "medias" : [
                                  {
                                    "id" : 41,
                                    "_type" : "IMFile",
                                    "src" : 3,
                                    "trackNumber" : 0,
                                    "trimStartSum" : 0,
                                    "attributes" : {
                                      "ident" : "Lens-Shadow-001"
                                    },
                                    "parameters" : {
                                      "translation0" : 0.499999999503091,
                                      "translation1" : -0.499999999955975,
                                      "opacity" : 0.5
                                    },
                                    "effects" : [

                                    ],
                                    "start" : 0,
                                    "duration" : 298,
                                    "mediaStart" : 0,
                                    "mediaDuration" : 1,
                                    "scalar" : 1,
                                    "metadata" : {
                                      "WinSubProjectDisplayName" : "",
                                      "clipSpeedAttribute" : false
                                    },
                                    "animationTracks" : {

                                    }
                                  }
                                ],
                                "transitions" : [
                                  {
                                    "name" : "Fade",
                                    "duration" : 25,
                                    "trivial" : false,
                                    "useAudioPreRoll" : false,
                                    "useVisualPreRoll" : true,
                                    "leftMedia" : 41
                                  }
                                ],
                                  "ident" : "",
                                  "audioMuted" : false,
                                  "videoHidden" : false,
                                  "metadata" : {
                                    "IsLocked" : "False",
                                    "WinTrackHeight" : "0"
                                  }
                              }
                            ],
                            "attributes" : {
                              "ident" : "Shapes",
                              "gain" : 1.0,
                              "mixToMono" : false
                            },
                            "effects" : [

                            ],
                            "start" : 0,
                            "duration" : 298,
                            "mediaStart" : 0.0,
                            "mediaDuration" : 298.0,
                            "scalar" : 1,
                            "metadata" : {
                              "IsGroupExpanded" : "False",
                              "WinSubProjectDisplayName" : "Shapes",
                              "clipSpeedAttribute" : false,
                              "effectApplied" : "none",
                              "isOpen" : false
                            },
                            "animationTracks" : {

                            }
                          }
                        ],
                          "ident" : "",
                          "audioMuted" : false,
                          "videoHidden" : false,
                          "metadata" : {
                            "IsLocked" : "False",
                            "WinTrackHeight" : "0"
                          }
                      },
                      {
                        "trackIndex" : 1,
                        "medias" : [
                          {
                            "id" : 42,
                            "_type" : "Callout",
                            "def" : {
                              "kind" : "remix",
                              "shape" : "text",
                              "style" : "bold",
                              "height" : 98.5714285715236,
                              "line-spacing" : 0.0,
                              "width" : 1382.7238043204,
                              "word-wrap" : 1.0,
                              "horizontal-alignment" : "center",
                              "text" : "Creating Purchase Requisitions",
                              "vertical-alignment" : "center",
                              "font" : {
                                "color-blue" : 1.0,
                                "color-green" : 1.0,
                                "color-red" : 1.0,
                                "size" : 96.0,
                                "tracking" : 0.0,
                                "name" : "Source Sans Pro",
                                "weight" : "Semi Bold"
                              },
                              "textAttributes" : {
                                "type" : "textAttributeList",
                                "keyframes" : [
                                  {
                                    "endTime" : 0,
                                    "time" : 0,
                                    "value" : [{"name":"kerning","rangeEnd":30,"rangeStart":0,"value":0,"valueType":"double"},{"name":"underline","rangeEnd":30,"rangeStart":0,"value":0,"valueType":"int"},{"name":"fontName","rangeEnd":30,"rangeStart":0,"value":"Source Sans Pro","valueType":"string"},{"name":"fontWeight","rangeEnd":30,"rangeStart":0,"value":400,"valueType":"int"},{"name":"fontItalic","rangeEnd":30,"rangeStart":0,"value":0,"valueType":"int"},{"name":"fontSize","rangeEnd":30,"rangeStart":0,"value":64,"valueType":"double"},{"name":"fgColor","rangeEnd":30,"rangeStart":0,"value":"(255,255,255,255)","valueType":"color"},{"name":"strikethrough","rangeEnd":30,"rangeStart":0,"value":0,"valueType":"int"}],
                                    "duration" : 0
                                  }
                                ]
                              }
                            },
                            "attributes" : {
                              "autoRotateText" : true
                            },
                            "parameters" : {
                              "translation0" : -0.000899527378171172,
                              "translation1" : -75.7857142858991
                            },
                            "effects" : [
                                {
                                  "_type" : "GenericBehaviorEffect",
                                  "effectName" : "popUp",
                                  "start" : 17,
                                  "duration" : 131                                ,
                                  "in" : {
                                    "attributes" : {
                                      "name" : "hinge",
                                      "type" : 1,
                                      "characterOrder" : 6,
                                      "offsetBetweenCharacters" : "3/2",
                                      "suggestedDurationPerCharacter" : "369/5",
                                      "overlapProportion" : "1/3",
                                      "movement" : 30,
                                      "springDamping" : 5.0,
                                      "springStiffness" : 50.0,
                                      "bounceBounciness" : 0.45
                                    },
                                    "parameters" : {
                                      "direction" : {
                                        "type" : "int",
                                        "valueBounds" : {
                                          "minValue" : 0,
                                          "maxValue" : 3,
                                          "defaultValue" : 3
                                        },
                                        "uiHints" : {
                                          "userInterfaceType" : 2,
                                          "unitType" : 0
                                        },
                                        "keyframes" : [
                                          {
                                            "endTime" : 0,
                                            "time" : 0,
                                            "value" : 3,
                                            "duration" : 0
                                          }
                                        ]
                                      }
                                    }
                                  
                                  },
                                  "center" : {
                                    "attributes" : {
                                      "name" : "none",
                                      "type" : 1,
                                      "characterOrder" : 6,
                                      "offsetBetweenCharacters" : 0,
                                      "secondsPerLoop" : 1,
                                      "numberOfLoops" : -1,
                                      "delayBetweenLoops" : 0,
                                      "offsetBetweenCharacters" : 0
                                    }
                                  
                                  },
                                  "out" : {
                                    "attributes" : {
                                      "name" : "hinge",
                                      "type" : 1,
                                      "characterOrder" : 6,
                                      "offsetBetweenCharacters" : "3/2",
                                      "suggestedDurationPerCharacter" : 20,
                                      "overlapProportion" : "1/2",
                                      "movement" : 7,
                                      "springDamping" : 5.0,
                                      "springStiffness" : 50.0,
                                      "bounceBounciness" : 0.45
                                    },
                                    "parameters" : {
                                      "direction" : {
                                        "type" : "int",
                                        "valueBounds" : {
                                          "minValue" : 0,
                                          "maxValue" : 3,
                                          "defaultValue" : 3
                                        },
                                        "uiHints" : {
                                          "userInterfaceType" : 2,
                                          "unitType" : 0
                                        },
                                        "keyframes" : [
                                          {
                                            "endTime" : 0,
                                            "time" : 0,
                                            "value" : 3,
                                            "duration" : 0
                                          }
                                        ]
                                      }
                                    }
                                  
                                  }
                                }
                            ],
                            "start" : 119,
                            "duration" : 131,
                            "mediaStart" : 17,
                            "mediaDuration" : 131,
                            "scalar" : 1,
                            "metadata" : {
                              "WinSubProjectDisplayName" : "",
                              "clipSpeedAttribute" : false,
                              "default-HAlign" : "center",
                              "default-LineSpace" : 0.0,
                              "default-VAlign" : "center",
                              "default-text-attributes" : "[{\"name\":\"strikethrough\",\"rangeEnd\":8,\"rangeStart\":0,\"value\":0,\"valueType\":\"int\"},{\"name\":\"fgColor\",\"rangeEnd\":8,\"rangeStart\":0,\"value\":\"(255,255,255,255)\",\"valueType\":\"color\"},{\"name\":\"fontName\",\"rangeEnd\":8,\"rangeStart\":0,\"value\":\"Source Sans Pro\",\"valueType\":\"string\"},{\"name\":\"underline\",\"rangeEnd\":8,\"rangeStart\":0,\"value\":0,\"valueType\":\"int\"},{\"name\":\"fontWeight\",\"rangeEnd\":8,\"rangeStart\":0,\"value\":100,\"valueType\":\"int\"},{\"name\":\"fontItalic\",\"rangeEnd\":8,\"rangeStart\":0,\"value\":0,\"valueType\":\"int\"},{\"name\":\"fontSize\",\"rangeEnd\":8,\"rangeStart\":0,\"value\":64,\"valueType\":\"double\"}]",
                              "effectApplied" : "none"
                            },
                            "animationTracks" : {

                            }
                          }
                        ],
                          "ident" : "",
                          "audioMuted" : false,
                          "videoHidden" : false,
                          "metadata" : {
                            "IsLocked" : "False",
                            "WinTrackHeight" : "1.03398010204089e-311"
                          }
                      },
                      {
                        "trackIndex" : 2,
                        "medias" : [
                          {
                            "id" : 43,
                            "_type" : "Callout",
                            "def" : {
                              "kind" : "remix",
                              "shape" : "text",
                              "style" : "bold",
                              "height" : 172.857142857204,
                              "line-spacing" : 0.0,
                              "width" : 1382.44576014776,
                              "word-wrap" : 1.0,
                              "horizontal-alignment" : "center",
                              "text" : "Unit 7 - Lesson 5",
                              "vertical-alignment" : "center",
                              "font" : {
                                "color-blue" : 1.0,
                                "color-green" : 1.0,
                                "color-red" : 1.0,
                                "size" : 96.0,
                                "tracking" : 0.0,
                                "name" : "Source Sans Pro",
                                "weight" : "Semi Bold"
                              },
                              "textAttributes" : {
                                "type" : "textAttributeList",
                                "keyframes" : [
                                  {
                                    "endTime" : 0,
                                    "time" : 0,
                                    "value" : [{"name":"fgColor","rangeEnd":17,"rangeStart":0,"value":"(255,255,255,255)","valueType":"color"},{"name":"kerning","rangeEnd":17,"rangeStart":0,"value":0,"valueType":"double"},{"name":"fontItalic","rangeEnd":17,"rangeStart":0,"value":0,"valueType":"int"},{"name":"fontWeight","rangeEnd":17,"rangeStart":0,"value":400,"valueType":"int"},{"name":"fontName","rangeEnd":17,"rangeStart":0,"value":"Source Sans Pro","valueType":"string"},{"name":"strikethrough","rangeEnd":17,"rangeStart":0,"value":0,"valueType":"int"},{"name":"underline","rangeEnd":17,"rangeStart":0,"value":0,"valueType":"int"},{"name":"fontSize","rangeEnd":17,"rangeStart":0,"value":133,"valueType":"double"}],
                                    "duration" : 0
                                  }
                                ]
                              }
                            },
                            "attributes" : {
                              "autoRotateText" : true
                            },
                            "parameters" : {
                              "translation0" : 0.277119926386471,
                              "translation1" : 42.4999999998856
                            },
                            "effects" : [
                                {
                                  "_type" : "GenericBehaviorEffect",
                                  "effectName" : "popUp",
                                  "start" : 0,
                                  "duration" : 166                                ,
                                  "in" : {
                                    "attributes" : {
                                      "name" : "hinge",
                                      "type" : 1,
                                      "characterOrder" : 6,
                                      "offsetBetweenCharacters" : "3/2",
                                      "suggestedDurationPerCharacter" : "369/5",
                                      "overlapProportion" : "1/3",
                                      "movement" : 30,
                                      "springDamping" : 5.0,
                                      "springStiffness" : 50.0,
                                      "bounceBounciness" : 0.45
                                    },
                                    "parameters" : {
                                      "direction" : {
                                        "type" : "int",
                                        "valueBounds" : {
                                          "minValue" : 0,
                                          "maxValue" : 3,
                                          "defaultValue" : 3
                                        },
                                        "uiHints" : {
                                          "userInterfaceType" : 2,
                                          "unitType" : 0
                                        },
                                        "keyframes" : [
                                          {
                                            "endTime" : 0,
                                            "time" : 0,
                                            "value" : 3,
                                            "duration" : 0
                                          }
                                        ]
                                      }
                                    }
                                  
                                  },
                                  "center" : {
                                    "attributes" : {
                                      "name" : "none",
                                      "type" : 1,
                                      "characterOrder" : 6,
                                      "offsetBetweenCharacters" : 0,
                                      "secondsPerLoop" : 1,
                                      "numberOfLoops" : -1,
                                      "delayBetweenLoops" : 0,
                                      "offsetBetweenCharacters" : 0
                                    }
                                  
                                  },
                                  "out" : {
                                    "attributes" : {
                                      "name" : "hinge",
                                      "type" : 1,
                                      "characterOrder" : 6,
                                      "offsetBetweenCharacters" : "3/2",
                                      "suggestedDurationPerCharacter" : 20,
                                      "overlapProportion" : "1/2",
                                      "movement" : 7,
                                      "springDamping" : 5.0,
                                      "springStiffness" : 50.0,
                                      "bounceBounciness" : 0.45
                                    },
                                    "parameters" : {
                                      "direction" : {
                                        "type" : "int",
                                        "valueBounds" : {
                                          "minValue" : 0,
                                          "maxValue" : 3,
                                          "defaultValue" : 3
                                        },
                                        "uiHints" : {
                                          "userInterfaceType" : 2,
                                          "unitType" : 0
                                        },
                                        "keyframes" : [
                                          {
                                            "endTime" : 0,
                                            "time" : 0,
                                            "value" : 3,
                                            "duration" : 0
                                          }
                                        ]
                                      }
                                    }
                                  
                                  }
                                }
                            ],
                            "start" : 102,
                            "duration" : 166,
                            "mediaStart" : 0,
                            "mediaDuration" : 166,
                            "scalar" : 1,
                            "metadata" : {
                              "WinSubProjectDisplayName" : "",
                              "clipSpeedAttribute" : false,
                              "default-HAlign" : "center",
                              "default-LineSpace" : 0.0,
                              "default-VAlign" : "center",
                              "default-text-attributes" : "[{\"name\":\"fontItalic\",\"rangeEnd\":9,\"rangeStart\":0,\"value\":0,\"valueType\":\"int\"},{\"name\":\"fontName\",\"rangeEnd\":9,\"rangeStart\":0,\"value\":\"Source Sans Pro\",\"valueType\":\"string\"},{\"name\":\"underline\",\"rangeEnd\":9,\"rangeStart\":0,\"value\":0,\"valueType\":\"int\"},{\"name\":\"fgColor\",\"rangeEnd\":9,\"rangeStart\":0,\"value\":\"(255,255,255,255)\",\"valueType\":\"color\"},{\"name\":\"fontWeight\",\"rangeEnd\":9,\"rangeStart\":0,\"value\":100,\"valueType\":\"int\"},{\"name\":\"fontSize\",\"rangeEnd\":9,\"rangeStart\":0,\"value\":133,\"valueType\":\"double\"},{\"name\":\"strikethrough\",\"rangeEnd\":9,\"rangeStart\":0,\"value\":0,\"valueType\":\"int\"}]",
                              "effectApplied" : "none"
                            },
                            "animationTracks" : {

                            }
                          }
                        ],
                          "ident" : "",
                          "audioMuted" : false,
                          "videoHidden" : false,
                          "metadata" : {
                            "IsLocked" : "False",
                            "WinTrackHeight" : "1.03398010204089e-311"
                          }
                      }
                    ],
                    "attributes" : {
                      "ident" : "ripples",
                      "gain" : 1.0,
                      "mixToMono" : false,
                      "assetProperties" : [
                        {
                          "type" : 0,
                          "name" : "Title ",
                          "objects" : [ 43 ],
                          "themeMappings" :  {
                            "font-color" : "foreground-1",
                            "font-family" : "font-1"
                          }
                        },
                        {
                          "type" : 0,
                          "name" : "Subtitle",
                          "objects" : [ 42 ],
                          "themeMappings" :  {
                            "font-color" : "foreground-1",
                            "font-family" : "font-1"
                          }
                        },
                        {
                          "type" : 1,
                          "name" : "Color ",
                          "objects" : [ 39 ],
                          "themeMappings" :  {
                            "fill" : "background-1"
                          }
                        }
                      ]
                    },
                    "effects" : [

                    ],
                    "start" : 0,
                    "duration" : 298,
                    "mediaStart" : 0.0,
                    "mediaDuration" : 298.0,
                    "scalar" : 1,
                    "metadata" : {
                      "AppliedThemeId" : "",
                      "IsGroupExpanded" : "False",
                      "WinSubProjectDisplayName" : "",
                      "clipSpeedAttribute" : false,
                      "effectApplied" : "none",
                      "isOpen" : false
                    },
                    "animationTracks" : {

                    }
                  }
                ]
              },
              {
                "trackIndex" : 3,
                "medias" : [
                  {
                    "id" : 44,
                    "_type" : "AMFile",
                    "src" : 2,
                    "trackNumber" : 0,
                    "attributes" : {
                      "ident" : "05 Good Life",
                      "sampleRate" : 44100,
                      "bitDepth" : 16,
                      "gain" : 1.0,
                      "mixToMono" : false
                    },
                      "channelNumber" : "0,1",
                    "parameters" : {
                      "volume" : {
                        "type" : "double",
                        "keyframes" : [
                          {
                            "endTime" : 0,
                            "time" : 0,
                            "value" : 0.576923076923077,
                            "duration" : 0
                          },
                          {
                            "endTime" : 206,
                            "time" : 206,
                            "value" : 0.576923076923077,
                            "duration" : 0
                          },
                          {
                            "endTime" : 296,
                            "time" : 296,
                            "value" : 0.0,
                            "duration" : 0
                          },
                          {
                            "endTime" : 297,
                            "time" : 297,
                            "value" : 0.576923076923077,
                            "duration" : 0
                          }
                        ]
                      }
                    },
                    "effects" : [

                    ],
                    "start" : 0,
                    "duration" : 296,
                    "mediaStart" : 0,
                    "mediaDuration" : 296,
                    "scalar" : 1,
                    "metadata" : {
                      "WinSubProjectDisplayName" : "",
                      "clipSpeedAttribute" : false
                    },
                    "animationTracks" : {

                    }
                  }
                ]
              },
              {
                "trackIndex" : 4,
                "medias" : [
                ]
              }
            ]
          }
        }
      ]
    },
    "trackAttributes" : [
      {
        "ident" : "",
        "audioMuted" : false,
        "videoHidden" : false,
        "metadata" : {
          "IsLocked" : "False",
          "WinTrackHeight" : "56"
        }
      },
      {
        "ident" : "",
        "audioMuted" : false,
        "videoHidden" : false,
        "metadata" : {
          "IsLocked" : "False",
          "WinTrackHeight" : "56"
        }
      },
      {
        "ident" : "",
        "audioMuted" : false,
        "videoHidden" : false,
        "metadata" : {
          "IsLocked" : "False",
          "WinTrackHeight" : "56"
        }
      },
      {
        "ident" : "",
        "audioMuted" : false,
        "videoHidden" : false,
        "metadata" : {
          "IsLocked" : "False",
          "WinTrackHeight" : "56"
        }
      },
      {
        "ident" : "",
        "audioMuted" : false,
        "videoHidden" : false,
        "metadata" : {
          "IsLocked" : "False",
          "WinTrackHeight" : "56"
        }
      }
    ],
    "captionAttributes" : {
      "enabled" : true,
      "fontName" : "Arial",
      "fontSize" : 64,
      "backgroundColor" : [ 0, 0, 0, 191],
      "foregroundColor" : [ 255, 255, 255, 255],
      "lang" : "en",
      "alignment" : 0,
      "defaultFontSize" : true,
      "opacity" : 0.5,
      "backgroundEnabled" : true,
      "backgroundOnlyAroundText" : true
    },
    "backgroundColor" : [ 0, 0, 0, 255]
  },
  "metadata" : {
    "AutoSaveFile" : "C:\\Users\\rhigh\\AppData\\Local\\TechSmith\\Camtasia Studio\\19.0\\Auto-Saves\\Untitled Project1f169c9a.autosave.tscproj",
    "CanvasZoom" : 49,
    "Date" : "2019-05-03 10:07:15 AM",
    "IsAutoSave" : "0",
    "Language" : "ENU",
    "ProfileName" : "MP4 only (up to 720p)",
    "ProjectDimensionsChanged" : "1",
    "Title" : "Purchase Requisitions",
    "audioNarrationNotes" : ""
  }
}
